<?xml version="1.0" encoding="utf-8"?>
<!-- Generator: Adobe Illustrator 22.1.0, SVG Export Plug-In . SVG Version: 6.00 Build 0)  -->
<svg version="1.1" xmlns="http://www.w3.org/2000/svg" xmlns:xlink="http://www.w3.org/1999/xlink" x="0px" y="0px"
	 viewBox="0 0 1115.9 984" style="enable-background:new 0 0 1115.9 984;" xml:space="preserve">
<style type="text/css">
	.st0{opacity:0.21;fill:#7149D0;}
	.st1{opacity:0.33;fill:#5C15AE;}
	.st2{fill:#472389;}
	.st3{fill:#300C6D;}
	.st4{fill:url(#SVGID_1_);}
	.st5{fill:url(#SVGID_2_);}
	.st6{fill:#FFFFFF;}
	.st7{fill:#FF8F61;}
	.st8{fill:#4D5068;}
	.st9{opacity:0.3;}
	.st10{fill:url(#SVGID_3_);}
	.st11{fill:#2C41D0;}
	.st12{fill:#FF8832;}
	.st13{fill:url(#SVGID_4_);}
	.st14{fill:url(#SVGID_5_);}
	.st15{opacity:0.15;}
	.st16{fill:#191C3C;}
	.st17{opacity:0.2;}
	.st18{fill:url(#SVGID_6_);}
	.st19{fill:url(#SVGID_7_);}
	.st20{fill:url(#SVGID_8_);}
	.st21{fill:#FFC14D;}
	.st22{fill:#FE602B;}
	.st23{opacity:0.2;fill:#1B1464;}
	.st24{fill:#FF9B74;}
	.st25{fill:url(#SVGID_9_);}
	.st26{fill:url(#SVGID_10_);}
	.st27{fill:url(#SVGID_11_);}
	.st28{fill:#CC3C3B;}
	.st29{fill:url(#SVGID_12_);}
	.st30{fill:#FF3B7C;}
	.st31{fill:url(#SVGID_13_);}
	.st32{fill:url(#SVGID_14_);}
	.st33{fill:#D3145A;}
	.st34{fill:url(#SVGID_15_);}
	.st35{fill:url(#SVGID_16_);}
	.st36{fill:url(#SVGID_17_);}
	.st37{opacity:0.18;}
	.st38{fill:url(#SVGID_18_);}
	.st39{fill:none;stroke:#FF3B7C;stroke-width:2;stroke-linecap:round;stroke-miterlimit:10;}
</style>
<g id="BG_x27_">
	<path class="st0" d="M895,217.9c3.9-30.2,36.9-82.2,5.9-107c-18.2-14.6-47.2-15.9-68.8-10c-22.2,6.1-41.7,19.4-60.9,31.6
		c-19.7,12.6-40.3,25.3-63.7,29.5c-26.4,4.7-51.6-3.8-74.9-15.8c-19.9-10.2-40.3-24.8-63.5-25.4c-29.7-0.7-55.2,22.5-73,43.9
		c-20.6,24.9-37.2,51.9-65.1,69.6c-29.2,18.5-63.1,27.9-96.7,34.8c-61,12.4-124.9,14.5-183.3,37.6C97.6,327.6,41.4,372,41.4,434.4
		c0,26.1,10.7,51.1,27.5,70.8c17.6,20.7,39.6,31.5,64,42.4c21.7,9.7,50.8,20.5,62,43.4c14.7,30.1-14.9,64.7-33.3,85.9
		C137,705.4,109,731.2,85.7,761c-20.9,26.8-38.4,59.4-28.7,94.3c8.5,30.9,33.1,57.4,64,66.2c33.6,9.6,70.1,1.4,102.4-9.3
		c35.7-11.8,69.5-28.6,104.8-41.4c30.5-11.1,63-16.9,95.5-16.8c73.6,0.2,146.6,19.7,215.8,43.1c69.6,23.5,142.3,50.3,217.1,42.3
		c53-5.7,128.4-35.3,138.7-95.7c4.8-28.2-10.3-56.7-32.3-73.6c-20.9-16-47-22.4-71.4-31.1c-24.5-8.7-49.5-20.8-63-44.3
		c-12.9-22.3-12.7-49.5-6.5-73.9c6.5-25.9,19.4-50.6,36.5-71c19.1-22.8,44.5-29.4,72.9-32.9c26.8-3.3,54.1-6.7,73.5-27.6
		c20.2-21.7,25.6-52.4,22.2-81c-3.4-28.9-14.6-58-33.4-80.5c-18.4-22-43.5-33.9-66.6-50.1C906.8,263.4,891.6,244.3,895,217.9z"/>
	<path class="st0" d="M651.6,186.9c-25.1-14.7-52.5-31.3-82.6-27.4c-27.9,3.6-50.4,24.3-65.3,46.8c-15.1,22.8-24.9,48.5-41.5,71.4
		c-28.5,39.4-77,68.1-128.5,75.3c-36,5-72.3,0-108.9,6.7c-36.9,6.7-77.6,31.6-82.5,65.8c-4.3,30.7,21.6,54.2,48.2,69.9
		c26.6,15.7,57.3,29.5,70,57c16.5,35.8-3.6,82.4-30.4,119.9c-27.3,38.2-62.5,74.3-79.5,118.4c-8.2,21.5-11.4,46,0,62.9
		c11,16.5,33.5,21.9,55.2,19.9c21.6-2.1,42.9-10.5,64-17.6c125.5-42.5,255.4-41.8,364.9,0.5c33.1,12.8,65.4,29.4,101.1,31.6
		c35.5,2.1,76-14.8,90.4-49.8c12.1-29.3,2.7-62.4-12.2-88.1c-14.8-25.5-34.8-47.4-46.7-74.1c-23.3-52.2-9.7-119.1,31.2-158.4
		c25.9-24.9,59.8-38.4,88.5-58.2c28.3-19.5,53.1-50.2,48.1-83.3c-7.2-47.6-72.5-77.9-65.9-124.1c2.9-20.5,20.5-38.6,15.8-58.5
		c-4-17-23.8-27.8-42.3-28c-18.6-0.2-35.9,8-51.9,17c-20.1,11.4-39.9,24.8-64.4,26.6C698.7,211,674.6,200.4,651.6,186.9z"/>
	<path class="st0" d="M919.5,564.4c-11.6-7.8-26.6-13.7-39.2-7.8c-15.7,7.4-18.7,27.7-24.1,44.2c-4.3,13.3-11.4,25.6-17.1,38.4
		c-5.8,12.8-10.3,26.6-9.2,40.6c1.1,14,9,28.1,22.1,33.3c13.1,5.1,30.6-1.9,33.6-15.6c1.2-5.6,0.2-11.7,2.5-16.9
		c3.1-7,11.3-10.3,18.8-11c26.9-2.6,53.6-8.3,56.8-41.9C966.1,602.4,938.4,577.2,919.5,564.4z"/>
	<path class="st1" d="M172.7,817.3c0.5,14.6,12.6,26.8,26.3,31.5c13.8,4.7,28.9,3.3,43.2,0.8c42.3-7.5,82.4-24.3,122-41.1
		c2.2-0.9,4.5-1.9,6.1-3.8c3.7-4.4,0.9-11.7-4-14.7c-4.9-3-11-3-16.8-2.9c-36.4,0.6-72.7,1.2-109.1,1.8
		C221.5,789.2,169.7,784.1,172.7,817.3z"/>
	<path class="st1" d="M679.1,770.2c26.9,2,54.1,14.2,68.8,36.8c7.8,12,11.4,28.9,2.6,40.3c-8.6,11.3-25.4,12.4-39.2,9.2
		c-31.5-7.2-58-30.5-90-35c-10.7-1.5-27.1-1.5-32.3-13.5c-4.2-9.7,3.3-16.5,11-21.5C621.6,772.2,653.9,768.2,679.1,770.2z"/>
</g>
<g id="mownica">
	<rect x="390.8" y="431.1" class="st2" width="198" height="63.1"/>
	<polygon class="st3" points="577.6,506.7 402,506.7 390.8,494.1 588.8,494.1 	"/>
	<rect x="400.6" y="436.9" class="st3" width="178.3" height="52.6"/>
	<rect x="406.6" y="441.3" class="st2" width="166.4" height="43.8"/>
	<rect x="414.6" y="499.1" class="st2" width="150.5" height="285"/>
	<rect x="428.9" y="510.1" class="st3" width="121.7" height="263"/>
	<rect x="435.6" y="515.4" class="st2" width="108.3" height="252.4"/>
	<rect x="442.6" y="522.4" class="st3" width="94.4" height="238.4"/>
	<rect x="447.8" y="526.5" class="st2" width="84" height="230.2"/>
	<linearGradient id="SVGID_1_" gradientUnits="userSpaceOnUse" x1="400.2406" y1="813.5585" x2="579.3368" y2="813.5585">
		<stop  offset="0" style="stop-color:#FF9834"/>
		<stop  offset="0.9976" style="stop-color:#FFC14D"/>
	</linearGradient>
	<rect x="400.2" y="784.1" class="st4" width="179.1" height="58.9"/>
	<rect x="409.1" y="789.3" class="st3" width="161.3" height="47.6"/>
	<linearGradient id="SVGID_2_" gradientUnits="userSpaceOnUse" x1="414.5566" y1="813.1334" x2="565.0208" y2="813.1334">
		<stop  offset="2.415459e-03" style="stop-color:#FFC14D"/>
		<stop  offset="1" style="stop-color:#FF9834"/>
	</linearGradient>
	<rect x="414.6" y="793.3" class="st5" width="150.5" height="39.6"/>
	<g>
		<path class="st3" d="M566,431.1h-2v-33.8c0-8.8-3.4-17-9.6-23.2l-28.9-28.9l1.4-1.4l28.9,28.9c6.6,6.6,10.2,15.3,10.2,24.6V431.1z
			"/>
	</g>
	
		<ellipse transform="matrix(0.7071 -0.7071 0.7071 0.7071 -89.471 472.9924)" class="st3" cx="526.2" cy="344.5" rx="3.6" ry="7.2"/>
	<rect x="413.6" y="443.5" class="st3" width="152.5" height="39.4"/>
	<rect x="418.7" y="446.8" class="st2" width="142.2" height="32.8"/>
</g>
<g id="chłop">
	<g>
		<g>
			<g>
				<polygon class="st6" points="229.5,494.1 335.5,494.1 335.5,339.2 291.7,293.2 229.5,305.6 				"/>
			</g>
			<g>
				<polygon class="st3" points="335.5,466.5 324.2,645.7 311.3,787.7 277.2,787.7 282.5,648.3 277.2,525.8 260.4,655.5 
					265.4,787.7 230.6,787.7 224.8,655.5 221.6,466.5 				"/>
			</g>
			<g>
				
					<rect x="229.3" y="466.5" transform="matrix(-1 -4.488910e-11 4.488910e-11 -1 564.8318 942.3338)" class="st2" width="106.2" height="9.4"/>
			</g>
			<g>
				<polygon class="st7" points="254,301.6 272.9,315.4 291.7,301.6 291.7,270 254,270 				"/>
			</g>
			<g>
				<g>
					<path class="st8" d="M298.5,269.8c0,0,0-0.1,0.1-0.1c0.1-0.1,0.2-0.1,0.3-0.2L298.5,269.8z"/>
				</g>
			</g>
			<path class="st0" d="M256.8,322.8c0,0,10.3,111.5,12.2,120.9s-3,15.2-3,15.2s15,3.3,21.5,0.2c15.3-7.2,23.6-32.1,26.1-54.6
				c3.6-32.5-9.3-73.2-16.8-94.2c32.9,27.4,32.9,156.1,32.9,156.1h-77.3L256.8,322.8z"/>
			<g class="st9">
				<path class="st7" d="M291.7,291.1c-2.1,1.1-4.3,1.8-6.7,1.8h-4.1c-4.8,0-9.5-1.5-13.4-4.4l-3.6-2.7c-5-3.7-8.5-9.2-9.8-15.2V270
					h37.7V291.1z"/>
			</g>
			<g>
				<linearGradient id="SVGID_3_" gradientUnits="userSpaceOnUse" x1="291.7253" y1="399.9342" x2="450.3469" y2="399.9342">
					<stop  offset="2.415459e-03" style="stop-color:#FFC14D"/>
					<stop  offset="1" style="stop-color:#FF9834"/>
				</linearGradient>
				<path class="st10" d="M291.7,293.2l18.6,12.8l17.4,2.8c3.2,0.5,6.2,2.1,8.4,4.5l47.7,51.3c3.6,3.9,9.4,4.8,14.1,2.3l41.8-22.7
					l10.6,18.8l-49.7,38.6c-5.6,4.4-13.3,4.9-19.5,1.4l-29.6-23.6l-7.1,34.8l16.9,92.5l-35.1-22.2c-12.1-7.7-17.4-22.4-13.3-36.2
					c9.8-33,14.1-87.1-21.2-146.7V293.2z"/>
				<g>
					<path class="st11" d="M315,440.7c9.5-33.1,13.2-86.6-21.6-145.4v-1l-1.7-1.2v8.4C324.4,356.8,323.1,407.4,315,440.7z"/>
					<path class="st12" d="M402.3,395.3c-5.6,4.4-13.3,4.9-19.5,1.4l-19-15.2c-4.4-3.5-7.3-8.5-8.2-14l-0.6-3.4l-3.2,15.6l29.3,23.4
						c6.2,3.5,13.9,3,19.5-1.4l49.7-38.6l-2-3.5L402.3,395.3z"/>
				</g>
			</g>
			<g>
				<linearGradient id="SVGID_4_" gradientUnits="userSpaceOnUse" x1="442.0425" y1="344.3704" x2="509.9745" y2="344.3704">
					<stop  offset="0" style="stop-color:#FFC99C"/>
					<stop  offset="0.2995" style="stop-color:#FFB07B"/>
					<stop  offset="1" style="stop-color:#FF8F61"/>
				</linearGradient>
				<path class="st13" d="M449.3,361.2l7.6-5.8l29,1.9l16.5-5.5l7.6-7.6l0,0c-1.8-2.5-5.4-3.1-7.9-1.3l-4.6,3.3l-22.2-0.2
					c-2.5,0.2-4.9-1-6.1-3.2l-0.3-0.5l8.9-5.5c3.3-2.7,3.2-6.9-0.3-9.3l0,0l-28,15.7l-7.3,5L449.3,361.2z"/>
			</g>
			<g>
				<linearGradient id="SVGID_5_" gradientUnits="userSpaceOnUse" x1="227.023" y1="327.637" x2="224.3563" y2="491.637">
					<stop  offset="2.415459e-03" style="stop-color:#FFC14D"/>
					<stop  offset="1" style="stop-color:#FF9834"/>
				</linearGradient>
				<path class="st14" d="M254,284.6l-15.8,17l-46.1,16.3l25.4,88.4l-28.3,96.4l31.9-7.4c22.6-5.3,38.7-25.1,39.2-48.3
					C260.9,415,260.2,362.4,254,284.6z"/>
			</g>
			<g>
				<polygon class="st2" points="272.9,315.4 287.4,330.2 296.6,310.3 291.7,301.6 				"/>
			</g>
			<g>
				<polygon class="st2" points="272.9,315.4 265.9,330.2 256.8,322.8 255.4,302.6 				"/>
			</g>
			<g class="st15">
				<g>
					<path class="st16" d="M281.8,567.1c-1,10.4-0.3,20.9,0.1,31.3c-0.4-2-0.8-4.1-1.1-6.1C279.8,583.9,280.8,575.4,281.8,567.1z"/>
				</g>
			</g>
			<g>
				<path class="st12" d="M260.2,447c0,1.1-0.1,2.2-0.2,3.2l-0.3,2.5c0,0.2-0.1,0.4-0.1,0.7l-23.7-125.9l8.6-12.1l-12.3-7l21.7-23.8
					C260.2,362.4,260.9,415,260.2,447z"/>
			</g>
			<g>
				<path class="st12" d="M321.2,319.6c0,0,23.4,44.5-8.3,128.7c9.8-33,14.1-87.1-21.2-146.7v-8.4l18.6,12.8l-7.7,4.6L321.2,319.6z"
					/>
			</g>
			<g class="st17">
				<g>
					<path class="st16" d="M416.4,356.9c0.3,0.2,0.5,0.4,0.8,0.6c-1.9,0.6-3.7,1.3-5.6,2L416.4,356.9z"/>
				</g>
			</g>
			<g>
				<path class="st6" d="M274.6,479.2h23.1c1.9,0,3.4-1.5,3.4-3.4v-9.2c0-1.9-1.5-3.4-3.4-3.4h-23.1c-1.9,0-3.4,1.5-3.4,3.4v9.2
					C271.2,477.6,272.7,479.2,274.6,479.2z"/>
			</g>
			<polygon class="st12" points="211.1,384.2 217.4,406.3 189.1,502.7 224.8,407.8 			"/>
		</g>
		<g>
			<path class="st0" d="M284.8,457.8c-0.1,0-0.2,0-0.3,0c-0.5-0.2-0.8-0.7-0.6-1.2c7-22.5,3.7-48.6,0.6-66.3c-1-5.5-2-11.4-3.1-17.4
				c-3.2-17.7-6.6-36-8.6-52.1c-0.1-0.5,0.3-1,0.8-1.1c0.5-0.1,1,0.3,1.1,0.8c2,16.1,5.4,34.3,8.6,52c1.1,6,2.2,11.8,3.2,17.4
				c3.2,17.9,6.5,44.4-0.6,67.2C285.5,457.5,285.2,457.8,284.8,457.8z"/>
		</g>
		<linearGradient id="SVGID_6_" gradientUnits="userSpaceOnUse" x1="312.3323" y1="421.0104" x2="310.4165" y2="446.6345">
			<stop  offset="0" style="stop-color:#FFC99C"/>
			<stop  offset="0.2995" style="stop-color:#FFB07B"/>
			<stop  offset="1" style="stop-color:#FF8F61"/>
		</linearGradient>
		<path class="st18" d="M339.2,426.3l-10.6,2.6L317,428c14.4-5.3,9.8-10.8,9.8-11c-13.6,2.7-34.7,3.8-38,6.1c-2.2,0-4.3,0-6.3,0
			v14.5c1.5-0.1,3-0.2,4.6-0.3c2.4,3.9,6.2,7.3,10,9.4l0,0c0,0,0,0,0,0c0.2,0.1,12,1.4,14.8,1.5c4.3,0.2,29-15.4,29.4-17.1
			C342,428.1,339.2,426.3,339.2,426.3z"/>
		<linearGradient id="SVGID_7_" gradientUnits="userSpaceOnUse" x1="291.0102" y1="558.701" x2="293.4192" y2="732.6306">
			<stop  offset="0" style="stop-color:#300C6D"/>
			<stop  offset="1" style="stop-color:#472389"/>
		</linearGradient>
		<polygon class="st19" points="302.5,526.9 309.4,656.7 302.4,787.7 277.1,785.9 282.5,648.3 277.2,528.8 		"/>
		<linearGradient id="SVGID_8_" gradientUnits="userSpaceOnUse" x1="231.8069" y1="532.5424" x2="234.2599" y2="709.6484">
			<stop  offset="0" style="stop-color:#300C6D"/>
			<stop  offset="1" style="stop-color:#472389"/>
		</linearGradient>
		<polygon class="st20" points="222.6,522.4 224.8,650.2 230.6,787.7 244,787.7 237.3,650.2 240.8,526.9 		"/>
		<path class="st21" d="M192.1,317.9l-29.4,93.6c-1.1,3.4-1.1,7.1,0,10.5l4,12.5c2.3,7.1,8.9,12,16.4,12h89.7l4.2-27.8l-73-8.3
			l8.5-22L192.1,317.9z"/>
		<polygon class="st2" points="276.9,420 291.7,421.2 290.2,443.7 273.3,443.7 		"/>
		<polygon class="st2" points="222.1,495 189.1,502.7 222.3,510.1 		"/>
		<polygon class="st2" points="334.1,489.4 361.4,506.7 332.9,508.9 		"/>
		<polygon class="st22" points="440.8,346.1 450.3,363 456.5,358.2 447.6,339.6 		"/>
		<path class="st12" d="M190.8,441.3c-7.5,0-14.1-4.8-16.4-12l-4-12.5c-1.1-3.4-1.1-7.1,0-10.5l16.1-70.6l-23.8,75.8
			c-1.1,3.4-1.1,7.1,0,10.5l4,12.5c2.3,7.1,8.9,12,16.4,12h89.7l0.8-5.2H190.8z"/>
		<g>
			<path class="st23" d="M272.5,262.4c-0.7,0-1.3,0.1-2,0.1c-0.2,0-0.4,0.1-0.6,0.1c-0.4,0.1-0.9,0.2-1.3,0.3
				c-0.2,0.1-0.4,0.1-0.6,0.2c-0.4,0.1-0.9,0.3-1.3,0.4c-0.2,0.1-0.3,0.1-0.5,0.2c-0.5,0.2-1.1,0.5-1.6,0.8c0,0-0.1,0-0.1,0
				c-0.6,0.3-1.1,0.7-1.6,1.1c0,0-0.1,0.1-0.1,0.1c-0.5,0.4-0.9,0.7-1.3,1.1c-0.1,0.1-0.2,0.2-0.2,0.2c-0.4,0.4-0.8,0.8-1.1,1.2
				c-0.1,0.1-0.1,0.1-0.2,0.2c-0.4,0.5-0.8,1-1.1,1.5l0,0c0.5,4,3.7,22.3,9.5,25.4c5.4,2.9,10.9,4,15.1,4.2c3.3,0.1,6.3-3,6.1-6.3
				c-0.3-5.5-0.9-11.1-1.4-17l0,0c-0.4-4-2.2-7.5-5-10C280.3,263.9,276.6,262.4,272.5,262.4L272.5,262.4L272.5,262.4z"/>
			<g>
				<path class="st24" d="M303.4,265c0,1.4-1.2,2.5-2.6,2.5l-7.4-0.1c-1.4,0-2.5-1.2-2.5-2.6l0.2-13.4c0-1.4,1.2-2.5,2.6-2.5
					l7.4,0.1c1.4,0,2.5,1.2,2.5,2.6L303.4,265z"/>
				<path class="st3" d="M301.7,237.7c0,0,5.2-5.5,6.1-8.9c0.5-1.7-1.2-8.2-5.5-10.7c-4.3-2.5-7.8,2.2-7.8,2.2s6.9,3.8,7.2,5.2
					C302,226.9,301.7,237.7,301.7,237.7z"/>
				
					<linearGradient id="SVGID_9_" gradientUnits="userSpaceOnUse" x1="246.4423" y1="256.6526" x2="298.0606" y2="256.6526" gradientTransform="matrix(0.9994 -3.517349e-02 3.517349e-02 0.9994 -4.0374 5.0579)">
					<stop  offset="0" style="stop-color:#FF8F61"/>
					<stop  offset="0.7005" style="stop-color:#FFB07B"/>
					<stop  offset="1" style="stop-color:#FFC99C"/>
				</linearGradient>
				<path class="st25" d="M301.3,277.5c-0.1,4.2-3.5,7.5-7.7,7.4l-34-0.5c-4.2-0.1-7.5-3.5-7.5-7.7l0.7-50.4
					c0.1-4.2,3.5-7.5,7.7-7.5l34,0.5c4.2,0.1,7.5,3.5,7.5,7.7L301.3,277.5z"/>
				<path class="st24" d="M259.6,264.3c0,1.4-1.2,2.5-2.6,2.5l-7.4-0.1c-1.4,0-2.5-1.2-2.5-2.6l0.2-13.4c0-1.4,1.2-2.5,2.6-2.5
					l7.4,0.1c1.4,0,2.5,1.2,2.5,2.6L259.6,264.3z"/>
				<path class="st3" d="M254.7,264.8c-0.6-1.4-2.6-1-2.6,0.5c-0.1,5.5-0.2,11.6-0.2,14.7c-0.1,6,2.1,19.1,35.9,19.6
					c20,0.3,19.5-14.4,19.6-19.3c0-3.7-4-14.8-6-16.9c-0.1-0.1-0.1,8.2-0.1,8.2s-4-8-13.6-8.2c-15.3-0.2-19,8.7-25.7,8.5
					C259,271.8,256.4,269,254.7,264.8z"/>
				<path class="st3" d="M247.8,236.8c-3.2-5.5-7.1-11-7.8-17.3c-0.8-7,2.9-14.2,8.9-17.8c9.9-5.8,23.8-1.7,32.8-8.8
					c1.2-0.9,2.3-2,3.6-2.6c2.9-1.2,6.3,0.2,8.4,2.5c2.1,2.3,3.2,5.4,4.2,8.3c1.4,4.3,2.9,8.6,2.9,13.2s-1.7,9.3-5.4,11.8
					c-3.2,2.2-7.3,2.5-11.2,2.2c-5.2-0.4-10.4-1.7-15.2-3.7c-3.6-1.6-7.6-3.6-11.1-1.9c-3.9,1.9-4.6,7-4.8,11.4
					c-0.2,5.5,6.4,16.9-0.7,16.6C250.2,250.6,250.4,241,247.8,236.8z"/>
			</g>
		</g>
		<g>
			<path class="st6" d="M293.6,275.3h-22.1C271.5,275.3,283.2,289.1,293.6,275.3z"/>
		</g>
		<path class="st3" d="M303,212.6c0.7,0.3,1.9-2.2,2.3-2.9c0.7-1.2,1.2-2.5,1.5-3.9c0.6-2.8,0.4-5.7-0.6-8.3
			c-0.5-1.1-2.6-5.6-3.8-3.9c-1.1,1.5,0.7,5.5,1,7C304,204.5,301.7,212.1,303,212.6z"/>
	</g>
	<g>
		<linearGradient id="SVGID_10_" gradientUnits="userSpaceOnUse" x1="191.7464" y1="796.8968" x2="265.4863" y2="796.8968">
			<stop  offset="2.415459e-03" style="stop-color:#FFC14D"/>
			<stop  offset="1" style="stop-color:#FF9834"/>
		</linearGradient>
		<path class="st26" d="M193.1,803.8c-1.9,2.5-1.2,8.8-1.2,8.8s34.8,6.5,46.3,4.7c3-0.5,8.1-2.6,13-4.9c0.8-0.4,2.4-3,3.2-3.4
			c1.5-0.7,2.1,0.7,3.4,0.1c3.3-1.7,5.6-3.1,5.6-3.3c4.3-15.9,0.7-22.7,0.7-22.7s-14.2,7-12.2,3.1c4.2-8.2-12.8-12.7-15.6-8.3
			C225,795.7,198.6,796.5,193.1,803.8z"/>
		<path class="st12" d="M191.8,807.1c10.7,2.2,33.3,6.7,37.5,6.2c17.4-1.8,28.3-10.1,35.7-15.1c-0.3,2.2-0.8,4.7-1.6,7.4
			c-0.1,0.2-2.4,1.6-5.6,3.3c-1.3,0.7-1.9-0.8-3.4-0.1c-0.8,0.4-2.4,3-3.2,3.4c-4.9,2.3-10,4.5-13,4.9c-11.5,1.8-46.3-4.7-46.3-4.7
			S191.5,809.7,191.8,807.1z"/>
		<g>
			<path class="st6" d="M213.2,793.5c-0.2,0.6,1.2,1.1,3.1,1.1c3.9,0.1,7.7,0.6,11.6,1.4c1.9,0.4,3.6,0.3,3.7-0.4
				c0.1-0.7-1.3-1.6-3.2-2c-3.8-0.8-7.7-1.2-11.5-1.3C215,792.3,213.4,792.9,213.2,793.5z"/>
			<path class="st6" d="M220,789.6c-0.2,0.6,1.2,1.2,3.1,1.4c3.8,0.4,7.6,1.2,11.4,2.3c1.9,0.6,3.5,0.5,3.6-0.1
				c0.1-0.7-1.3-1.8-3.2-2.3c-3.7-1.1-7.5-1.8-11.3-2.2C221.8,788.5,220.2,789,220,789.6z"/>
			<path class="st6" d="M226.7,786.1c-0.2,0.6,1.2,1.4,3.1,1.7c3.7,0.7,7.5,1.8,11.1,3.2c1.8,0.7,3.4,0.8,3.5,0.1
				c0.1-0.7-1.3-1.9-3.1-2.6c-3.7-1.4-7.4-2.4-11-3C228.4,785.1,226.8,785.5,226.7,786.1z"/>
		</g>
	</g>
	<g>
		
			<linearGradient id="SVGID_11_" gradientUnits="userSpaceOnUse" x1="194.2209" y1="796.8968" x2="267.9607" y2="796.8968" gradientTransform="matrix(-1 0 0 1 544.5849 0)">
			<stop  offset="2.415459e-03" style="stop-color:#FFC14D"/>
			<stop  offset="1" style="stop-color:#FF9834"/>
		</linearGradient>
		<path class="st27" d="M349,803.8c1.9,2.5,1.2,8.8,1.2,8.8s-34.8,6.5-46.3,4.7c-3-0.5-8.1-2.6-13-4.9c-0.8-0.4-2.4-3-3.2-3.4
			c-1.5-0.7-2.1,0.7-3.4,0.1c-3.3-1.7-5.6-3.1-5.6-3.3c-4.3-15.9-0.7-22.7-0.7-22.7s14.2,7,12.2,3.1c-4.2-8.2,12.8-12.7,15.6-8.3
			C317.1,795.7,343.5,796.5,349,803.8z"/>
		<path class="st12" d="M350.3,807.1c-10.7,2.2-33.3,6.7-37.5,6.2c-17.4-1.8-28.3-10.1-35.7-15.1c0.3,2.2,0.8,4.7,1.6,7.4
			c0.1,0.2,2.4,1.6,5.6,3.3c1.3,0.7,1.9-0.8,3.4-0.1c0.8,0.4,2.4,3,3.2,3.4c4.9,2.3,10,4.5,13,4.9c11.5,1.8,46.3-4.7,46.3-4.7
			S350.6,809.7,350.3,807.1z"/>
		<g>
			<path class="st6" d="M329,793.5c0.2,0.6-1.2,1.1-3.1,1.1c-3.9,0.1-7.7,0.6-11.6,1.4c-1.9,0.4-3.6,0.3-3.7-0.4
				c-0.1-0.7,1.3-1.6,3.2-2c3.8-0.8,7.7-1.2,11.5-1.3C327.1,792.3,328.7,792.9,329,793.5z"/>
			<path class="st6" d="M322.1,789.6c0.2,0.6-1.2,1.2-3.1,1.4c-3.8,0.4-7.6,1.2-11.4,2.3c-1.9,0.6-3.5,0.5-3.6-0.1
				c-0.1-0.7,1.3-1.8,3.2-2.3c3.7-1.1,7.5-1.8,11.3-2.2C320.3,788.5,321.9,789,322.1,789.6z"/>
			<path class="st6" d="M315.5,786.1c0.2,0.6-1.2,1.4-3.1,1.7c-3.7,0.7-7.5,1.8-11.1,3.2c-1.8,0.7-3.4,0.8-3.5,0.1
				c-0.1-0.7,1.3-1.9,3.1-2.6c3.7-1.4,7.4-2.4,11-3C313.7,785.1,315.3,785.5,315.5,786.1z"/>
		</g>
	</g>
</g>
<g id="_x40_peleryna">
	<g>
		<path class="st28" d="M719.2,307.2c22.8-2.6,45.4,7.5,63.9,21.2s34,30.9,51.6,45.7c35.9,29.9,80,48.6,125.5,59
			c45.5,10.4,92.5,12.7,139.1,12.5c-25.7,2.8-52.7,6.5-74,22.2c-21.2,15.7-38.1,36.5-55.1,56.7c-17,20.2-34.7,40.4-57.2,54.4
			c-46.5,29-105.2,27.1-159.9,24.2c-14-89.9-56.2-175.2-119.3-240.9"/>
		<g>
			<linearGradient id="SVGID_12_" gradientUnits="userSpaceOnUse" x1="694.1932" y1="378.4895" x2="1099.3331" y2="378.4895">
				<stop  offset="1.205842e-02" style="stop-color:#FF983D"/>
				<stop  offset="1" style="stop-color:#FE602B"/>
			</linearGradient>
			<path class="st29" d="M754.6,340c22.3,13.6,40.7,32.7,59.4,51c18.7,18.3,38.6,36.2,62.6,46.6c30.7,13.3,65.4,12.9,98.9,12.4
				c34.3-0.6,68.6-1.1,102.9-1.7c7-1.1,14.1-1.9,21-2.7c-46.7,0.2-93.6-2.1-139.1-12.5c-45.5-10.4-89.7-29.1-125.5-59
				c-17.7-14.7-33.2-32-51.6-45.7c-18.5-13.7-41-23.8-63.9-21.2l-25,16.1C715.1,321.9,736.5,329,754.6,340z"/>
		</g>
	</g>
</g>
<g id="Warstwa_9">
	<path class="st30" d="M590.4,264.3c-11.1,8.4-16.8,22.2-13.3,35.2s16.7,24.2,31.9,26.1c6.2,0.7,12.5,0,18.6,1
		c7.4,1.1,14.1,4.6,21,7.3c17.7,6.9,37.8,8.6,56.1,4.7c8.8-1.9,17.7-5.3,22.6-11.9c6-8.1,4.5-19.2,0.2-28.5
		c-7.9-17.2-24.7-31.4-44.7-37.8c-13-4.1-26.7-5-40.1-4.6c-6.8,0.2-13.6,0.8-20.4,1.4c-5.3,0.5-10.2-0.9-15.6,0
		C600.5,258.2,595,260.8,590.4,264.3z"/>
</g>
<g id="_x40_reka1">
	<g>
		<linearGradient id="SVGID_13_" gradientUnits="userSpaceOnUse" x1="502.3487" y1="245.4661" x2="530.8146" y2="245.4661">
			<stop  offset="0" style="stop-color:#FFC99C"/>
			<stop  offset="0.2995" style="stop-color:#FFB07B"/>
			<stop  offset="1" style="stop-color:#FF8F61"/>
		</linearGradient>
		<path class="st31" d="M527.6,262.8l-4.6-10.9l7-14c1-2,1.1-4.3,0.3-6.4l-2.2-5.8c-1.1-3-4.1-4.9-7.3-4.8l-2.3,0.1l-9.8,3.5
			c-2.7,1-4.6,3.3-5.1,6.1l-1.3,8.1l0.5,11.3l9.4,19.8L527.6,262.8z"/>
	</g>
	<path class="st3" d="M616.3,335.1c-0.4-15.9-13.8-16.9-17.1-15.9l-2.8,1.4c-2.3,1.2-4.9,1.6-7.4,1.3l-31.8-3.8l-28.7-58.3l-20,7.9
		l27.9,69.7c1.3,3.3,4.3,5.8,7.8,6.5l59.1,11.7C612.3,356.8,616.6,347.6,616.3,335.1z"/>
</g>
<g id="_x40_reka2">
	<g>
		<linearGradient id="SVGID_14_" gradientUnits="userSpaceOnUse" x1="826.4387" y1="245.4661" x2="854.9047" y2="245.4661">
			<stop  offset="0" style="stop-color:#FFC99C"/>
			<stop  offset="0.2995" style="stop-color:#FFB07B"/>
			<stop  offset="1" style="stop-color:#FF8F61"/>
		</linearGradient>
		<path class="st32" d="M829.7,262.8l4.6-10.9l-7-14c-1-2-1.1-4.3-0.3-6.4l2.2-5.8c1.1-3,4.1-4.9,7.3-4.8l2.3,0.1l9.8,3.5
			c2.7,1,4.6,3.3,5.1,6.1l1.3,8.1l-0.5,11.3L845,270L829.7,262.8z"/>
	</g>
	<path class="st3" d="M828.3,259.9l-44.7,59.3l-57.5-8.5c3,4.5,3.7,10.9,2.5,15.8c-2.1,7.6-5.1,15.1-5.8,22.7l55,3.8
		c13.9,1,27.2-6.3,33.9-18.5l35.6-64.5L828.3,259.9z"/>
</g>
<g id="Kobita">
	<path class="st33" d="M626.6,313.3c9.3,9.1,23.3,10.1,36.1,10.1c4.6,0,9.2-0.1,13.5-1.6c4.3-1.5,8.4-4.6,10-9.1
		c2.3-6.2-7.2-9.2-0.5-32.2c-1.5-3.1-5.2-2.8-7.6-5.2c-3.1-3.2-4.2-8-7.1-11.3c-3-3.4-7.6-4.8-12-4.7c-4.4,0.1-8.7,1.5-12.8,3.1
		c-6.2,2.4-12.4,5.2-18.3,8.4c-3.8,2-12.3,5-13.4,9.7c-1.2,4.6,1.9,13.2,3.3,17.6C619.5,303.6,622.3,309.1,626.6,313.3z"/>
	<g>
		<g>
			<linearGradient id="SVGID_15_" gradientUnits="userSpaceOnUse" x1="615.0669" y1="540.8886" x2="722.7264" y2="540.8886">
				<stop  offset="2.415459e-03" style="stop-color:#FFC14D"/>
				<stop  offset="1" style="stop-color:#FF9834"/>
			</linearGradient>
			<path class="st34" d="M619.5,465.5l-4,17.8c-0.5,2.1-0.6,4.3-0.5,6.4l10.1,129.8h78.4l15.4-96.1c4.2-13.9,4.9-28.7,2-43
				l-3.7-18.3L619.5,465.5z"/>
			<path class="st12" d="M721,480.5l-3.7-18.3l-63.6,2.2c1.8,1.2,4.1,1.7,6.4,2c7.3,1,14.3,1.5,21.2,4.2c9.9,4,20.9,9.4,22.4,19.9
				c2.1,14.8-12.4,30.3-17.1,44.5c-4.7,14.6,7.5,31.9,9.7,47c1.9,13.1,1.3,25.9-4.6,37.4h11.9l15.4-96.1
				C723.2,509.5,723.9,494.7,721,480.5z"/>
		</g>
		<g>
			<linearGradient id="SVGID_16_" gradientUnits="userSpaceOnUse" x1="628.8843" y1="712.7696" x2="680.5651" y2="712.7696">
				<stop  offset="0" style="stop-color:#FFC99C"/>
				<stop  offset="0.2995" style="stop-color:#FFB07B"/>
				<stop  offset="1" style="stop-color:#FF8F61"/>
			</linearGradient>
			<polygon class="st35" points="628.9,619.6 631.9,634.9 633.2,653.9 659.9,762.3 650.6,800.3 656.2,806 673.9,802.3 680.6,759.3 
				676.6,751.9 666.9,658.6 668.9,619.6 			"/>
		</g>
		<g>
			<path class="st7" d="M659.4,667.2l13.7,51.1l-6.2-59.8l2-39h-39.5c0,0,17,1.4,26,9c2.5,2.2,2.5,9.1,1.9,15.2
				C656.6,651.7,657.4,659.6,659.4,667.2z"/>
		</g>
		<g>
			<linearGradient id="SVGID_17_" gradientUnits="userSpaceOnUse" x1="658.8924" y1="712.7696" x2="710.5736" y2="712.7696">
				<stop  offset="0" style="stop-color:#FFC99C"/>
				<stop  offset="0.2995" style="stop-color:#FFB07B"/>
				<stop  offset="1" style="stop-color:#FF8F61"/>
			</linearGradient>
			<polygon class="st36" points="658.9,619.6 661.9,634.9 663.2,653.9 689.9,762.3 680.6,800.3 686.2,806 703.9,802.3 710.6,759.3 
				706.6,751.9 696.9,658.6 698.9,619.6 			"/>
			<path class="st7" d="M710.6,759.3l-4-7.3l-9.7-93.4l2-39h-40c11.9,4.8,29.9,2.8,30.3,19.3c0.5,21.9,7.3,59.2,10,81
				c3.1,24.2,2.3,49-3.4,72.8c-0.8,3.4-1.7,6.8-1.4,10.2c0,0.4,0.1,0.9,0.2,1.3l9.3-1.9L710.6,759.3z"/>
		</g>
		<g class="st37">
			<g>
				<path class="st16" d="M623.7,600c1.5-9.8,0.1-20.2-2.3-30.2L623.7,600z"/>
			</g>
		</g>
		<g>
			<rect x="611.5" y="330.8" class="st6" width="92" height="134.7"/>
		</g>
		<path class="st0" d="M676.1,338.4c-8.7,11.5-17.7,23.6-20.5,37.8c-1.7,8.5-0.9,17.3-1.2,26c-0.3,9.7-1.7,19.4-0.5,29
			c1.2,9.6,5.6,19.5,14,24.2c-2.5,3.5-6.7,5.5-11,6.1c-4.3,0.6-8.6,0.1-12.9-0.4c-2.7-0.3-5.6-0.8-7.2-3c-1.3-1.8-1.4-4.1-1.4-6.4
			c0.1-7.1,0.1-14.2,0.2-21.3c-7.5,2-15.9-1.3-23.5-3c-0.2,0-0.4-0.1-0.6-0.1v38.3h92V330.8H681C679.5,333.4,677.9,336,676.1,338.4z
			"/>
		<path class="st3" d="M642.9,332.5v-21l-30.3,3.4c-4.1,0.5-8,1.6-11.7,3.5l-1.7,0.9c-0.3,0.8-0.5,1.5-0.6,2.3
			c-3.2,12.1,6.6,22.9,4.7,34l0.4,0.1l8.4,51.2l-15.8,67c0,0,17.3,12,35.3-8.7l18.7-106L642.9,332.5z"/>
		<g>
			<path class="st3" d="M651.6,795.9l-4.9,8.1c-0.8,1.3-1.2,2.7-1.2,4.2l0,0c0,5.6,4.1,10.4,9.6,11.3l1.6,0.3
				c3.1,0.5,6.2-0.1,8.9-1.6l8.5-4.9l4-17.4h4v-10.6l3.5-7.6c1.8-3.8,1.5-8.2-0.7-11.7l-7.6-12.3l-2.8,38.1
				c-0.5,6.5-6.6,11.3-13,9.9C657.7,800.9,653.8,799.2,651.6,795.9z"/>
		</g>
		<g>
			<path class="st3" d="M681.6,795.9l-4.9,8.1c-0.8,1.3-1.2,2.7-1.2,4.2l0,0c0,5.6,4.1,10.4,9.6,11.3l1.6,0.3
				c3.1,0.5,6.2-0.1,8.9-1.6l8.5-4.9l4-17.4h4v-10.6l3.5-7.6c1.8-3.8,1.5-8.2-0.7-11.7l-7.6-12.3l-2.8,38.1
				c-0.5,6.5-6.6,11.3-13,9.9C687.7,800.9,683.8,799.2,681.6,795.9z"/>
		</g>
		<g>
			<path class="st7" d="M659.6,344.5h-1.1c-8.6,0-15.6-7-15.6-15.6v-37.1h32.3v37.1C675.2,337.5,668.2,344.5,659.6,344.5z"/>
		</g>
		<g class="st9">
			<path class="st7" d="M642.9,317.7c7.2,0.4,14.4-1.1,20.7-4.6l9.1-4.3c1-0.5,1.8-1.2,2.5-1.9v-15h-32.3V317.7z"/>
		</g>
		<path class="st3" d="M726.1,310.7l-24.1-3.5l-26.7,0.3v25l-13.7,25.7c0,0,0,70.7,13.7,95c13.7,24.3,47.3,15,47.3,15l-7.7-54.1
			l7.7-65l0.2,0c0.7-7.6,3.7-15.1,5.8-22.7C729.8,321.6,729.1,315.2,726.1,310.7z"/>
		<g>
			<polygon class="st2" points="642.9,317.7 631.5,342.3 640.2,346.5 630,358.3 633,456.8 650.2,359.2 			"/>
		</g>
		<g>
			<path class="st2" d="M661.6,358.2c0,0,0,30.3,3.8,58.1l3.5,19.1c0,0,0,0,0,0l18.1-90.9l-10-7l8.5-8.8l-10.3-19.4v23.1
				L661.6,358.2z"/>
		</g>
	</g>
	<linearGradient id="SVGID_18_" gradientUnits="userSpaceOnUse" x1="615.0947" y1="272.8252" x2="684.8809" y2="272.8252">
		<stop  offset="0" style="stop-color:#FFC99C"/>
		<stop  offset="0.2995" style="stop-color:#FFB07B"/>
		<stop  offset="1" style="stop-color:#FF8F61"/>
	</linearGradient>
	<path class="st38" d="M677.5,252.8c1.3,4.5,2,9.1,2.1,13.7c1.5-0.9,3.6,0.1,4.5,1.6s0.8,3.4,0.6,5.2c-0.5,4.2-2.4,8.9-6.4,10.3
		c-0.5,0.2-1,0.3-1.3,0.7c-0.3,0.4-0.3,1-0.2,1.6c0.2,3.9-1.5,7.8-3.9,10.9c-2.4,3.1-5.6,5.6-8.7,8c-1.7,1.3-3.4,2.7-5.1,4
		c-3.5,2.7-7,5.5-11.1,7.1c-4.1,1.7-8.9,2.1-12.8,0.2c-4.2-2-6.8-6.2-8.9-10.4c-1.2-2.4-2.2-4.9-3.1-7.5c-1-3-1.8-6.1-2.5-9.2
		c-1.7-7-3.4-14.1-5.2-21.1c-2.8-11.3,7.5-22.5,16.4-29.9c8.9-7.4,21.1-11.1,32.5-8.8c4.6,0.9,9.4,3,11.8,7
		C679.2,240.8,676,247.5,677.5,252.8z"/>
	<path class="st30" d="M644.9,258.6c-5.5,6-10.1,13.2-17.2,17.2c-5.9,3.3-12.8,3.9-19.6,3.9c-7,0-14.8-1.2-18.9-6.9
		c-3-4.2-3.1-9.8-3-14.9c0.1-4.9,0.3-10.2,3.1-14.2c5.2-7.3,16.2-7,23.3-12.5c5.8-4.5,8.3-12.4,14.3-16.5c4.3-2.9,9.7-3.6,14.9-3.8
		c9-0.4,18.3,0.2,26.5,3.7c8.3,3.5,15.5,10.4,17.7,19.2c1.1,4.6,0.9,9.6,2.8,14c2.1,4.7,6.3,8,9.8,11.8c3.5,3.8,6.6,8.8,5.2,13.8
		c-1.6,5.9-8.8,8.7-14.9,8.2c-7.3-0.5-14.3-4.2-18.5-10.1c-2.4-3.4-3.9-7.5-4.2-11.6c-0.2-3,1.3-7.2,0.5-10.9
		C660.1,246.4,648.3,254.8,644.9,258.6z"/>
	<path class="st33" d="M676.9,270.5c-5-8.3-7.5-18.3-3.3-27.5c-26.6-5.8-41.6,18.3-60,33.3c-2,1.6-4.7,2.7-7.6,3.2
		c0.7,0,1.4,0.1,2.1,0.1c6.7,0,13.7-0.6,19.6-3.9c7.1-3.9,11.7-11.1,17.2-17.2c3.4-3.7,15.2-12.1,21.8-9.9c0.9,3.8-0.7,8-0.5,10.9
		c0.3,4.1,1.7,8.2,4.2,11.6c4.2,5.9,11.3,9.7,18.5,10.1c1.8,0.1,3.6,0,5.4-0.4C687.2,279.9,680.6,276.5,676.9,270.5z"/>
	<path class="st39" d="M617.1,219.7c3.6-5.5,9-9.8,15.2-12c6.2-2.2,13.1-2.3,19.4-0.2"/>
	<path class="st39" d="M588.3,265c-7.7,3.3-13.8,9.9-16.6,17.8c-2.8,7.9-2.2,16.9,1.6,24.3"/>
	<path class="st39" d="M710,273.2c9.6,5.8,16.9,15.3,19.9,26.1"/>
</g>
<g id="_x40_fajerwerki">
	<g>
		<g>
			<path class="st3" d="M451.1,137.6c-2.7,0-4.9-2.2-4.9-4.9c0-2.7,2.2-4.9,4.9-4.9c2.7,0,4.9,2.2,4.9,4.9
				C456,135.5,453.8,137.6,451.1,137.6z M451.1,130.5c-1.3,0-2.3,1-2.3,2.3c0,1.3,1,2.3,2.3,2.3c1.3,0,2.3-1,2.3-2.3
				C453.4,131.5,452.4,130.5,451.1,130.5z"/>
		</g>
	</g>
	<g>
		<g>
			<path class="st3" d="M574.8,117.6c-3.5,0-6.4-2.9-6.4-6.4c0-3.5,2.9-6.4,6.4-6.4c3.5,0,6.4,2.9,6.4,6.4
				C581.2,114.7,578.4,117.6,574.8,117.6z M574.8,108.2c-1.6,0-3,1.3-3,3c0,1.6,1.3,3,3,3c1.6,0,3-1.3,3-3
				C577.8,109.6,576.5,108.2,574.8,108.2z"/>
		</g>
	</g>
	<g>
		<path class="st3" d="M516.5,100.1h-2.4v-2.4c0-0.8-0.6-1.4-1.4-1.4c-0.8,0-1.4,0.6-1.4,1.4v2.4h-2.4c-0.8,0-1.4,0.6-1.4,1.4
			c0,0.8,0.6,1.4,1.4,1.4h2.4v2.4c0,0.8,0.6,1.4,1.4,1.4c0.8,0,1.4-0.6,1.4-1.4v-2.4h2.4c0.8,0,1.4-0.6,1.4-1.4
			C517.8,100.7,517.2,100.1,516.5,100.1z"/>
	</g>
	<g>
		<path class="st3" d="M426.8,173.7h-2.2v-2.2c0-0.7-0.6-1.2-1.2-1.2c-0.7,0-1.2,0.6-1.2,1.2v2.2h-2.2c-0.7,0-1.2,0.6-1.2,1.2
			c0,0.7,0.6,1.2,1.2,1.2h2.2v2.2c0,0.7,0.6,1.2,1.2,1.2c0.7,0,1.2-0.6,1.2-1.2v-2.2h2.2c0.7,0,1.2-0.6,1.2-1.2
			C428.1,174.2,427.5,173.7,426.8,173.7z"/>
	</g>
	<g>
		<path class="st3" d="M387.3,259.3l-1.1,1.1l-1.1-1.1c-0.3-0.3-0.9-0.3-1.3,0s-0.3,0.9,0,1.3l1.1,1.1l-1.1,1.1
			c-0.3,0.3-0.3,0.9,0,1.3c0.3,0.3,0.9,0.3,1.3,0l1.1-1.1l1.1,1.1c0.3,0.3,0.9,0.3,1.3,0c0.3-0.3,0.3-0.9,0-1.3l-1.1-1.1l1.1-1.1
			c0.3-0.3,0.3-0.9,0-1.3C388.2,259,387.6,259,387.3,259.3z"/>
	</g>
	<g>
		<path class="st3" d="M577.3,59.6l-1.9,1.9l-1.9-1.9c-0.6-0.6-1.6-0.6-2.1,0c-0.6,0.6-0.6,1.6,0,2.1l1.9,1.9l-1.9,1.9
			c-0.6,0.6-0.6,1.6,0,2.1c0.6,0.6,1.6,0.6,2.1,0l1.9-1.9l1.9,1.9c0.6,0.6,1.6,0.6,2.1,0c0.6-0.6,0.6-1.6,0-2.1l-1.9-1.9l1.9-1.9
			c0.6-0.6,0.6-1.6,0-2.1C578.9,59,577.9,59,577.3,59.6z"/>
	</g>
	<g>
		<path class="st3" d="M469.9,219l-1.9,1.9l-1.9-1.9c-0.6-0.6-1.6-0.6-2.1,0c-0.6,0.6-0.6,1.6,0,2.1l1.9,1.9l-1.9,1.9
			c-0.6,0.6-0.6,1.6,0,2.1c0.6,0.6,1.6,0.6,2.1,0l1.9-1.9l1.9,1.9c0.6,0.6,1.6,0.6,2.1,0c0.6-0.6,0.6-1.6,0-2.1l-1.9-1.9l1.9-1.9
			c0.6-0.6,0.6-1.6,0-2.1C471.4,218.4,470.5,218.4,469.9,219z"/>
	</g>
	<g>
		<path class="st3" d="M566.4,187.2l-1.9,1.9l-1.9-1.9c-0.6-0.6-1.6-0.6-2.1,0c-0.6,0.6-0.6,1.6,0,2.1l1.9,1.9l-1.9,1.9
			c-0.6,0.6-0.6,1.6,0,2.1c0.6,0.6,1.6,0.6,2.1,0l1.9-1.9l1.9,1.9c0.6,0.6,1.6,0.6,2.1,0c0.6-0.6,0.6-1.6,0-2.1l-1.9-1.9l1.9-1.9
			c0.6-0.6,0.6-1.6,0-2.1C568,186.6,567,186.6,566.4,187.2z"/>
	</g>
	<g>
		<path class="st3" d="M512.7,173c0,1.1-0.9,2-2,2c-1.1,0-2-0.9-2-2s0.9-2,2-2C511.8,171,512.7,171.9,512.7,173z"/>
	</g>
	<g>
		<path class="st3" d="M561.7,253.6c0,0.9-0.7,1.5-1.5,1.5c-0.9,0-1.5-0.7-1.5-1.5s0.7-1.5,1.5-1.5C561,252,561.7,252.7,561.7,253.6
			z"/>
	</g>
	<g>
		<path class="st3" d="M361.4,212.6c0,1.1-0.9,2-2,2s-2-0.9-2-2c0-1.1,0.9-2,2-2S361.4,211.5,361.4,212.6z"/>
	</g>
	<g>
		<g>
			<path class="st3" d="M782.5,98.2c-4,0-7.3-3.3-7.3-7.3c0-4,3.3-7.3,7.3-7.3c4,0,7.3,3.3,7.3,7.3
				C789.8,94.9,786.5,98.2,782.5,98.2z M782.5,87.5c-1.9,0-3.4,1.5-3.4,3.4c0,1.9,1.5,3.4,3.4,3.4c1.9,0,3.4-1.5,3.4-3.4
				C785.9,89,784.4,87.5,782.5,87.5z"/>
		</g>
	</g>
	<g>
		<g>
			<path class="st3" d="M905.6,166.7c-2.7,0-4.9-2.2-4.9-4.9c0-2.7,2.2-4.9,4.9-4.9c2.7,0,4.9,2.2,4.9,4.9
				C910.5,164.6,908.3,166.7,905.6,166.7z M905.6,159.6c-1.3,0-2.3,1-2.3,2.3c0,1.3,1,2.3,2.3,2.3c1.3,0,2.3-1,2.3-2.3
				C907.9,160.6,906.9,159.6,905.6,159.6z"/>
		</g>
	</g>
	<g>
		<path class="st3" d="M750.2,145.4h-3.1v-3.1c0-1-0.8-1.8-1.8-1.8c-1,0-1.8,0.8-1.8,1.8v3.1h-3.1c-1,0-1.8,0.8-1.8,1.8
			c0,1,0.8,1.8,1.8,1.8h3.1v3.1c0,1,0.8,1.8,1.8,1.8c1,0,1.8-0.8,1.8-1.8v-3.1h3.1c1,0,1.8-0.8,1.8-1.8
			C752,146.2,751.2,145.4,750.2,145.4z"/>
	</g>
	<g>
		<path class="st3" d="M680.2,51.5H676v-4.3c0-1.3-1.1-2.4-2.4-2.4c-1.3,0-2.4,1.1-2.4,2.4v4.3h-4.3c-1.3,0-2.4,1.1-2.4,2.4
			s1.1,2.4,2.4,2.4h4.3v4.3c0,1.3,1.1,2.4,2.4,2.4c1.3,0,2.4-1.1,2.4-2.4v-4.3h4.3c1.3,0,2.4-1.1,2.4-2.4S681.6,51.5,680.2,51.5z"/>
	</g>
	<g>
		<path class="st3" d="M871.5,124.3h-2.4v-2.4c0-0.8-0.6-1.4-1.4-1.4c-0.8,0-1.4,0.6-1.4,1.4v2.4H864c-0.8,0-1.4,0.6-1.4,1.4
			c0,0.8,0.6,1.4,1.4,1.4h2.4v2.4c0,0.8,0.6,1.4,1.4,1.4c0.8,0,1.4-0.6,1.4-1.4V127h2.4c0.8,0,1.4-0.6,1.4-1.4
			C872.9,124.9,872.3,124.3,871.5,124.3z"/>
	</g>
	<g>
		<path class="st3" d="M830,190h-2.2v-2.2c0-0.7-0.6-1.2-1.2-1.2s-1.2,0.6-1.2,1.2v2.2h-2.2c-0.7,0-1.2,0.6-1.2,1.2s0.6,1.2,1.2,1.2
			h2.2v2.2c0,0.7,0.6,1.2,1.2,1.2s1.2-0.6,1.2-1.2v-2.2h2.2c0.7,0,1.2-0.6,1.2-1.2S830.7,190,830,190z"/>
	</g>
	<g>
		<path class="st3" d="M785.6,252.7l-1.9,1.9l-1.9-1.9c-0.6-0.6-1.6-0.6-2.1,0c-0.6,0.6-0.6,1.6,0,2.1l1.9,1.9l-1.9,1.9
			c-0.6,0.6-0.6,1.6,0,2.1c0.6,0.6,1.6,0.6,2.1,0l1.9-1.9l1.9,1.9c0.6,0.6,1.6,0.6,2.1,0c0.6-0.6,0.6-1.6,0-2.1l-1.9-1.9l1.9-1.9
			c0.6-0.6,0.6-1.6,0-2.1C787.2,252.1,786.2,252.1,785.6,252.7z"/>
	</g>
	<g>
		<path class="st3" d="M898.1,217.9L897,219l-1.1-1.1c-0.3-0.3-0.9-0.3-1.2,0c-0.3,0.3-0.3,0.9,0,1.2l1.1,1.1l-1.1,1.1
			c-0.3,0.3-0.3,0.9,0,1.2s0.9,0.3,1.2,0l1.1-1.1l1.1,1.1c0.3,0.3,0.9,0.3,1.2,0c0.3-0.3,0.3-0.9,0-1.2l-1.1-1.1l1.1-1.1
			c0.3-0.3,0.3-0.9,0-1.2C899,217.6,898.4,217.6,898.1,217.9z"/>
	</g>
	<g>
		<path class="st3" d="M750.7,41l-1.9,1.9l-1.9-1.9c-0.6-0.6-1.6-0.6-2.1,0c-0.6,0.6-0.6,1.6,0,2.1l1.9,1.9l-1.9,1.9
			c-0.6,0.6-0.6,1.6,0,2.1c0.6,0.6,1.6,0.6,2.1,0l1.9-1.9l1.9,1.9c0.6,0.6,1.6,0.6,2.1,0c0.6-0.6,0.6-1.6,0-2.1l-1.9-1.9l1.9-1.9
			c0.6-0.6,0.6-1.6,0-2.1C752.3,40.4,751.3,40.4,750.7,41z"/>
	</g>
	<g>
		<path class="st3" d="M813.9,288.8c0,0.9-0.7,1.5-1.5,1.5s-1.5-0.7-1.5-1.5c0-0.9,0.7-1.5,1.5-1.5S813.9,287.9,813.9,288.8z"/>
	</g>
	<g>
		<path class="st3" d="M818.6,146.4c0,1.1-0.9,2-2,2s-2-0.9-2-2s0.9-2,2-2S818.6,145.3,818.6,146.4z"/>
	</g>
	<g>
		<path class="st3" d="M628,42.9c0,1.1-0.9,2-2,2s-2-0.9-2-2c0-1.1,0.9-2,2-2S628,41.8,628,42.9z"/>
	</g>
	<g>
		<path class="st3" d="M599.2,159.3c0,1.3-1.1,2.4-2.4,2.4c-1.3,0-2.4-1.1-2.4-2.4c0-1.3,1.1-2.4,2.4-2.4
			C598.2,156.9,599.2,158,599.2,159.3z"/>
	</g>
	<g>
		<path class="st3" d="M731.8,195.8c0,1.3-1.1,2.4-2.4,2.4s-2.4-1.1-2.4-2.4c0-1.3,1.1-2.4,2.4-2.4S731.8,194.4,731.8,195.8z"/>
	</g>
</g>
</svg>
