<svg viewBox="0 0 1386.36 1021.12" xmlns="http://www.w3.org/2000/svg" xmlns:xlink="http://www.w3.org/1999/xlink"><linearGradient id="a" gradientUnits="userSpaceOnUse" x1="986.65" x2="986.92" y1="694.74" y2="694.74"><stop offset="0" stop-color="#7918b3"/><stop offset=".43" stop-color="#6817a6"/><stop offset="1" stop-color="#4b1591"/></linearGradient><linearGradient id="b" x1="985.92" x2="986.65" xlink:href="#a" y1="693.24" y2="693.24"/><linearGradient id="c" gradientUnits="userSpaceOnUse" x1="531.01" x2="643.87" y1="578.73" y2="578.73"><stop offset="0" stop-color="#ff4661"/><stop offset="1" stop-color="#ee5916"/></linearGradient><linearGradient id="d" x1="692.19" x2="705.94" xlink:href="#c" y1="333.81" y2="333.81"/><linearGradient id="e" x1="460.85" x2="463.94" xlink:href="#c" y1="183.62" y2="183.62"/><linearGradient id="f" gradientUnits="userSpaceOnUse" x1="367.49" x2="407.17" y1="207.08" y2="207.08"><stop offset="0" stop-color="#ff8f61"/><stop offset=".7" stop-color="#ffb07b"/><stop offset="1" stop-color="#ffc99c"/></linearGradient><linearGradient id="g" gradientUnits="userSpaceOnUse" x1="1159.93" x2="1210.46" y1="420.91" y2="420.91"><stop offset="0" stop-color="#ffc99c"/><stop offset=".3" stop-color="#ffb07b"/><stop offset="1" stop-color="#ff8f61"/></linearGradient><path d="m1287.85 830.79c50.23-27.9 103.89-72.57 98.07-130.16-7.32-72.45-101.15-103.38-127.3-171.22-26.86-69.65 25.68-156.67-13.71-219.92-25-40.17-76.46-52.17-115.88-78-32.68-21.39-57.85-53.12-91-73.76-49.43-30.73-112.81-33.36-168.18-15.57s-103.38 54.2-143.59 96.58c-31.35 33-60.14 71.16-101.54 89.74-58.12 26.08-125.08 7.26-186.71-8.41s-132.84-26.07-183.82 12.35c-68.47 51.64-60.86 159-109.22 230.17-23.7 34.9-59.56 59-90.17 88s-57.7 67.41-54.55 109.58c3.21 43.05 38.39 78.42 78.41 93.48s84.17 13.46 126.7 9.28 85.42-10.75 127.75-4.95c61.73 8.46 117.17 42.45 177.79 56.91 39.92 9.52 81.35 10.4 121.82 17.15 89.24 14.87 171.55 57.75 259.62 78.51 63.92 15.07 135.39 16.45 196.05-11.94 49.46-23.14 65.4-64.27 101.65-101.29 28.09-28.67 63.18-47.32 97.81-66.53z" fill="#f8f8ff"/><path d="m341.88 819.2c-22.8 3.08-45 9.62-67.78 12.56s-47.32 1.9-66.68-9.08-31.48-34-22.85-53.47c13.16-29.69 58.4-31.29 88-48.75 28.29-16.66 41.43-47.82 65.28-69.46 30.23-27.45 74.78-37.1 117.15-40s85.37-.31 126.93-8.72c47.58-9.63 90.31-33 134.65-51.67s94-32.93 141.13-22.73c31.22 6.76 58.21 23.62 85.78 38.33 63.77 34 134.29 57.77 207.37 69.86 34 5.63 69.09 8.88 100.62 21.52s59.78 37.15 63.8 68.33c4.07 31.57-18.11 62.73-47.72 80.29s-65.43 23.8-100.42 27.18-70.49 4.3-104.5 12.79c-40.51 10.11-77 30.46-115 46.77s-80.43 28.88-121.44 21.86c-36.94-6.31-68.5-27.81-104.87-36.11-44.15-10.11-90.71-.1-136.23 4.25-45.91 4.4-93.43 2.16-123.91-31.7-29.88-33.2-72.88-38.25-119.31-32.05z" fill="#e9e9ff"/><path d="m1070.65 717c-42.47 1.28-83.76 13.64-126.24 14.81-55 1.52-108.55-15.72-163.51-17.66-60.63-2.14-119.54 14.31-179.28 24.71l-5.12.86c-1.72.28-3.44.54-5.16.77s-3.46.44-5.2.62-3.49.32-5.25.44-3.52.2-5.29.26-3.55.09-5.34.09-3.57 0-5.37-.07-3.6-.12-5.41-.22-3.62-.21-5.44-.35l-2.72-.22-2.74-.25-2.73-.28c-.92-.09-1.83-.2-2.75-.3-1.58-.18-3.17-.37-4.76-.58l-4.76-.62-4.76-.67-4.76-.69-4.75-.69-4.73-.69-4.71-.66-4.69-.62c-1.56-.2-3.11-.38-4.66-.56s-3.1-.34-4.63-.49-3.07-.29-4.6-.41-3.05-.22-4.56-.31-3.29-.17-4.93-.22-3.26-.08-4.88-.08-3.25 0-4.86.08-3.22.13-4.82.24-3.19.26-4.78.43-3.18.37-4.76.6-3.16.48-4.73.75-3.33.59-5 .91-3.32.65-5 1-3.29.73-4.92 1.11-3.25.78-4.86 1.19-3.19.83-4.76 1.26-3.14.85-4.69 1.29l-4.61 1.3-4.56 1.29c-1.52.42-3 .84-4.53 1.24s-3 .8-4.5 1.18-3 .75-4.48 1.09-3 .68-4.48 1-3 .59-4.5.86-3 .49-4.52.7-3 .39-4.56.55-3.05.27-4.58.38-3.06.2-4.6.29-3.08.18-4.62.25-3.11.14-4.67.2-3.14.11-4.72.15-3.17.08-4.78.1-3.22 0-4.85 0-3.28 0-4.94 0h-5-5.14l-5.25-.07h-2.66-2.69c-1.54 0-3.11 0-4.71 0s-3.21.11-4.83.22-3.23.27-4.83.47-3.19.46-4.73.77-3.05.68-4.5 1.12a36.26 36.26 0 0 0 -4.15 1.51 27.22 27.22 0 0 0 -3.68 1.95 19.81 19.81 0 0 0 -3.1 2.43 15.94 15.94 0 0 0 -2.39 2.94 14.59 14.59 0 0 0 -1.58 3.47 13.55 13.55 0 0 0 -.59 3.86 15 15 0 0 0 .49 3.86 19.87 19.87 0 0 0 1.43 3.81 26.88 26.88 0 0 0 2.27 3.7 35.59 35.59 0 0 0 3 3.54 43.33 43.33 0 0 0 3.55 3.32q.94.81 1.95 1.56c.66.51 1.35 1 2.05 1.49s1.41 1 2.13 1.4 1.47.89 2.22 1.31c1.49.84 3 1.62 4.57 2.33s3.11 1.36 4.68 1.92 3.12 1.07 4.67 1.53 3.12.89 4.66 1.28 3.1.73 4.63 1 3.07.6 4.59.86 3 .48 4.54.7 3 .4 4.46.57 3 .35 4.4.5l4.31.46 4.22.45c1.39.16 2.77.33 4.13.51 1.55.21 3.07.43 4.57.68s3 .5 4.44.78 2.9.57 4.33.88 2.83.64 4.23 1 2.79.69 4.17 1 2.75.73 4.12 1.12 2.72.77 4.08 1.18 2.72.82 4.08 1.24l4.08 1.29 4.11 1.32 4.13 1.38 4.23 1.38 4.32 1.41 4.44 1.42c1.5.48 3 1 4.55 1.43s3.09 1 4.66 1.43l4.75 1.41 4.81 1.37q2.42.68 4.86 1.32c1.63.42 3.26.84 4.9 1.24 1.36.33 2.73.66 4.1 1s2.75.61 4.13.9 2.76.58 4.15.84 2.78.53 4.18.77 2.79.47 4.2.69 2.81.41 4.22.59 2.81.35 4.22.5 2.82.27 4.23.36 2.83.15 4.25.18h3.2s2.15 0 3.23-.1 2.16-.13 3.25-.22 2.17-.2 3.26-.33c1.6-.19 3.17-.42 4.73-.69s3.12-.58 4.65-.92 3.06-.71 4.58-1.11 3-.83 4.5-1.28 3-.92 4.44-1.41 2.93-1 4.39-1.54c11.65-4.23 23-9.53 34.89-13.29 38.41-12.16 81.08-7.92 120.6 1.09s77.7 22.62 117.84 29.12c119.67 19.37 239.32-25.79 360.07-39 18.32-2 42.75-4.14 51.27-21.11 6.43-12.79 2-28-9.48-36.83-32.24-24.62-87.51-33.86-128.67-32.62z" fill="#ccf"/><path d="m690.25 535v-69.07a18.51 18.51 0 0 1 18.45-18.45h135.68v-17.48a18.5 18.5 0 0 0 -18.45-18.45h-215.25v331.9a18.51 18.51 0 0 0 18.45 18.45h196.8a18.5 18.5 0 0 0 18.45-18.45v-184.51a5.5 5.5 0 0 0 -5.5-5.5h-130.18a18.5 18.5 0 0 1 -18.45-18.44z" fill="#4e1371"/><path d="m1038.86 430c0-10.15-12.62-18.45-28-18.45h-299.18c-15.43 0-28 8.3-28 18.45v313.45c0 10.15 12.62 18.45 28 18.45h299.14c15.42 0 28-8.3 28-18.45v-313.45z" fill="#4e3ae7"/><path d="m878.08 435.12a4 4 0 1 0 -4 4 4 4 0 0 0 4-4z" fill="#2e3192"/><path d="m888.32 435.12a4 4 0 1 0 -4 4 4 4 0 0 0 4-4z" fill="#2e3192"/><path d="m898.55 435.12a4 4 0 1 0 -4 4 4 4 0 0 0 4-4z" fill="#2e3192"/><path d="m986.65 694.24c.09.33.16.67.27 1a2.5 2.5 0 0 0 -.27-1z" fill="url(#a)"/><path d="m986.65 694.24c-.15-.55-.3-1.1-.42-1.65l-.31-.34a5.43 5.43 0 0 0 .73 1.99z" fill="url(#b)"/><path d="m1010.82 411.55h-299.14c-15.43 0-28 8.3-28 18.45v108.67a90.84 90.84 0 0 0 42.29-3.42c26-8 47 5 65 20a23.89 23.89 0 0 0 14 5c24 1 55-24 71 4 11 20-3 51 21 60 15 5 31-2 46-6 24-5 43 16 44 37 .93 12.12-3.35 25.1-.69 37.34 11 12.13 26.47 36.72 3.69 43.66-21 6-44-9-62 2-9.26 5.92-16 14.58-22.44 23.65h105.34c15.42 0 28-8.3 28-18.45v-313.45c-.01-10.15-12.63-18.45-28.05-18.45z" fill="#4e1371"/><path d="m593.2 374.15h13.13v17.44h-13.13z" fill="#4e1371"/><path d="m1074.69 493.4h13.13v17.44h-13.13z" fill="#8bdefc"/><path d="m1081.38 514.81h-366.55c-7 0-17-4.69-22.21-10.42l-96.34-106.56c-5.18-5.73-3.67-10.42 3.37-10.42h366.54c7 0 17 4.69 22.21 10.42l96.34 106.56c5.18 5.73 3.67 10.42-3.36 10.42z" fill="#4e1371"/><rect fill="#ccf" height="255.01" rx="16.34" width="392.12" x="587.45" y="92.6"/><path d="m1081.38 497.64h-366.55c-7 0-17-4.69-22.21-10.42l-96.34-106.55c-5.18-5.74-3.67-10.43 3.37-10.43h366.54c7 0 17 4.69 22.21 10.43l96.34 106.55c5.18 5.78 3.67 10.42-3.36 10.42z" fill="#4e3ae7"/><g fill="#4e1371"><path d="m900.85 485.81-78.42-.23-26.28-27.68 78.42.23z"/><path d="m763.54 448.1-90.86-.23-39.44-42.07 90.86.22z"/><path d="m731.43 485.81h-25.81l-11.12-11.72h25.81z"/><path d="m763.54 485.81h-25.8l-11.13-11.72h25.81z"/><path d="m795.66 485.81h-25.81l-11.12-11.72h25.8z"/><path d="m716.48 469.84h-25.81l-11.12-11.71h25.81z"/><path d="m748.6 469.84h-25.81l-11.13-11.71h25.81z"/><path d="m780.71 469.84h-25.81l-11.12-11.71h25.81z"/><path d="m810.6 425.39h-25.81l-11.12-11.72h25.81z"/><path d="m842.72 425.39h-25.81l-11.13-11.72h25.81z"/><path d="m874.83 425.39h-25.81l-11.12-11.72h25.81z"/><path d="m795.65 409.43h-25.8l-11.13-11.72h25.81z"/><path d="m827.77 409.43h-25.81l-11.12-11.72h25.8z"/><path d="m859.88 409.43h-25.8l-11.13-11.72h25.81z"/></g><path d="m546.39 666.65c-7.17-8.2-13.09-18.6-11.89-29.43 2.09-18.69 23.91-30.43 26.12-49.1.93-7.8-1.86-15.67-6.07-22.3s-9.8-12.25-15.15-18c-4.09-4.4-8.3-9.46-8.39-15.47-.12-7.92 6.92-14.06 14-17.56 5.78-2.86 12-4.78 17.61-8s10.72-8 12.21-14.3-.89-13.3 1.22-19.5a16.37 16.37 0 0 1 10.84-10 23.46 23.46 0 0 1 15 .89c12.17 4.65 20.38 18 19 31-.87 8.24-5.09 15.68-8.37 23.29s-5.65 16.33-2.72 24.08c5.34 14.18 26 19.38 28.36 34.33 1.94 12.17-9.84 23-9.11 35.31.49 8.45 6.71 15.29 10.51 22.86a43 43 0 0 1 -5.2 45.69c-18.37 22.15-48 16.45-69.23 2.51a92.38 92.38 0 0 1 -18.74-16.3z" fill="url(#c)"/><path d="m549.63 632.85c0-20.27 20.27-32.2 23.85-52.48s-21.48-33.37-16.7-47.71c7.16-20.27 37-27.43 27.44-58.44-2-7.37 5.77-11 14.66-11.24a22.32 22.32 0 0 0 -12 0 16.37 16.37 0 0 0 -10.84 10c-2.11 6.2.3 13.13-1.22 19.5s-6.61 11.1-12.21 14.3-11.83 5.12-17.61 8c-7.1 3.5-14.14 9.64-14 17.56.09 6 4.3 11.07 8.39 15.47 5.35 5.76 10.94 11.38 15.15 18s7 14.5 6.07 22.3c-2.21 18.67-24 30.41-26.12 49.1-1.2 10.83 4.72 21.23 11.89 29.43a92.38 92.38 0 0 0 18.76 16.36 77.83 77.83 0 0 0 23.33 10.47c-22.47-13.17-39.6-33.26-38.84-60.62z" fill="#bc2650"/><path d="m639.57 634.77c-3.8-7.57-10-14.41-10.51-22.86-.73-12.3 11.05-23.14 9.11-35.31-2.39-15-23-20.16-28.36-34.33-2.93-7.75-.55-16.47 2.72-24.08s7.5-15.05 8.37-23.29c1.38-13-6.83-26.33-19-31a28.54 28.54 0 0 0 -3-.94c-8.89.27-16.67 3.87-14.66 11.24 9.54 31-20.28 38.17-27.44 58.44-4.8 14.36 20.26 27.46 16.68 47.73s-23.85 32.21-23.85 52.48c-.76 27.36 16.41 47.45 38.84 60.59 16.41 4.16 33.66 1.77 45.9-13a43 43 0 0 0 5.2-45.67z" fill="#fc4c44"/><path d="m607.46 739c-9.43-11.92-19-24-25.5-37.67s-10-29.44-6.58-44.25c4.62-19.89 20.62-35.45 26.52-55.03a58.39 58.39 0 0 0 -10.63-53c-4.57-5.56-10.22-10.3-13.82-16.53s-4.6-14.82.19-20.2" fill="none" stroke="#fff" stroke-miterlimit="10" stroke-width="1.19"/><path d="m574.79 680a43.09 43.09 0 0 1 36.87-42.83" fill="none" stroke="#fff" stroke-miterlimit="10" stroke-width="1.19"/><path d="m604.52 710.42h20.4v61.64a7.38 7.38 0 0 1 -7.38 7.39h-49.18a7.89 7.89 0 0 1 -7.89-7.89v-61.14z" fill="#1c2a52"/><path d="m607.57 710.42h17.35v60.58a8.44 8.44 0 0 1 -8.44 8.45h-44.89c58.9-2.45 21.56-49.11 35.98-69.03z" fill="#1c1e38"/><path d="m963.24 92.6h-327.6c45.72 0 85.56 91.88 138.75 102.94 98.83 20.55 95.25 82.37 205.18 82.37v-169a16.38 16.38 0 0 0 -16.33-16.31z" fill="#e6e6ff"/><path d="m587.45 320.25v11a16.38 16.38 0 0 0 16.33 16.33h359.46a16.38 16.38 0 0 0 16.33-16.33v-11z" fill="#4e3ae7"/><rect fill="#4e1371" height="5.75" rx="2.88" width="332.1" x="633.24" y="330.37"/><circle cx="699.07" cy="333.81" fill="url(#d)" r="6.88"/><circle cx="699.07" cy="333.81" fill="#fff" r="3.44"/><rect fill="#fff" height="11.25" rx="1.69" width="3.37" x="606.44" y="326.93"/><rect fill="#fff" height="11.25" rx="1.69" width="3.37" x="612.19" y="326.93"/><path d="m912.93 402.72c-70.14-7.12-75.17-7.63-81.26-11.5s-15.56-9.9-22.92-10.59-15.07 4.76-16.54 8 13.18 3.31 17.35 4.54 6.7 2.12 6.28 3.61c-.69 2.42-7.1-1.25-9.1-1.59s-2.39 2.17-1.42 2.89 11.82 6.11 16.9 5.91 6.65-1.56 15.4 1.12 67.38 21.79 67.38 21.79z" fill="#ffadae"/><path d="m897.24 412s-63-11.44-71.62-18.84c-7.58-6.47-16.15-8-29.42-8.73a12.2 12.2 0 0 0 -4 4.18c-1.46 3.26 13.18 3.31 17.36 4.55s6.7 2.11 6.27 3.6c-.69 2.42-7.09-1.24-9.1-1.59s-2.39 2.17-1.42 2.9 11.82 6.1 16.9 5.91 6.65-1.56 15.4 1.11 67.39 21.81 67.39 21.81l4.35-13.32z" fill="#ff9395"/><path d="m911.43 290.44s-4.14 28.84-2.94 39.93c1.72 16 4.47 24.25 12 24.87 8.12.68 6.9 21.3 1.84 19.47-7.09-2.58 42.14 19.8 42.14 19.8s3.68-31.92-4.75-55-19.82-42.2-28.3-49.1-19.99.03-19.99.03z" fill="#ff9395"/><path d="m882.84 362.15s-46.46-14.34-59.73-24.15c-29.11-21.51-69.72-71.92-76.11-70.42-4.67 1.1 7.66 8.56 6.41 18.11-.2 1.45-8.17 11.67-.73 17.57 10.17 8.07 14.34 2.67 19.68 8.75 8.25 9.38 29.66 43.31 37.07 48.31 5.64 3.82 67.9 32.86 67.9 32.86z" fill="#8bdefc"/><path d="m855.44 573.18c1.74 12.5 9.2 33.5 10 63 1 35.6-20 103.87-15.66 119.4 2.54 9.18 3.51 19.75 1.14 19.75-3.38 0-36.26.57-46.68.55-2.76 0-10.49.17-11.21-3.72-1.15-6.26 35.58-12.26 37.25-19.3 1.78-7.55 4.09-47.76.29-66.22-8.93-43.35-26.86-104.29-19.22-119.78 1.13-2.29 20-23.42 33.5-15.33s9.66 14.93 10.59 21.65z" fill="#ffadae"/><path d="m771.44 303.18c-5-5-12-6-19-10a16.31 16.31 0 0 1 -1.89-1.49c-1.4 3.69-2 8.29 2.11 11.57 10.17 8.07 14.34 2.67 19.68 8.75 8.25 9.38 29.66 43.31 37.07 48.31 5.64 3.82 67.9 32.86 67.9 32.86l3.6-20.23c-19.12-8.37-38.79-12.39-58.47-19.77-24-8-34-33-51-50z" fill="#ff9395"/><path d="m823.11 338c-29.11-21.51-69.72-71.92-76.11-70.42-4.67 1.1 7.66 8.56 6.41 18.11-.09.64-1.72 3-2.84 6a16.31 16.31 0 0 0 1.89 1.49c7 4 14 5 19 10 17 17 27 42 51 50 19.68 7.38 39.35 11.4 58.47 19.77l1.93-10.8s-46.48-14.34-59.75-24.15z" fill="#ffadae"/><path d="m835.3 604.84-16.12 31.68c3.9 17 8.21 34.69 11.39 50.12 3.8 18.46 7.08 63.8-.29 66.22-2.32.75-38.47 12.39-37.25 19.3.72 3.89 8.45 3.71 11.21 3.72h40.77c-9.37-.25-10-13.34-6.33-18.8s11.32-88.71-3.38-152.24z" fill="#ff9395"/><path d="m816.44 593.18c-19 33-14 71-26 106-4 11-15.9 47.83-23.9 56.83-6.72 6.72-22.73 16.38-32.61 19.92 15.84.28 40.07.57 43.27.57 9.93 0 3.53-20.44 5.64-23.78 6.36-10 37.54-83.74 48.69-113.56 8-21.44 10.07-37.44 10.53-48.18-9.36-4.04-19.52-8.47-25.62 2.2z" fill="#ffadae"/><path d="m842.78 574.51c4.75-3.06 37.17-34.08 37.17-34.08s-64.22-4.49-73.17 15.42c-8.25 18.33-31 189.15-42.54 195.06-11.37 5.82-49.41 17.08-42.32 23.52 1 .94 3.63 1.36 12 1.5 9.88-3.54 25.89-13.2 32.61-19.92 8-9 19.9-45.83 23.9-56.83 12-35 7-73 26-106 6.1-10.67 16.26-6.24 25.62-2.2.44-10.18-.56-15.64.73-16.47z" fill="#ff9395"/><path d="m917.34 501.47c-38.74 6.39-100.62 37.38-100.56 41.71.23 16.48 44 74.65 44 53.33 0-22.33 10.06-21 18.61-20.88l98.27 1.58c24.46 1.13 25.38-35.79 24.48-46.17-2.14-24.64-66.76-32.54-84.8-29.57z" fill="#1c1e38"/><path d="m1002.14 531c-2.14-24.64-66.76-32.54-84.8-29.57q-3 .51-6.23 1.2c7.45 3.79 16 5.27 21.33 11.51 8 11-4 22-13 26-27 10-69-4-79 24-4.29 14.09 7.94 17.67 22.19 19.25 3.3-8.63 10.44-7.88 16.76-7.8l98.27 1.58c24.46 1.17 25.34-35.75 24.48-46.17z" fill="#1c2a52"/><path d="m875.54 361.18c-7.77.31-18.76 18.67-5.48 27.46s26.33 17.7 27.34 33.13c1.07 16.25-1.95 23.87 15.53 38.73 15.73 13.37 21.06 32.89 7.18 36.68 0 0-25.33-.67-16.67 9.33 11.49 13.26 23.82 17.07 39.65 24.73s38.83 13.52 45.91 11.76c12.2-3.06 14.7-2.75 12.27-26.63-2.3-22.57-4.22-85.21-6.94-106-3.94-30-8.7-14.33-11.41-14-4.59.63-91.41-35.81-107.38-35.19z" fill="#b9ffff"/><path d="m798 775.86h54.14c2.74 0 1.43-10.07-1-18.56-8.21 2.28-7.86 7.72-15.44 5.75-5.94-1.55-2.33-10.09-6.19-12-6.83 5.08-47.77 11.67-45 21.14.82 3.81 10.16 3.67 13.49 3.67z" fill="#4e1371"/><path d="m766.4 761c-7.36 1.42-1.06-8.54-10-8.19-15.82 5.31-53.28 15.87-45.68 21.62 3.6 2.72 57.86 2.73 63.73 2.79 14.15.16 9-16.92 8.82-21.92s-9.52 4.29-16.87 5.7z" fill="#4e1371"/><rect fill="#4e3ae7" height="277.14" rx="9.83" width="149.04" x="481.81" y="28.36"/><rect fill="#b9ffff" height="225.92" rx="1.37" width="138.83" x="486.86" y="45.85"/><path d="m579.24 37.43h-48.68a1.4 1.4 0 0 1 -1.4-1.39 1.4 1.4 0 0 1 1.4-1.4h48.68a1.4 1.4 0 0 1 1.4 1.4 1.4 1.4 0 0 1 -1.4 1.39z" fill="#68c0ff"/><path d="m590 36a2.22 2.22 0 1 1 -2.22-2.22 2.22 2.22 0 0 1 2.22 2.22z" fill="#68c0ff"/><path d="m573.92 229.25c-24-13-9-45-1-66 5-15-19-15-30-23-12-9-1-23 2-35 7-23-23-21-34-34-5.44-7-4.24-16.39-3-25.4h-19.69a1.37 1.37 0 0 0 -1.37 1.37v223.18a1.37 1.37 0 0 0 1.37 1.37h136.09a1.38 1.38 0 0 0 1.37-1.37v-55.4c-16.69 9.81-33.03 23.62-51.77 14.25z" fill="#c70045"/><path d="m624.32 45.85h-116.32c-1.27 9-2.47 18.41 3 25.4 11 13 41 11 34 34-3 12-14 26-2 35 11 8 35 8 30 23-8 21-23 53 1 66 18.74 9.37 35.05-4.44 51.77-14.27v-167.76a1.38 1.38 0 0 0 -1.45-1.37z" fill="#fc4c44"/><path d="m659.42 239.88h-67.78a7.24 7.24 0 0 1 -7.24-7.3l.31-43.87a7.25 7.25 0 0 1 7.25-7.19h67.77a7.24 7.24 0 0 1 7.25 7.29l-.32 43.87a7.24 7.24 0 0 1 -7.24 7.2z" fill="#4e3ae7"/><path d="m591.42 239.88a3.87 3.87 0 0 1 -3.26-6l13.89-21.72a4.58 4.58 0 0 1 7.54-.27l17 23.3 12-12.8a6.1 6.1 0 0 1 8.58-.37l14.83 13.63a2.44 2.44 0 0 1 -1.64 4.23z" fill="#4e1371"/><ellipse cx="649.97" cy="192.5" fill="#fff" rx="4.66" ry="4.63" transform="matrix(.70833984 -.70587157 .70587157 .70833984 53.71 514.98)"/><path d="m602.3 217.62s6.93.57 7.36.94a24.68 24.68 0 0 0 4.88.15l-4.93-6.85a4.61 4.61 0 0 0 -7.57.34l-4.49 7z" fill="#fff"/><path d="m647.18 222a6.1 6.1 0 0 0 -8.58.36l-3.8 4.08 5.41 2.9 12.93-1.89z" fill="#fff"/><rect fill="#c70045" height="38.91" rx="3.74" width="41.79" x="508.52" y="74.74"/><rect fill="#4e1371" height="38.91" rx="3.74" width="41.79" x="474.27" y="62.8"/><rect fill="#4e3ae7" height="38.91" rx="3.74" width="41.79" x="562.24" y="74.74"/><rect fill="#4e3ae7" height="38.91" rx="3.74" width="41.79" x="508.52" y="131.02"/><rect fill="#4e3ae7" height="38.91" rx="3.74" width="41.79" x="562.24" y="131.02"/><rect fill="#4e3ae7" height="32.05" rx="2.86" width="45.97" x="458.82" y="179.7"/><path d="m504.8 183.82v-1.26a2.87 2.87 0 0 0 -2.87-2.86h-40.24a2.87 2.87 0 0 0 -2.87 2.86v1.26z" fill="#5c15ae"/><path d="m475.54 193.68-5.86 5.48a1.34 1.34 0 0 1 -1.89-.07 1.34 1.34 0 0 1 .07-1.89l5.86-5.47a1.32 1.32 0 0 1 1.88.06 1.33 1.33 0 0 1 -.06 1.89z" fill="#fff"/><path d="m473.26 205-5.48-5.85a1.34 1.34 0 0 1 .07-1.89 1.34 1.34 0 0 1 1.89.06l5.47 5.86a1.33 1.33 0 0 1 -.06 1.89 1.34 1.34 0 0 1 -1.89-.07z" fill="#fff"/><path d="m487.58 193.68 5.86 5.48a1.33 1.33 0 0 0 1.88-.07 1.33 1.33 0 0 0 -.06-1.89l-5.86-5.47a1.33 1.33 0 0 0 -1.89.06 1.34 1.34 0 0 0 .07 1.89z" fill="#fff"/><path d="m489.86 205 5.47-5.85a1.33 1.33 0 0 0 -.06-1.89 1.34 1.34 0 0 0 -1.89.06l-5.47 5.86a1.33 1.33 0 0 0 .09 1.82 1.34 1.34 0 0 0 1.86 0z" fill="#fff"/><path d="m479 206.42 3.5-7.21a1.35 1.35 0 0 0 -.62-1.79 1.34 1.34 0 0 0 -1.78.62l-3.51 7.21a1.35 1.35 0 0 0 .62 1.79 1.35 1.35 0 0 0 1.79-.62z" fill="#fff"/><path d="m482.49 199.27 3.5-7.21a1.34 1.34 0 0 0 -.62-1.79 1.34 1.34 0 0 0 -1.78.62l-3.51 7.21a1.35 1.35 0 0 0 .62 1.79 1.35 1.35 0 0 0 1.79-.62z" fill="#fff"/><path d="m458.82 183.82h45.97v3.21h-45.97z" fill="#5c15ae"/><circle cx="462.39" cy="183.62" fill="url(#e)" r="1.54"/><circle cx="468.35" cy="183.62" fill="#fff" r="1.54"/><path d="m475.85 183.62a1.55 1.55 0 1 1 -1.55-1.55 1.54 1.54 0 0 1 1.55 1.55z" fill="#babaff"/><rect fill="#4e3ae7" height="54.6" rx="5.03" width="46.7" x="618.81" y="114.32"/><circle cx="642.16" cy="132.81" fill="#fff" r="15.57" transform="matrix(.92711846 -.37476841 .37476841 .92711846 -2.97 250.37)"/><path d="m642.16 148.38a15.5 15.5 0 0 0 11.84-5.44 14 14 0 0 0 -23.62 0 15.5 15.5 0 0 0 11.78 5.44z" fill="#5c15ae"/><circle cx="642.16" cy="127.54" fill="#5c15ae" r="4.77"/><path d="m654 154h-24.38a1.17 1.17 0 0 1 -1.15-1.16 1.16 1.16 0 0 1 1.15-1.16h24.38a1.16 1.16 0 0 1 1.15 1.16 1.17 1.17 0 0 1 -1.15 1.16z" fill="#5c15ae"/><path d="m649.88 161.49h-16.19a1.16 1.16 0 0 1 -1.16-1.15 1.16 1.16 0 0 1 1.16-1.16h16.19a1.16 1.16 0 0 1 1.16 1.16 1.16 1.16 0 0 1 -1.16 1.15z" fill="#5c15ae"/><path d="m925.44 507.18c27-9 46-44 26-65-12-14-20-28-27-45-9.08-22.71-38-18.19-58.18-28.42-3.42 6.17-4 14.69 3.8 19.88 13.28 8.79 26.33 17.7 27.34 33.13 1.07 16.25-1.95 23.87 15.53 38.73 15.73 13.37 21.06 32.89 7.18 36.68 0 0-25.33-.67-16.67 9.33s18.09 14.76 29.06 19.8c-4.56-5.31-7.4-11.58-7.06-19.13z" fill="#68c0ff"/><path d="m834.53 97.69v78.53.1.41h24.36v-.41-.1-78.53-5.01h-24.36z" fill="#68c0ff"/><path d="m963.24 92.6h-93.07v53a3.47 3.47 0 0 0 3.47 3.47h105.93v-40.14a16.38 16.38 0 0 0 -16.33-16.33z" fill="#68c0ff"/><path d="m842.94 36h24.36v132.82h-24.36z" fill="#b9ffff"/><path d="m842.94 36h24.36v7.96h-24.36z" fill="#4e3ae7"/><path d="m842.94 168.67h24.36v.81h-24.36z" fill="#5c15ae"/><path d="m860 39.83a1.39 1.39 0 1 0 -1.39 1.4 1.39 1.39 0 0 0 1.39-1.4z" fill="#e462c7"/><path d="m864.45 39.83a1.4 1.4 0 1 0 -1.4 1.4 1.4 1.4 0 0 0 1.4-1.4z" fill="#b9ffff"/><path d="m862.64 48.47v-.79h-16.1v16.1h.69v-15.31z" fill="#68c0ff"/><path d="m847.23 48.47h15.41v15.31h-15.41z" fill="#fff"/><path d="m862.64 69.16v-.79h-16.1v16.1h.69v-15.31z" fill="#68c0ff"/><path d="m847.23 69.16h15.41v15.31h-15.41z" fill="#fff"/><path d="m862.64 89.85v-.79h-16.1v16.1h.69v-15.31z" fill="#68c0ff"/><path d="m847.23 89.85h15.41v15.31h-15.41z" fill="#fff"/><path d="m862.64 110.54v-.8h-16.1v16.11h.69v-15.31z" fill="#68c0ff"/><path d="m847.23 110.54h15.41v15.31h-15.41z" fill="#fff"/><path d="m862.64 131.23v-.8h-16.1v16.11h.69v-15.31z" fill="#68c0ff"/><path d="m847.23 131.23h15.41v15.31h-15.41z" fill="#fff"/><path d="m855.86 56.78 1.44 2.42-1.34.93-1.48-2.7-1.34 1.19v-6.68l4.79 4.7z" fill="#5c15ae"/><path d="m855.86 77.57 1.44 2.42-1.34.93-1.48-2.7-1.34 1.19v-6.68l4.79 4.7z" fill="#68c0ff"/><path d="m853.87 99.74h2.49v2.84h-2.49z" fill="#bebdc1"/><path d="m856.25 99.54.25-.46a17 17 0 0 0 .7-2c0-.21-.29-1.26-2.13-5v-.08a25.6 25.6 0 0 0 -2 5.1c.12.59.71 2.1.71 2.11l.19.38h.89z" fill="#5c15ae"/><path d="m855 91.57.2.42c1.54 3.12 2.22 4.74 2.15 5.11a16.46 16.46 0 0 1 -.72 2.06l-.3.56-1.53.06h-1l-.23-.48a22 22 0 0 1 -.73-2.15c-.13-.58 1.72-4.59 2.09-5.39zm1.22 8 .25-.46a17 17 0 0 0 .7-2c0-.21-.29-1.26-2.13-5v-.08a25.6 25.6 0 0 0 -2 5.1c.12.59.71 2.1.71 2.11l.19.38h.89z" fill="#edeacb"/><path d="m854.7 96.83a.55.55 0 0 1 0-.77.54.54 0 0 1 .76 0 .53.53 0 0 1 0 .77.54.54 0 0 1 -.76 0z" fill="#edeacb"/><path d="m856.86 99.7a.22.22 0 0 1 -.23.22h-3.13a.22.22 0 0 1 -.22-.22.23.23 0 0 1 .22-.23h3.13a.23.23 0 0 1 .23.23z" fill="#989698"/><path d="m854.95 91.92h.18v4.69h-.18z" fill="#edeacb"/><path d="m855.34 140.52c0 1 0 1.14.57 1.19h.3c.06 0 0 .21 0 .24l-1.21.05h-1.32c-.06 0-.08-.2 0-.24h.34c.54-.05.59-.19.59-1.19v-4.25c0-.3 0-.31-.29-.31h-.52a1.94 1.94 0 0 0 -1.17.24 1.79 1.79 0 0 0 -.43.66.19.19 0 0 1 -.25-.07 9.64 9.64 0 0 0 .37-1.42.23.23 0 0 1 .18 0c0 .31.37.3.81.3h3.85c.51 0 .6 0 .74-.27h.17a5.91 5.91 0 0 0 -.14 1.45.18.18 0 0 1 -.25 0c0-.23-.09-.58-.24-.69a1.9 1.9 0 0 0 -1.1-.24h-.68c-.28 0-.27 0-.27.33z" fill="#5c15ae"/><path d="m858.2 121.11h-1.16v-.24h.92v-.92h.24z" fill="#828082"/><path d="m855.6 121.11h-.89v-.24h.89zm-1.56 0h-.89v-.24h.85z" fill="#828082"/><path d="m852.23 121.11h-1.16v-1.16h.24v.92h.92z" fill="#828082"/><path d="m851.31 118.69h-.24v-.78h.24zm0-1.36h-.24v-.78h.24z" fill="#828082"/><path d="m851.31 115.75h-.24v-1.15h1.16v.23h-.92z" fill="#828082"/><path d="m856.12 114.84h-.89v-.24h.89zm-1.56 0h-.89v-.24h.89z" fill="#828082"/><path d="m858.2 115.75h-.24v-.92h-.92v-.23h1.16z" fill="#828082"/><path d="m858.2 119.15h-.2v-.78h.24zm0-1.36h-.2v-.79h.24z" fill="#828082"/><path d="m852.84 155.82h8.67v8.67h-8.67z" fill="#fafbfd"/><path d="m861.89 164.87h-9.43v-9.43h9.43zm-8.67-.77h7.9v-7.9h-7.9z" fill="#5c15ae"/><path d="m855.53 158.51h3.28v3.28h-3.28z" fill="#b9ffff"/><path d="m858.81 161.79v-3.28h-3.28v3.28zm.54-3.82v4.36h-4.35v-4.33z" fill="#5c15ae"/><path d="m847.28 150.29h8.95v8.95h-8.95z" fill="#b9ffff"/><path d="m847.9 150.91h7.71v7.71h-7.71z" fill="#5c15ae"/><path d="m850.1 163.37h-1.85v-1.85h1.85zm-1.61-.24h1.37v-1.37h-1.37z" fill="#b1afb3"/><path d="m847.23 160.56h1.86v1.86h-1.86z" fill="#b1afb3"/><path d="m963.31 44.89h-84.73v93.49a3.47 3.47 0 0 0 3.47 3.47h162.52a3.47 3.47 0 0 0 3.47-3.47v-93.49z" fill="#b9ffff"/><path d="m1044.73 33.46h-162.84a3.32 3.32 0 0 0 -3.31 3.32v8.22h169.42v-8.22a3.32 3.32 0 0 0 -3.27-3.32z" fill="#4e3ae7"/><path d="m1026.87 39.13a2.16 2.16 0 1 0 -2.16 2.16 2.16 2.16 0 0 0 2.16-2.16z" fill="#e462c7"/><path d="m1033.8 39.13a2.16 2.16 0 1 0 -2.15 2.16 2.15 2.15 0 0 0 2.15-2.16z" fill="#b9ffff"/><path d="m1040.74 39.13a2.16 2.16 0 1 0 -2.16 2.16 2.16 2.16 0 0 0 2.16-2.16z" fill="#b9ffff"/><path d="m1054.28 34.25h81.41v44.64h-81.41z" fill="#b9ffff"/><path d="m1054.28 34.23h81.41v7.96h-81.41z" fill="#4e3ae7"/><path d="m1127.63 38.21a1.4 1.4 0 0 0 -2.79 0 1.4 1.4 0 1 0 2.79 0z" fill="#e462c7"/><path d="m1132.11 38.21a1.39 1.39 0 1 0 -1.39 1.4 1.39 1.39 0 0 0 1.39-1.4z" fill="#b9ffff"/><path d="m1066.22 52.69h8.67v8.67h-8.67z" fill="#fafbfd"/><path d="m1075.28 61.74h-9.44v-9.43h9.44zm-8.67-.76h7.9v-7.91h-7.9z" fill="#5c15ae"/><path d="m1068.92 55.39h3.28v3.28h-3.28z" fill="#b9ffff"/><path d="m1072.2 58.67v-3.28h-3.28v3.28zm.54-3.82v4.36h-4.36v-4.36z" fill="#4e3ae7"/><path d="m1060.67 47.16h8.95v8.95h-8.95z" fill="#b9ffff"/><path d="m1061.29 47.78h7.71v7.71h-7.71z" fill="#5c15ae"/><path d="m1125.14 50.67v-.8h-42.01v4.61h.7v-3.81z" fill="#68c0ff"/><path d="m1083.83 50.67h41.31v3.81h-41.31z" fill="#fff"/><path d="m1132.67 50.67v-.8h-5.19v4.61h.69v-3.81z" fill="#68c0ff"/><path d="m1128.17 50.67h4.49v3.81h-4.49z" fill="#fff"/><path d="m1132.67 59.48v-.79h-5.19v4.6h.69v-3.81z" fill="#68c0ff"/><path d="m1128.17 59.48h4.49v3.81h-4.49z" fill="#fff"/><path d="m1132.67 68.3v-.8h-5.19v4.61h.69v-3.81z" fill="#68c0ff"/><path d="m1128.17 68.3h4.49v3.81h-4.49z" fill="#fff"/><path d="m1125.14 59.48v-.79h-42.01v4.6h.7v-3.81z" fill="#68c0ff"/><path d="m1083.83 59.48h41.31v3.81h-41.31z" fill="#fff"/><path d="m1125.14 68.3v-.8h-42.01v4.61h.7v-3.81z" fill="#68c0ff"/><path d="m1083.83 68.3h41.31v3.81h-41.31z" fill="#fff"/><path d="m840.28.57h41.1v28.5h-41.1z" fill="#b9ffff"/><path d="m840.28.57h41.1v7.96h-41.1z" fill="#4e3ae7"/><path d="m874 4.41a1.4 1.4 0 1 0 -1.39 1.39 1.39 1.39 0 0 0 1.39-1.39z" fill="#e462c7"/><path d="m878.52 4.41a1.39 1.39 0 1 0 -1.39 1.39 1.39 1.39 0 0 0 1.39-1.39z" fill="#b9ffff"/><path d="m859.55 11.66v-.79h-16.11v16.1h.7v-15.31z" fill="#68c0ff"/><path d="m844.14 11.66h15.41v15.31h-15.41z" fill="#fff"/><path d="m852.77 20.07 1.44 2.42-1.34.93-1.49-2.7-1.33 1.19v-6.68l4.78 4.7z" fill="#68c0ff"/><path d="m878.08 11.66v-.79h-16.11v16.1h.7v-15.31z" fill="#68c0ff"/><path d="m862.67 11.66h15.41v15.31h-15.41z" fill="#fff"/><path d="m871.3 20.07 1.44 2.42-1.34.93-1.49-2.7-1.33 1.19v-6.68l4.78 4.7z" fill="#68c0ff"/><path d="m873 14.4v1.06h1v.27h-1v1.06h-.29v-1.06h-1v-.27h1v-1.06z" fill="#4e3ae7"/><path d="m885.9 0h98.25v28.5h-98.25z" fill="#b9ffff"/><path d="m885.9 0h98.25v7.96h-98.25z" fill="#4e3ae7"/><path d="m976.54 3.84a1.39 1.39 0 1 0 -1.39 1.39 1.4 1.4 0 0 0 1.39-1.39z" fill="#e462c7"/><path d="m981 3.84a1.4 1.4 0 1 0 -2.79 0 1.4 1.4 0 0 0 2.79 0z" fill="#b9ffff"/><path d="m905.17 11.09v-.79h-16.1v16.1h.69v-15.31z" fill="#68c0ff"/><path d="m889.76 11.09h15.41v15.31h-15.41z" fill="#fff"/><path d="m892.35 14.83h10.16v7.9h-10.16z" fill="#5c15ae"/><path d="m924.05 11.09v-.79h-16.1v16.1h.69v-15.31z" fill="#68c0ff"/><path d="m908.64 11.09h15.41v15.31h-15.41z" fill="#fff"/><rect fill="#5c15ae" height="7.5" rx="2.13" width="10.13" x="911.37" y="15.16"/><path d="m942.94 11.09v-.79h-16.11v16.1h.7v-15.31z" fill="#68c0ff"/><path d="m927.53 11.09h15.41v15.31h-15.41z" fill="#fff"/><path d="m940 19c0 1.93-2.09 3.49-4.68 3.49s-4.69-1.49-4.69-3.49 2.1-3.48 4.68-3.48 4.69 1.58 4.69 3.48z" fill="#5c15ae"/><path d="m961.82 11.09v-.79h-16.11v16.1h.7v-15.31z" fill="#68c0ff"/><path d="m946.41 11.09h15.41v15.31h-15.41z" fill="#fff"/><path d="m951.85 23.18-2.53-4.39 2.53-4.38h5.06l2.53 4.38-2.53 4.39z" fill="#5c15ae"/><path d="m980.7 11.09v-.79h-16.1v16.1h.69v-15.31z" fill="#68c0ff"/><path d="m965.29 11.09h15.41v15.31h-15.41z" fill="#fff"/><path d="m973.03 13.62 1.11 3.41h3.59l-2.91 2.11 1.11 3.42-2.9-2.11-2.91 2.11 1.11-3.42-2.9-2.11h3.59z" fill="#5c15ae"/><path d="m992.15 0h79.15v28.5h-79.15z" fill="#b9ffff"/><path d="m992.15 0h79.15v7.96h-79.15z" fill="#4e3ae7"/><path d="m1063.59 3.84a1.4 1.4 0 1 0 -2.79 0 1.4 1.4 0 0 0 2.79 0z" fill="#e462c7"/><path d="m1068.07 3.84a1.4 1.4 0 1 0 -1.39 1.39 1.4 1.4 0 0 0 1.39-1.39z" fill="#b9ffff"/><path d="m1011.42 11.09v-.79h-16.1v16.1h.69v-15.31z" fill="#68c0ff"/><path d="m996.01 11.09h15.41v15.31h-15.41z" fill="#fff"/><path d="m1030.3 11.09v-.79h-16.1v16.1h.69v-15.31z" fill="#68c0ff"/><path d="m1014.89 11.09h15.41v15.31h-15.41z" fill="#fff"/><path d="m1049.19 11.09v-.79h-16.11v16.1h.7v-15.31z" fill="#68c0ff"/><path d="m1033.78 11.09h15.41v15.31h-15.41z" fill="#fff"/><path d="m1068.07 11.09v-.79h-16.11v16.1h.7v-15.31z" fill="#68c0ff"/><path d="m1052.66 11.09h15.41v15.31h-15.41z" fill="#fff"/><path d="m1004.69 21.09c0 1.3 0 1.48.74 1.55h.39c.08 0 0 .27 0 .31-.71 0-1.13 0-1.62 0s-.92 0-1.71 0a.21.21 0 0 1 0-.31h.44c.7-.07.76-.25.76-1.55v-5.51c0-.38 0-.39-.36-.39h-.68a2.49 2.49 0 0 0 -1.52.31 2.25 2.25 0 0 0 -.56.85.24.24 0 0 1 -.32-.09 12.15 12.15 0 0 0 .47-1.84s.2 0 .24 0c.07.4.48.38 1 .38h5c.67 0 .78 0 1-.34a.23.23 0 0 1 .23 0 7.1 7.1 0 0 0 -.19 1.87.22.22 0 0 1 -.32 0c0-.3-.12-.76-.31-.89a2.37 2.37 0 0 0 -1.43-.31h-.94c-.37 0-.35 0-.35.42z" fill="#5c15ae"/><path d="m1041.38 21c-.47 1.06-.52 1.21 0 1.52l.31.18c0 .07-.06.24-.14.24-.56-.27-.9-.44-1.3-.62s-.76-.32-1.41-.59a.19.19 0 0 1 .11-.25l.38.13c.59.2.71.08 1.18-1l2-4.49c.13-.31.14-.32-.16-.46l-.55-.24a2.28 2.28 0 0 0 -1.35-.3 2 2 0 0 0 -.76.49.21.21 0 0 1 -.23-.19 11.88 11.88 0 0 0 1-1.32.27.27 0 0 1 .19.08c-.09.35.25.49.71.69l4.07 1.82c.55.24.64.26.91.07.06 0 .17.06.17.11a6.11 6.11 0 0 0 -.83 1.46.2.2 0 0 1 -.27-.1 1.39 1.39 0 0 0 .07-.84 2.09 2.09 0 0 0 -1-.77l-.71-.32c-.31-.14-.3-.12-.45.21z" fill="#5c15ae"/><path d="m1036.41 22.12c.13-.38.88-.26 1.76.13a13.06 13.06 0 0 1 1.72 1 13.15 13.15 0 0 0 1.51.85c.45.2.72.19.82 0l.75.33c-.12.43-.91.26-1.69-.09a15.52 15.52 0 0 1 -1.77-1 12.48 12.48 0 0 0 -1.45-.84c-.46-.21-.78-.24-.89 0z" fill="#5c15ae"/><path d="m1061.82 20.93c0 1.29 0 1.48.74 1.54h.4c.07 0 0 .27 0 .31-.7 0-1.12 0-1.62 0s-.92 0-1.71 0a.21.21 0 0 1 0-.31h.44c.71-.06.77-.25.77-1.54v-5.51c0-.38 0-.4-.37-.4h-.68a2.57 2.57 0 0 0 -1.52.31 2.22 2.22 0 0 0 -.55.85.23.23 0 0 1 -.32-.09 14.52 14.52 0 0 0 .47-1.83.26.26 0 0 1 .23 0c.07.39.48.38 1 .38h5c.67 0 .78 0 1-.35h.22a7.68 7.68 0 0 0 -.19 1.88c0 .09-.25.09-.32 0a1.49 1.49 0 0 0 -.31-.9 2.44 2.44 0 0 0 -1.43-.31h-.87c-.37 0-.36 0-.36.42z" fill="#5c15ae"/><path d="m1056.96 21.53-.66 1.14-.66-1.14z" fill="#5c15ae"/><path d="m1056.17 14.57h.26v7.09h-.26z" fill="#5c15ae"/><path d="m1029.58 24.43a5.72 5.72 0 0 0 0-2.14 5 5 0 0 0 -.55-2.07 15.4 15.4 0 0 1 -1.56-2.4 10.07 10.07 0 0 1 -.32-3.5h-9.38a11.28 11.28 0 0 0 .23 3.68 13.57 13.57 0 0 0 1.45 2.34 4.43 4.43 0 0 1 .59 1.92 5.72 5.72 0 0 1 0 2.14z" fill="#d9d9d9"/><path d="m1029.31 24.24a6.17 6.17 0 0 0 0-2.14 4.52 4.52 0 0 0 -.59-1.93 13.2 13.2 0 0 1 -1.45-2.34 11 11 0 0 1 -.28-3.71h-9.49a11.28 11.28 0 0 0 .27 3.71 13.25 13.25 0 0 0 1.46 2.34 4.52 4.52 0 0 1 .59 1.93 6.17 6.17 0 0 1 0 2.14z" fill="#fff"/><path d="m1023.17 21c0 1.14 0 1.3.65 1.35h.35c.06 0 0 .23 0 .27-.62 0-1 0-1.42 0s-.82 0-1.51 0a.18.18 0 0 1 0-.27h.39c.62-.05.67-.21.67-1.35v-4.83c0-.34 0-.35-.32-.35h-.6a2.21 2.21 0 0 0 -1.33.27 2 2 0 0 0 -.49.75.21.21 0 0 1 -.28-.08 12.29 12.29 0 0 0 .41-1.61.3.3 0 0 1 .21 0c.06.35.42.33.92.33h4.38c.59 0 .69 0 .85-.3a.23.23 0 0 1 .2 0 6.29 6.29 0 0 0 -.17 1.65c0 .09-.22.09-.28 0a1.38 1.38 0 0 0 -.27-.79 2.2 2.2 0 0 0 -1.26-.27h-.77c-.32 0-.31 0-.31.37z" fill="#5c15ae"/><path d="m958.3 64.06c9.1 1.82 14.56 11.83 21.84 19.11 10.93 10 25.49-1.82 37.32 2.73s20.78 13.93 30.58 21.79v-62.8h-158.1c11.87 25.93 45.06 13.11 68.36 19.17z" fill="#b9ffff"/><path d="m1017.46 85.9c-11.83-4.55-26.39 7.28-37.32-2.73-7.28-7.28-12.74-17.29-21.84-19.11-23.3-6.06-56.49 6.76-68.36-19.17h-11.36v93.49a3.47 3.47 0 0 0 3.47 3.47h162.52a3.47 3.47 0 0 0 3.47-3.47v-30.69c-9.8-7.86-18.74-17.15-30.58-21.79z" fill="#68c0ff"/><path d="m722.72 222.37v28a15.92 15.92 0 0 0 23.56 14l80-43.75a15.7 15.7 0 0 0 7.92-10.6 16.35 16.35 0 0 0 .31-2.1v-1.63l-99.25 3.71z" fill="#68c0ff"/><path d="m834 202.5a15.65 15.65 0 0 0 -7.65-9.82l-80-44.48a15.92 15.92 0 0 0 -23.66 13.92v28l12.54 12.4 99.27 3.73v-.93a15.63 15.63 0 0 0 -.5-2.82z" fill="#68c0ff"/><path d="m725.72 218.63v28a15.92 15.92 0 0 0 23.56 14l80-43.74a15.74 15.74 0 0 0 7.92-10.61 16.46 16.46 0 0 0 .31-2.09v-1.69l-99.27 3.73z" fill="#c70045"/><path d="m837 198.76a15.65 15.65 0 0 0 -7.65-9.82l-80-44.48a15.92 15.92 0 0 0 -23.66 13.92v28l12.54 12.4 99.27 3.74v-.94a15.63 15.63 0 0 0 -.5-2.82z" fill="#fc4c44"/><path d="m485.25 285.53h1.62l44.8-59.67 4.91-13.13a8.71 8.71 0 0 1 8.14-5.65h7.47l3.23 1.89 34-1.89a6.72 6.72 0 0 1 -6.42 6.72l-17.28.63-.51 12.63a11.72 11.72 0 0 1 -7.3 10.4l-11.62 4.71-4.59 4.14-43.43 71.36a5.21 5.21 0 0 1 -6.16 2.22l-16.27-5.66 7-28.6z" fill="#ffcebd"/><path d="m557.44 214.18c-25 21-43 48-57 78-4.4 9.3-13.11 13.56-22.85 14.79l-1.79 7.26 16.27 5.66a5.21 5.21 0 0 0 6.16-2.22l43.43-71.36 4.59-4.14 11.62-4.71a11.72 11.72 0 0 0 7.3-10.4l.51-12.63 17.32-.63a6.72 6.72 0 0 0 6.25-5c-10.86 3.37-24.98-1.45-31.81 5.38z" fill="#ff9395"/><path d="m500.44 292.18c14-30 32-57 57-78 6.83-6.83 20.95-2 31.77-5.42a6.67 6.67 0 0 0 .22-1.68l-34 1.89-3.23-1.89h-7.47a8.71 8.71 0 0 0 -8.14 5.65l-4.91 13.13-44.8 59.67h-1.62l-2.43.1-5.24 21.37c9.74-1.26 18.41-5.52 22.85-14.82z" fill="#ffadae"/><path d="m412.42 230.4 40.83 23.6a11.56 11.56 0 0 1 2.09 1.53l30.45 27.47-6.11 39.17-77-45.75z" fill="#fc4c44"/><path d="m500.79 264.63c-10 11.55-18.64 21.52-24.67 31.44-6.6 10.88-6.28 20.47.88 25.66 7.63 5.51 17.79 2.25 25.3-8.12 10-13.78 18.05-27.71 26.61-42.46 5.69-9.81 11.53-19.87 18.41-30.8l-16.73-12.12c-10.79 14.42-20.8 26.01-29.8 36.4z" fill="#fc4c44"/><path d="m498.26 302.23c-7 7-18 3-23 2-16-4.46-30.49-18.42-47.59-12.93l46.45 27.61a13.78 13.78 0 0 0 2.88 2.82c7.63 5.51 17.79 2.25 25.3-8.12 10-13.78 18.05-27.71 26.61-42.46 5.69-9.81 11.53-19.87 18.41-30.8l-4.54-3.29c-21.32 15.1-26.24 45.94-44.52 65.17z" fill="#c70045"/><path d="m460.6 589.42a27.4 27.4 0 0 0 0-4c-2.6-36-6.57-83.13-14.17-130.85a26 26 0 0 0 .18-3.07l-2.79-36h-98.77v36a25.32 25.32 0 0 0 .19 3c-1 29.64 17 288.59 18.84 306.94a12.63 12.63 0 0 0 12.39 11.11 11.93 11.93 0 0 0 8.53-3.55 12.43 12.43 0 0 0 3.61-8.84c0-40.45 3.49-73.53 6.57-102.71 2.52-24 4.71-44.73 4.71-65.61 0-.06 0-.11 0-.16.07-.43.14-.85.19-1.29 1.25-12.26 2.58-25.83 3.81-40.29l.4 1.42c3.48 12.51 7.07 25.45 10.6 39-13.56 41.53-17.8 149.16-19.19 167.54a12.61 12.61 0 0 0 10.26 13.1 11.93 11.93 0 0 0 9-2 12.42 12.42 0 0 0 5.09-8.08c7-39.84 16.2-71.8 24.3-100 6.66-23.2 12.41-43.23 16-63.8a27.75 27.75 0 0 0 .25-7.86z" fill="#4e1371"/><path d="m405.87 483.39c-14.81 7.41-27.16 19.76-28.39 33.33-3.7 72.84-7.41 145.67 0 219.74 1 11.61 3.43 24 .89 35.92a12 12 0 0 0 6.63-3.38 12.43 12.43 0 0 0 3.61-8.84c0-40.45 3.49-73.53 6.57-102.71 2.52-24 4.71-44.73 4.71-65.61 0-.06 0-.11 0-.16.07-.43.14-.85.19-1.29 1.21-11.87 2.49-25 3.69-38.92-1.77-22.87 2.1-44.98 2.1-68.08z" fill="#4e3ae7"/><path d="m460.6 589.42a27.4 27.4 0 0 0 0-4c-2.6-36-6.57-83.13-14.17-130.85a26 26 0 0 0 .18-3.07l-2.79-36h-23.1c8.28 64.5 21.78 167.06 21.78 167.06s-24.59 133.58-31.88 188.5a12.12 12.12 0 0 0 4.29-1.9 12.42 12.42 0 0 0 5.09-8.08c7-39.84 16.2-71.8 24.3-100 6.66-23.2 12.41-43.23 16-63.8a27.75 27.75 0 0 0 .3-7.86z" fill="#4e3ae7"/><path d="m445.52 439.27c.93-48.34-2.49-76.57.88-105 .44-3.68 6.28-11.56 6.71-15.35 1.76-15.42 2.81-32.55 4-54 .34-6-5.73-14.7-10.75-18.09-26-9.64-34.49-24.52-58.4-24.52-22.31 0-38.22 12.38-60.19 23.7a32.8 32.8 0 0 0 -17.36 24.17 34.38 34.38 0 0 0 -.43 4.94c0 49.61 35 61.38 35 164.1z" fill="#fc4c44"/><path d="m430.55 404.38c0-.11 0-.22 0-.33a5.79 5.79 0 0 0 0-.72z" fill="#fff"/><path d="m354.08 402.45a16.38 16.38 0 0 0 15.53 16.09c22.25 1.14 52.75 1.5 61-9.26 12.57-17.81 7.33-45 10.47-69.14 2.49-11.59 8.05-46.35 15.65-55.51-.22 2.23-3.4 32.18-3.65 34.33-.43 3.79-6.27 11.67-6.71 15.35-3.37 28.39.05 56.62-.88 105h-100.44c0-51.8-8.91-80.47-17.74-102.53 22.9 13.39 26.28 39 26.77 65.67z" fill="#c70045"/><rect fill="#e8dffc" height="13.88" rx="3.88" width="106.83" x="341.35" y="426.33"/><rect fill="#c70045" height="8.94" rx="1.69" width="18.41" x="411.02" y="428.8"/><path d="m367.49 229.5c17.17 9.22 36.56 8 39.4 0 .72-9.83-.16-20.89-.76-32.35a20.52 20.52 0 0 0 -16.85-18.68c-10.47-1.75-19.18 5.72-18.72 16.1 1.95 17.59.38 24.18-3.07 34.93z" fill="url(#f)"/><path d="m408.32 235.45a74.76 74.76 0 0 1 -6.63 13c-4.87-4.34-10.2-8.68-16.13-13 2.79-2 13.41-7 13.41-7s7.3 1.96 9.35 7z" fill="#a5004a"/><path d="m393.26 245.45c3.84-5.62 5.76-11.29 5.71-17-11.32-3.36-26.55-9.43-27.4-14.37-2.22.52-2.41 3.46-2.75 6.66-2.4 3.76-5.3 3.82-3.43 7.8 2.51 5.32 16.09 15.04 27.87 16.91z" fill="#fff"/><path d="m396.62 244.08c6.67 35.56-9.3 75.81-2.43 111.37 6.34 5.83 8.17 7 16.27 12.81 1.09-5.84.82-10.42 3.68-16.25-14.35-35.56 4-72.37-10.12-107.93z" fill="#c70045"/><path d="m396.62 244.08c9.91 35.5-2.39 75.69 7.72 111.19 6.87 5.83 8.8 7 17.43 12.79.56-5.82-.12-10.4 2.2-16.22-17.59-35.5-2.57-72.26-20-107.76z" fill="#fff"/><path d="m409.83 245.45c-3.57-5.68-9.44-11.35-10.86-17 6.2-3 8-7.81 8-13.74 2.5.58 4.3 6 6.18 10.89 1.13 3.74-4.64 14.48-3.32 19.85z" fill="#fff"/><path d="m404 202.41a8.36 8.36 0 0 0 8.24 4.66c6.44-.83 5.71-6.46 5.71-6.46a59.66 59.66 0 0 1 -6.72 2.07 23.09 23.09 0 0 1 -7.23-.27z" fill="#fff"/><path d="m427.35 160.41a40.29 40.29 0 0 1 -.6 15.62c-2.84 12.28-2.84 24.21-7.2 34.93-3.1 7.6-4 15.59-17.14 13.2-8.87-1.62-19.33-3.67-27.56-15.35-5.07-7.17-15.81-21.43-.66-38.1s52.51-14.23 52.51-14.23z" fill="#ffadae"/><path d="m359.44 155c4.18-12.71 18.93-22 31.45-17.32a15 15 0 0 1 10-9.89c1.26-.37 2.66-.61 3.16-2.22a3.42 3.42 0 0 0 -.34-2.72v-.07a3.39 3.39 0 0 1 2.55-5 25.75 25.75 0 0 1 28.38 20.72 39.7 39.7 0 0 1 0 13 23.74 23.74 0 0 1 -2.41 8.41c-3.72 6.67-12.32 9.1-19.94 8.57s-14.91-3.32-22.49-4.36c-3.35-.46-7.72 0-8.7 3.29s4.63 8.57 2.11 11c-9.4 9-12.15 20.64-12.15 26.33-7.13-7.53-14.61-40.63-11.62-49.74z" fill="#1c1e38"/><path d="m434.6 138.44a26.24 26.24 0 0 0 -13.27-17.93 25.71 25.71 0 0 0 -8.29-2.66c9.72 7.24 19.32 17.08 11.68 29.5-11.65 18-37.06 0-47.65 14.82-7.93 10.58-6.33 26.28-6.79 41.63.24.3.47.58.7.83 0-5.69 2.75-17.3 12.15-26.33 2.52-2.42-3.13-7.65-2.11-11s5.35-3.75 8.7-3.29c7.58 1 14.87 3.83 22.49 4.36s16.22-1.9 19.94-8.57a23.8 23.8 0 0 0 2.41-8.41 39.7 39.7 0 0 0 .04-12.95z" fill="#1c2a52"/><path d="m384 183.53c-4.89-5.84-9.16-5.2-11-.14-1.89 5.22 9.44 13.32 9.44 13.32z" fill="#ffadae"/><path d="m393.75 204.91c6.68 3.22 14.67-1.48 22-.11 2.15.4 4.37 1.51 5.23 3.53a9 9 0 0 1 .07 5.09c-1 5.47-2.22 11.39-6.48 15-3.27 2.74-7.75 3.53-12 3.71-5.27.22-10.69-.38-15.38-2.78s-8.53-6.86-9.22-12.08c-.45-3.42.46-6.78 1.61-10s2-6.89 3.49-9.86c1.63-3.34 3.5-.95 4.66 1.17a14.28 14.28 0 0 0 6.02 6.33z" fill="#1c2a52"/><path d="m461.17 782.13c1.68 2.55.59 8.53.59 8.53s-33.88 4.06-44.8 1.58c-2.84-.64-7.66-3-12.19-5.6-.77-.42-2.13-3-2.87-3.45-1.37-.8-2.07.56-3.25-.16a40.5 40.5 0 0 1 -5.21-3.53c-3.1-15.53.81-21.84.81-21.84s13.22 7.6 11.58 3.81c-3.53-8.1 13.11-11.39 15.53-6.94 9.64 17.8 34.96 20.25 39.81 27.6z" fill="#4e1371"/><path d="m462.18 785.45c-10.45 1.43-32.4 4.29-36.45 3.58-16.59-2.87-26.55-11.48-33.31-16.78a63.66 63.66 0 0 0 1 7.25 40.5 40.5 0 0 0 5.21 3.53c1.18.72 1.88-.64 3.25.16.74.44 2.1 3 2.87 3.45 4.53 2.56 9.35 5 12.19 5.6 10.92 2.48 44.8-1.58 44.8-1.58a22.09 22.09 0 0 0 .44-5.21z" fill="#4e1371"/><path d="m442.52 771c.15.6-1.21.94-3 .87a61.79 61.79 0 0 0 -11.25.58c-1.87.27-3.44 0-3.53-.6s1.36-1.49 3.19-1.74a61.11 61.11 0 0 1 11.11-.48c1.76.1 3.33.78 3.48 1.37z" fill="#fff"/><path d="m436.18 766.84c.12.61-1.25 1.09-3.06 1.16a62.5 62.5 0 0 0 -11.1 1.48c-1.83.42-3.38.3-3.44-.37s1.37-1.64 3.18-2a60.06 60.06 0 0 1 11-1.37c1.76-.08 3.29.49 3.42 1.1z" fill="#fff"/><path d="m430 763c.11.64-1.26 1.25-3.06 1.46a62.45 62.45 0 0 0 -10.94 2.36c-1.8.55-3.31.53-3.35-.17s1.36-1.78 3.13-2.31a61.54 61.54 0 0 1 10.82-2.22c1.81-.19 3.32.27 3.4.88z" fill="#fff"/><path d="m431.44 789c1.67 2.54.59 8.53.59 8.53s-33.88 4.06-44.81 1.58c-2.84-.64-7.65-3-12.18-5.6-.77-.43-2.13-3-2.87-3.45-1.38-.8-2.07.56-3.25-.16a38 38 0 0 1 -5.21-3.54c-3.1-15.52.81-21.83.81-21.83s13.22 7.6 11.57 3.81c-3.53-8.11 13.11-11.39 15.54-6.94 9.67 17.78 34.96 20.23 39.81 27.6z" fill="#4e1371"/><path d="m432.45 792.3c-10.46 1.43-32.4 4.29-36.45 3.58-16.59-2.87-26.55-11.49-33.32-16.78a63.72 63.72 0 0 0 1 7.24 38 38 0 0 0 5.21 3.54c1.18.72 1.87-.64 3.25.16.74.44 2.1 3 2.87 3.45 4.53 2.56 9.34 5 12.18 5.6 10.93 2.48 44.81-1.58 44.81-1.58a22.09 22.09 0 0 0 .45-5.21z" fill="#4e1371"/><path d="m412.79 777.87c.15.6-1.22.93-3 .87a60 60 0 0 0 -11.25.58c-1.87.27-3.45 0-3.54-.6s1.37-1.49 3.2-1.74a61 61 0 0 1 11.1-.49c1.76.09 3.33.76 3.49 1.38z" fill="#fff"/><path d="m406.45 773.68c.12.62-1.26 1.1-3.07 1.17a62.52 62.52 0 0 0 -11.09 1.48c-1.83.42-3.38.3-3.45-.37s1.37-1.64 3.18-2a61 61 0 0 1 11-1.36c1.76-.09 3.29.47 3.43 1.08z" fill="#fff"/><path d="m400.29 769.87c.11.64-1.27 1.25-3.07 1.46a62.81 62.81 0 0 0 -10.92 2.33c-1.8.55-3.31.54-3.34-.16s1.36-1.78 3.13-2.31a61.25 61.25 0 0 1 10.81-2.19c1.78-.22 3.29.23 3.39.87z" fill="#fff"/><path d="m299 399.54c-6.8-1.2-11.42-7.61-9.81-18.22 6-34.18 4.23-60.83 12.59-84l2.38-16.32c2.66-17.45 14.15-30.31 25.34-28.34 11.52 2 10.35 29.75 2.75 48.91-.36 37.95-12.31 44.88-17.84 84.16-2.11 10.56-8.65 15.01-15.41 13.81z" fill="#fba284"/><path d="m312.89 485.54c-8.57-38.83-18.72-64.83-24.15-95.67-2-11.37 2-19 9.32-20.31 7.1-1.25 12.77 4.2 15.59 15 5.93 22.72 4.38 53.09 12.8 97.92 1.2 7.75-11.87 10.45-13.56 3.06z" fill="#ffadae"/><path d="m314.45 515.75a3.3 3.3 0 0 0 2.95-3.64l-1-10.51c-.2-2.09-7.66-3.67-7.38-1.58l1.69 12.73a3.43 3.43 0 0 0 3.74 3z" fill="#ffadae"/><path d="m316.64 514.13a3.29 3.29 0 0 0 3.12-3.49l-.49-10.54a3.73 3.73 0 0 0 -3.76-3.67 3.59 3.59 0 0 0 -3.27 4l.85 10.52a3.44 3.44 0 0 0 3.55 3.18z" fill="#ffadae"/><path d="m323.13 515.51a3.29 3.29 0 0 0 3.12-3.49l-.63-13.52a3.73 3.73 0 0 0 -3.76-3.67 3.59 3.59 0 0 0 -3.27 4l1 13.5a3.44 3.44 0 0 0 3.54 3.18z" fill="#ffadae"/><path d="m329.68 486.61c-1.68-5.3-7.68-12.45-14.21-11.61-8.63 1.15-7.45 16.72-6.41 25 1.62 5 6.46 7.46 11.47 7 2.33-.22 8.79.2 10.16-4s-.23-14-1.01-16.39z" fill="#ffadae"/><path d="m332.47 499.22c1.51 4.64 5.94 10.45 9 10.09 1.4-.17 1.45-1.41.85-2.69a71.88 71.88 0 0 1 -3.87-11.93c-1.98-3.57-7.94-1.24-5.98 4.53z" fill="#ffadae"/><path d="m326.18 480.47c-6.76 1.66-4.82 11.32.15 14.54 1.82 1.17 3.14 4.38 4.79 5.79.1-1.2 1.73-.72 2.09.3 1.13 2.78 6.52-3.17 5.1-7.08-1.31-3.73-9.2-11.85-12.13-13.55z" fill="#ffadae"/><path d="m344.52 520.78a4.19 4.19 0 0 0 -1.61-5.7l-11.55-6.48c-1.58-.88-2.73-1.84-3.62-.26l-1.74 3.13c-1 1.77.74 2.41 2.66 3.09z" fill="#ffadae"/><path d="m328.49 512.87a3.31 3.31 0 0 0 3-3.63l-1.24-13.47a3.73 3.73 0 0 0 -3.92-3.5 3.58 3.58 0 0 0 -3.09 4.14l1.6 13.45a3.44 3.44 0 0 0 3.65 3.01z" fill="#ffadae"/><path d="m286.89 376.46c1.93-12 2.94-22.94 3.91-33.53 1.59-17.32 3-32.3 8-46.38l2.39-16c1.77-11.65 7.31-21.82 14.83-27.21 4.47-3.22 9.32-4.48 14-3.65a11.18 11.18 0 0 1 7.82 6c5.74 10.28 3.2 31.56-2.58 46.49-.27 21.39-4.27 33.39-8.5 46.09-3.39 10.16-6.89 20.68-9.28 37.35 2.63 11 3.95 24.95 5.47 40.93 1.42 14.83 2 25.37 4.86 43.48l-20.33 3.58c-3.08-12.74-5.31-18.79-8.5-30.47-5-18.43-9.79-35.83-12.79-52.85a27.83 27.83 0 0 1 .7-13.83z" fill="#fc4c44"/><path d="m343.95 520.78h-22.13l-9.59-5.61 14.03-5.19 14.82 7.33z" fill="#ffadae"/><path d="m286.89 376.46c1.93-12 2.94-22.94 3.91-33.53 1.52-16.51 2.85-30.89 7.32-44.4-5.87 85.7-8 92.83 4.72 140.08 3.14 8.38 8.38 18.86 18.85 23.05 1.73.49 3.4.92 5.05 1.29.32 2.24.67 4.59 1.07 7.1l-20.33 3.58c-3.08-12.74-5.31-18.79-8.5-30.47-5-18.43-9.79-35.83-12.79-52.85a27.83 27.83 0 0 1 .7-13.85z" fill="#c70045"/><path d="m1096.18 257.36 69.32-17.39-13.99-31.06-12.73-9.73-9.18-65.76-20.14 38.96-7.29 44.37z" fill="#ff9395"/><path d="m1020.26 733.82h31.17v24.35h-31.17z" fill="#ffcebd" transform="matrix(-1 0 0 -1 2071.69 1492)"/><path d="m1063.53 405.42-43.27 191.58v143.69h31.17s25.82-99.69 12.66-141.09l51.64-119.5z" fill="#5c15ae"/><path d="m1039.45 705.18c-1-3-1-8 2-11 23-17 12-40 1-61-5-8 8-14 12-21a10.83 10.83 0 0 0 0-11c-21-31 27-49 26-75-1-23 2-45 2-68 .93-14.86-13.66-28-27.14-35.39l-35 174.21v143.69h23.69c6.69-8.47-3-24.04-4.55-35.51z" fill="#4e3ae7"/><path d="m1115.73 480.1-52.2-74.68-3.92 17.37c13.48 7.4 23.77 20.53 22.84 35.39 0 23-3 45-2 68 1 26-47 44-26 75a10.83 10.83 0 0 1 0 11c-4 7-17 13-12 21 11 21 22 44-1 61-3 3-3 8-2 11 1.53 11.47 11.24 27 4.55 35.51h7.43s25.82-99.69 12.66-141.09z" fill="#4e1371"/><path d="m1059.55 743.12v31.52a2.42 2.42 0 0 1 -2.43 2.42h-97.12a2.42 2.42 0 0 1 -2.43-2.42v-2a10 10 0 0 1 8.08-9.85l11.44-2.29a29 29 0 0 0 16.21-9.4l14.53-16.71a2.42 2.42 0 0 1 1.83-.83h2.08a2.42 2.42 0 0 1 2.07 1.16l5.75 9.41a2.42 2.42 0 0 0 2 1.16l28.67.9a2.45 2.45 0 0 0 2-.89l3.06-3.71a2.43 2.43 0 0 1 1.87-.89 2.43 2.43 0 0 1 2.39 2.42z" fill="#fff"/><path d="m1123.76 740.69h23.14v24.35h-23.14z" fill="#ffcebd" transform="matrix(-1 0 0 -1 2270.66 1505.74)"/><path d="m1160.54 426.52-2 165.12c17.53 36.05-11.69 149.05-11.69 149.05h-25.33l-3.41-133.3-28.25-133.66-38.48-54z" fill="#5c15ae"/><path d="m1142.45 728.18c7-14-5-27-2-41 7-26 23-57-3-80-8-7 7-18 10-28 2-10-8-14-11-22 0-3-1-6 2-9 11-13 14-33 1-48-3-2-3-8 0-12 10-16 20-39 5-50-22-17.2-54.92-1.55-78.74-17.58l-14.28-.9 10.78 15.15a229.12 229.12 0 0 1 37.57 85.59l18.38 86.95 3.41 133.3h10.43a44 44 0 0 0 10.45-12.51z" fill="#4e3ae7"/><path d="m1158.59 591.64 2-165.12-94.83-5.92c23.82 16 56.76.38 78.74 17.58 15 11 5 34-5 50-3 4-3 10 0 12 13 15 10 35-1 48-3 3-2 6-2 9 3 8 13 12 11 22-3 10-18 21-10 28 26 23 10 54 3 80-3 14 9 27 2 41a44 44 0 0 1 -10.5 12.51h14.89s29.23-113 11.7-149.05z" fill="#4e1371"/><path d="m1091.56 776.51h36.57a1.69 1.69 0 0 0 .73-.16l21.81-10.14a1.75 1.75 0 0 0 1-1.72l-1.11-13.31a1.74 1.74 0 0 0 -3.18-.82 1.71 1.71 0 0 1 -1.35.77l-4 .22a1.73 1.73 0 0 1 -1.55-.77l-3.72-5.58a9.67 9.67 0 0 0 -8-4.31h-9.4a9.68 9.68 0 0 0 -7.8 3.95l-21.37 29.11a1.73 1.73 0 0 0 1.37 2.76z" fill="#fff"/><path d="m1151.77 767.61v4.84a1.22 1.22 0 0 1 -.62 1.06l-20 11.23a3.47 3.47 0 0 1 -1.7.44h-37.84a3.47 3.47 0 0 1 -3.47-3.47v-1.71a3.48 3.48 0 0 1 3.47-3.47h29a35.83 35.83 0 0 0 15.14-3.35l14.25-6.68a1.22 1.22 0 0 1 1.77 1.11z" fill="#4e1371"/><rect fill="#4e1371" height="8.67" rx="2.89" transform="matrix(-1 0 0 -1 2017.13 1561.69)" width="101.96" x="957.58" y="776.51"/><path d="m1096.94 220.35-23.83 17.65c-.59.78-17.92 15.63-18.33 16.5l-29 63.67c-6.72 16.92 10.07 37.74 28 34.89l5.61-.89 67.61-100.89z" fill="#fff"/><path d="m1183.39 264.09-17.89 167.22h-122.84l32.64-195.24 26.87-19.32 15.07 26.25 34.27-34.09z" fill="#fff"/><path d="m1080 139.14v22.41l2.93 2.92a20.88 20.88 0 0 0 -5.85 15.21h5.92v13.89a17.16 17.16 0 0 0 17.17 17.17h2.19a24 24 0 0 0 24-24v-9.62s9.25-4.38 9.25-12.66c0 0 1.46-12.66-6.33-12.18 0 0-10.23-.48-10.72 7.8l-11.16-5.3a8.39 8.39 0 0 0 -7.83-8.37l-.57-13.11s-13.11-2.44-19 5.84z" fill="#ffadae"/><path d="m1183.39 264.09-7-12.09c.39 7-1.56 13.78-7 19.18-7 7-20 7-21 18-3 15 15 24 9 39-4 11-13 19-21 28-1 2-3 6-2 9 8 14 27 31 11 45-11.53 9.75-24.43 16.36-38.1 21.13h58.15z" fill="#eecdbc"/><path d="m1215.58 319.27 2.43 27.85-24.84 116.88 2.92 15.1-2.92 20-7.19 6.33-9.86 2.92-10.62 3.9h-4.5l-5.43-2.22a3.35 3.35 0 0 1 -1.36-5.15l3.38-4.32 2.44-12.41-3.9 6.56-3 .79a2.27 2.27 0 0 1 -2.69-3.05l7.62-18.72 15.3-15.86 10-101.26-3.86-37.34z" fill="#ffcebd"/><path d="m1182.45 447.18c1-7 3-14 4-21 3-20 11-37 13-57 1-12 4-27-5-35-3.87-3.39-8.68-4.43-13.85-4.61l2.79 27-10 101.26-15.3 15.86-7.74 19a2.12 2.12 0 0 0 2.5 2.84l3.29-.87 3.9-6.56-2.44 12.41-3.29 4.21a3.44 3.44 0 0 0 1.4 5.31l5.3 2.17h4.48l10.62-3.9 5.18-1.53a19.34 19.34 0 0 0 1.15-4.64c2.01-17.95-4.99-35.95.01-54.95z" fill="url(#g)"/><path d="m1218 347.12-2.43-27.85h-36l1.07 10.3c5.17.18 10 1.22 13.85 4.61 9 8 6 23 5 35-2 20-10 37-13 57-1 7-3 14-4 21-5 19 2 37 0 55a19.34 19.34 0 0 1 -1.15 4.64l4.68-1.39 7.19-6.33 2.92-20-2.92-15.1z" fill="#ff9395"/><path d="m1151.51 208.91 55.66 31.76a20.65 20.65 0 0 1 10.4 17l2.88 61.62h-44.33l-2.72-42.29z" fill="#fff"/><path d="m1046.31 355.11c-25-11.38-15.8-34.51-15.64-35.33 5.62-28.91 26.92-46.38 29-61.73 1.18-8.71-2.76-17.54-5-24.18-2.52-7.34-1.07-12.58 3-13.93 4.48-1.49 16.5-6.16 17.49-9.25 3.38-10.56.13-22.27 4.44-22 7.3.45 2.61 32.61 10.09 39.53 4.27 4 16.14-.71 16.64 4.25 1 10-12.77-5.42-21 19.36-3.55 10.74-14 17.31-25.18 80.91-1.25 7.02-7.35 25.33-13.84 22.37z" fill="#ff9395"/><path d="m1065.45 281.07c4.68-6.59 2.92-15.8 7.51-23.43.79-3.18 3.65-6.52 4.52-8.67 8.81-19.25.94-41.78 2.08-60.29-4.31-.26-1.06 11.45-4.44 22-1 3.09-13 7.76-17.49 9.25-4.06 1.35-5.51 6.59-3 13.93 2.28 6.64 6.22 15.47 5 24.18-2.09 15.35-23.39 32.82-29 61.73-.16.82-9.29 23.88 15.53 35.28-7.94-24.72 3.96-51.17 19.29-73.98z" fill="#ffadae"/><path d="m1073.87 96.54a14.86 14.86 0 0 1 8.72-.48c2.84.88 5.31 3.46 5.21 6.35 0 1.27-.56 2.51-.42 3.78a5.41 5.41 0 0 0 3.64 4 20.6 20.6 0 0 0 5.64.92 28.46 28.46 0 0 1 12.5 3.73 16.4 16.4 0 0 1 6.59 7.55c.48 0 1 .23 1.45 0 17.29-9.83 32.88 5.62 31.81 13.63-.71 5.34 12.08 8.65 14.28 13.64 3.61 8.15-9.29 21.06-14.3 28.31-3.29 4.77-7.48 9.89-6.4 15.61.42 2.22 1.61 4.23 2.26 6.39s.6 4.79-1.07 6.29c-2.49 2.23-6.61.56-9.14-1.71a23.4 23.4 0 0 1 -6.31-25.05 18.15 18.15 0 0 0 1.59-5.06c.13-1.78-.72-3.8-2.45-4.38s-3.32.32-4.62 1.36a15.77 15.77 0 0 0 -5.78 13.6c.71 7.56 6.74 13.89 7.82 21.42 1 7.2-2.82 14.39-8.5 18.94s-13 6.81-20.24 8.1c-2.72.49-5.58.84-8.24 0s-5-3.23-4.91-5.94c.06-1.62 1-3.06 1.54-4.55 3.4-8.61-3.78-23.29-5.26-32.49-.39-2.39-.41-5 .85-7 2.67-4.34 10.94 1.66 14.35 5.58 1.69 1.94 2.8 4.52 5.1 5.69 2.72 1.39 6.2.14 8.12-2.13s2.64-5.3 3.06-8.24a60.92 60.92 0 0 0 -3.13-29.61 12.74 12.74 0 0 0 -2.64-4.71 9.41 9.41 0 0 0 -9.06-2.34c-8.06 1.91-15.14 5.76-33.23-3a26.43 26.43 0 0 1 -6.53-4.1c-4.87-4.54-6.08-11.79-5-18.21a33.29 33.29 0 0 1 22.7-25.89z" fill="#4e3ae7"/><path d="m1104.1 222.21c3.81-3 .4-8.66 3.41-12 2.73-2.54 10-2.57 8.75-9.19-.77-8.31-3.68-21 3.48-26.21a15.73 15.73 0 0 0 -2.67 10.21c.71 7.56 6.74 13.89 7.82 21.42 1 7.2-2.82 14.39-8.5 18.94s-13 6.81-20.24 8.1c-2.72.49-5.58.84-8.24 0s-5-3.23-4.91-5.94c.06-1.62 1-3.06 1.54-4.55a14.84 14.84 0 0 0 1-5.85c1.1 1.61 2.16 3.24 3.24 4.84 2.6 5.35 10.15 4.54 15.32.23z" fill="#4e1371"/><path d="m1084.4 96.88a6.53 6.53 0 0 1 3.4 5.53c0 1.27-.56 2.51-.42 3.78a5.41 5.41 0 0 0 3.64 4 20.6 20.6 0 0 0 5.64.92 28.46 28.46 0 0 1 12.5 3.73 16.4 16.4 0 0 1 6.59 7.55c.48 0 1 .23 1.45 0 17.29-9.83 32.88 5.62 31.81 13.63-.71 5.34 12.08 8.65 14.28 13.64 3.61 8.15-9.29 21.06-14.3 28.31-3.29 4.77-7.48 9.89-6.4 15.61.42 2.22 1.61 4.23 2.26 6.39s.6 4.79-1.07 6.29c-2.49 2.23-6.61.56-9.14-1.71a23 23 0 0 1 -5.57-7.74c4.74 1.57 10 .15 8-5.9-3-11.68 7.54-18.44 6.61-28.46-.72-5.55-8.46-9.22-8.1-15.26-.73-5.55.72-12.08-4.34-15.66-7.18-5.23-17.26 2.61-23.07-3.89-7.15-7.86-18.18-7.43-25.61-14.5-4.12-5.14-2.67-11.97 1.84-16.26z" fill="#4e1371"/><path d="m947 265.52c1.51.38 3 .83 4.37 1.32 10.63.54 23.82 7.18 29.88 10.9 17.66 10.86 5 41.26 24.42 50.18 7.17 3.29 16.95.93 22.24 6.79 6.61 7.32-.55 19.18 1.94 28.72 1.81 7 8.53 11.54 15.23 14.2s14 4.16 20 8.17c11.42 7.64 15.55 23.67 11.18 36.71s-16 22.85-29 27.31-27.27 4.05-40.74 1.3c-16-3.26-32.54-10.82-40.13-25.31s-4.93-33.39-15-46.26c-8.15-10.43-23.53-15.21-27.57-27.82-2.62-8.17.5-16.05 4.66-24a8.53 8.53 0 0 0 -1.86-10.31l-.06-.06c-10.5-9.57-22.67 0-29.7-25.09-3.39-12.19 23.54-33.53 50.14-26.75z" fill="#fc4c44"/><path d="m923.86 351.73c-2.62-8.17.5-16.05 4.66-24a8.53 8.53 0 0 0 -1.86-10.31l-.06-.06c-10.39-9.47-22.42-.18-29.48-24.34a32.77 32.77 0 0 0 13 13c5.87 3.09 12.51 4.34 18.66 6.8s12.22 6.66 14.16 13c2.43 7.93-2.28 16.6-.41 24.68 2.79 12 17.67 16.22 26.05 25.31 11 11.92 9.47 30.61 16.14 45.41 5.09 11.28 14.88 19.91 25.73 25.84a107.41 107.41 0 0 0 13.39 6.06 98.22 98.22 0 0 1 -17.27-2c-16-3.26-32.54-10.82-40.13-25.31s-4.93-33.39-15-46.26c-8.16-10.43-23.54-15.21-27.58-27.82z" fill="#c70045"/><path d="m1001.53 314.82c-1.8 1.8-1.18 5.35 1.4 7.92s6.12 3.2 7.92 1.4-.14-3.32-2.71-5.9-4.81-5.24-6.61-3.42z" fill="#ee5916"/><path d="m996.72 633.19 41.74 152.1a3 3 0 0 0 3.85 1.76 3 3 0 0 0 1.79-3.73l-35.75-154.21a6.15 6.15 0 0 0 -7.73-4.05 6.23 6.23 0 0 0 -4 7.81c.02.13.06.22.1.32z" fill="#b9ffff"/><path d="m871.64 629.11-35.75 154.21a3 3 0 0 0 1.94 3.79 3 3 0 0 0 3.69-1.82l41.75-152.1a6.24 6.24 0 0 0 -3.59-8 6.14 6.14 0 0 0 -7.93 3.63c-.04.08-.08.18-.11.29z" fill="#b9ffff"/><path d="m946.74 632.05 19.52 152.69a3 3 0 0 0 5.9-.87l-13.24-153.62a6.16 6.16 0 1 0 -12.23 1.46c.01.11.03.23.05.34z" fill="#b9ffff"/><path d="m921.07 630.25-13.25 153.62a3 3 0 0 0 5.9.87l19.52-152.69a6.21 6.21 0 0 0 -5-7.2 6.15 6.15 0 0 0 -7.12 5c-.02.15-.04.29-.05.4z" fill="#b9ffff"/><path d="m1042.72 485.24-5.94 108.89c-2.42 29.44-26.75 51.06-59.08 51.06h-100.77c-17.56 0-29.75-17.27-24-33.19l16-47.21c3.17-8.79 11.84-14.58 21.7-14.58h25.72c8.22 0 15.43-4 18.94-10.42l12.5-54.55c18.8-62.11 98.96-62.76 94.93 0z" fill="#fff"/><path d="m1028.93 459.53c-18.51-9-46 25-46.27 45.77 0 3.29-2 41.68-4.67 77.23-2.42 29.44-26.75 51.06-59.08 51.06h-63.34a25.33 25.33 0 0 0 21.36 11.6h100.77c32.33 0 56.66-21.62 59.08-51.06l4.52-91.55c1.43-22.2-.09-37.04-12.37-43.05z" fill="#b9ffff"/></svg>