<?xml version="1.0" encoding="utf-8"?>
<!-- Generator: Adobe Illustrator 22.1.0, SVG Export Plug-In . SVG Version: 6.00 Build 0)  -->
<svg version="1.1" xmlns="http://www.w3.org/2000/svg" xmlns:xlink="http://www.w3.org/1999/xlink" x="0px" y="0px"
	 viewBox="0 0 1084.5 892.3" style="enable-background:new 0 0 1084.5 892.3;" xml:space="preserve">
<style type="text/css">
	.st0{fill:#DDFDF0;}
	.st1{fill:#AAFFCE;}
	.st2{fill:#71EBB5;}
	.st3{fill:#FFFFFF;}
	.st4{fill:#E1FFE6;}
	.st5{opacity:0.21;fill:#00D38F;}
	.st6{fill:#FCDF6A;}
	.st7{fill:#5C15AE;}
	.st8{fill:#30036E;}
	.st9{fill:#F9A500;}
	.st10{opacity:0.26;}
	.st11{fill:url(#SVGID_1_);}
	.st12{fill:#FAA284;}
	.st13{fill:#FBA284;}
	.st14{fill:url(#SVGID_2_);}
	.st15{fill:url(#SVGID_3_);}
	.st16{fill:url(#SVGID_4_);}
	.st17{fill:url(#SVGID_5_);}
	.st18{fill:#FF9B75;}
	.st19{fill:url(#SVGID_6_);}
	.st20{fill:#08217E;}
	.st21{fill:#00D38F;}
	.st22{fill:#4B1591;}
	.st23{fill:#FF983D;}
	.st24{fill:url(#SVGID_7_);}
	.st25{fill:url(#SVGID_8_);}
	.st26{fill:url(#SVGID_9_);}
	.st27{fill:url(#SVGID_10_);}
	.st28{fill:#FF8F61;}
	.st29{fill:url(#SVGID_11_);}
	.st30{fill:url(#SVGID_12_);}
	.st31{fill:url(#SVGID_13_);}
	.st32{fill:url(#SVGID_14_);}
	.st33{fill:url(#SVGID_15_);}
</style>

<g id="okno">
	<g>
		<rect x="586.1" y="170" class="st0" width="273.5" height="324.5"/>
		<rect x="595.9" y="184.1" class="st2" width="255" height="4.3"/>
		<rect x="595.9" y="197" class="st2" width="255" height="4.3"/>
		<rect x="595.9" y="209.3" class="st2" width="255" height="4.3"/>
		<rect x="595.9" y="222.2" class="st2" width="255" height="4.3"/>
		<rect x="595.9" y="235.1" class="st2" width="255" height="4.3"/>
		<rect x="595.9" y="247.4" class="st2" width="255" height="4.9"/>
		<rect x="595.9" y="260.3" class="st2" width="255" height="4.3"/>
		<rect x="595.9" y="273.2" class="st2" width="255" height="4.3"/>
		<rect x="595.9" y="286.1" class="st2" width="255" height="4.3"/>
		<rect x="595.9" y="298.4" class="st2" width="255" height="4.3"/>
		<rect x="595.9" y="311.3" class="st2" width="255" height="4.3"/>
		<rect x="595.9" y="324.2" class="st2" width="255" height="4.3"/>
		<rect x="595.9" y="336.5" class="st2" width="255" height="4.3"/>
		<rect x="595.9" y="349.4" class="st2" width="255" height="4.3"/>
		<rect x="595.9" y="362.3" class="st2" width="255" height="4.3"/>
		<rect x="595.9" y="374.6" class="st2" width="255" height="4.3"/>
		<rect x="595.9" y="386.3" class="st2" width="255" height="6.8"/>
		<path class="st2" d="M600.9,485.9H846V179.2H600.9V485.9z M863.3,503.7H583.6V161.4h279.7V503.7z"/>
		<rect x="592.2" y="327.3" class="st2" width="262.4" height="10.4"/>
		<rect x="572.5" y="486.5" class="st2" width="303.8" height="24.6"/>
		<rect x="572.5" y="486.5" class="st2" width="303.8" height="24.6"/>
		<rect x="575" y="155.8" class="st2" width="298.9" height="24.6"/>
		<rect x="575" y="155.8" class="st2" width="298.9" height="24.6"/>
	</g>
	<g>
		<rect x="618.4" y="527.2" class="st2" width="329.6" height="231.8"/>
		<rect x="640.7" y="548.9" class="st1" width="284.9" height="53.4"/>
		<rect x="640.7" y="616.8" class="st1" width="284.9" height="52.8"/>
		<rect x="640.7" y="684" class="st1" width="284.9" height="52.8"/>
		<path class="st2" d="M805,714.6c-43.6,0-43.6,0-43.6,0c-2.2,0-3.9-2.2-3.9-3.9c0-2.2,1.7-4.4,3.9-4.4c43.6,0,43.6,0,43.6,0
			c2.2,0,3.9,2.2,3.9,4.4C808.9,712.4,807.2,714.6,805,714.6z"/>
		<path class="st2" d="M805,646.8c-43.6,0-43.6,0-43.6,0c-2.2,0-3.9-1.7-3.9-3.9c0-2.2,1.7-3.9,3.9-3.9c43.6,0,43.6,0,43.6,0
			c2.2,0,3.9,1.7,3.9,3.9C808.9,645.1,807.2,646.8,805,646.8z"/>
		<path class="st2" d="M805,579.5c-43.6,0-43.6,0-43.6,0c-2.2,0-3.9-1.7-3.9-3.9s1.7-3.9,3.9-3.9c43.6,0,43.6,0,43.6,0
			c2.2,0,3.9,1.7,3.9,3.9S807.2,579.5,805,579.5z"/>
		<path class="st1" d="M818.9,438.3c-140.2,0-140.2,0-140.2,0c-21.2,0-38,17.2-38,37.8c0,51.7,0,51.7,0,51.7
			c216.7,0,216.7,0,216.7,0c0-51.7,0-51.7,0-51.7C857.5,455.5,840.1,438.3,818.9,438.3z"/>
		<path class="st3" d="M811.7,454.4c0-30.6,0-30.6,0-30.6c-38-37.8-38-37.8-38-37.8c-68.1,0-68.1,0-68.1,0c-10.6,0-19.6,8.9-19.6,20
			c0,48.4,0,48.4,0,48.4H811.7z"/>
		<path class="st4" d="M793.2,423.8c18.4,0,18.4,0,18.4,0c-38-37.8-38-37.8-38-37.8c0,18.3,0,18.3,0,18.3
			C773.7,415.5,782.6,423.8,793.2,423.8z"/>
		<path class="st2" d="M815,483.3c0,2.8-1.7,4.4-4.5,4.4c-2.2,0-4.5-1.7-4.5-4.4c0-2.8,2.2-4.4,4.5-4.4
			C813.3,478.9,815,480.5,815,483.3z"/>
		<path class="st2" d="M827.9,483.3c0,2.8-2.2,4.4-4.5,4.4c-2.8,0-4.5-1.7-4.5-4.4c0-2.8,1.7-4.4,4.5-4.4
			C825.6,478.9,827.9,480.5,827.9,483.3z"/>
		<path class="st2" d="M840.7,483.3c0,2.8-2.2,4.4-4.5,4.4c-2.8,0-5-1.7-5-4.4c0-2.8,2.2-4.4,5-4.4
			C838.5,478.9,840.7,480.5,840.7,483.3z"/>
		<rect x="640.7" y="499.4" class="st2" width="216.7" height="28.4"/>
		<rect x="683.7" y="508.9" class="st1" width="130.2" height="9.5"/>
	</g>
</g>
<g id="shadows">
	<path class="st5" d="M438.1,352.4c-3.5,8-6.5,16.1-9,24.4c-2.6,12-4.7,15.4,0.7,25.8c6,11.7,22.7,14,30.4,23.3
		c12.5,2.5,14.3,8.9,5.2,19.1c-2.8,6-5.3,12-7.5,18.2c-2.6,7.7-4.7,15.2-6.2,22.6h115.1c-6-16.1-11.2-32.4-14.4-49.3
		c18.6-1.8,62.5-4.5,78.5-15.1c13.8-9.2,17-14.2-3.3-15.6c-7.6-0.5,1.2,0.7-7.8,2.6c-24.5,5.2-42.9,4.8-69.4,3.3
		c2.5-33.6,13.3-52.5-6.9-82.2c-4.6-6.5-9.4-12.8-14.5-18.9c3.3-2.7,5.9-6.1,7.7-10.1c1.4-11.3,7.2-18.8,10.4-25
		c16.1-30.7,28.8-86.1-24.1-92.2c-21.8-2.5-21.6,2.6-37,13.7c-8.2,5.9-20.5,8.8-27.9,15.2c-17.1,15-4.9,25.5-12,43.2
		c-4.4,10.9-16,11-19.8,19.4c-9.7,21.4,7.1,39.3,10.8,59.8C446.5,338.6,446.8,344.5,438.1,352.4z M470.1,359.6
		c3.6,17.3,7.6,35.2,5.2,52.9c-2.7-2.3-5.4-4.7-8.1-7c-6.2-5.3-12.3-10.8-19.1-15.2C456,380.6,463.6,370.3,470.1,359.6z"/>
	<path class="st5" d="M735.1,425.7c-1,13.1,9.8,173.6,15.4,186.8l98.1-126.8c-0.3-2.3-0.7-4.6-0.1-6.6c1.8-5.7,0.4-14.9,0.8-21
		c1.3-24.1,4.3-48,8.7-71.8c7.2,24.6-10.8,76.2-4.3,99.3h18.9c8.3-24.3,28.1-58.1,19.9-83.4c-5.1-31.8-2.4-72.7-16.5-102.4
		c-8.8-18.4-27.4-24-43.7-33.9c-41.9-25.6,8.5-46.4-6.7-82c-9.4-21.9-17.2-25.2-39.8-22.2c-10,1.3-14.1,7-24.9,7.6
		c-6.5,0.4-7.4-2.4-14.7-0.8c-3.5,3.5-4.1,5.6-4.7,10.3c0,0.2,8.4,19.1,6.6,16.8c3.6,4.7,1.5,10.8,13.3,9
		c0.6,13.5-0.1,25.9,3.2,38.6c0.6,2.3,9,10.3,9,10.6c-0.6,10-8.7,11.3-17,16.6c-3.4,2.2-7.8,3.3-11.1,5.6
		c-21.7,15.6-25.1,35.9-24.2,62.7c0.4,12,3.9,25.8,2.3,37.6c-3.1,23.4,2.5,15.6-19,21.7c-16.4,4.6-44.9,1.3-55.1,10.2
		c-17.9,0-18.5,21.2,0.9,13.9C662,432.2,717.1,428.3,735.1,425.7z"/>
</g>
<g id="tablica">
	<g>
		<path class="st3" d="M478.7,730.8h-42.6V472.6h-18.8H110.4H91.6v258.2H49c-5.2,0-9.4,4.2-9.4,9.4c0,5.2,4.2,9.4,9.4,9.4h104
			c5.2,0,9.4-4.2,9.4-9.4c0-5.2-4.2-9.4-9.4-9.4h-42.6V530.6h306.9v200.2h-42.6c-5.2,0-9.4,4.2-9.4,9.4c0,5.2,4.2,9.4,9.4,9.4h104
			c5.2,0,9.4-4.2,9.4-9.4C488.1,735,483.9,730.8,478.7,730.8z"/>
		<g>
			<path class="st3" d="M14.7,479H513c8.1,0,14.7-6.6,14.7-14.7V148.7c0-8.1-6.6-14.7-14.7-14.7H14.7C6.6,134,0,140.6,0,148.7v315.6
				C0,472.4,6.6,479,14.7,479z"/>
			<rect x="18.8" y="152.8" class="st3" width="490" height="307.4"/>
		</g>
		<g>
			<path class="st6" d="M243.9,307.4h-53c0-54.5,44.3-98.8,98.8-98.8l0,53C264.4,261.6,243.9,282.2,243.9,307.4z"/>
			<path class="st7" d="M322.1,275c-8.6-8.6-20.1-13.4-32.4-13.4v-53c26.4,0,51.2,10.3,69.9,29L322.1,275z"/>
			<path class="st6" d="M359.5,377.3l-37.5-37.5c8.6-8.6,13.4-20.1,13.4-32.4c0-12.2-4.8-23.7-13.4-32.4l37.5-37.5
				c18.7,18.7,29,43.5,29,69.9C388.5,333.8,378.2,358.6,359.5,377.3z"/>
			<path class="st7" d="M289.7,406.2c-54.5,0-98.8-44.3-98.8-98.8h53c0,25.3,20.5,45.8,45.8,45.8c12.2,0,23.7-4.8,32.4-13.4
				l37.5,37.5C340.9,396,316.1,406.2,289.7,406.2z"/>
			<polygon class="st6" points="215,243.4 211.1,228.8 225.7,232.7 			"/>
			<polygon class="st7" points="259,400.9 247,410.1 245,395.2 			"/>
			<polygon class="st6" points="387.8,299.9 400.9,307.4 387.8,314.9 			"/>
			<polygon class="st7" points="320.3,213.8 332.2,204.6 334.2,219.6 			"/>
			<path class="st8" d="M232.6,307.4c0,31.5,25.5,57,57,57c15.8,0,30-6.4,40.3-16.7l-8-8c-8.6,8.6-20.1,13.4-32.4,13.4
				c-25.3,0-45.8-20.5-45.8-45.8H232.6z"/>
			<path class="st9" d="M330,347.7c10.3-10.3,16.7-24.6,16.7-40.3c0-15.8-6.4-30-16.7-40.3l-8,8c8.6,8.6,13.4,20.1,13.4,32.4
				c0,12.2-4.8,23.7-13.4,32.4L330,347.7z"/>
			<path class="st8" d="M322.1,275l8-8c-10.3-10.3-24.6-16.7-40.3-16.7v11.2C301.9,261.6,313.4,266.4,322.1,275z"/>
			<path class="st9" d="M289.7,261.6v-11.2c-31.5,0-57,25.5-57,57v0h11.2C243.9,282.2,264.4,261.6,289.7,261.6z"/>
			<rect x="335.8" y="182.9" class="st7" width="69.7" height="18.1"/>
			<rect x="404.4" y="298.3" class="st6" width="69.7" height="18.1"/>
			<rect x="173.7" y="413.6" class="st7" width="69.7" height="18.1"/>
			<rect x="137.8" y="207.2" class="st6" width="69.7" height="18.1"/>
		</g>
		<g class="st10">
			<g>
				<path class="st3" d="M197.6,479.9c24.5,0,49,0,73.5,0c-12.3-59.4,31.9-109.7,94.6-172.5c62.5-62.6,106.9-113.1,94.6-172.5
					c-24.5,0-49,0-73.5,0c12.3,59.5-32.1,109.9-94.6,172.5C229.6,370.1,185.3,420.4,197.6,479.9z"/>
				<path class="st3" d="M128.4,479.9c17.3,0,34.5,0,51.8,0c-12.3-59.4,31.9-109.7,94.6-172.5c62.5-62.6,106.9-113.1,94.6-172.5
					c-17.3,0-34.5,0-51.8,0c12.3,59.5-32.1,109.9-94.6,172.5C160.3,370.1,116.1,420.4,128.4,479.9z"/>
			</g>
		</g>
	</g>
</g>
<g id="krzak">
	<g>
		<g>
			<linearGradient id="SVGID_1_" gradientUnits="userSpaceOnUse" x1="209.1746" y1="563.8261" x2="348.2282" y2="563.8261">
				<stop  offset="0" style="stop-color:#30036E"/>
				<stop  offset="1" style="stop-color:#5C15AE"/>
			</linearGradient>
			<path class="st11" d="M248.3,454.9c-1.4,8.1-0.1,16.5,1.1,24.6c1.3,8.2,2.5,16.5,1.1,24.6c-2.6,14.7-13.4,26.3-23.1,37.7
				c-9.7,11.4-19.2,24.8-18.2,39.7c1.6,22.7,26.8,38.3,28.9,61c1.1,12.7-5.2,26.2,0.2,37.7c3.7,7.9,12.4,12.7,21,13.7
				c8.7,1,17.4-1.2,25.7-4.1c9.1-3.2,18.1-7.4,25.3-13.8c7.2-6.4,12.5-15.4,12.9-25.1c0.4-9.6-4-19.5-0.9-28.6
				c3.3-9.3,13.3-14.3,19.3-22.2c8.4-10.9,8.3-26.7,2.6-39.2c-5.7-12.6-16-22.4-26.9-30.9c-10.5-8.2-22.9-17.7-22.7-31.1
				c0.2-12,10-21.5,8.9-33.8c-0.7-8.3-5.8-19.4-12.1-25.2C276.3,426.2,251.8,435.3,248.3,454.9z"/>
			<path class="st8" d="M292,509.2c3,13,12.7,22.2,18.2,33.9c6.9,14.9,3.7,22.9-1.1,38c-7.2,22.5,8.6,46.5-0.2,67.4
				c-6.2,14.6-21.9,14.2-32.9,5.7c-8.4-6.5-11-15.5-13.1-25.6c-3.7-17.5-0.4-34.5,3.3-51.6c1.3-6.1,3-12.1,4.5-18.1
				c3.7-15.3,6.9-30.6,7.7-46.4c0.6-12.3-4.9-32-1.4-43.5c3.8-12.2,9.2-12.2,14.5-2.8C297.7,477.1,289.1,496.9,292,509.2z"/>
			<g>
				<path class="st3" d="M281.5,670.9c-0.1,0-0.3-0.1-0.4-0.2c-15.7-14.2-23.5-38.2-21.5-65.9c1.1-15.1,4.8-30.1,8.3-44.6
					c2-8.2,4-16.6,5.6-25c5.4-28.7,3.3-51.1-6.3-68.5c-0.3-0.5-0.1-1.1,0.4-1.4c0.5-0.3,1.1-0.1,1.4,0.4c9.8,17.8,12,40.7,6.5,69.9
					c-1.6,8.4-3.6,16.9-5.6,25.1c-3.5,14.4-7.1,29.3-8.2,44.3c-2,27.1,5.6,50.5,20.8,64.2c0.4,0.4,0.5,1,0.1,1.4
					C282.2,670.9,281.8,671,281.5,670.9z"/>
			</g>
			<g>
				<path class="st3" d="M260.4,624.6c-0.5-0.1-0.8-0.6-0.7-1.1c2.2-21.4,13.7-42.1,30.8-55.2c0.4-0.3,1.1-0.3,1.4,0.2
					c0.3,0.4,0.3,1.1-0.2,1.4c-16.6,12.8-27.9,32.9-30,53.8c-0.1,0.6-0.6,1-1.1,0.9C260.5,624.6,260.4,624.6,260.4,624.6z"/>
			</g>
			<g>
				<path class="st3" d="M271.7,549.6c-0.5-0.1-0.8-0.6-0.7-1.1c1.8-11.4,10.6-23.8,20.2-28.1c0.5-0.2,1.1,0,1.4,0.5
					c0.2,0.5,0,1.1-0.5,1.4c-8.8,4-17.4,16-19,26.6c-0.1,0.6-0.6,0.9-1.2,0.9C271.8,549.6,271.8,549.6,271.7,549.6z"/>
			</g>
			<g>
				<path class="st3" d="M262.5,590.2c-0.3-0.1-0.6-0.4-0.7-0.8c-3.2-14.5-16.2-26-31-27.4c-0.6-0.1-1-0.6-0.9-1.1
					c0.1-0.6,0.6-1,1.1-0.9c15.6,1.4,29.5,13.6,32.8,29c0.1,0.6-0.2,1.1-0.8,1.2C262.9,590.2,262.7,590.2,262.5,590.2z"/>
			</g>
		</g>
		<path class="st8" d="M233,506.5c-2.5-6.4-7.1-14.2-2.8-17.5c4.4-3.3,11-1.7,14.8,3.4c3.8,5.1,3.4,11.9-1,15.2
			C239.7,510.9,235.4,512.5,233,506.5z"/>
	</g>
	<g>
		<g>
			<path class="st9" d="M303.7,791.7h-62l-3.7,7.9c-1.8,3.9,1,8.4,5.4,8.4H302c4.3,0,7.2-4.5,5.4-8.4L303.7,791.7z"/>
			<path class="st6" d="M272.7,802L272.7,802c-27,0-49-21.9-49-49v-49h97.9v49C321.7,780.1,299.8,802,272.7,802z"/>
			<path class="st6" d="M325.6,704H219.8c-3.1,0-5.6-2.5-5.6-5.6l0,0c0-3.1,2.5-5.6,5.6-5.6h105.8c3.1,0,5.6,2.5,5.6,5.6l0,0
				C331.3,701.5,328.7,704,325.6,704z"/>
			<path class="st9" d="M272.7,714.7c17.9,0,34.7,2.8,49,7.6v-18.2h-97.9v18.2C238.1,717.5,254.8,714.7,272.7,714.7z"/>
		</g>
	</g>
</g>
<g id="_x40_jego_reka">
	<g>
		<g>
			<g>
				<path class="st12" d="M622.8,439.1c0.2-2.2,2.1-3.9,4.3-3.7l7.9,0c1.7,0.1,3.1,0,3,1.7l-0.2,3.4c-0.1,1.9-1.9,1.5-3.7,1.1
					L622.8,439.1z"/>
				<path class="st12" d="M633.1,439.5L633.1,439.5c-0.5-1.7,0.5-3.4,2.2-3.9l9.7-2.8c1.9-0.5,5.9,5.5,4,6l-11.9,2.9
					C635.3,442.1,633.6,441.1,633.1,439.5z"/>
			</g>
			<g>
				<path class="st12" d="M618.6,435.7c0.1-2.2,2-3.9,4.2-3.7l12.6,0.8c1.7,0.1,3.1-0.1,3,1.7l-0.2,3.4c-0.1,1.9-1.8,1.5-3.7,1.1
					L618.6,435.7z"/>
				<path class="st12" d="M633.8,436.9L633.8,436.9c-0.6-1.6,0.3-3.4,2-4l9.5-3.2c1.9-0.6,4,0.3,4.6,2.1l0,0
					c0.6,1.8-0.5,3.7-2.4,4.3l-9.7,2.9C636.1,439.5,634.3,438.6,633.8,436.9z"/>
			</g>
			<g>
				<path class="st12" d="M615.3,430.7c0.1-2.2,1.9-3.9,4.1-3.9l12.6,0.4c1.7,0.1,3.1-0.2,3.1,1.6l-0.1,3.4
					c-0.1,1.9-1.8,1.6-3.7,1.2L615.3,430.7z"/>
				<path class="st12" d="M630.3,431.7L630.3,431.7c-0.6-1.6,0.3-3.4,2-4l12.2-4.1c1.9-0.6,4,0.3,4.6,2.1l0,0
					c0.6,1.8-0.5,3.7-2.4,4.3l-12.3,3.8C632.7,434.2,630.9,433.3,630.3,431.7z"/>
			</g>
			<path class="st12" d="M653.7,415.8c5.3-0.3,13.7,2.5,15.2,8.6c2,8.1-12.3,12.4-20,14.4c-5,0.3-8.9-3.2-10.2-7.8
				c-0.6-2.1-3.2-7.7,0-10.4C642,417.9,651.3,415.9,653.7,415.8z"/>
			<g>
				<path class="st12" d="M641.5,417.7c-4.6,0.3-11.4-1.6-12.1-4.5c-0.3-1.3,0.7-1.8,2.1-1.7c3.6,0.2,8.4-0.2,12-0.7
					C647.4,411.3,647.4,417.4,641.5,417.7z"/>
				<path class="st12" d="M660.4,416.8c0.9,6.6-8.4,8.2-13,4.9c-1.7-1.2-5-1.3-6.8-2.2c1-0.5,0-1.8-1-1.8c-2.9,0,0.5-6.9,4.5-7
					C647.9,410.6,657.9,414.7,660.4,416.8z"/>
			</g>
			<g>
				<path class="st12" d="M615.7,424.1c0.2-2.2,2.2-3.8,4.4-3.5l12.6,1.4c1.7,0.2,3.1,0.1,3,1.8l-0.4,3.4c-0.2,1.9-1.9,1.5-3.8,0.9
					L615.7,424.1z"/>
				<path class="st12" d="M630.8,426L630.8,426c-0.5-1.7,0.5-3.4,2.2-3.9l12.4-3.6c1.9-0.6,3.9,0.5,4.5,2.3l0,0
					c0.5,1.8-0.7,3.7-2.6,4.2l-12.5,3.3C633,428.6,631.3,427.6,630.8,426z"/>
			</g>
		</g>
		<g>
			<g>
				<path class="st13" d="M658.8,433.5c37.9-0.9,64.4,2.6,94.2,0.6c11-0.7,17.2-6.2,16.7-13.3l0,0c-0.5-6.9-6.8-10.9-17.5-11
					c-22.4-0.3-50.2,8-93.7,10.5C651.1,420.9,651.6,433.7,658.8,433.5z"/>
			</g>
			<g>
				<path class="st3" d="M714.3,410.9c14.4-2.2,26.9-4.2,37.9-4c12.2,0.2,19.7,5.3,20.3,13.7c0.6,9-7.2,15.5-19.4,16.3
					c-16.2,1.1-31.6,0.6-47.8,0c-10.8-0.4-21.9-0.7-34.3-0.7l-1.3-19.7C686.9,415.2,701.3,412.9,714.3,410.9z"/>
			</g>
		</g>
	</g>
</g>
<g id="gosc">
	<g>
		<g>
			<path class="st8" d="M750.5,616.4c-0.1-1.2-0.1-2.5,0-3.9c2.5-34.4,6.3-79.4,13.5-124.9c-0.1-1-0.2-1.9-0.2-2.9l2.7-34.4h94.3
				v34.4c0,1-0.1,1.9-0.2,2.9c0.9,28.3-16.3,275.5-18,293c-0.8,6-5.9,10.6-11.8,10.6c-3.1,0-5.9-1.2-8.1-3.4
				c-2.2-2.2-3.5-5.2-3.4-8.4c0-38.6-3.3-70.2-6.3-98c-2.4-22.9-4.5-42.7-4.5-62.6c0-0.1,0-0.1,0-0.2c-0.1-0.4-0.1-0.8-0.2-1.2
				c-1.2-11.7-2.5-24.7-3.6-38.5c-0.1,0.5-0.3,0.9-0.4,1.4c-3.3,11.9-6.8,24.3-10.1,37.2c13,39.6,17,142.4,18.3,159.9
				c0.3,6.1-3.9,11.5-9.8,12.5c-3,0.5-6.1-0.1-8.6-1.9c-2.6-1.8-4.3-4.6-4.9-7.7c-6.7-38-15.5-68.5-23.2-95.5
				c-6.4-22.1-11.8-41.3-15.3-60.9C750.3,621.3,750.2,618.8,750.5,616.4z"/>
			<g>
				
					<linearGradient id="SVGID_2_" gradientUnits="userSpaceOnUse" x1="14.8789" y1="767.9265" x2="20.1819" y2="548.1455" gradientTransform="matrix(-1 0 0 1 837.6185 0)">
					<stop  offset="0" style="stop-color:#5C15AE"/>
					<stop  offset="1" style="stop-color:#30036E"/>
				</linearGradient>
				<path class="st14" d="M802.7,515.1c14.1,7.1,25.9,18.9,27.1,31.8c3.5,69.5,7.1,139.1,0,209.8c-0.9,11.1-3.3,22.9-0.9,34.3
					c-2.4-0.4-4.6-1.5-6.3-3.2c-2.2-2.2-3.5-5.2-3.4-8.4c0-38.6-3.3-70.2-6.3-98c-2.4-22.9-4.5-42.7-4.5-62.6c0-0.1,0-0.1,0-0.2
					c-0.1-0.4-0.1-0.8-0.2-1.2c-1.2-11.3-2.4-23.8-3.5-37.2C806.5,558.3,802.7,537.2,802.7,515.1z"/>
				
					<linearGradient id="SVGID_3_" gradientUnits="userSpaceOnUse" x1="69.6894" y1="494.9604" x2="61.4402" y2="713.5628" gradientTransform="matrix(-1 0 0 1 837.6185 0)">
					<stop  offset="0" style="stop-color:#30036E"/>
					<stop  offset="1" style="stop-color:#5C15AE"/>
				</linearGradient>
				<path class="st15" d="M750.5,616.4c-0.1-1.2-0.1-2.5,0-3.9c2.5-34.4,6.3-79.4,13.5-124.9c-0.1-1-0.2-1.9-0.2-2.9l2.7-34.4h22
					c-7.9,61.6-20.8,159.5-20.8,159.5s23.5,127.5,30.4,179.9c-1.5-0.3-2.8-0.9-4.1-1.8c-2.6-1.8-4.3-4.6-4.9-7.7
					c-6.7-38-15.5-68.5-23.2-95.5c-6.4-22.1-11.8-41.3-15.3-60.9C750.3,621.3,750.2,618.8,750.5,616.4z"/>
			</g>
		</g>
		<path class="st3" d="M780.6,290.1c-1.3-1.6-3-2.5-5-2.7c-5.6-0.4-10.7,1.5-15.3,5.6c-10,8.9-15.2,26.9-15.9,40.8
			c-0.7,14.9-0.7,25.3-0.7,34.5c0.1,13.6,0.1,25.3-2.2,47.4c-0.6,12.8,6.5,19,13.8,19.5c7.3,0.5,15.2-4.6,16.4-17.2
			c1.2-16.8,3.3-29.5,5.4-41.8c2.1-12.2,4.1-23.8,5.1-38.8c0-0.4,0.2-1.4,0.3-2.8C784.6,317.5,786.3,297,780.6,290.1z"/>
		<path class="st3" d="M764.9,473c-0.9-46.1,2.4-73.1-0.8-100.2c-0.4-3.5-6-11-6.4-14.7c-1.7-14.7-2.7-31.1-3.9-51.5
			c-0.3-5.7,5.5-14,10.3-17.3c24.8-9.2,32.9-23.4,55.7-23.4c21.3,0,36.5,11.8,57.5,22.6c8.9,4.6,15.1,13.2,16.6,23.1
			c0.3,1.8,0.4,3.4,0.4,4.7c0,47.4-33.4,58.6-33.4,156.6H764.9z"/>
		<path class="st3" d="M779.2,439.7c0-0.1,0-0.2,0-0.3c0-0.2,0-0.5,0-0.7V439.7z"/>
		<path class="st4" d="M852.2,437.9c-0.2,8.2-6.6,14.9-14.8,15.4c-21.2,1.1-50.4,1.4-58.3-8.8c-12-17-7-43-10-66
			c-2.4-11.1-4.9-17.8-12.1-26.5c0.2,2.1,0.4,4.2,0.7,6.3c0.4,3.6,6,11.1,6.4,14.7c3.2,27.1-0.1,54,0.8,100.2h95.9
			c0-49.5,8.5-76.8,16.9-97.9C855.9,388,852.6,412.4,852.2,437.9z"/>
		<g>
			<path class="st7" d="M766,460.7h94.6c2,0,3.7,1.7,3.7,3.7v5.8c0,2-1.7,3.7-3.7,3.7H766c-2,0-3.7-1.7-3.7-3.7v-5.8
				C762.3,462.3,764,460.7,766,460.7z"/>
			<path class="st9" d="M781.8,471.6h14.4c0.9,0,1.6-0.7,1.6-1.6v-5.3c0-0.9-0.7-1.6-1.6-1.6h-14.4c-0.9,0-1.6,0.7-1.6,1.6v5.3
				C780.2,470.8,781,471.6,781.8,471.6z"/>
		</g>
		<g>
			<g>
				
					<linearGradient id="SVGID_4_" gradientUnits="userSpaceOnUse" x1="-1.7481" y1="251.3787" x2="36.1235" y2="251.3787" gradientTransform="matrix(-1 0 0 1 837.6185 0)">
					<stop  offset="0" style="stop-color:#FF8F61"/>
					<stop  offset="0.7005" style="stop-color:#FFB07B"/>
					<stop  offset="1" style="stop-color:#FFC99C"/>
				</linearGradient>
				<path class="st16" d="M839.4,272.8c-16.4,8.8-34.9,7.6-37.6,0c-0.7-9.4,0.2-19.9,0.7-30.9c0.5-8.7,7.4-16.4,16.1-17.8l0,0
					c10-1.7,18.3,5.5,17.9,15.4C834.6,256.2,836.1,262.5,839.4,272.8z"/>
				<g>
					<path class="st9" d="M800.4,278.5c1.6,4.1,3.7,8.3,6.3,12.4c4.7-4.1,9.7-8.3,15.4-12.4c-2.7-1.9-12.8-6.7-12.8-6.7
						S802.3,273.6,800.4,278.5z"/>
				</g>
				<path class="st3" d="M814.8,288c-3.7-5.4-5.5-10.8-5.5-16.2c10.8-3.2,25.3-9,26.2-13.7c2.1,0.5,2.3,3.3,2.6,6.4
					c2.3,3.6,5.1,3.6,3.3,7.4C839,276.9,826,286.2,814.8,288z"/>
				<path class="st6" d="M811.6,286.7c-9.5,33.9,2.3,72.3-7.4,106.1c-6.6,5.6-8.4,6.7-16.6,12.2c-0.5-5.6,0.1-9.9-2.1-15.5
					c16.8-33.9,2.5-69,19-102.9C806.1,286.7,809.9,286.7,811.6,286.7z"/>
				<path class="st3" d="M798.9,288c3.4-5.4,9-10.8,10.4-16.2c-5.9-2.9-7.7-7.5-7.7-13.1c-2.4,0.6-4.1,5.7-5.9,10.4
					C794.7,272.6,800.2,282.9,798.9,288z"/>
				
					<linearGradient id="SVGID_5_" gradientUnits="userSpaceOnUse" x1="80.6881" y1="294.0601" x2="137.1013" y2="294.0601" gradientTransform="matrix(-1 -8.563410e-03 -8.563410e-03 1 923.9395 -67.3822)">
					<stop  offset="0" style="stop-color:#FF8F61"/>
					<stop  offset="0.7005" style="stop-color:#FFB07B"/>
					<stop  offset="1" style="stop-color:#FFC99C"/>
				</linearGradient>
				<path class="st17" d="M786,195.5c-1.5,4.8-1.8,9.9-1.4,14.9c1.2,12-0.3,23.4,2.6,34.1c2,7.6,1.9,15.3,14.7,14.7
					c8.6-0.4,18.8-1.1,28.1-11.2c5.7-6.2,17.7-18.4,5.3-36.2c-12.4-17.7-48.2-20-48.2-20L786,195.5z"/>
				<path class="st18" d="M824.4,222.8c5.4-5,9.4-3.8,10.5,1.2c1.2,5.2-10.6,11.5-10.6,11.5L824.4,222.8z"/>
				
					<linearGradient id="SVGID_6_" gradientUnits="userSpaceOnUse" x1="-33.9116" y1="161.166" x2="59.4049" y2="161.166" gradientTransform="matrix(-0.9918 -0.128 -0.128 0.9918 841.6501 58.5448)">
					<stop  offset="0" style="stop-color:#30036E"/>
					<stop  offset="0.1064" style="stop-color:#3D0881"/>
					<stop  offset="0.2571" style="stop-color:#4B0E95"/>
					<stop  offset="0.4295" style="stop-color:#5512A3"/>
					<stop  offset="0.6403" style="stop-color:#5A14AC"/>
					<stop  offset="1" style="stop-color:#5C15AE"/>
				</linearGradient>
				<path class="st19" d="M779,216.5c-4.1-0.3-8.3-3.1-8.6-7.2c-0.1-2,4.8-4.7,4.1-6.6c-1-2.5-4.2-3.1-6.1-5
					c-4.1-4.1-3.4-10.1-3.1-11c1.2-3.7,6.3-14,19.4-6.2c10.9,6.5,21.5-9,34-11.2c6.5-1.2,13.5,0.7,18.6,5c5,4.3,8,10.9,7.9,17.5
					c7.4,1.6,11.9,10,11.2,17.5c-0.7,7.6-2.3,13-8.7,21.1c-4.7,6-9,14.7-14.2,20.2c-1.3-13.4,0.2-13.9,2-18.6c0.8-2.1,0-4.8-0.7-5.4
					c-1.9-1.5-3.2-0.4-4.6,0.4c-1.3,0.8-2.1,2.3-2.8,3.7c-3.4,7-0.7,14.6-4.5,21.4c-3.8,6.7-14.8,12.7-22.6,13.2
					c-1.4,0.1-2.9,0-4.2-0.7c-1.3-0.6-2.3-1.8-3.3-2.9c-3.6-4.5-6.2-9.8-7.7-15.3c-0.7-2.8-1-6.1,1-8.2c1.4-1.4,3.4-1.8,5.4-1.9
					c7.3-0.4,14.5,3.3,19.1,9.1c2.6,3.2,8.3,6.2,9.7,0.8c1.4-5.4,1.4-10.1,2.3-15.6c1.4-9.3,6-14.2,5.2-18.5
					C827,208,783.1,216.8,779,216.5z"/>
				<path class="st3" d="M804.5,246.9c-1.4,2.9-4.7,4.9-7.9,4.4c-6.1-0.8-5.5-6.2-5.5-6.2s5,1.8,6.4,2
					C799.9,247.4,802.2,247.4,804.5,246.9z"/>
				<path class="st8" d="M765.3,186.7c0.5-1.7,2-4.9,4.7-7c-1,2.3-3.2,12.1,2.9,13.5c19.1,4.5,4.7,6.6,10.5,11.2
					c13,9.5,30.4-10.1,43.5-0.6c9.3,5.2,2,15.2-4.1,25.9c1.5-8.7,5.8-13.5,5-17.6c-0.8-4-44.7,4.8-48.8,4.5
					c-4.1-0.3-8.3-3.1-8.6-7.2c-0.1-2,4.8-4.7,4.1-6.6c-1-2.5-4.2-3.1-6.1-5C764.3,193.6,764.9,187.7,765.3,186.7z"/>
			</g>
			<path class="st20" d="M847.7,190.2c2.8,0.3,5.3,1.7,7.2,3.5c1.9,1.9,3.4,4.2,4.1,6.8c0.7,2.6,0.9,5.3,0.5,8c-0.3,2.7-1,5.4-1.9,8
				c0,0.1,0,0.1,0.1,0.2c0.1,0,0.1,0,0.2-0.1c1.3-2.5,2.3-5.2,2.8-8c0.5-2.8,0.4-5.8-0.4-8.6c-0.8-2.8-2.5-5.4-4.7-7.2
				C853.4,191,850.5,189.9,847.7,190.2z"/>
			<path class="st20" d="M832.8,168.7c-2.2-1.5-4.7-2.7-7.4-3.4c-2.7-0.7-5.5-0.7-8.2-0.1c-2.7,0.6-5.3,1.6-7.6,3
				c-2.4,1.3-4.6,2.8-6.8,4.4c-0.2,0.1-0.3,0.4-0.1,0.6c0.1,0.2,0.4,0.3,0.6,0.1c2.3-1.4,4.5-2.9,6.8-4.1c2.3-1.2,4.8-2.3,7.3-2.9
				c2.5-0.6,5.2-0.7,7.7-0.1c2.6,0.5,5.1,1.4,7.5,2.6c0,0,0.1,0,0.1,0C832.8,168.7,832.8,168.7,832.8,168.7z"/>
		</g>
		<g>
			<path class="st2" d="M759.7,798.5c-1.3,2-0.5,6.8-0.5,6.8s26.8,3.2,35.5,1.2c2.3-0.5,6.1-2.4,9.7-4.4c0.6-0.3,1.7-2.4,2.3-2.7
				c1.1-0.6,1.6,0.4,2.6-0.1c2.4-1.5,4.1-2.6,4.1-2.8c2.5-12.3-0.6-17.3-0.6-17.3s-10.5,6-9.2,3c2.8-6.4-10.4-9-12.3-5.5
				C783.6,790.7,763.6,792.6,759.7,798.5z"/>
			<path class="st21" d="M758.9,801.1c8.3,1.1,25.7,3.4,28.9,2.8c13.1-2.3,21-9.1,26.4-13.3c-0.1,1.7-0.4,3.6-0.8,5.7
				c0,0.2-1.7,1.3-4.1,2.8c-0.9,0.6-1.5-0.5-2.6,0.1c-0.6,0.3-1.7,2.4-2.3,2.7c-3.6,2-7.4,3.9-9.7,4.4c-8.7,2-35.5-1.2-35.5-1.2
				S758.8,803.1,758.9,801.1z"/>
			<g>
				<path class="st3" d="M774.5,789.6c-0.1,0.5,1,0.7,2.4,0.7c2.9-0.1,5.9,0,8.9,0.5c1.5,0.2,2.7,0,2.8-0.5c0.1-0.5-1.1-1.2-2.5-1.4
					c-3-0.4-5.9-0.5-8.8-0.4C775.9,788.6,774.6,789.2,774.5,789.6z"/>
				<path class="st3" d="M779.5,786.3c-0.1,0.5,1,0.9,2.4,0.9c2.9,0.1,5.9,0.5,8.8,1.2c1.4,0.3,2.7,0.2,2.7-0.3
					c0-0.5-1.1-1.3-2.5-1.6c-2.9-0.6-5.8-1-8.7-1.1C780.9,785.4,779.7,785.8,779.5,786.3z"/>
				<path class="st3" d="M784.4,783.3c-0.1,0.5,1,1,2.4,1.2c2.9,0.3,5.8,1,8.7,1.8c1.4,0.4,2.6,0.4,2.7-0.1c0-0.5-1.1-1.4-2.5-1.8
					c-2.9-0.9-5.7-1.4-8.6-1.8C785.7,782.4,784.5,782.8,784.4,783.3z"/>
			</g>
		</g>
		<g>
			<path class="st2" d="M789.5,801.5c-1.3,2-0.5,6.8-0.5,6.8s26.8,3.2,35.5,1.2c2.3-0.5,6.1-2.4,9.7-4.4c0.6-0.3,1.7-2.4,2.3-2.7
				c1.1-0.6,1.6,0.4,2.6-0.1c2.4-1.5,4.1-2.6,4.1-2.8c2.5-12.3-0.6-17.3-0.6-17.3s-10.5,6-9.2,3c2.8-6.4-10.4-9-12.3-5.5
				C813.4,793.7,793.3,795.6,789.5,801.5z"/>
			<path class="st21" d="M788.7,804.1c8.3,1.1,25.7,3.4,28.9,2.8c13.1-2.3,21-9.1,26.4-13.3c-0.1,1.7-0.4,3.6-0.8,5.7
				c0,0.2-1.7,1.3-4.1,2.8c-0.9,0.6-1.5-0.5-2.6,0.1c-0.6,0.3-1.7,2.4-2.3,2.7c-3.6,2-7.4,3.9-9.7,4.4c-8.7,2-35.5-1.2-35.5-1.2
				S788.6,806.1,788.7,804.1z"/>
			<g>
				<path class="st3" d="M804.3,792.6c-0.1,0.5,1,0.7,2.4,0.7c2.9-0.1,5.9,0,8.9,0.5c1.5,0.2,2.7,0,2.8-0.5c0.1-0.5-1.1-1.2-2.5-1.4
					c-3-0.4-5.9-0.5-8.8-0.4C805.7,791.6,804.4,792.2,804.3,792.6z"/>
				<path class="st3" d="M809.3,789.3c-0.1,0.5,1,0.9,2.4,0.9c2.9,0.1,5.9,0.5,8.8,1.2c1.4,0.3,2.7,0.2,2.7-0.3
					c0-0.5-1.1-1.3-2.5-1.6c-2.9-0.6-5.8-1-8.7-1.1C810.6,788.4,809.4,788.8,809.3,789.3z"/>
				<path class="st3" d="M814.2,786.3c-0.1,0.5,1,1,2.4,1.2c2.9,0.3,5.8,1,8.7,1.8c1.4,0.4,2.6,0.4,2.7-0.1c0-0.5-1.1-1.4-2.5-1.8
					c-2.9-0.9-5.7-1.4-8.6-1.8C815.5,785.4,814.3,785.8,814.2,786.3z"/>
			</g>
		</g>
	</g>

	<g>
		<g>
			<path class="st8" d="M900.9,577.3h-54.3c-6.7,0-12.1-5.4-12.1-12.1v-14.4c0-6.7,5.4-12.1,12.1-12.1h54.3
				c6.7,0,12.1,5.4,12.1,12.1v14.4C913,571.8,907.6,577.3,900.9,577.3z M846.6,546.1c-2.5,0-4.6,2.1-4.6,4.6v14.4
				c0,2.5,2.1,4.6,4.6,4.6h54.3c2.5,0,4.6-2.1,4.6-4.6v-14.4c0-2.5-2.1-4.6-4.6-4.6H846.6z"/>
		</g>
		<g>
			<path class="st8" d="M967.8,703.4H777.6c-3.9,0-7-3.1-7-7V563.7c0-3.9,3.1-7,7-7h190.1c3.9,0,7,3.1,7,7v132.7
				C974.8,700.3,971.6,703.4,967.8,703.4z"/>
			<path class="st7" d="M968.4,703.4H778.1c-3.8,0-6.9-3.1-6.9-6.9V567.7c0-3.8,3.1-6.9,6.9-6.9h190.3c3.8,0,6.9,3.1,6.9,6.9v128.8
				C975.3,700.3,972.3,703.4,968.4,703.4z"/>
			<path class="st22" d="M956.7,565.6h-168c-4.9,0-8.9,4-8.9,8.9v113c0,4.9,4,8.9,8.9,8.9h168c4.9,0,8.9-4,8.9-8.9v-113
				C965.6,569.6,961.6,565.6,956.7,565.6z"/>
			<path class="st8" d="M959.8,573.4H785.6c-3.3,0-5.9,2.6-5.9,5.9v44.9c0,3.3,2.6,5.9,5.9,5.9h174.1c3.3,0,5.9-2.6,5.9-5.9v-44.9
				C965.6,576,963,573.4,959.8,573.4z"/>
			<path class="st22" d="M959.8,565.6H785.6c-3.3,0-5.9,2.6-5.9,5.9v44.9c0,3.3,2.6,5.9,5.9,5.9h174.1c3.3,0,5.9-2.6,5.9-5.9v-44.9
				C965.6,568.3,963,565.6,959.8,565.6z"/>
			<path class="st9" d="M893.7,641.1h-39.9c-3.9,0-7-3.2-7-7v-12.7c0-3.9,3.2-7,7-7h39.9c3.9,0,7,3.2,7,7V634
				C900.7,637.9,897.6,641.1,893.7,641.1z"/>
			<path class="st6" d="M894.3,638.4h-41.1c-3.5,0-6.4-2.9-6.4-6.4v-9.3c0-3.5,2.9-6.4,6.4-6.4h41.1c3.5,0,6.4,2.9,6.4,6.4v9.3
				C900.7,635.5,897.9,638.4,894.3,638.4z"/>
			<g class="st10">
				<g>
					<path class="st3" d="M866.9,638.4c2.2,0,4.5,0,6.7,0c-1.1-3.8,2.9-7,8.6-11.1c5.7-4,9.7-7.2,8.6-11.1c-2.2,0-4.5,0-6.7,0
						c1.1,3.8-2.9,7-8.6,11.1C869.8,631.3,865.8,634.6,866.9,638.4z"/>
					<path class="st3" d="M860.6,638.4c1.6,0,3.1,0,4.7,0c-1.1-3.8,2.9-7,8.6-11.1c5.7-4,9.7-7.2,8.6-11.1c-1.6,0-3.1,0-4.7,0
						c1.1,3.8-2.9,7-8.6,11.1C863.5,631.3,859.5,634.6,860.6,638.4z"/>
				</g>
			</g>
		</g>
	</g>
	<g>
		<g>
			<g>
				<path class="st13" d="M904.8,435.1L904.8,435.1c6.5-1.1,10.9-7.3,9.4-17.4c-5.8-32.6-4-58.1-12-80.2l-2.3-15.5
					c-2.5-16.7-13.5-28.9-24.2-27l0,0c-11,1.9-9.9,28.4-2.6,46.7c0.3,36.2,11.8,42.8,17,80.3C892.1,432,898.3,436.2,904.8,435.1z"/>
			</g>
			<g>
				<g>
					<path class="st13" d="M891.5,517.2c8.2-37.1,17.9-61.9,23.1-91.3c1.9-10.9-1.9-18.2-8.9-19.4h0c-6.8-1.2-12.2,4-14.9,14.3
						c-5.7,21.7-4.2,50.7-12.2,93.5C877.4,521.7,889.9,524.2,891.5,517.2z"/>
				</g>
				<g>
					<g>
						<path class="st12" d="M890,546L890,546c-1.7-0.2-3-1.7-2.8-3.5l0.9-10c0.2-2,7.3-3.5,7-1.5l-1.6,12.2
							C893.3,544.9,891.7,546.2,890,546z"/>
					</g>
					<g>
						<path class="st12" d="M887.9,544.5L887.9,544.5c-1.7-0.1-3.1-1.6-3-3.3l0.5-10.1c0.1-2,1.7-3.6,3.6-3.5l0,0
							c1.9,0.1,3.3,1.8,3.1,3.8l-0.8,10C891.2,543.2,889.6,544.6,887.9,544.5z"/>
					</g>
					<g>
						<path class="st12" d="M881.7,545.8L881.7,545.8c-1.7-0.1-3.1-1.6-3-3.3l0.6-12.9c0.1-2,1.7-3.6,3.6-3.5l0,0
							c1.9,0.1,3.3,1.8,3.1,3.8l-0.9,12.9C885,544.5,883.4,545.9,881.7,545.8z"/>
					</g>
					<path class="st12" d="M875.5,518.2c1.6-5.1,7.3-11.9,13.6-11c8.2,1.1,7.1,16,6.1,23.8c-1.5,4.8-6.2,7.1-11,6.7
						c-2.2-0.2-8.4,0.2-9.7-3.8C873.2,530,874.7,520.5,875.5,518.2z"/>
					<g>
						<path class="st12" d="M872.8,530.3c-1.4,4.4-5.7,10-8.6,9.6c-1.3-0.2-1.4-1.3-0.8-2.6c1.5-3.3,2.8-7.9,3.7-11.4
							C869,522.5,874.7,524.7,872.8,530.3z"/>
						<path class="st12" d="M878.8,512.4c6.5,1.6,4.6,10.8-0.1,13.9c-1.7,1.1-3,4.2-4.6,5.5c-0.1-1.1-1.7-0.7-2,0.3
							c-1.1,2.7-6.2-3-4.9-6.8C868.5,521.7,876,514,878.8,512.4z"/>
					</g>
					<g>
						<path class="st12" d="M861.3,550.8c-1.1-1.9-0.4-4.4,1.5-5.4l11-6.2c1.5-0.8,2.6-1.8,3.5-0.2l1.7,3c0.9,1.7-0.7,2.3-2.5,3
							L861.3,550.8z"/>
						<path class="st12" d="M876.6,543.3L876.6,543.3c-1.7-0.2-3-1.7-2.8-3.5L875,527c0.2-2,1.9-3.5,3.7-3.3l0,0
							c1.9,0.2,3.2,2,2.9,4l-1.5,12.8C879.9,542.2,878.3,543.4,876.6,543.3z"/>
					</g>
				</g>
				<path class="st3" d="M916.3,413.1c-1.8-11.5-2.8-21.9-3.7-32c-1.5-16.5-2.8-30.8-7.6-44.3l-2.3-15.2c-1.7-11.1-7-20.8-14.2-26
					c-4.3-3.1-8.9-4.3-13.4-3.5c-3.1,0.5-5.7,2.5-7.5,5.7c-5.5,9.8-3.1,30.1,2.5,44.4c0.3,20.4,4.1,31.9,8.1,44
					c3.2,9.7,6.6,19.7,8.9,35.7c-2.5,10.5-3.8,23.8-5.2,39.1c-1.3,14.2-1.9,24.2-4.6,41.5l19.4,3.4c2.9-12.2,5.1-17.9,8.1-29.1
					c4.8-17.6,9.3-34.2,12.2-50.4C917.9,421.3,917.6,416.7,916.3,413.1z"/>
				<polygon class="st12" points="861.8,550.8 883,550.8 892.1,545.5 878.7,540.5 864.6,547.5 				"/>
			</g>
		</g>
		<path class="st4" d="M916.3,413.1c-1.8-11.5-2.8-21.9-3.7-32c-1.4-15.8-2.7-29.5-7-42.4c5.6,81.8,7.6,88.6-4.5,133.7
			c-3,8-8,18-18,22c-1.7,0.5-3.2,0.9-4.8,1.2c-0.3,2.1-0.6,4.4-1,6.8l19.4,3.4c2.9-12.2,5.1-17.9,8.1-29.1
			c4.8-17.6,9.3-34.2,12.2-50.4C917.9,421.3,917.6,416.7,916.3,413.1z"/>
	</g>
</g>
<g id="kobita">
	<g>
		<g>
			<path class="st8" d="M529.9,481.4h-39.8c-4.9,0-8.9-4-8.9-8.9V462c0-4.9,4-8.9,8.9-8.9h39.8c4.9,0,8.9,4,8.9,8.9v10.6
				C538.8,477.5,534.8,481.4,529.9,481.4z M490.1,458.6c-1.8,0-3.4,1.5-3.4,3.4v10.6c0,1.8,1.5,3.4,3.4,3.4h39.8
				c1.8,0,3.4-1.5,3.4-3.4V462c0-1.8-1.5-3.4-3.4-3.4H490.1z"/>
		</g>
		<g>
			<path class="st8" d="M578.8,573.8H439.6c-2.8,0-5.1-2.3-5.1-5.1v-97.2c0-2.8,2.3-5.1,5.1-5.1h139.2c2.8,0,5.1,2.3,5.1,5.1v97.2
				C584,571.5,581.7,573.8,578.8,573.8z"/>
			<path class="st7" d="M579.3,573.8H440c-2.8,0-5.1-2.3-5.1-5.1v-94.3c0-2.8,2.3-5.1,5.1-5.1h139.4c2.8,0,5.1,2.3,5.1,5.1v94.3
				C584.4,571.5,582.1,573.8,579.3,573.8z"/>
			<path class="st22" d="M570.7,472.9h-123c-3.6,0-6.6,2.9-6.6,6.6v82.7c0,3.6,2.9,6.6,6.6,6.6h123c3.6,0,6.6-2.9,6.6-6.6v-82.7
				C577.3,475.8,574.4,472.9,570.7,472.9z"/>
			<path class="st8" d="M573,478.6H445.5c-2.4,0-4.3,1.9-4.3,4.3v32.9c0,2.4,1.9,4.3,4.3,4.3H573c2.4,0,4.3-1.9,4.3-4.3v-32.9
				C577.3,480.5,575.4,478.6,573,478.6z"/>
			<path class="st22" d="M573,472.9H445.5c-2.4,0-4.3,1.9-4.3,4.3v32.9c0,2.4,1.9,4.3,4.3,4.3H573c2.4,0,4.3-1.9,4.3-4.3v-32.9
				C577.3,474.8,575.4,472.9,573,472.9z"/>
			<path class="st23" d="M525.1,524.7h-30.1c-2.6,0-4.7-2.1-4.7-4.7v-6.8c0-2.6,2.1-4.7,4.7-4.7h30.1c2.6,0,4.7,2.1,4.7,4.7v6.8
				C529.8,522.6,527.7,524.7,525.1,524.7z"/>
			<linearGradient id="SVGID_7_" gradientUnits="userSpaceOnUse" x1="510.0068" y1="526.9485" x2="510.0068" y2="507.9587">
				<stop  offset="0" style="stop-color:#FF983D"/>
				<stop  offset="6.276721e-02" style="stop-color:#FFA240"/>
				<stop  offset="0.2208" style="stop-color:#FFB646"/>
				<stop  offset="0.4016" style="stop-color:#FFC44B"/>
				<stop  offset="0.6227" style="stop-color:#FFCD4D"/>
				<stop  offset="1" style="stop-color:#FFCF4E"/>
			</linearGradient>
			<path class="st24" d="M525.1,526.2h-30.1c-2.6,0-4.7-2.1-4.7-4.7v-6.8c0-2.6,2.1-4.7,4.7-4.7h30.1c2.6,0,4.7,2.1,4.7,4.7v6.8
				C529.8,524.1,527.7,526.2,525.1,526.2z"/>
			<g class="st10">
				<g>
					<path class="st3" d="M505,526.2c1.6,0,3.3,0,4.9,0c-0.8-2.8,2.1-5.2,6.3-8.1c4.2-2.9,7.1-5.3,6.3-8.1c-1.6,0-3.3,0-4.9,0
						c0.8,2.8-2.1,5.2-6.3,8.1C507.1,521,504.2,523.4,505,526.2z"/>
					<path class="st3" d="M500.4,526.2c1.2,0,2.3,0,3.5,0c-0.8-2.8,2.1-5.2,6.3-8.1c4.2-2.9,7.1-5.3,6.3-8.1c-1.2,0-2.3,0-3.5,0
						c0.8,2.8-2.1,5.2-6.3,8.1C502.5,521,499.5,523.4,500.4,526.2z"/>
				</g>
			</g>
		</g>
	</g>
	<g>
		<path class="st8" d="M547.1,204.5c6.8,5.5,10.9,13.5,14.4,21.6c2.5,5.9,4.8,12.1,5.3,18.5c0.5,6.4-1,13.2-5.1,18.1
			c-3.4,4-8.3,6.4-11.6,10.5c-7.2,8.7-5,21.4-6.9,32.6c-1.1,6.6-3.8,13-8.5,17.8c-4.7,4.7-11.5,7.6-18.1,6.8
			c-7.8-0.9-14.3-6.8-17.9-13.7c-3.6-6.9-4.7-14.9-5.2-22.7c-1.1-18.1,0.9-36.4,5.9-53.9C504.7,220.7,522.4,184.6,547.1,204.5z"/>
		<g>
			
				<linearGradient id="SVGID_8_" gradientUnits="userSpaceOnUse" x1="420.844" y1="618.9108" x2="479.235" y2="618.9108" gradientTransform="matrix(0.8833 0.4688 -0.4688 0.8833 336.4782 -27.5849)">
				<stop  offset="0" style="stop-color:#FFC99C"/>
				<stop  offset="0.2995" style="stop-color:#FFB07B"/>
				<stop  offset="1" style="stop-color:#FF8F61"/>
			</linearGradient>
			<path class="st25" d="M439.6,675.8c-22.2,60.1-15.5,84.4-19.6,94.2c-4.2,9.8-4.6,6.5-7.9,10.1c-3.3,3.6-2,5.8,3.3,16.6
				c5.3,10.7,15.4,15.5,19.3,12.3c3.9-3.2-4.4-10.5-6-16.7c-1.4-5.3-1.6-11.7-0.1-18.8c1.4-7,55.9-109.3,55.9-109.3L439.6,675.8z"/>
			<path class="st8" d="M414.6,777.8c4,12.2,9.8,16.3,13,17.2c2,0.6,3.3,1,3.3,1s2.1,3.4,3.9,6.5c3.2,5.5,4.3,8.6,4.1,11.7
				c-0.2,3.1-10.1,1.3-14.8-3.2c-4.7-4.5-14-20.4-14.7-24.9c-0.7-4.5,0.6-5.6,2.4-7C412.7,778.3,414.6,777.8,414.6,777.8z"/>
		</g>
		<g>
			
				<linearGradient id="SVGID_9_" gradientUnits="userSpaceOnUse" x1="618.0359" y1="778.72" x2="666.5019" y2="778.72" gradientTransform="matrix(0.9856 -0.1692 0.1692 0.9856 -146.2011 74.9128)">
				<stop  offset="0" style="stop-color:#FFC99C"/>
				<stop  offset="0.2995" style="stop-color:#FFB07B"/>
				<stop  offset="1" style="stop-color:#FF8F61"/>
			</linearGradient>
			<path class="st26" d="M588.2,700.2c15.9,50.7,27.6,61.9,29.9,70.5c2.2,8.5,0.3,6.6,0,10.6c-0.3,4,6.7,6.2,15.7,10.6
				c8.9,4.4,18,2.4,18.9-1.8c0.9-4.1-8.2-4.7-12.4-7.9c-3.6-2.7-7-6.9-9.6-12.3c-2.6-5.3-18.7-100.2-18.7-100.2L588.2,700.2z"/>
			<path class="st8" d="M619.1,778.9c10.7,7.3,17.9,7,21,5.7c2-0.8,3.3-1.3,3.3-1.3s3.7,1.4,7,2.8c6,2.4,10.6,6,10.6,9.1
				c0,3.6-7.3,4.9-13.9,4.3c-6.5-0.6-25.4-6-28.7-9.1c-3.3-3.2-1.3-6.5-0.8-8.8C617.8,780.5,619.1,778.9,619.1,778.9z"/>
		</g>
		<linearGradient id="SVGID_10_" gradientUnits="userSpaceOnUse" x1="430.3219" y1="395.4441" x2="534.3765" y2="395.4441">
			<stop  offset="0" style="stop-color:#FFC99C"/>
			<stop  offset="0.2995" style="stop-color:#FFB07B"/>
			<stop  offset="1" style="stop-color:#FF8F61"/>
		</linearGradient>
		<path class="st27" d="M490.7,328.2c1.2,11.3-6.8,37.9-38,75.8c13,8.3,46.5,40.8,56.2,44.7c9.8,3.8,21.2,4.6,24.8,11.1
			s-7.1,10.9-13.9,6.1c-6.8-4.8-11.1-6.9-29.6-14c-18.5-7.1-60.5-32-59.9-44.2c0.6-12.2,15.1-56,31.3-71.2
			c9.5-8.9,16.9-12.2,21.5-13.4C486.6,322.2,490.3,324.6,490.7,328.2z"/>
		<path class="st28" d="M445,410.7c17.6,15.5,37.3,25.9,57,41.4c6.7,5.5,14.5,4.5,22.1,1.3c-4.6-1.6-10.2-2.7-15.2-4.7
			c-9.8-3.8-43.2-36.4-56.2-44.7c31.3-37.9,39.2-64.5,38-75.8c-0.2-2.2-1.7-3.9-3.6-4.8c-7.2,26.5-23.7,49.5-42,71.7
			C441.9,400.3,440.9,407.6,445,410.7z"/>
		<linearGradient id="SVGID_11_" gradientUnits="userSpaceOnUse" x1="575.0406" y1="524.3998" x2="561.7073" y2="617.0664">
			<stop  offset="0" style="stop-color:#5C15AE"/>
			<stop  offset="1" style="stop-color:#30036E"/>
		</linearGradient>
		<path class="st29" d="M558.2,471.5c0,0,50.4,118.3,51.1,145.5c0.7,27.2,15.3,109.6,19.9,145.5c-6.4,2.3-13.3,2.7-13.3,2.7
			s-30.9-62.1-40.3-91.1c-9.4-29,2.3-47.3-9.8-61.6c-12.1-14.3-70.5-49.3-77.5-88.6C481.2,484.6,558.2,471.5,558.2,471.5z"/>
		<linearGradient id="SVGID_12_" gradientUnits="userSpaceOnUse" x1="532.6081" y1="688.7352" x2="447.7001" y2="582.4277">
			<stop  offset="0" style="stop-color:#30036E"/>
			<stop  offset="1" style="stop-color:#5C15AE"/>
		</linearGradient>
		<path class="st30" d="M545.4,491.6c0,0-28.5,125.3-44,147.8c-15.4,22.4-51.9,97.7-69.2,129.6c-6.5-1.9-10.8-6.2-10.8-6.2
			s3.6-71.5,15.8-99.4c8.9-20.3,38.1-27.2,36.7-45.9S440.5,529,458,493S545.4,491.6,545.4,491.6z"/>
		<path class="st8" d="M496.1,612.4c-9.3,1.9-14.9,3.8-20,36c-2.1,12.8-20,16-27,28c-4,8,4,16,2,24s-9,11-11,17
			c-4.9,14.7-2.5,36.7-12.3,49.8c1.3,0.7,2.8,1.3,4.4,1.8c17.3-31.8,53.8-107.1,69.2-129.6c8.2-11.9,20-52.5,29.3-88.1
			c-14.2,31.2-20.5,23.4-30.7,37.2C495.1,594.4,501.1,605.4,496.1,612.4z"/>
		<path class="st8" d="M597.3,620.9c3.4,48.9,11.8,97,28.7,142.7c0.9-0.3,2-0.6,3.2-1c-4.6-35.9-19.2-118.3-19.9-145.5
			c-0.7-27.2-51.1-145.5-51.1-145.5s-72.9,10.9-90.7,18.5c0,29.8,83.5,17.8,86.4,29.8c6.9,27.9,16.2,47.1,35.1,72
			C594.2,599.1,596.2,611.5,597.3,620.9z"/>
		<path class="st6" d="M521.1,312c0,0,36.9,41.2,39.8,58.9s-7.5,38.4-7.5,59.4s12.6,59.4,12.6,59.4s-8.4,40.7-108,3.3
			c1.9-24.8,26.8-49.4,21.7-89.1c-5.1-39.8-17-66.6-7.6-80.2S513.6,305.4,521.1,312z"/>
		<path class="st9" d="M553.4,430.3c0-21,10.3-41.6,7.5-59.4c-1.1-6.8-7.2-17.2-14.4-27.3c-0.4,13.9,12.4,26.1,7.6,39.8
			c-3,10-20,19-17,27c5,11-9,17-12,27c-2,12,8,23,3,34c-10.8,25.5-43.6,27.7-70,20.5c0,0.4-0.1,0.7-0.1,1.1
			c99.6,37.4,108-3.3,108-3.3S553.4,451.3,553.4,430.3z"/>
		<linearGradient id="SVGID_13_" gradientUnits="userSpaceOnUse" x1="489.3076" y1="276.622" x2="562.1974" y2="276.622">
			<stop  offset="0" style="stop-color:#FFC99C"/>
			<stop  offset="0.2995" style="stop-color:#FFB07B"/>
			<stop  offset="1" style="stop-color:#FF8F61"/>
		</linearGradient>
		<path class="st31" d="M557,252c3.4-11,0.7-22.8-9.4-30.9c-9.1-7.3-29.2-9.5-42.3,1.8c-35.6,30.7,11.9,36,1.1,65.4
			c-0.5,8.8-7.6,19.4-17.1,27.2c28.1,7.5,34.2,25.4,44.4,22.4c6.6-1.9-8.2-10.9-6.5-23.1c3.8-26.1,18.8-19.8,23.2-24
			c6.8-6.4,1.7-14,9.4-17.7C567.7,269.4,553.4,263.5,557,252z"/>
		<linearGradient id="SVGID_14_" gradientUnits="userSpaceOnUse" x1="395.8876" y1="287.4254" x2="550.6003" y2="287.4254">
			<stop  offset="0" style="stop-color:#5C15AE"/>
			<stop  offset="0.3597" style="stop-color:#5A14AC"/>
			<stop  offset="0.5705" style="stop-color:#5512A3"/>
			<stop  offset="0.7429" style="stop-color:#4B0E95"/>
			<stop  offset="0.8936" style="stop-color:#3D0881"/>
			<stop  offset="1" style="stop-color:#30036E"/>
		</linearGradient>
		<path class="st32" d="M534.4,202c7.1,2.6,14.1,7.4,15.8,14.8c1.5,6.5-1.6,13.3-5.4,18.8c-3.8,5.5-8.5,10.7-10.7,17
			c-5.8,16.7,7,36.3-0.6,52.3c-4.1,8.6-13.2,13.7-22.1,17.1c-4.5,1.7-9.1,3.2-13.5,4.9c-0.6,0.3-1.3,0.5-1.9,0.8
			c-0.6,0.3-1.3,0.5-1.9,0.8s-1.2,0.6-1.9,0.9c-0.6,0.3-1.2,0.7-1.8,1c-0.6,0.4-1.1,0.8-1.7,1.2c-0.5,0.4-1,0.9-1.5,1.4
			c-0.5,0.5-0.9,1.1-1.3,1.7c-0.4,0.5-0.7,1.1-1,1.7c-0.3,0.6-0.6,1.2-0.9,1.9c-0.3,0.7-0.5,1.3-0.7,2.1c-0.2,0.7-0.4,1.5-0.6,2.2
			c-0.2,0.8-0.4,1.6-0.5,2.4c-0.1,0.4-0.2,0.8-0.3,1.3s-0.2,0.9-0.2,1.3c-0.1,0.4-0.2,0.9-0.2,1.3s-0.2,0.9-0.2,1.3
			c-0.1,0.5-0.2,0.9-0.2,1.4c-0.1,0.5-0.2,0.9-0.3,1.4c-0.1,0.5-0.2,0.9-0.3,1.4c-0.1,0.5-0.2,0.9-0.3,1.4c-0.1,0.5-0.2,0.9-0.3,1.4
			c-0.1,0.5-0.2,0.9-0.4,1.4c-0.1,0.5-0.3,0.9-0.4,1.4c-0.1,0.5-0.3,0.9-0.4,1.4s-0.3,0.9-0.5,1.3c-0.2,0.4-0.4,0.9-0.5,1.3
			c-0.2,0.4-0.4,0.9-0.6,1.3c-0.2,0.4-0.4,0.8-0.7,1.2c-0.2,0.4-0.5,0.8-0.7,1.2s-0.5,0.8-0.8,1.1s-0.6,0.7-0.9,1.1
			c-0.3,0.3-0.6,0.7-1,1c-0.3,0.3-0.7,0.6-1,0.9c-0.4,0.3-0.7,0.6-1.1,0.9c-0.4,0.3-0.8,0.5-1.2,0.8s-0.9,0.5-1.3,0.7
			c-0.4,0.2-0.9,0.4-1.4,0.6c-0.5,0.2-1,0.4-1.5,0.5c-0.5,0.2-1,0.3-1.6,0.4c-0.5,0.1-1.1,0.2-1.6,0.3s-1.1,0.2-1.7,0.2
			c-0.6,0.1-1.2,0.1-1.8,0.1c-0.6,0-1.2,0-1.9,0c-0.6,0-1.3,0-2-0.1c-0.7-0.1-1.3-0.1-2-0.2c-0.7-0.1-1.4-0.2-2.1-0.3
			c-0.7-0.1-1.4-0.3-2.2-0.5c-0.4-0.1-0.7-0.2-1.1-0.3c-0.2,0-0.4-0.1-0.6-0.1c-0.2,0-0.4-0.1-0.6-0.1c-0.2,0-0.4-0.1-0.6-0.1
			c-0.2,0-0.4-0.1-0.6-0.1c-0.2,0-0.4-0.1-0.6-0.1c-0.2,0-0.4-0.1-0.6-0.1c-0.2,0-0.4-0.1-0.7-0.1c-0.2,0-0.5-0.1-0.7-0.1
			c-0.2,0-0.5-0.1-0.7-0.1c-0.2,0-0.5-0.1-0.7-0.1c-0.2,0-0.5,0-0.8-0.1c-0.3,0-0.5,0-0.8,0s-0.5,0-0.8,0c-0.3,0-0.6,0-0.8,0
			c-0.3,0-0.6,0-0.9,0c-0.3,0-0.6,0-0.9,0s-0.6,0-0.9,0c-0.3,0-0.6,0-1,0.1c-0.3,0-0.7,0-1,0.1c-0.3,0-0.7,0.1-1,0.1
			c-0.3,0-0.7,0.1-1,0.1c-0.4,0-0.7,0.1-1.1,0.1c-0.4,0-0.7,0.1-1.1,0.1s-0.7,0.1-1.1,0.1c-0.4,0-0.8,0.1-1.1,0.1
			c-0.4,0.1-0.8,0.1-1.2,0.2c-0.4,0-0.8,0.1-1.2,0.1c-0.4,0-0.8,0.1-1.2,0.1c-0.4,0-0.8,0.1-1.2,0.1s-0.8,0.1-1.1,0.1
			c-0.4,0-0.7,0-1.1,0c-0.4,0-0.7,0-1,0s-0.7,0-1-0.1c-0.3,0-0.6-0.1-0.9-0.1c-0.3-0.1-0.6-0.1-0.8-0.2s-0.5-0.2-0.7-0.3
			c-0.2-0.1-0.4-0.2-0.6-0.4c-0.2-0.1-0.4-0.3-0.6-0.4c-0.2-0.2-0.3-0.3-0.5-0.5s-0.3-0.3-0.4-0.5c-0.1-0.2-0.2-0.4-0.3-0.6
			c-0.1-0.2-0.2-0.4-0.3-0.6c-0.1-0.2-0.2-0.4-0.2-0.7c-0.1-0.2-0.1-0.5-0.2-0.7c-0.1-0.2-0.1-0.5-0.2-0.7c0-0.2-0.1-0.5-0.1-0.7
			c0-0.3-0.1-0.5-0.1-0.8c0-0.3-0.1-0.5-0.1-0.8c0-0.3-0.1-0.5-0.1-0.8c0-0.3-0.1-0.5-0.1-0.8c0-0.3-0.1-0.5-0.1-0.8
			s-0.1-0.5-0.1-0.7c0-0.2-0.1-0.5-0.1-0.7c0-0.2-0.1-0.5-0.1-0.7c0-0.2-0.1-0.5-0.1-0.7c0-0.2-0.1-0.5-0.1-0.7
			c0-0.2-0.1-0.4-0.2-0.7c-0.1-0.2-0.1-0.4-0.2-0.6c-0.1-0.2-0.1-0.4-0.2-0.6c-0.1-0.2-0.1-0.4-0.2-0.6c-0.1-0.2-0.1-0.4-0.2-0.6
			c-0.1-0.2-0.1-0.4-0.2-0.5c-0.2-0.4-0.3-0.7-0.5-1c-0.2-0.3-0.3-0.6-0.5-0.9c-0.2-0.3-0.4-0.6-0.6-0.9c-0.2-0.3-0.4-0.5-0.7-0.8
			c-0.2-0.2-0.5-0.5-0.7-0.7c-0.2-0.2-0.5-0.5-0.7-0.7c-0.2-0.2-0.5-0.4-0.7-0.6c-0.2-0.2-0.5-0.4-0.7-0.6c-0.2-0.2-0.4-0.4-0.6-0.6
			s-0.4-0.4-0.6-0.6c-0.2-0.2-0.4-0.4-0.6-0.6c-0.2-0.2-0.4-0.4-0.6-0.6s-0.4-0.4-0.5-0.6c-0.2-0.2-0.3-0.4-0.5-0.6
			c-0.2-0.2-0.3-0.4-0.5-0.6s-0.3-0.4-0.4-0.6s-0.3-0.4-0.4-0.6c-0.1-0.2-0.3-0.4-0.4-0.6c-0.1-0.2-0.2-0.4-0.4-0.6
			s-0.2-0.4-0.3-0.6s-0.2-0.4-0.3-0.6c-0.1-0.2-0.2-0.4-0.3-0.6c-0.1-0.2-0.2-0.4-0.3-0.6s-0.2-0.4-0.3-0.6
			c-0.1-0.2-0.2-0.4-0.2-0.6c-0.1-0.2-0.2-0.4-0.2-0.6c-0.1-0.2-0.1-0.4-0.2-0.6c-0.1-0.2-0.1-0.4-0.2-0.6s-0.1-0.4-0.2-0.6
			s-0.1-0.4-0.2-0.6c0-0.2-0.1-0.4-0.1-0.6c0-0.2-0.1-0.4-0.1-0.6c0-0.2-0.1-0.4-0.1-0.6c0-0.2-0.1-0.4-0.1-0.6c0-0.2,0-0.4-0.1-0.6
			c0-0.2,0-0.4,0-0.6c0-0.4,0-0.8,0-1.1c0-0.3,0-0.6,0-0.8c0-0.3,0-0.5,0-0.8c0-0.3,0-0.5,0.1-0.8c0-0.3,0.1-0.5,0.1-0.8
			s0.1-0.5,0.1-0.8c0.1-0.3,0.1-0.5,0.2-0.7s0.1-0.5,0.2-0.7c0.1-0.2,0.2-0.5,0.3-0.7c0.1-0.2,0.2-0.5,0.3-0.7
			c0.1-0.2,0.2-0.5,0.3-0.7c0.1-0.2,0.3-0.5,0.4-0.7c0.1-0.2,0.3-0.5,0.5-0.7c0.1-0.2,0.2-0.4,0.4-0.5c0.1-0.2,0.3-0.4,0.4-0.5
			c0.1-0.2,0.3-0.4,0.4-0.5s0.3-0.4,0.5-0.5c0.2-0.2,0.3-0.4,0.5-0.5c0.2-0.2,0.3-0.4,0.5-0.5c0.2-0.2,0.4-0.4,0.5-0.5
			c0.2-0.2,0.4-0.4,0.6-0.5s0.4-0.4,0.6-0.5c0.2-0.2,0.4-0.4,0.6-0.5c0.2-0.2,0.4-0.4,0.6-0.5s0.4-0.4,0.7-0.5
			c0.2-0.2,0.5-0.4,0.7-0.5c0.2-0.2,0.5-0.3,0.7-0.5c0.2-0.2,0.5-0.3,0.7-0.5c0.2-0.2,0.5-0.3,0.7-0.5s0.5-0.3,0.7-0.5
			c0.2-0.2,0.5-0.3,0.7-0.5c0.2-0.2,0.5-0.3,0.7-0.5c0.2-0.2,0.5-0.3,0.7-0.5c0.2-0.2,0.5-0.3,0.7-0.5s0.5-0.3,0.7-0.5
			c0.2-0.2,0.4-0.3,0.7-0.5c0.2-0.2,0.4-0.3,0.7-0.5c0.2-0.2,0.4-0.3,0.6-0.5s0.4-0.3,0.6-0.5c0.2-0.2,0.4-0.3,0.6-0.5
			c0.2-0.2,0.4-0.3,0.6-0.5c0.2-0.2,0.4-0.3,0.6-0.5c0.2-0.2,0.4-0.3,0.6-0.5c0.2-0.2,0.4-0.3,0.5-0.5c0.2-0.2,0.4-0.3,0.5-0.5
			c0.2-0.2,0.3-0.3,0.5-0.5c0.2-0.2,0.3-0.3,0.5-0.5c0.2-0.2,0.3-0.3,0.5-0.5c0.2-0.2,0.3-0.3,0.5-0.5c0.1-0.2,0.3-0.3,0.4-0.5
			c0.1-0.2,0.3-0.3,0.4-0.5c0.3-0.3,0.5-0.6,0.7-0.9c0.2-0.3,0.4-0.6,0.6-0.9c0.2-0.3,0.4-0.6,0.6-1c0.2-0.3,0.3-0.6,0.5-0.8
			c0.1-0.3,0.3-0.6,0.4-0.8c0.3-0.6,0.5-1.1,0.8-1.7c0.3-0.6,0.5-1.1,0.8-1.7c0.2-0.5,0.5-0.9,0.7-1.4s0.5-0.9,0.8-1.4
			c0.3-0.5,0.6-0.9,0.9-1.3s0.6-0.9,1-1.3s0.7-0.8,1.1-1.2c0.4-0.4,0.8-0.8,1.2-1.2c0.6-0.5,1.2-1,1.8-1.5c0.6-0.4,1.3-0.9,1.9-1.2
			c0.7-0.4,1.3-0.7,2-1.1c0.7-0.3,1.3-0.7,2-1c0.7-0.3,1.3-0.6,2-1c0.7-0.3,1.3-0.7,1.9-1c0.6-0.4,1.2-0.7,1.8-1.1
			c0.6-0.4,1.2-0.8,1.7-1.3c5.7-5.1,6.4-13.7,5.9-21.4c-0.4-7.7-1.3-15.8,2.4-22.5c4.1-7.2,12.5-10.6,20.2-13.7
			c5.7-2.3,11.9-4.9,16-9.7c2.6-3,3.8-7.3,6.9-9.9C506.3,196,524.3,198.3,534.4,202z"/>
		<path class="st8" d="M544.8,235.6c3.8-5.5,6.9-12.3,5.4-18.8c-1.7-7.3-8.7-12.2-15.8-14.8c-10.1-3.7-28.1-6-37.2,1.5
			c-3.2,2.6-4.3,6.8-6.9,9.9c-0.1,0.2-0.3,0.3-0.4,0.4c14.9-5.2,31.2-10.9,38.3,5.6c4,11-8,21-9,33c0,12,3,23-1,35c-1,3-3,6-4,8
			c-9,10-25,7-32,19c-9,15-5,36-21,46c-12,7-29,7-37,3c-4.9-2.5-10-5.1-15.2-7.5c0.1,0.2,0.2,0.4,0.4,0.7c0.2,0.3,0.3,0.7,0.5,1
			c0.1,0.2,0.2,0.4,0.2,0.5c0.1,0.2,0.1,0.4,0.2,0.6c0.1,0.2,0.1,0.4,0.2,0.6c0.1,0.2,0.1,0.4,0.2,0.6c0.1,0.2,0.1,0.4,0.2,0.6
			c0.1,0.2,0.1,0.4,0.2,0.7s0.1,0.4,0.1,0.7c0,0.2,0.1,0.5,0.1,0.7c0,0.2,0.1,0.5,0.1,0.7c0,0.2,0.1,0.5,0.1,0.7
			c0,0.2,0.1,0.5,0.1,0.7c0,0.3,0.1,0.5,0.1,0.8c0,0.3,0.1,0.5,0.1,0.8c0,0.3,0.1,0.5,0.1,0.8c0,0.3,0.1,0.5,0.1,0.8
			c0,0.3,0.1,0.5,0.1,0.8c0,0.3,0.1,0.5,0.1,0.7s0.1,0.5,0.2,0.7c0.1,0.2,0.1,0.5,0.2,0.7s0.1,0.5,0.2,0.7c0.1,0.2,0.2,0.4,0.3,0.6
			s0.2,0.4,0.3,0.6c0.1,0.2,0.3,0.4,0.4,0.5s0.3,0.3,0.5,0.5c0.2,0.2,0.4,0.3,0.6,0.4s0.4,0.2,0.6,0.4c0.2,0.1,0.5,0.2,0.7,0.3
			c0.3,0.1,0.5,0.2,0.8,0.2s0.6,0.1,0.9,0.1c0.3,0,0.6,0.1,1,0.1c0.3,0,0.7,0,1,0c0.4,0,0.7,0,1.1,0c0.4,0,0.7,0,1.1-0.1
			c0.4,0,0.8-0.1,1.2-0.1c0.4,0,0.8-0.1,1.2-0.1c0.4,0,0.8-0.1,1.2-0.1c0.4,0,0.8-0.1,1.2-0.2s0.8-0.1,1.1-0.1
			c0.4,0,0.8-0.1,1.1-0.1c0.4,0,0.7-0.1,1.1-0.1c0.4,0,0.7-0.1,1.1-0.1c0.4,0,0.7-0.1,1-0.1c0.3,0,0.7-0.1,1-0.1c0.3,0,0.7,0,1-0.1
			c0.3,0,0.6,0,1-0.1c0.3,0,0.6,0,0.9,0c0.3,0,0.6,0,0.9,0c0.3,0,0.6,0,0.9,0c0.3,0,0.6,0,0.8,0c0.3,0,0.5,0,0.8,0
			c0.3,0,0.5,0,0.8,0c0.3,0,0.5,0,0.8,0.1c0.2,0,0.5,0,0.7,0.1c0.2,0,0.5,0.1,0.7,0.1c0.2,0,0.5,0.1,0.7,0.1s0.4,0.1,0.7,0.1
			s0.4,0.1,0.6,0.1s0.4,0.1,0.6,0.1c0.2,0,0.4,0.1,0.6,0.1c0.2,0,0.4,0.1,0.6,0.1c0.2,0,0.4,0.1,0.6,0.1c0.2,0,0.4,0.1,0.6,0.1
			c0.4,0.1,0.8,0.2,1.1,0.3c0.7,0.2,1.5,0.3,2.2,0.5c0.7,0.1,1.4,0.2,2.1,0.3c0.7,0.1,1.4,0.2,2,0.2c0.7,0.1,1.3,0.1,2,0.1
			s1.3,0,1.9,0c0.6,0,1.2-0.1,1.8-0.1c0.6-0.1,1.2-0.1,1.7-0.2c0.6-0.1,1.1-0.2,1.6-0.3c0.5-0.1,1.1-0.3,1.6-0.4
			c0.5-0.2,1-0.3,1.5-0.5c0.5-0.2,0.9-0.4,1.4-0.6c0.4-0.2,0.9-0.4,1.3-0.7c0.4-0.2,0.8-0.5,1.2-0.8s0.8-0.6,1.1-0.9
			c0.4-0.3,0.7-0.6,1-0.9c0.3-0.3,0.7-0.7,1-1c0.3-0.3,0.6-0.7,0.9-1.1c0.3-0.4,0.5-0.7,0.8-1.1s0.5-0.8,0.7-1.2
			c0.2-0.4,0.5-0.8,0.7-1.2s0.4-0.8,0.6-1.3c0.2-0.4,0.4-0.9,0.5-1.3c0.2-0.4,0.3-0.9,0.5-1.3s0.3-0.9,0.4-1.4
			c0.1-0.5,0.3-0.9,0.4-1.4s0.2-0.9,0.4-1.4c0.1-0.5,0.2-0.9,0.3-1.4c0.1-0.5,0.2-0.9,0.3-1.4s0.2-0.9,0.3-1.4
			c0.1-0.5,0.2-0.9,0.3-1.4s0.2-0.9,0.2-1.4c0.1-0.5,0.2-0.9,0.2-1.3c0.1-0.4,0.2-0.9,0.2-1.3c0.1-0.4,0.2-0.9,0.2-1.3
			c0.1-0.4,0.2-0.8,0.3-1.3c0.2-0.8,0.3-1.6,0.5-2.4c0.2-0.8,0.4-1.5,0.6-2.2c0.2-0.7,0.5-1.4,0.7-2.1c0.3-0.7,0.5-1.3,0.9-1.9
			c0.3-0.6,0.6-1.1,1-1.7c0.4-0.6,0.9-1.2,1.3-1.7c0.5-0.5,1-1,1.5-1.4c0.5-0.4,1.1-0.8,1.7-1.2c0.6-0.4,1.2-0.7,1.8-1
			c0.6-0.3,1.2-0.6,1.9-0.9c0.6-0.3,1.3-0.6,1.9-0.8c0.6-0.3,1.3-0.5,1.9-0.8c4.5-1.8,9.1-3.2,13.5-4.9c8.9-3.4,18-8.5,22.1-17.1
			c7.6-16-5.2-35.6,0.6-52.3C536.3,246.2,541,241.1,544.8,235.6z"/>
		<path class="st20" d="M449.5,248.6c-1.5-2.5-1.7-5.5-1.2-8.3c0.5-2.8,1.8-5.6,3.6-7.9c1.9-2.3,4.3-4.2,6.9-5.7
			c2.6-1.5,5.4-2.7,8.4-3.7c0.1,0,0.1-0.1,0.1-0.2c0-0.1-0.1-0.1-0.2-0.1c-3,0.5-6.1,1.4-8.9,2.9c-2.8,1.4-5.5,3.4-7.5,5.9
			c-2,2.5-3.3,5.6-3.6,8.7C446.8,243.3,447.6,246.4,449.5,248.6z"/>
		<path class="st20" d="M566.4,260.7c1.8-2.1,3.4-4.5,4.4-7.1c1-2.6,1.4-5.6,1.2-8.4c-0.3-2.8-1-5.6-2.1-8.2c-1-2.6-2.3-5.1-3.7-7.5
			c-0.1-0.2-0.4-0.3-0.6-0.2c-0.2,0.1-0.3,0.4-0.2,0.6c1.2,2.5,2.4,5,3.4,7.6c1,2.6,1.8,5.2,2,7.9c0.2,2.7,0,5.4-0.8,8
			c-0.8,2.6-2.1,5-3.6,7.4c0,0,0,0.1,0,0.1C566.3,260.7,566.3,260.7,566.4,260.7z"/>
	</g>
</g>
<g id="_x40_reka">
	
		<linearGradient id="SVGID_15_" gradientUnits="userSpaceOnUse" x1="500.351" y1="442.5865" x2="557.3015" y2="392.8843" gradientTransform="matrix(0.9997 -2.408765e-02 2.408765e-02 0.9997 -9.2222 13.7665)">
		<stop  offset="0" style="stop-color:#FFC99C"/>
		<stop  offset="0.541" style="stop-color:#FFB07B"/>
	</linearGradient>
	<path class="st33" d="M496.5,330.8c2.6-3.5,7.7-4,10.8-0.9c9.5,9.6,21.8,40,20.9,98c18.1-2,73.1,3.3,84.9-0.3
		c4-1.2,7.8-2.9,11.5-4.5c0-0.1,0.1-0.3,0.1-0.4c1.3-3.9,3.9-6.6,5.8-6c1.1,0.3,1.7,1.6,1.8,3.4c4.4-1.4,8.4-2,11.9-0.6
		c8.2,3.4,1.5,15.3-8.3,15.9c-9.8,0.6-15.4,1.8-37.6,9c-22.2,7.1-79.5,15.2-88,3.5c-8.5-11.7-27.5-62.9-23.8-88.8
		C488.7,343.8,493.2,335.3,496.5,330.8z"/>
	<path class="st28" d="M515.8,366.7c5.7,23.7,5.3,46.5,3.8,70.3c32.1-1.8,63.1-3.6,95.1-8.5c0.9-0.3,1.7-1.2,2.3-2.3
		c-1.3,0.5-2.6,0.9-3.9,1.3c-11.8,3.7-66.8-1.6-84.9,0.3c0.8-58.1-11.5-88.5-20.9-98c-1.5-1.5-3.6-2.2-5.5-2
		c4.1,4.4,6.5,9.4,8.3,15.1C512.3,351.3,514.5,358.5,515.8,366.7z"/>
</g>
</svg>
