<svg width="1068" height="982" viewBox="0 0 1068 982" fill="none" xmlns="http://www.w3.org/2000/svg">
<mask id="mask0_502_326" style="mask-type:alpha" maskUnits="userSpaceOnUse" x="0" y="281" width="1068" height="701">
<path d="M449.82 939.75C390.434 972.413 302.587 1008.4 245.543 952.692C212.523 920.399 202.297 871.713 177.409 835.353C144.267 787.036 95.5998 755.606 48.658 716.78C5.28924 680.913 -29.2087 636.541 36.9534 603.015C80.815 580.829 145.991 586.868 176.916 548.289C213.632 502.561 167.676 441.303 190.346 391.384C209.32 349.724 257.617 326.182 306.776 310.159C366.778 290.561 433.803 279.098 498.733 283.042C600.501 289.328 669.128 323.963 771.389 295.245C872.049 267.019 976.282 281.81 1035.42 359.584C1104.91 451.04 1055.63 549.029 959.157 611.889C883.138 661.438 788.638 677.831 761.656 758.194C744.407 809.222 702.886 815.385 647.936 841.392C579.433 873.685 515.612 903.513 449.82 939.75Z" fill="white"/>
</mask>
<g mask="url(#mask0_502_326)">
<path d="M449.82 939.75C390.434 972.413 302.587 1008.4 245.543 952.692C212.523 920.399 202.297 871.713 177.409 835.353C144.267 787.036 95.5998 755.606 48.658 716.78C5.28924 680.913 -29.2087 636.541 36.9534 603.015C80.815 580.829 145.991 586.868 176.916 548.289C213.632 502.561 167.676 441.303 190.346 391.384C209.32 349.724 257.617 326.182 306.776 310.159C366.778 290.561 433.803 279.098 498.733 283.042C600.501 289.328 669.128 323.963 771.389 295.245C872.049 267.019 976.282 281.81 1035.42 359.584C1104.91 451.04 1055.63 549.029 959.157 611.889C883.138 661.438 788.638 677.831 761.656 758.194C744.407 809.222 702.886 815.385 647.936 841.392C579.433 873.685 515.612 903.513 449.82 939.75Z" fill="#7DF2D8"/>
<path d="M729.992 723.066L682.804 695.827L679.847 694.101L632.782 666.862L629.825 665.136L582.636 637.896L579.679 636.171L532.491 608.931L529.534 607.206L482.346 579.966L479.389 578.24L432.201 551.001L429.244 549.275L382.056 522.036L379.099 520.31L331.91 493.071L328.953 491.345L281.765 464.105L278.808 462.38L246.898 444.015C246.528 444.877 246.158 445.863 245.789 446.726L275.851 464.105L229.033 491.345L228.786 491.222C228.663 491.591 228.417 492.085 228.293 492.454C227.677 493.687 227.185 495.043 226.569 496.275L229.156 494.796L276.344 522.036L229.526 549.275L202.42 533.622C201.804 534.361 201.065 535.101 200.449 535.84L226.569 550.878L179.75 578.117L182.707 579.843L229.526 552.603L276.714 579.843L277.946 580.582L276.714 579.843L229.895 607.082L232.852 608.808L279.671 581.568L326.859 608.808L280.04 636.048L282.997 637.773L329.816 610.534L377.004 637.773L330.186 665.013L333.143 666.738L379.961 639.499L427.149 666.738L380.331 693.978L383.288 695.703L430.106 668.464L477.294 695.703L430.476 722.943L433.433 724.669L480.251 697.429L527.316 724.792L480.498 752.031L483.455 753.757L530.273 726.517L577.462 753.757L530.643 780.997L533.6 782.722L580.419 755.483L627.607 782.722L628.469 783.215L627.607 782.722L580.788 809.962L583.745 811.687L630.564 784.448L677.752 811.687L668.758 816.987C671.592 816.494 674.425 816.001 677.259 815.385L680.709 813.413L679.97 812.92L680.709 813.413L682.557 814.399C684.036 814.153 685.514 813.906 686.993 813.536L683.666 811.564L682.434 810.825L683.666 811.564L730.485 784.325L746.255 793.446C747.117 792.829 747.857 792.09 748.596 791.473L733.318 782.722L776.81 757.455C777.673 755.483 778.535 753.511 779.151 751.538L733.072 724.792L729.992 723.066ZM679.97 697.552L727.158 724.792L680.339 752.031L633.151 724.792L679.97 697.552ZM629.825 668.587L677.013 695.827L630.194 723.066L583.006 695.827L629.825 668.587ZM579.679 639.622L626.868 666.862L580.049 694.101L532.861 666.862L579.679 639.622ZM479.512 581.815L526.7 609.054L479.882 636.294L482.839 638.02L529.657 610.78L576.846 638.02L530.027 665.259L482.839 638.02L479.882 636.294L432.694 609.054L479.512 581.815ZM429.367 552.85L476.555 580.089L429.737 607.329L382.548 580.089L429.367 552.85ZM379.222 523.885L426.41 551.124L379.591 578.364L332.403 551.124L330.925 550.261L332.403 551.124L379.222 523.885ZM329.077 494.919L376.265 522.159L329.446 549.399L282.258 522.159L329.077 494.919ZM232.113 493.194L278.932 465.954L326.12 493.194L279.301 520.433L232.113 493.194ZM279.671 578.364L232.483 551.124L279.301 523.885L326.489 551.124L279.671 578.364ZM480.128 694.101L432.94 666.862L429.983 665.136L382.795 637.896L379.838 636.171L332.65 608.931L329.693 607.206L282.505 579.966L329.323 552.726L376.511 579.966L329.693 607.206L332.65 608.931L379.468 581.692L426.656 608.931L379.838 636.171L382.795 637.896L429.613 610.657L476.802 637.896L429.983 665.136L432.94 666.862L479.759 639.622L526.947 666.862L480.128 694.101L481.36 694.841L480.128 694.101ZM580.419 752.031L533.23 724.792L530.273 723.066L483.085 695.827L529.904 668.587L577.092 695.827L530.273 723.066L533.23 724.792L580.049 697.552L627.237 724.792L580.419 752.031ZM630.441 780.997L583.252 753.757L580.419 752.155L583.252 753.757L630.071 726.517L677.259 753.757L630.441 780.997L632.905 782.352L630.441 780.997ZM680.586 809.962L633.398 782.722L680.216 755.483L727.404 782.722L680.586 809.962ZM730.361 780.997L683.173 753.757L729.992 726.517L777.18 753.757L730.361 780.997Z" fill="white" fill-opacity="0.15"/>
</g>
<path d="M830.652 319.526L867.244 298.203L864.287 296.601L827.695 317.801L830.652 319.526Z" fill="white" fill-opacity="0.15"/>
<path d="M627.854 317.8L630.81 319.526L638.203 315.212C636.232 315.212 634.26 315.212 632.166 315.335L627.854 317.8Z" fill="white" fill-opacity="0.15"/>
<path d="M1046.76 447.712C1046.76 446.603 1046.76 445.494 1046.76 444.384L1031.11 435.387L1028.15 433.661L980.964 406.422L1017.56 385.098L1014.6 383.373L978.007 404.696L930.819 377.456L928.601 376.101L930.819 377.456L967.411 356.133L964.454 354.407L927.862 375.731L880.674 348.491L917.266 327.168L914.309 325.442L877.717 346.766L830.529 319.526L827.572 317.8L789.624 295.861C788.145 296.107 786.667 296.354 785.188 296.724L824.738 319.649L777.919 346.889L730.731 319.649L727.774 317.924L714.098 310.035C712.496 310.282 710.895 310.405 709.293 310.652L724.817 319.649L677.999 346.889L680.956 348.614L727.774 321.375L774.962 348.614L728.144 375.854L731.101 377.58L777.919 350.34L825.107 377.58L778.289 404.819L781.246 406.545L828.064 379.305L875.253 406.545L828.434 433.784L831.391 435.51L878.21 408.27L925.398 435.51L878.579 462.75L881.536 464.475L928.355 437.236L975.543 464.475L928.724 491.715L931.681 493.44L978.5 466.201L1025.69 493.44L978.87 520.68L981.827 522.405L1028.65 495.166L1038.62 500.959C1038.87 499.973 1039.24 498.987 1039.49 498.124L1031.6 493.564L1028.65 491.838L981.457 464.598L978.5 462.873L931.312 435.633L978.13 408.394L1025.32 435.633L978.5 462.873L981.457 464.598L1028.28 437.359L1046.76 447.712ZM828.064 375.731L780.876 348.491L827.695 321.252L874.883 348.491L828.064 375.731ZM928.232 433.661L930.696 435.14L928.232 433.661L881.043 406.422L878.086 404.696L830.898 377.456L877.717 350.217L924.905 377.456L878.086 404.696L881.043 406.422L927.862 379.182L975.05 406.422L928.232 433.661Z" fill="white" fill-opacity="0.15"/>
<path d="M527.933 317.8L530.89 319.526L543.21 312.377C541.485 312.254 539.637 312.131 537.912 312.007L527.933 317.8Z" fill="white" fill-opacity="0.15"/>
<path d="M981.703 522.159L978.747 520.434L931.558 493.194L928.601 491.468L881.413 464.229L878.456 462.503L831.268 435.264L828.311 433.538L781.123 406.422L778.166 404.696L730.978 377.456L728.021 375.731L680.832 348.491L677.875 346.766L630.81 319.526L627.853 317.801L623.541 315.335C621.57 315.335 619.599 315.335 617.627 315.335L624.896 319.526L578.078 346.766L581.035 348.491L627.853 321.252L675.042 348.491L628.223 375.731L631.18 377.456L677.999 350.217L725.187 377.456L678.368 404.696L681.325 406.422L728.144 379.182L775.332 406.422L728.513 433.661L731.47 435.387L778.289 408.147L825.477 435.387L778.659 462.626L781.616 464.352L828.434 437.112L875.622 464.352L828.804 491.592L831.761 493.317L878.579 466.078L925.768 493.317L878.949 520.557L881.906 522.282L928.725 495.043L975.913 522.282L929.094 549.522L932.051 551.248L978.87 524.008L1012.87 543.729C1013.61 542.989 1014.23 542.25 1014.97 541.51L981.703 522.159Z" fill="white" fill-opacity="0.15"/>
<path d="M328.461 318.047C328.831 317.677 329.077 317.431 329.447 317.061L328.091 317.801L328.461 318.047Z" fill="white" fill-opacity="0.15"/>
<path d="M879.072 578.364L831.884 551.124L828.927 549.398L781.739 522.159L778.782 520.433L731.594 493.194L728.637 491.468L681.448 464.229L678.491 462.503L631.303 435.263L628.346 433.538L581.158 406.298L578.201 404.573L531.013 377.333L528.056 375.607L480.868 348.368L477.911 346.642L430.723 319.403L427.766 317.677L402.015 302.763C399.921 302.64 397.826 302.64 395.732 302.517L424.809 319.279L377.99 346.519L380.947 348.245L427.766 321.005L474.954 348.245L428.135 375.484L430.353 376.717L428.135 375.484L380.947 348.245L377.99 346.519L330.802 319.279L328.214 317.8C325.997 320.019 323.656 322.361 321.561 324.703L327.845 321.005L375.033 348.245L328.214 375.484L331.171 377.21L377.99 349.97L425.178 377.21L378.36 404.449L381.317 406.175L428.135 378.935L475.323 406.175L428.505 433.415L431.462 435.14L478.28 407.901L525.469 435.14L478.65 462.38L481.607 464.105L528.426 436.866L575.614 464.105L528.795 491.345L531.752 493.07L578.571 465.831L625.759 493.07L578.94 520.31L581.897 522.036L628.716 494.796L675.904 522.036L629.086 549.275L632.042 551.001L678.861 523.761L726.049 551.001L679.231 578.24L682.188 579.966L729.006 552.726L776.195 579.966L729.376 607.206L732.333 608.931L779.151 581.692L826.34 608.931L779.521 636.171L782.478 637.896L829.297 610.657L845.067 619.778C845.93 619.161 846.915 618.545 847.778 617.929L832.254 608.931L829.297 607.206L782.108 579.966L779.151 578.24L731.963 551.001L729.006 549.275L681.818 522.036L678.861 520.31L631.673 493.07L628.716 491.345L581.528 464.105L578.571 462.38L531.383 435.14L528.426 433.415L481.237 406.175L478.28 404.449L431.092 377.21L477.911 349.97L525.099 377.21L478.28 404.449L481.237 406.175L528.056 378.935L575.244 406.175L528.426 433.415L531.383 435.14L578.201 407.901L625.389 435.14L578.571 462.38L581.528 464.105L628.346 436.866L675.534 464.105L628.716 491.345L631.673 493.07L678.491 465.831L725.68 493.07L678.861 520.31L681.818 522.036L728.637 494.796L775.825 522.036L729.006 549.275L731.963 551.001L778.782 523.761L825.97 551.001L779.151 578.24L782.108 579.966L828.927 552.726L876.115 579.966L829.297 607.206L832.254 608.931L879.072 581.692L898.046 592.661C899.155 592.168 900.387 591.799 901.619 591.306L882.029 579.966L879.072 578.364Z" fill="white" fill-opacity="0.15"/>
<path d="M428.012 317.8L430.969 319.526L454.501 305.844C452.777 305.721 451.052 305.598 449.204 305.475L428.012 317.8Z" fill="white" fill-opacity="0.15"/>
<path d="M931.805 551.124L928.848 549.398L881.66 522.159L878.703 520.433L831.638 493.194L828.681 491.468L781.492 464.228L778.535 462.503L731.347 435.263L728.39 433.538L681.202 406.298L678.245 404.572L631.057 377.333L628.1 375.607L580.912 348.368L577.955 346.642L530.766 319.403L527.809 317.677L514.873 310.282C512.655 310.158 510.314 309.912 508.096 309.789L524.853 319.403L478.034 346.642L480.991 348.368L527.809 321.128L574.998 348.368L528.179 375.607L531.136 377.333L577.955 350.093L625.143 377.333L578.324 404.572L581.281 406.298L628.1 379.058L675.288 406.298L628.469 433.538L631.426 435.263L678.245 408.024L725.433 435.263L678.615 462.503L681.572 464.228L728.39 436.989L775.578 464.228L728.76 491.468L731.717 493.194L778.535 465.954L825.724 493.194L778.905 520.433L781.862 522.159L828.681 494.919L875.869 522.159L829.05 549.398L832.007 551.124L878.826 523.884L926.014 551.124L879.195 578.363L882.152 580.089L928.971 552.849L961.128 571.461C962.36 571.091 963.592 570.598 964.947 570.229L931.805 551.124Z" fill="white" fill-opacity="0.15"/>
<path d="M779.891 694.101L782.848 695.827L792.088 690.403C792.458 689.048 792.827 687.692 793.197 686.336L779.891 694.101Z" fill="white" fill-opacity="0.15"/>
<path d="M779.521 636.294L732.333 609.055L729.376 607.329L682.188 580.089L679.231 578.364L632.042 551.124L629.086 549.399L581.897 522.159L578.94 520.433L531.752 493.194L528.795 491.468L481.73 464.229L478.773 462.503L431.585 435.264L428.628 433.538L381.44 406.298L378.483 404.573L331.418 377.456L328.461 375.731L295.195 356.503C294.579 357.242 293.963 358.105 293.47 358.845L325.627 377.333L278.809 404.573L281.765 406.298L328.584 379.059L375.772 406.298L328.954 433.538L331.664 435.14L328.954 433.538L281.765 406.298L278.809 404.573L267.966 398.287C267.473 399.15 266.981 400.012 266.611 400.875L275.852 406.298L258.972 416.159C258.233 417.761 257.494 419.24 256.878 420.843L278.809 408.147L325.997 435.387L279.178 462.626L282.135 464.352L328.954 437.112L376.142 464.352L329.323 491.592L332.28 493.317L379.099 466.078L426.287 493.317L379.469 520.557L382.425 522.282L429.244 495.043L476.432 522.282L429.614 549.522L432.571 551.247L479.389 524.008L526.577 551.247L479.759 578.487L482.716 580.213L529.534 552.973L576.723 580.213L529.904 607.452L532.861 609.178L579.68 581.938L626.868 609.178L580.049 636.417L583.006 638.143L629.825 610.903L677.013 638.143L630.194 665.383L633.151 667.108L679.97 639.869L727.158 667.108L680.34 694.348L683.297 696.073L730.115 668.834L777.303 696.073L730.485 723.313L733.442 725.038L780.26 697.799L789.747 703.222C789.994 702.236 790.117 701.127 790.363 700.141L783.217 696.073L780.26 694.348L732.702 666.862L729.745 665.136L682.557 637.896L679.6 636.171L632.412 608.931L629.455 607.206L582.267 579.966L579.31 578.241L532.245 551.124L529.288 549.399L482.1 522.159L479.143 520.433L431.955 493.194L428.998 491.468L381.809 464.229L428.628 436.989L475.816 464.229L428.998 491.468L431.955 493.194L478.773 465.954L525.961 493.194L479.143 520.433L482.1 522.159L528.918 494.919L576.107 522.159L529.288 549.399L532.245 551.124L579.064 523.885L626.252 551.124L579.433 578.364L582.39 580.089L629.209 552.85L676.397 580.089L629.578 607.329L632.535 609.055L679.354 581.815L726.542 609.055L679.724 636.294L682.68 638.02L729.499 610.78L776.687 638.02L729.869 665.259L732.826 666.985L779.644 639.745L808.105 656.262C808.721 655.399 809.214 654.659 809.83 653.797L782.601 638.02L779.521 636.294ZM378.852 462.503L381.686 464.105L378.852 462.503L331.664 435.264L378.483 408.024L425.671 435.264L378.852 462.503Z" fill="white" fill-opacity="0.15"/>
<path d="M580.665 809.962L533.477 782.722L530.52 780.997L483.332 753.757L480.375 752.032L433.31 724.792L430.353 723.066L383.165 695.827L380.208 694.101L333.02 666.862L330.063 665.136L282.874 637.896L279.917 636.171L232.852 609.055L229.895 607.329L182.707 580.089L179.75 578.364L163.364 568.873C162.501 569.489 161.639 570.106 160.776 570.722L176.916 579.966L130.098 607.206L133.055 608.931L179.873 581.692L227.062 608.931L180.243 636.171L183.2 637.896L230.019 610.657L277.207 637.896L230.388 665.136L233.345 666.862L280.164 639.622L327.352 666.862L280.533 694.101L283.49 695.827L330.309 668.587L377.497 695.827L330.679 723.066L333.636 724.792L380.454 697.552L427.642 724.792L380.824 752.032L383.781 753.757L430.599 726.518L477.788 753.757L430.969 780.997L433.926 782.722L480.745 755.483L527.933 782.722L481.114 809.962L484.071 811.687L530.89 784.448L530.643 784.325L530.89 784.448L578.078 811.687L531.259 838.927L534.216 840.653L581.035 813.413L611.097 830.792C612.329 830.422 613.561 829.929 614.794 829.56L583.869 811.687L580.665 809.962Z" fill="white" fill-opacity="0.15"/>
<path d="M431.339 896.734L434.296 898.459L457.582 884.901C454.994 885.271 452.284 885.764 449.696 886.011L431.339 896.734Z" fill="white" fill-opacity="0.15"/>
<path d="M530.89 838.927L483.702 811.687L480.745 809.962L433.556 782.722L430.599 780.997L383.411 753.757L380.454 752.031L333.389 724.792L330.432 723.066L283.244 695.827L280.287 694.101L233.099 666.861L230.142 665.136L182.954 637.896L179.997 636.171L132.808 608.931L129.851 607.206L114.943 598.578C113.958 599.071 112.972 599.687 111.986 600.18L127.018 608.808L80.1991 636.047L83.0329 637.65L80.1991 636.047L66.2767 628.036C65.6607 628.775 65.0447 629.515 64.4286 630.378L77.2422 637.773L55.0649 650.592C54.8185 651.824 54.5721 653.18 54.3257 654.413L80.0759 639.375L127.264 666.615L80.4455 693.855L83.4025 695.58L130.221 668.341L177.409 695.58L130.591 722.82L133.548 724.545L180.366 697.306L227.555 724.545L180.736 751.785L183.693 753.51L230.511 726.271L277.7 753.51L230.881 780.75L233.838 782.476L280.657 755.236L327.845 782.476L281.026 809.715L283.983 811.441L330.802 784.201L377.99 811.441L331.171 838.68L334.128 840.406L380.947 813.166L428.135 840.406L381.317 867.646L384.274 869.371L431.092 842.132L478.28 869.371L449.696 886.134C452.284 885.764 454.994 885.394 457.582 885.025L481.114 871.343L492.203 877.753C493.558 877.383 494.913 877.013 496.269 876.643L484.071 869.618L481.114 867.892L433.926 840.652L430.969 838.927L383.781 811.687L380.824 809.962L333.636 782.722L330.679 780.997L283.49 753.757L280.533 752.031L233.468 724.792L230.511 723.066L183.323 695.827L180.366 694.101L133.178 666.861L130.221 665.136L83.0329 637.896L129.851 610.657L177.04 637.896L130.221 665.136L133.178 666.861L179.997 639.622L227.185 666.861L180.366 694.101L183.323 695.827L230.142 668.587L277.33 695.827L230.511 723.066L233.468 724.792L280.287 697.552L327.475 724.792L280.657 752.031L283.614 753.757L330.432 726.517L377.62 753.757L330.802 780.997L333.759 782.722L380.577 755.483L427.766 782.722L380.947 809.962L383.904 811.687L430.723 784.448L477.911 811.687L431.092 838.927L434.049 840.652L480.868 813.413L528.056 840.652L481.237 867.892L484.194 869.618L531.013 842.378L554.669 856.06C555.778 855.567 556.886 855.073 557.995 854.58L533.97 840.652L530.89 838.927Z" fill="white" fill-opacity="0.15"/>
<path d="M231.127 838.927L234.084 840.652L248.007 832.517C247.268 831.778 246.651 831.038 246.035 830.299L231.127 838.927Z" fill="white" fill-opacity="0.15"/>
<path d="M281.273 867.769L284.23 869.494L292.854 864.441C291.745 863.948 290.636 863.455 289.651 862.962L281.273 867.769Z" fill="white" fill-opacity="0.15"/>
<path d="M331.418 896.734L334.375 898.459L358.031 884.655C356.552 884.408 355.074 884.162 353.595 883.792L331.418 896.734Z" fill="white" fill-opacity="0.15"/>
<path d="M180.982 809.962L183.939 811.687L216.466 792.829C215.85 792.089 215.111 791.35 214.495 790.61L180.982 809.962Z" fill="white" fill-opacity="0.15"/>
<path d="M381.193 867.769L334.005 840.529L331.048 838.804L283.86 811.564L280.903 809.838L233.838 782.722L230.881 780.996L183.693 753.757L180.736 752.031L133.548 724.792L130.591 723.066L83.4025 695.827L80.4455 694.101L57.1594 680.666C57.1594 680.789 57.1594 680.789 57.2826 680.913C57.8987 682.392 58.5147 683.747 59.1307 685.227L77.4886 695.827L68.248 701.25C68.8641 702.113 69.3569 702.852 69.9729 703.715L80.4455 697.675L127.634 724.915L107.428 736.624C108.413 737.241 109.399 737.734 110.385 738.35L130.467 726.641L177.656 753.88L166.197 760.536C167.43 761.029 168.538 761.399 169.77 761.892L180.613 755.606L227.924 782.722L214.495 790.487C215.111 791.227 215.85 791.966 216.466 792.706L230.881 784.324L278.069 811.564L246.159 830.176C246.775 830.915 247.514 831.655 248.13 832.394L281.026 813.289L328.214 840.529L289.651 862.962C290.76 863.455 291.868 863.948 292.854 864.441L331.048 842.255L378.236 869.494L353.595 883.792C355.074 884.039 356.552 884.408 358.03 884.655L381.193 871.22L411.872 888.969C413.72 888.969 415.691 888.845 417.539 888.845L384.15 869.618L381.193 867.769Z" fill="white" fill-opacity="0.15"/>
<path d="M755.683 684.89C741.759 719.033 711.692 750.341 668.809 775.239C606.21 811.601 522.662 831.569 433.816 831.199C346.448 830.829 264.626 810.984 202.766 775.239C201.657 774.623 200.548 774.007 199.439 773.267C73.132 698.326 74.7339 577.531 203.013 504.069C246.388 479.294 300.608 461.914 359.757 454.026C420.138 446.014 473.988 426.292 511.202 398.682C519.212 392.766 528.084 387.219 537.696 382.042C631.841 331.629 781.068 333.601 871.886 386.11C872.625 386.603 873.488 387.096 874.227 387.466C918.835 413.966 943.234 448.849 942.988 485.827C942.741 522.804 917.849 557.563 872.872 583.818C865.971 587.762 858.701 591.583 851.184 595.034C804.481 616.605 770.471 648.406 755.683 684.89ZM433.816 813.943C514.652 814.312 590.683 796.193 647.614 763.037C686.677 740.357 714.033 711.884 726.725 680.823C743.114 640.64 780.822 605.388 832.823 581.722C839.477 578.764 845.885 575.436 851.8 571.862C932.883 524.777 933.376 447.493 853.032 399.668C852.293 399.299 851.677 398.806 850.938 398.436C771.21 352.337 640.343 350.611 557.905 394.861C549.402 399.422 541.639 404.352 534.615 409.529C493.211 440.221 433.446 462.038 366.534 471.035C312.684 478.184 263.394 493.962 223.961 516.518C107.266 583.325 105.787 693.149 220.634 761.434C221.62 762.051 222.606 762.667 223.715 763.16C279.906 795.577 354.335 813.573 433.816 813.943Z" fill="#FFCF4E"/>
<path d="M912.551 476.952C912.427 475.966 912.304 475.103 912.181 474.117C912.058 473.131 911.811 472.145 911.565 471.159C911.318 470.173 911.195 469.31 910.949 468.324C910.702 467.338 910.333 466.352 910.086 465.366C909.84 464.379 909.593 463.517 909.347 462.531C908.977 461.545 908.607 460.558 908.238 459.572C907.868 458.71 907.622 457.723 907.252 456.861C906.882 455.875 906.389 454.889 905.896 453.902C905.527 453.04 905.157 452.054 904.664 451.191C904.171 450.205 903.555 449.219 903.062 448.233C902.569 447.37 902.2 446.507 901.584 445.521C900.967 444.535 900.351 443.549 899.735 442.563C899.242 441.7 898.626 440.837 898.133 439.974C897.394 438.988 896.655 438.002 895.915 437.016C895.299 436.153 894.683 435.414 894.067 434.551C893.327 433.565 892.465 432.579 891.602 431.593C890.863 430.73 890.247 429.99 889.631 429.127C888.768 428.141 887.905 427.278 886.92 426.292C886.18 425.553 885.441 424.69 884.702 423.95C883.716 422.964 882.607 421.978 881.621 420.992C880.881 420.253 880.142 419.513 879.28 418.774C878.171 417.787 876.938 416.801 875.706 415.692C874.967 415.076 874.227 414.336 873.365 413.72C872.009 412.611 870.654 411.625 869.298 410.515C868.559 409.899 867.819 409.406 867.08 408.79C865.601 407.68 863.999 406.694 862.521 405.585C861.781 405.092 861.042 404.599 860.303 404.106C857.961 402.503 855.497 401.024 853.032 399.545C852.293 399.175 851.677 398.682 850.938 398.313C771.21 352.214 640.343 350.488 557.905 394.738C549.402 399.299 541.639 404.229 534.615 409.406C493.211 440.097 433.446 461.914 366.534 470.912C312.684 478.061 263.394 493.838 223.961 516.395C220.264 518.49 216.814 520.586 213.364 522.804C212.131 523.544 211.146 524.283 209.913 525.146C207.695 526.625 205.477 527.981 203.382 529.46C202.027 530.323 200.918 531.309 199.562 532.295C197.714 533.651 195.866 535.007 194.017 536.363C192.785 537.349 191.553 538.335 190.32 539.444C188.718 540.8 186.993 542.156 185.391 543.512C184.159 544.621 183.05 545.731 181.818 546.717C180.339 548.073 178.86 549.428 177.505 550.784C176.396 551.894 175.287 553.126 174.178 554.235C172.822 555.591 171.467 556.947 170.234 558.303C169.125 559.412 168.14 560.645 167.154 561.878C165.921 563.233 164.812 564.589 163.703 565.945C162.718 567.178 161.855 568.41 160.992 569.52C160.007 570.875 158.898 572.231 157.912 573.71C157.049 574.943 156.31 576.176 155.447 577.408C154.585 578.764 153.599 580.12 152.736 581.599C151.997 582.832 151.258 584.187 150.518 585.42C149.779 586.776 148.916 588.255 148.177 589.611C147.561 590.843 146.945 592.199 146.328 593.432C145.712 594.788 144.973 596.267 144.357 597.623C143.741 598.979 143.371 600.211 142.878 601.567C142.385 603.046 141.769 604.402 141.276 605.881C140.783 607.237 140.414 608.47 140.044 609.825C139.674 611.305 139.181 612.66 138.812 614.139C138.442 615.495 138.196 616.851 137.949 618.084C137.579 619.563 137.333 620.919 137.086 622.398C136.84 623.754 136.717 625.11 136.594 626.465C136.347 627.945 136.224 629.3 136.101 630.78C135.977 632.135 135.977 633.491 135.854 634.847C135.731 636.326 135.731 637.682 135.608 639.161C135.485 657.527 140.29 675.892 150.149 693.518C164.443 668.127 188.965 644.338 223.838 624.37C263.27 601.814 312.561 586.036 366.411 578.887C433.323 570.013 493.088 548.073 534.492 517.381C541.516 512.204 549.279 507.274 557.782 502.713C640.343 458.586 771.087 460.312 850.814 506.288C851.554 506.657 852.17 507.15 852.909 507.52C869.175 517.258 882.114 528.105 891.725 539.691C906.636 521.942 913.783 502.467 913.044 483.115C913.044 482.129 913.044 481.266 912.92 480.28C912.797 479.047 912.674 478.061 912.551 476.952Z" fill="#F9A500"/>
<path d="M220.634 761.311C221.62 761.927 222.606 762.544 223.715 763.037C280.029 795.577 354.458 813.573 433.939 813.943C514.776 814.313 590.806 796.193 647.737 763.037C686.8 740.357 714.156 711.884 726.849 680.823C743.238 640.64 780.945 605.388 832.947 581.722C839.601 578.764 846.009 575.436 851.923 571.862C885.564 552.263 905.281 527.611 911.195 501.974C905.281 476.705 886.057 452.3 853.156 432.702C852.416 432.332 851.8 431.839 851.061 431.469C771.333 385.37 640.467 383.645 558.028 427.895C549.526 432.455 541.762 437.386 534.738 442.563C493.334 473.254 433.57 495.071 366.658 504.069C312.808 511.218 263.517 526.995 224.084 549.552C172.329 579.134 143.371 617.221 136.963 656.294C143.001 694.505 170.851 731.729 220.634 761.311Z" fill="#4B1591"/>
<path d="M853.156 505.301C852.416 504.932 851.8 504.439 851.061 504.069C771.333 457.97 640.467 456.244 558.028 500.494C549.526 505.055 541.762 509.985 534.738 515.162C493.334 545.854 433.569 567.671 366.657 576.669C312.807 583.818 263.517 599.595 224.084 622.151C188.595 642.489 163.827 666.771 149.779 692.656C163.457 717.8 187.116 741.343 220.88 761.434C221.866 762.051 222.852 762.667 223.961 763.16C280.276 795.7 354.704 813.696 434.186 814.066C515.022 814.436 591.053 796.317 647.983 763.16C687.046 740.48 714.403 712.007 727.095 680.946C743.484 640.763 781.191 605.511 833.193 581.845C839.847 578.887 846.255 575.559 852.17 571.985C869.421 562.001 882.976 550.538 892.958 538.458C882.976 526.379 869.791 515.162 853.156 505.301Z" fill="#5C15AE"/>
<path d="M236.654 717.554L205.724 687.602C202.643 684.644 198.207 683.781 194.264 685.507C193.401 685.876 192.662 686.369 191.922 686.862L171.59 667.141C168.509 664.183 164.073 663.32 160.13 665.046C156.187 666.771 153.722 670.469 153.722 674.783V699.928V728.031C153.722 730.003 155.324 731.729 157.419 731.729C159.391 731.729 161.116 730.127 161.116 728.031V710.405V674.783C161.116 672.811 162.594 672.071 163.087 671.825C163.58 671.578 165.182 671.085 166.538 672.441L188.102 693.272C187.979 693.888 187.979 694.505 187.979 695.121V738.015V748.369C187.979 750.341 189.581 752.067 191.676 752.067C193.648 752.067 195.373 750.464 195.373 748.369V744.055V700.298L197.591 702.393C198.7 703.379 199.316 704.858 199.316 706.337V747.013C201.657 748.739 204.122 750.464 206.71 752.19V739.001L233.45 757.49V768.214C235.914 769.446 238.379 770.679 240.843 771.911V726.675C240.474 723.347 239.118 720.019 236.654 717.554ZM206.463 731.729V706.461C206.463 703.009 204.984 699.558 202.52 697.216L197.344 692.286C197.96 692.039 199.316 691.916 200.548 693.025L231.478 722.977C232.587 723.964 233.203 725.443 233.203 726.922V750.218L206.463 731.729Z" fill="white"/>
<path d="M943.48 82.1528L976.135 198.51L965.415 355.172L902.323 392.643L901.46 106.435L943.48 82.1528Z" fill="#F9A500"/>
<path d="M889.507 51.9541L943.48 82.1526L901.46 106.435L847.487 75.3734L889.507 51.9541Z" fill="#FCDF6A"/>
<path d="M847.487 76.2363L848.35 361.335L902.323 392.643L901.46 106.435L847.487 76.2363Z" fill="#FCDF6A"/>
<path d="M973.301 32.6024C979.586 29.0279 984.761 31.8629 984.761 39.1351L976.135 198.633L972.808 186.8L980.325 41.7236C980.325 37.2863 977.121 35.5606 973.301 37.7793L912.92 72.6617C909.1 74.8803 906.02 80.1805 906.02 84.6178V103.97L901.583 106.558V87.2063C901.583 80.0572 906.636 71.1826 912.92 67.608L973.301 32.6024Z" fill="#F9A500"/>
<path d="M919.328 1.54088C925.613 -2.03363 930.788 0.801329 930.788 8.07363L928.324 73.6476L924.011 71.3056L926.229 10.6621C926.229 6.22474 923.148 4.49911 919.205 6.71777L858.824 41.6001C855.004 43.8188 851.923 49.2422 851.923 53.5563V72.908L847.487 75.4964V56.1447C847.487 48.8724 852.539 40.121 858.824 36.4233L919.328 1.54088Z" fill="#F9A500"/>
<path d="M901.583 106.558L901.46 114.2L751.001 201.714V194.072L901.583 106.558Z" fill="#F9A500"/>
<path d="M751.001 194.072V201.714L696.904 170.529V162.887L751.001 194.072Z" fill="#FCDF6A"/>
<path d="M901.583 106.558L751.001 194.072L696.904 162.887L847.487 75.373L901.583 106.558Z" fill="#FCDF6A"/>
<path d="M876.692 449.711L733.503 532.788L674.231 498.645L817.42 415.445L876.692 449.711Z" fill="#4B1591"/>
<path d="M475.343 736.289C491.813 736.289 505.164 722.935 505.164 706.461C505.164 689.987 491.813 676.632 475.343 676.632C458.874 676.632 445.522 689.987 445.522 706.461C445.522 722.935 458.874 736.289 475.343 736.289Z" fill="white"/>
<path d="M493.458 682.795C475.343 684.397 465.362 702.516 462.897 707.693C463.76 708.186 464.253 708.433 464.253 708.433C463.637 708.803 463.021 709.049 462.405 709.172C473.495 715.582 494.936 714.349 504.548 713.363C505.041 711.145 505.411 708.803 505.411 706.461C505.164 696.846 500.605 688.218 493.458 682.795Z" fill="#FCDF6A"/>
<path d="M462.281 709.172C462.158 709.172 462.404 708.556 462.897 707.693C459.94 705.844 453.286 700.051 453.902 685.63C448.85 690.807 445.646 697.833 445.399 705.598C450.451 709.296 456.366 711.145 462.281 709.172Z" fill="#FCDF6A"/>
<path d="M461.295 710.035C461.295 710.035 455.257 722.361 458.461 731.236C463.267 734.564 469.059 736.413 475.22 736.413C478.424 736.413 481.505 735.92 484.462 734.934C476.822 730.743 463.39 721.868 461.295 710.035Z" fill="#FCDF6A"/>
<path d="M468.689 710.035C468.689 714.103 465.362 717.431 461.295 717.431C457.229 717.431 453.902 714.103 453.902 710.035C453.902 705.968 457.229 702.64 461.295 702.64C465.362 702.64 468.689 705.968 468.689 710.035Z" fill="#F9A500"/>
<path d="M774.291 495.194C773.798 492.606 771.949 491.25 769.978 490.141C768.129 488.169 766.527 486.073 763.94 485.21C763.57 485.087 763.2 484.841 763.077 484.471C761.845 482.006 759.873 481.513 757.532 481.759C755.314 480.157 753.096 480.157 750.754 480.896C747.797 481.882 744.963 483.115 741.636 482.745C740.65 482.622 739.664 482.992 739.171 484.101C738.308 486.32 737.199 488.292 734.858 489.278C734.735 489.278 734.489 489.155 734.365 489.278C724.507 492.236 714.033 494.208 703.435 496.427C698.383 497.536 693.331 498.769 689.018 501.85C684.582 505.055 680.022 508.013 675.34 510.848C668.439 514.916 660.06 516.148 652.296 518.86C648.6 520.216 644.41 520.709 641.083 522.804C640.96 522.804 640.96 522.804 640.836 522.681C640.713 522.681 640.713 522.558 640.59 522.558C640.467 522.558 640.467 522.558 640.344 522.435C640.22 522.311 640.22 522.435 640.22 522.435C637.756 523.174 635.168 523.791 632.58 524.284C629.992 524.9 627.405 525.393 624.694 525.886C623.338 526.132 622.106 526.502 620.75 526.749C620.134 526.872 619.395 527.118 618.779 527.242C616.807 527.735 614.836 528.228 612.864 528.844C611.508 529.214 610.276 529.707 609.044 530.2C608.181 530.57 607.442 530.816 606.579 531.186C600.788 533.528 595.612 536.609 591.546 541.17C588.588 542.033 586.37 543.882 584.399 545.731C577.991 552.017 569.488 553.496 559.507 552.14C553.222 551.277 546.938 550.414 540.53 550.291C533.506 550.168 526.605 550.661 520.074 552.756C508.614 556.454 497.77 561.138 486.557 565.945C483.353 567.301 480.026 568.78 476.329 569.643C469.675 571.245 463.144 573.094 456.49 574.82C445.399 577.655 436.034 583.078 425.067 586.529C413.114 590.35 403.379 596.513 394.014 603.046C388.592 606.867 383.786 611.058 378.61 615.002C372.572 619.686 365.302 623.63 358.401 627.945C354.212 630.656 349.775 633.121 345.832 635.956C340.533 639.654 338.932 644.831 335.728 649.392C334.249 651.61 333.14 653.952 331.908 656.171C331.291 657.527 331.045 658.513 331.291 659.376C331.784 661.101 334.002 661.841 338.069 662.087C344.23 662.334 346.202 659.376 348.666 656.911C352.363 653.213 355.197 649.022 360.25 645.94C361.482 645.201 363.084 643.968 364.809 644.954C367.027 646.187 364.439 647.05 363.823 648.036C362.468 650.131 359.141 651.61 359.017 654.199C359.017 654.938 358.525 655.801 360.003 656.294C361.359 656.664 362.221 656.171 363.084 655.555C366.288 652.966 369.492 650.378 372.696 647.913C374.914 646.187 375.653 644.215 375.776 641.996C375.899 638.791 375.899 635.463 378.364 632.505C388.099 628.191 396.355 622.891 405.72 618.577C413.607 615.002 421.74 611.551 428.394 607.114C429.626 606.251 430.858 605.635 432.214 605.018C432.953 606.497 433.693 607.73 434.309 608.593C439.608 616.112 445.153 617.837 449.835 621.535C449.589 621.535 448.357 621.658 448.233 621.535C448.233 623.137 448.973 624.617 450.944 625.849C449.959 625.726 449.096 625.356 448.603 624.863C447.74 626.589 448.357 628.684 450.082 630.04C451.684 631.519 454.271 632.259 456.736 632.505C459.201 632.752 461.788 632.382 464.006 631.519C470.168 629.3 471.4 625.233 470.537 620.796C471.03 620.796 471.4 620.796 471.893 620.796C477.685 620.672 481.135 618.207 486.064 616.481C487.912 615.865 489.761 615.002 491.486 614.14C492.348 614.14 493.334 614.14 494.32 614.14C497.524 614.386 496.908 613.277 495.922 611.428C498.879 609.456 501.344 607.484 502.576 606.004C503.809 604.649 505.164 603.663 505.903 602.676C505.903 602.676 505.903 602.676 505.903 602.553C506.15 602.307 506.273 602.06 506.396 601.814C506.396 601.814 506.396 601.814 506.396 601.69C506.396 601.567 506.52 601.444 506.52 601.321V601.197C506.52 601.074 506.52 600.951 506.52 600.828C506.52 600.704 506.52 600.704 506.52 600.581C506.52 600.458 506.52 600.334 506.52 600.211C506.52 600.088 506.52 600.088 506.52 599.965C506.52 599.841 506.52 599.718 506.396 599.595C506.396 599.472 506.396 599.472 506.273 599.348C506.273 599.225 506.15 598.979 506.15 598.855C506.15 598.732 506.027 598.732 506.027 598.609C505.78 598.116 505.657 597.746 505.287 597.13C505.657 597.006 505.903 596.883 506.273 596.76C507.259 602.06 506.027 607.114 503.685 612.167C498.14 615.988 476.329 632.505 472.263 633.738C457.475 638.052 443.181 643.845 427.901 648.775C418.413 651.857 409.417 656.171 398.696 657.65C388.099 659.129 379.103 662.704 370.847 667.388C368.506 668.62 362.837 676.509 361.112 679.837C360.989 680.083 360.866 680.33 360.743 680.453C360.496 681.069 360.866 681.809 361.728 681.932C364.809 682.548 367.52 684.028 370.847 683.781C377.255 683.165 383.663 682.672 389.085 679.837C392.042 678.358 395.246 677.125 398.573 676.139C404.734 674.413 409.54 671.702 413.36 668.127C415.209 666.401 417.55 665.169 420.507 664.553C437.266 660.978 453.532 657.527 469.305 654.076C475.713 652.596 489.514 645.447 490.993 644.585C494.443 642.612 497.77 640.64 501.221 638.791C508.614 634.97 517.98 628.931 523.402 624.617C525.373 623.014 526.975 621.412 528.577 620.056C531.781 617.221 534.985 614.633 540.16 612.907C540.284 612.907 540.53 612.784 540.653 612.784C543.98 611.798 554.085 609.702 560.493 608.47C565.791 607.484 570.474 605.758 574.294 602.676C575.773 601.444 577.005 599.841 578.73 599.225C587.356 596.76 594.873 592.939 602.513 589.488C608.674 586.653 615.575 585.174 621.49 582.215C623.215 581.969 624.817 581.229 626.296 580.613C627.281 580.243 628.267 579.873 629.253 579.75C631.225 579.504 633.196 578.887 635.045 578.271C636.893 577.778 638.865 577.162 640.836 576.915C644.287 576.545 647.491 575.806 650.695 574.82C651.68 574.45 652.789 574.203 653.775 573.834C654.268 573.71 654.761 573.464 655.254 573.217C656.24 572.848 657.225 572.355 658.211 571.985C658.704 571.738 659.197 571.492 659.69 571.369C661.662 570.506 663.51 569.52 665.358 568.534C666.714 567.794 667.946 567.178 669.178 566.438C670.041 565.822 670.904 565.206 671.52 564.343C673.368 563.727 674.724 562.494 676.202 561.508C683.966 556.084 691.729 550.661 698.753 544.745C701.833 542.156 704.668 539.198 708.241 537.103C715.881 532.788 723.521 528.721 730.668 523.914C737.446 519.353 744.1 514.793 751.494 511.834C754.944 510.355 758.148 508.383 760.612 505.302C762.214 503.329 764.309 501.974 766.897 501.727C768.376 501.604 769.731 501.111 771.087 500.618C773.798 500.001 775.03 497.043 774.291 495.194ZM487.419 601.567C488.159 600.334 492.102 599.841 493.211 597.746C492.102 599.841 488.159 600.334 487.419 601.567ZM489.268 577.532C489.391 577.532 489.514 577.532 489.637 577.532C489.514 577.532 489.391 577.532 489.268 577.532ZM487.789 577.285C487.912 577.285 488.036 577.285 488.159 577.285C488.036 577.285 487.912 577.285 487.789 577.285ZM485.201 577.038C485.325 577.038 485.448 577.038 485.571 577.038C485.571 577.162 485.448 577.038 485.201 577.038ZM494.69 578.764H494.813H494.69ZM484.339 577.038C484.092 577.038 483.846 577.038 483.599 577.038C483.846 577.038 484.092 577.038 484.339 577.038ZM482.737 577.038C482.49 577.038 482.121 577.038 481.874 577.038C482.244 577.038 482.49 577.038 482.737 577.038ZM475.713 577.901C475.22 578.025 474.604 578.148 474.111 578.271C474.727 578.148 475.22 578.025 475.713 577.901ZM481.258 577.162C480.765 577.162 480.272 577.285 479.779 577.285C480.149 577.162 480.642 577.162 481.258 577.162ZM479.163 577.285C478.794 577.285 478.424 577.408 477.931 577.408C478.424 577.408 478.794 577.408 479.163 577.285ZM477.438 577.655C477.068 577.778 476.699 577.778 476.329 577.901C476.699 577.778 477.068 577.655 477.438 577.655ZM621.859 576.545C621.736 576.299 621.613 576.176 621.49 575.929C621.613 576.176 621.736 576.422 621.859 576.545ZM622.106 577.038C622.352 577.778 622.599 578.394 622.599 579.134C622.476 578.271 622.229 577.408 621.859 576.545C621.983 576.669 621.983 576.915 622.106 577.038ZM651.804 533.158C651.804 533.158 651.804 533.035 651.68 533.035C651.68 533.035 651.68 532.912 651.557 532.912C651.804 532.912 651.804 533.035 651.804 533.158ZM652.296 534.144C652.296 534.021 652.173 533.898 652.173 533.775C652.173 533.898 652.296 534.021 652.296 534.144ZM648.969 529.214C649.709 529.953 650.571 530.816 651.187 531.802C651.064 531.679 650.941 531.433 650.818 531.309C650.202 530.57 649.585 529.83 648.969 529.214ZM622.352 581.106C622.352 581.229 622.352 581.353 622.229 581.353C622.352 581.353 622.352 581.229 622.352 581.106ZM622.599 579.38C622.599 579.504 622.599 579.627 622.599 579.75C622.599 579.75 622.599 579.504 622.599 579.38ZM622.599 580.243C622.599 580.366 622.599 580.49 622.599 580.613C622.599 580.49 622.599 580.366 622.599 580.243ZM747.674 509.246C749.399 506.411 748.413 503.823 744.47 501.974C742.621 503.823 739.91 504.192 737.446 505.055C731.654 507.274 725.37 508.753 719.208 510.725C714.033 512.327 708.241 514.916 708.241 514.916C703.559 516.765 692.961 527.735 688.032 529.584C681.871 531.926 675.463 533.898 668.932 535.747C669.918 534.144 671.889 533.775 673.368 533.035C678.79 530.2 689.018 525.763 693.577 522.065C698.999 518.737 711.445 511.341 712.801 510.602C719.332 507.15 725.616 503.576 732.763 501.604C737.076 500.371 741.389 499.139 745.825 497.783C745.702 499.508 744.84 500.618 744.223 501.974C748.413 503.823 749.522 506.411 747.674 509.246Z" fill="#4B1591"/>
<g opacity="0.14">
<path d="M479.325 603.267C486.342 566.981 459.259 538.717 434.023 514.526C430.946 512.551 428.976 506.503 430.946 502.431C433.531 497.864 436.239 493.05 438.947 488.237C418.759 494.408 397.216 499.222 374.811 502.554C372.718 511.194 379.981 521.314 385.644 530.694C401.771 556.86 423.806 586.112 401.771 616.35C366.563 663.745 313.26 707.067 330.371 770.63C333.695 782.725 337.634 794.327 342.312 805.558C371.487 811.112 402.263 814.075 433.777 814.198C445.595 814.198 457.167 813.828 468.738 813.211C445.595 792.352 426.391 764.582 432.054 732.368C441.163 685.961 471.323 649.675 479.325 603.267Z" fill="white"/>
<path d="M687.614 707.067C667.549 685.838 633.326 686.949 613.137 664.732C600.088 652.637 602.058 630.421 610.06 615.363C625.201 589.197 655.361 567.968 645.267 534.644C639.235 513.415 614.122 507.368 598.981 493.297C592.949 487.25 590.979 478.116 592.949 469.106C598.981 449.976 621.139 443.928 624.093 423.686C625.694 416.034 624.586 409.616 621.631 404.186C598.611 409.493 576.822 417.268 557.741 427.513C549.247 432.079 541.492 437.016 534.475 442.2C530.905 444.792 527.335 447.384 523.519 449.852C517.241 466.268 498.898 477.252 492.251 495.395C491.266 498.481 491.266 503.418 493.236 506.504C504.315 526.622 529.428 528.72 541.492 547.85C551.586 564.019 555.525 581.175 549.493 599.318C537.429 638.69 500.253 676.951 520.318 720.273C534.475 751.252 558.48 772.234 585.686 790.871C607.967 783.342 628.648 774.086 647.237 763.224C668.287 751.005 685.891 737.059 699.678 722.001C696.231 716.694 692.169 711.757 687.614 707.067Z" fill="white"/>
</g>
<path d="M661.877 430.738L664.835 441.937L676.053 444.891L664.835 447.844L661.877 459.166L658.918 447.844L647.7 444.891L658.918 441.937L661.877 430.738Z" fill="white"/>
<path d="M684.436 426.677L686.162 433.322L692.819 435.168L686.162 436.891L684.436 443.537L682.587 436.891L675.93 435.168L682.587 433.322L684.436 426.677Z" fill="white"/>
<path d="M339.142 743.821L341.608 752.805L350.484 755.143L341.608 757.482L339.142 766.343L336.8 757.482L327.924 755.143L336.8 752.805L339.142 743.821Z" fill="white"/>
<path d="M357.017 740.622L358.373 745.913L363.674 747.39L358.373 748.744L357.017 754.036L355.661 748.744L350.36 747.39L355.661 745.913L357.017 740.622Z" fill="white"/>
<path d="M578.262 402.796C577.4 400.579 575.429 399.348 573.704 397.993C564.097 389.989 552.887 384.448 541.924 378.66C538.722 376.936 535.519 375.335 532.316 373.611C534.78 365.361 539.584 358.465 545.373 352.308C554.119 342.826 565.082 336.054 574.69 327.434C574.936 327.311 575.306 327.311 575.675 327.311C580.972 329.035 586.515 330.143 591.196 333.344C594.029 335.93 596.369 339.132 598.71 342.087C599.326 343.688 600.681 342.949 601.666 342.826C607.702 342.457 612.999 344.427 617.556 348.368C621.005 351.323 623.592 355.017 626.671 358.342C628.273 360.435 629.751 362.529 631.352 364.622C630.367 367.947 628.15 370.533 626.055 373.242C619.157 381.985 611.767 390.112 601.789 395.654C597.601 397.993 594.152 401.811 590.087 404.396C587.131 406.244 585.406 409.199 582.573 410.923C582.573 407.598 580.849 404.889 578.262 402.796Z" fill="url(#paint0_linear_502_326)"/>
<path d="M631.229 364.868C629.628 362.775 628.15 360.682 626.548 358.588C631.106 355.017 634.801 350.584 638.127 345.782C644.04 337.162 648.844 327.926 653.155 318.444C657.097 309.948 663.502 303.298 668.922 295.786C675.943 285.935 682.102 275.715 688.507 265.494C691.217 261.061 694.297 256.997 696.391 252.072C699.347 244.806 696.76 240.496 689.246 240.743C689.369 238.649 689.739 236.556 689 234.216C683.826 238.896 679.022 243.329 673.972 247.762C665.965 254.781 659.93 263.401 653.524 272.02C652.169 273.744 640.837 290.615 635.91 298.126C632.214 305.391 622.36 316.844 617.433 323.37C616.078 325.217 613.984 326.695 613.614 329.281C613.368 329.527 613.245 329.65 612.999 329.896C609.426 333.344 605.854 336.792 602.282 340.24C601.173 341.225 600.311 342.457 598.587 342.21C596.246 339.132 594.029 336.053 591.073 333.467C591.073 332.482 591.812 332.113 592.428 331.62C599.203 326.325 606.224 321.523 613.245 316.474C618.788 312.534 623.592 308.101 626.179 301.328C629.751 291.477 635.663 282.857 643.547 275.715C647.858 271.774 651.923 267.464 655.742 263.031C664.118 253.672 668.922 242.836 669.538 230.276C672.001 227.567 672.248 224.119 672.248 220.671C677.914 225.843 684.689 225.104 691.463 224.488C693.804 224.242 696.391 223.996 697.13 221.04C697.746 218.454 699.593 216.73 701.687 215.376C703.658 214.021 705.752 212.913 707.6 211.558C708.709 210.82 709.817 209.711 708.216 208.603C706.122 207.125 704.151 205.524 701.195 205.894C699.101 206.14 697.007 205.894 694.912 205.032C697.746 202.939 700.702 202.323 703.905 204.663C704.274 204.909 705.013 205.032 705.506 205.032C709.448 204.416 713.02 206.017 716.592 207.372C715.73 209.096 714.128 209.958 712.404 210.45C709.694 211.312 707.723 212.913 706.491 215.622C704.767 219.809 701.318 222.518 697.499 224.858C695.775 225.966 693.927 224.981 692.326 225.966C691.463 226.582 690.355 226.951 690.232 228.059C690.109 229.167 691.34 229.414 692.079 229.66C698.115 231.507 704.028 232.123 710.063 229.167C713.759 227.32 716.469 224.119 719.548 221.656C721.642 219.932 722.874 218.085 722.505 215.253C723.367 215.006 724.352 216.607 725.091 215.129C725.584 214.267 726.2 213.159 724.968 212.174C724.599 211.928 724.968 211.435 725.338 211.066C727.678 213.036 727.555 217.839 724.968 220.301C723.367 221.902 721.765 223.503 719.795 224.734C716.346 226.951 714.252 230.276 713.143 233.97C711.418 239.634 708.462 244.56 704.52 248.747C696.267 257.736 689.862 267.957 683.58 278.301C677.052 289.014 669.414 298.988 662.024 309.209C658.575 313.888 656.604 319.429 654.14 324.601C648.474 336.3 641.822 347.505 635.171 358.711C634.062 360.928 633.077 363.267 631.229 364.868Z" fill="#FF8F61"/>
<path d="M669.538 230.399C668.922 242.959 664.118 253.672 655.742 263.154C651.8 267.587 647.858 271.897 643.547 275.838C635.664 282.98 629.874 291.6 626.179 301.451C623.715 308.224 618.788 312.657 613.245 316.597C606.224 321.523 599.203 326.449 592.428 331.744C591.812 332.236 591.073 332.606 591.073 333.591C586.392 330.266 580.849 329.281 575.552 327.557C578.262 323.247 582.573 320.415 586.022 316.844C593.413 309.332 602.405 303.298 608.195 294.309C612.26 288.029 616.078 281.625 619.773 275.099C623.346 268.696 628.642 264.016 634.185 259.583C645.887 250.225 657.836 241.112 668.799 230.891C669.045 230.522 669.291 230.522 669.538 230.399Z" fill="url(#paint1_linear_502_326)"/>
<path d="M694.789 205.278C696.76 206.14 698.977 206.386 701.071 206.14C704.028 205.771 705.999 207.371 708.093 208.849C709.694 209.957 708.585 211.066 707.477 211.804C705.506 213.159 703.412 214.267 701.564 215.622C699.47 216.976 697.746 218.7 697.006 221.286C696.267 224.242 693.681 224.488 691.34 224.734C684.565 225.473 677.791 226.089 672.124 220.917C672.001 219.193 673.11 218.085 674.465 217.592C679.022 215.868 681.979 212.297 685.304 209.095C688.014 206.386 691.094 204.785 694.789 205.278Z" fill="url(#paint2_linear_502_326)"/>
<path d="M725.461 211.312C725.091 211.558 724.722 212.051 725.091 212.42C726.323 213.405 725.707 214.39 725.215 215.376C724.475 216.853 723.49 215.252 722.628 215.499C722.505 214.021 721.765 213.159 720.041 213.036C720.287 214.76 721.273 215.376 722.505 215.499C722.751 218.208 721.642 220.178 719.548 221.902C716.346 224.365 713.759 227.566 710.064 229.414C704.028 232.369 698.115 231.753 692.079 229.906C691.34 229.66 690.109 229.414 690.232 228.305C690.355 227.197 691.464 226.828 692.326 226.212C693.927 225.104 695.775 226.089 697.499 225.104C701.318 222.764 704.644 220.055 706.491 215.868C707.6 213.159 709.571 211.558 712.404 210.696C714.128 210.204 715.73 209.342 716.592 207.618C719.918 207.741 723.244 208.233 725.461 211.312Z" fill="url(#paint3_linear_502_326)"/>
<path d="M534.287 442.2C532.316 445.279 531.208 449.219 529.237 452.298C525.172 462.026 518.644 471.015 512.485 480.374C515.318 478.034 524.31 471.877 530.099 468.183C534.903 465.105 538.968 461.164 541.432 455.992C542.417 454.022 542.91 451.313 544.511 450.081C552.271 443.801 558.43 435.92 564.959 428.409C570.379 422.252 576.907 417.449 582.081 411.169C582.327 408.214 581.218 405.997 579.371 404.027C566.683 419.296 546.605 424.468 534.287 442.2Z" fill="#FF8F61"/>
<path d="M464.814 457.224C455.699 454.145 446.707 456.238 439.686 462.272C426.629 474.34 419.608 490.472 405.442 502.539C392.385 512.637 388.32 529.753 379.328 543.791C378.343 546.87 379.328 549.825 378.343 552.904C373.293 563.986 368.242 574.084 363.192 585.043C361.96 587.753 359.866 588.984 357.279 589.477C358.142 591.2 359.866 591.57 362.822 590.954C367.257 589.969 367.749 586.398 368.858 583.073C370.336 578.271 371.199 573.099 373.785 568.666C374.401 567.557 375.14 565.834 376.865 566.572C378.836 567.434 377.234 568.912 376.988 570.143C376.618 572.729 374.648 575.192 375.387 578.024C375.633 578.886 375.51 579.995 376.742 580.118C377.85 580.241 378.343 579.502 378.712 578.64C380.314 575.069 381.792 571.621 383.393 568.173C384.502 565.834 384.502 563.371 383.763 560.908C382.777 557.337 381.792 553.643 382.654 549.825C388.567 542.806 393.001 534.802 398.791 527.66C403.718 521.626 408.891 515.592 412.587 508.819C417.021 500.569 424.781 496.382 431.556 490.964C460.257 467.691 453.482 465.72 461.612 463.504C463.09 463.873 464.445 464.366 465.8 464.981C467.278 462.026 467.894 459.071 464.814 457.224Z" fill="#FF8F61"/>
<path d="M463.829 539.728C443.751 561.893 417.514 572.976 402.486 601.052C400.885 605.854 391.646 608.071 384.995 605.854C384.995 606.1 384.995 606.347 384.995 606.593C384.995 607.332 385.487 608.071 386.226 608.071C388.69 608.071 391.154 609.425 393.617 608.317C398.298 606.347 402.979 604.5 406.181 600.19C407.906 597.85 410.123 595.757 412.34 594.033C416.652 590.708 419.485 586.521 421.332 581.595C422.195 579.133 423.673 577.286 425.89 575.931C438.331 567.804 450.772 559.8 463.09 551.672C468.264 548.224 477.748 535.91 478.734 534.433C481.074 531.108 483.291 527.783 485.878 524.581C491.175 517.686 497.58 507.588 500.783 500.569C502.014 497.983 502.877 495.52 503.862 493.304C487.603 505.987 476.886 523.227 463.829 539.728Z" fill="#FF8F61"/>
<path d="M490.312 432.472C494.131 430.009 494.501 424.838 499.058 422.128C512.115 414.124 529.237 414.124 536.258 398.978C523.324 413.755 497.703 413.016 490.312 432.472Z" fill="#FF8F61"/>
<path d="M578.262 402.796C577.4 400.579 575.429 399.348 573.705 397.993C564.097 389.989 552.887 384.448 541.924 378.66C538.722 376.936 535.519 375.335 532.316 373.611C529.73 375.951 528.252 379.153 527.143 382.354C523.448 392.698 515.687 397.993 505.71 400.579C499.428 402.18 493.269 403.658 487.233 406.12C480.828 408.83 474.792 412.031 469.742 416.957C461.119 425.453 453.482 434.812 445.722 444.171C443.505 446.88 441.287 449.589 438.577 451.806C433.65 455.869 428.969 460.056 424.165 464.243C416.282 471.015 410.739 479.758 403.348 487.024C395.465 494.782 390.168 504.14 385.241 513.868C382.408 519.41 380.191 525.197 377.604 530.862C374.648 537.388 370.583 543.422 367.011 549.702C364.793 553.52 362.453 557.214 360.482 561.277C357.895 566.449 358.265 572.36 357.403 577.901C357.033 580.61 356.91 583.32 356.787 586.029C356.664 587.506 356.91 588.738 357.279 589.6C359.866 589.107 362.083 587.876 363.192 585.167C368.242 574.084 373.293 563.987 378.343 553.027C379.328 549.949 378.343 546.993 379.328 543.915C388.444 529.877 392.385 512.76 405.442 502.663C419.485 490.595 426.629 474.463 439.686 462.396C445.106 457.716 451.758 455.5 458.656 456.115C456.931 458.825 454.96 461.164 451.758 464.12C453.482 464.366 455.207 465.474 456.808 467.075C459.148 469.538 461.242 473.232 462.597 477.419C463.46 480.867 459.395 482.837 459.148 484.807C459.148 484.93 459.148 485.053 459.148 485.3C459.395 485.177 459.764 485.053 460.011 485.053C460.011 485.053 460.011 485.053 460.134 485.053C461.365 484.561 462.474 483.945 463.46 482.96C466.909 479.882 470.481 476.926 473.56 474.094C473.807 473.848 474.053 473.601 474.299 473.355C477.132 479.266 477.995 485.669 477.748 492.319C474.299 498.599 461.119 524.582 458.04 527.168C446.954 536.28 437.099 546.747 426.26 556.352C419.731 562.139 413.942 569.158 406.181 573.345C398.544 577.409 392.878 583.32 388.074 590.339C386.719 592.186 384.995 602.16 384.748 606.101C391.523 608.44 400.638 606.101 402.24 601.298C417.391 573.099 443.505 562.016 463.583 539.974C476.64 523.473 487.356 506.234 503.616 493.427C505.463 488.871 507.434 484.807 511.746 480.867C511.869 480.744 511.992 480.62 512.115 480.497C518.151 471.139 524.803 462.026 528.867 452.421C530.838 449.343 531.947 445.402 533.918 442.324C546.236 424.715 566.314 419.42 579.248 404.15C579.248 403.534 578.755 403.165 578.262 402.796ZM499.058 422.006C494.501 424.715 494.008 430.01 490.312 432.349C497.703 412.893 523.448 413.755 536.381 398.855C529.237 414.001 512.115 414.001 499.058 422.006Z" fill="url(#paint4_linear_502_326)"/>
<path d="M661.408 268.449C668.183 262.046 675.327 256.258 681.609 249.486C684.196 246.777 687.522 244.56 689 240.743C696.514 240.496 699.101 244.683 696.144 252.072C694.173 256.874 690.971 261.061 688.261 265.494C681.979 275.715 675.697 285.935 668.675 295.787C663.379 303.298 656.85 309.948 652.909 318.444C648.597 327.926 643.67 337.162 637.881 345.782C634.678 350.584 630.86 355.017 626.302 358.588C623.222 355.263 620.513 351.569 617.187 348.614C612.629 344.55 607.456 342.58 601.297 343.072C600.311 343.072 598.956 343.811 598.34 342.334C600.065 342.58 600.927 341.348 602.036 340.363C605.608 336.915 609.18 333.468 612.752 330.02C612.999 329.773 613.122 329.65 613.368 329.404C620.02 323.616 626.671 317.706 632.83 311.179C637.758 306.007 645.025 285.812 649.829 280.517C649.952 280.517 655.865 273.744 661.408 268.449Z" fill="url(#paint5_linear_502_326)"/>
<path d="M613.614 329.281C613.368 329.527 613.245 329.65 612.999 329.896C613.245 329.65 613.368 329.527 613.614 329.281Z" fill="#FDFDFD"/>
<path d="M722.628 215.499C721.273 215.376 720.41 214.76 720.164 213.036C721.889 213.159 722.504 214.021 722.628 215.499C722.628 215.499 722.751 215.499 722.628 215.499Z" fill="#FF8F61"/>
<path d="M552.395 363.637C554.365 362.652 555.474 359.573 557.445 359.573C572.103 354.648 585.776 349.845 598.587 342.211C596.246 339.132 594.029 336.054 591.073 333.468C590.826 333.344 590.703 333.221 590.457 333.098C575.675 340.979 559.416 347.013 552.395 363.637Z" fill="#30036E"/>
<path d="M617.31 348.614C612.752 344.55 607.579 342.58 601.42 343.072C600.434 343.072 599.079 343.811 598.463 342.334C585.653 349.968 571.98 354.894 557.322 359.696C555.351 359.696 554.242 362.775 552.271 363.76C559.293 347.013 575.552 341.102 590.334 333.098C585.776 330.143 580.479 329.034 575.429 327.434C575.059 327.434 574.69 327.434 574.444 327.557C564.836 336.053 553.873 342.949 545.127 352.431C539.461 358.588 534.534 365.484 532.07 373.734C534.164 374.843 536.258 375.951 538.352 377.059C551.286 378.66 562.742 384.817 574.32 390.974C577.4 392.944 582.327 392.944 585.406 390.974C599.079 379.276 608.934 364.745 625.932 358.465C623.222 355.017 620.636 351.569 617.31 348.614Z" fill="url(#paint6_linear_502_326)"/>
<path d="M626.548 358.588C626.425 358.465 626.302 358.342 626.179 358.219C609.18 364.622 599.203 379.153 585.653 390.728C582.573 392.698 577.646 392.698 574.567 390.728C562.988 384.571 551.532 378.414 538.599 376.813C539.707 377.429 540.816 377.921 541.924 378.537C552.887 384.325 564.097 389.866 573.705 397.87C575.429 399.348 577.4 400.456 578.262 402.672C580.849 404.889 582.573 407.475 582.327 411.046C585.283 409.322 586.885 406.367 589.841 404.52C593.906 401.934 597.355 398.116 601.543 395.777C611.52 390.235 618.911 382.108 625.809 373.365C627.903 370.779 630.12 368.07 631.106 364.745C629.628 362.775 628.026 360.682 626.548 358.588Z" fill="#30036E"/>
<path d="M469.988 497.121C473.314 496.382 471.589 494.905 469.618 492.565C469.003 491.826 468.387 491.087 467.401 491.087C465.43 491.087 465.184 493.92 467.155 494.166C463.213 495.397 460.503 498.722 461.242 499.338C463.213 501.554 465.184 498.23 469.988 497.121Z" fill="#FF8F61"/>
<path d="M473.683 473.848C470.604 476.803 467.032 479.758 463.583 482.714C462.597 483.576 461.489 484.315 460.257 484.807C459.887 484.807 459.641 484.684 459.271 484.684C459.518 482.714 463.706 480.743 462.72 477.172C461.365 473.109 459.271 469.291 456.931 466.829C452.62 467.198 447.2 469.538 445.845 470.769C441.534 474.956 434.02 483.453 429.585 487.639C424.042 492.934 424.535 499.953 432.418 508.204C440.302 516.454 445.722 514.484 452.866 511.775C457.793 509.928 459.887 505.987 463.46 502.416C469.003 496.998 473.067 489.117 474.299 484.93C475.777 480.251 478.118 478.65 473.683 473.848Z" fill="url(#paint7_linear_502_326)"/>
<path d="M460.134 484.807C461.489 484.93 462.843 484.684 464.198 484.315C466.169 483.699 467.894 482.591 469.741 481.729C471.589 480.867 473.56 480.128 475.531 480.128C475.654 480.128 475.9 480.128 476.024 480.128C476.516 478.281 476.147 476.557 473.56 473.848C470.481 476.803 466.908 479.758 463.459 482.714C462.474 483.576 461.365 484.315 460.134 484.807Z" fill="#FF8F61"/>
<path d="M447.816 483.33C442.519 479.389 442.026 472.247 446.954 467.937C448.924 466.459 450.403 465.105 451.881 463.873C450.649 463.75 449.294 463.997 448.185 464.859C438.208 471.262 426.999 471.754 420.101 478.035C411.232 486.162 414.311 499.092 418.992 503.894C429.216 514.484 440.302 525.074 456.808 505.988C457.793 504.879 462.105 499.584 463.09 498.476C463.336 498.107 463.706 497.86 463.952 497.491C463.459 497.86 462.844 498.23 462.105 498.599C459.025 500.077 455.822 500.077 455.083 498.476C454.344 496.875 456.192 494.412 459.395 492.935C459.887 492.688 460.257 492.565 460.75 492.442C460.38 490.102 459.887 487.64 459.395 485.3C455.453 486.285 451.142 485.669 447.816 483.33Z" fill="#30036E"/>
<path d="M458.271 484.684C457.902 484.561 457.532 484.561 457.286 484.315C456.054 483.822 455.069 482.837 454.083 481.975C452.113 480.128 450.142 478.281 448.171 476.434C446.816 475.079 445.461 473.725 445.091 471.878C444.968 471.508 444.968 471.139 445.091 470.769C446.693 469.415 451.866 467.321 456.054 466.952C454.453 465.228 452.728 464.243 451.004 463.997C449.649 465.228 448.048 466.583 446.077 468.06C441.273 472.37 441.642 479.512 446.939 483.453C450.265 485.916 454.576 486.408 458.395 485.3C458.148 484.93 458.148 484.807 458.271 484.684Z" fill="#30036E"/>
<path d="M443.949 472.061C444.341 474.02 445.778 475.588 447.216 476.894C449.306 478.853 451.397 480.812 453.487 482.772C454.532 483.686 455.578 484.731 456.884 485.253C457.276 485.384 457.668 485.515 457.93 485.645C458.191 483.555 462.633 481.466 461.588 477.678C460.151 473.367 457.93 469.318 455.447 466.706C451.005 467.097 445.517 469.449 443.818 470.755C443.949 471.277 443.949 471.669 443.949 472.061Z" fill="#30036E"/>
<path d="M417.883 508.696C424.658 515.715 429.832 516.085 434.759 519.04C434.512 519.04 433.527 519.656 433.404 519.533C434.02 521.38 435.128 522.858 437.099 523.843C436.36 523.966 435.498 523.843 434.882 523.227C434.759 525.443 435.991 527.66 437.838 528.891C439.686 530.123 442.026 530.369 444.244 529.877C446.461 529.384 448.432 528.276 450.033 526.798C459.641 517.562 446.707 504.633 440.795 498.476C434.02 491.58 418.499 491.334 415.789 484.191C405.319 494.289 414.311 505.002 417.883 508.696Z" fill="url(#paint8_linear_502_326)"/>
<path d="M475.901 798.692C492.228 798.692 505.463 791.415 505.463 782.438C505.463 773.46 492.228 766.183 475.901 766.183C459.573 766.183 446.338 773.46 446.338 782.438C446.338 791.415 459.573 798.692 475.901 798.692Z" fill="#4B1591"/>
<path d="M495.513 333.673C494.85 331.967 493.332 331.019 492.005 329.976C484.609 323.815 475.98 319.549 467.541 315.094C465.076 313.767 462.61 312.535 460.145 311.208C462.041 304.857 465.739 299.548 470.196 294.809C476.928 287.51 485.367 282.296 492.764 275.661C492.953 275.566 493.238 275.566 493.522 275.566C497.599 276.893 501.866 277.746 505.47 280.211C507.65 282.201 509.452 284.666 511.254 286.941C511.728 288.173 512.771 287.604 513.529 287.51C518.176 287.225 522.253 288.742 525.761 291.775C528.416 294.05 530.408 296.894 532.778 299.453C534.011 301.065 535.149 302.676 536.381 304.288C535.623 306.847 533.916 308.838 532.304 310.923C526.994 317.653 521.305 323.91 513.624 328.175C510.4 329.976 507.745 332.915 504.616 334.906C502.34 336.327 501.013 338.602 498.832 339.93C498.832 337.37 497.505 335.285 495.513 333.673Z" fill="url(#paint9_linear_502_326)"/>
<path d="M536.286 304.477C535.054 302.866 533.916 301.254 532.683 299.643C536.192 296.894 539.036 293.481 541.596 289.784C546.148 283.149 549.846 276.04 553.165 268.741C556.199 262.2 561.13 257.081 565.302 251.299C570.707 243.716 575.448 235.848 580.378 227.98C582.464 224.568 584.835 221.44 586.447 217.648C588.723 212.055 586.731 208.738 580.947 208.927C581.042 207.316 581.327 205.704 580.758 203.903C576.775 207.505 573.077 210.918 569.189 214.33C563.026 219.733 558.38 226.369 553.449 233.004C552.406 234.331 543.683 247.318 539.89 253.1C537.045 258.693 529.459 267.508 525.667 272.532C524.623 273.954 523.012 275.092 522.727 277.082C522.537 277.272 522.443 277.367 522.253 277.556C519.503 280.211 516.753 282.865 514.003 285.519C513.15 286.277 512.486 287.225 511.159 287.036C509.357 284.666 507.65 282.296 505.375 280.305C505.375 279.547 505.944 279.263 506.418 278.883C511.633 274.807 517.038 271.111 522.443 267.224C526.71 264.191 530.408 260.778 532.399 255.565C535.149 247.981 539.7 241.346 545.769 235.848C549.087 232.815 552.216 229.497 555.156 226.084C561.604 218.88 565.302 210.539 565.776 200.87C567.672 198.784 567.862 196.13 567.862 193.476C572.224 197.457 577.439 196.889 582.654 196.415C584.456 196.225 586.447 196.035 587.016 193.76C587.49 191.77 588.912 190.443 590.524 189.4C592.041 188.357 593.653 187.504 595.076 186.461C595.929 185.893 596.782 185.04 595.55 184.186C593.938 183.049 592.421 181.817 590.145 182.101C588.533 182.291 586.921 182.101 585.309 181.437C587.49 179.826 589.766 179.352 592.231 181.153C592.516 181.343 593.084 181.437 593.464 181.437C596.498 180.964 599.248 182.196 601.998 183.239C601.334 184.566 600.101 185.229 598.774 185.608C596.688 186.272 595.171 187.504 594.222 189.59C592.895 192.812 590.24 194.898 587.3 196.699C585.973 197.552 584.551 196.794 583.318 197.552C582.654 198.026 581.801 198.31 581.706 199.164C581.611 200.017 582.559 200.206 583.128 200.396C587.774 201.818 592.326 202.292 596.972 200.017C599.817 198.595 601.903 196.13 604.273 194.234C605.885 192.907 606.834 191.485 606.549 189.305C607.213 189.116 607.971 190.348 608.54 189.21C608.92 188.547 609.394 187.694 608.445 186.935C608.161 186.746 608.445 186.367 608.73 186.082C610.532 187.599 610.437 191.296 608.445 193.192C607.213 194.424 605.98 195.656 604.463 196.604C601.808 198.31 600.196 200.87 599.343 203.714C598.015 208.074 595.739 211.866 592.705 215.089C586.352 222.008 581.421 229.876 576.586 237.839C571.56 246.085 565.681 253.764 559.992 261.631C557.337 265.233 555.82 269.499 553.923 273.48C549.561 282.486 544.441 291.112 539.321 299.738C538.467 301.444 537.709 303.245 536.286 304.477Z" fill="#FF8F61"/>
<path d="M565.776 200.965C565.302 210.634 561.604 218.88 555.156 226.179C552.122 229.592 549.087 232.91 545.769 235.943C539.7 241.441 535.243 248.076 532.399 255.66C530.502 260.873 526.71 264.286 522.443 267.319C517.038 271.111 511.633 274.902 506.418 278.978C505.944 279.358 505.375 279.642 505.375 280.4C501.772 277.841 497.505 277.083 493.427 275.756C495.513 272.438 498.832 270.258 501.487 267.509C507.176 261.726 514.098 257.082 518.555 250.162C521.684 245.327 524.623 240.398 527.468 235.374C530.218 230.445 534.295 226.843 538.562 223.43C547.57 216.226 556.768 209.212 565.207 201.344C565.397 201.06 565.586 201.06 565.776 200.965Z" fill="url(#paint10_linear_502_326)"/>
<path d="M585.214 181.627C586.731 182.29 588.438 182.48 590.05 182.29C592.326 182.006 593.843 183.238 595.455 184.376C596.687 185.229 595.834 186.082 594.981 186.651C593.464 187.693 591.852 188.547 590.429 189.589C588.817 190.632 587.49 191.959 586.921 193.95C586.352 196.225 584.361 196.414 582.559 196.604C577.344 197.173 572.129 197.647 567.767 193.665C567.672 192.338 568.526 191.485 569.569 191.106C573.077 189.779 575.353 187.03 577.913 184.565C579.999 182.48 582.369 181.248 585.214 181.627Z" fill="url(#paint11_linear_502_326)"/>
<path d="M608.824 186.271C608.54 186.461 608.256 186.84 608.54 187.125C609.488 187.883 609.014 188.641 608.635 189.4C608.066 190.537 607.307 189.305 606.644 189.494C606.549 188.357 605.98 187.693 604.652 187.599C604.842 188.926 605.601 189.4 606.549 189.494C606.738 191.58 605.885 193.096 604.273 194.424C601.808 196.319 599.816 198.784 596.972 200.206C592.326 202.481 587.774 202.007 583.128 200.585C582.559 200.395 581.611 200.206 581.706 199.353C581.8 198.5 582.654 198.215 583.318 197.741C584.55 196.888 585.973 197.647 587.3 196.888C590.239 195.087 592.8 193.002 594.222 189.779C595.075 187.693 596.593 186.461 598.773 185.798C600.101 185.418 601.334 184.755 601.997 183.428C604.558 183.523 607.118 183.902 608.824 186.271Z" fill="url(#paint12_linear_502_326)"/>
<path d="M461.662 364.007C460.145 366.376 459.291 369.41 457.774 371.779C454.645 379.268 449.62 386.188 444.879 393.392C447.06 391.591 453.981 386.851 458.438 384.008C462.136 381.638 465.265 378.604 467.162 374.623C467.92 373.107 468.3 371.021 469.532 370.073C475.506 365.239 480.247 359.172 485.273 353.39C489.445 348.65 494.47 344.953 498.453 340.119C498.642 337.844 497.789 336.138 496.367 334.621C486.6 346.375 471.144 350.357 461.662 364.007Z" fill="#FF8F61"/>
<path d="M408.183 375.571C401.166 373.201 394.244 374.813 388.839 379.458C378.788 388.747 373.383 401.165 362.479 410.455C352.428 418.227 349.299 431.404 342.377 442.21C341.618 444.58 342.377 446.855 341.618 449.224C337.731 457.756 333.843 465.529 329.955 473.965C329.007 476.05 327.395 476.998 325.404 477.378C326.068 478.705 327.395 478.989 329.671 478.515C333.084 477.757 333.464 475.008 334.317 472.448C335.455 468.751 336.119 464.77 338.11 461.358C338.584 460.505 339.153 459.178 340.48 459.746C341.998 460.41 340.765 461.547 340.575 462.495C340.291 464.486 338.774 466.382 339.343 468.562C339.532 469.225 339.437 470.079 340.386 470.173C341.239 470.268 341.618 469.699 341.903 469.036C343.135 466.287 344.273 463.633 345.506 460.979C346.359 459.178 346.359 457.282 345.79 455.386C345.032 452.637 344.273 449.793 344.937 446.855C349.488 441.451 352.902 435.29 357.359 429.792C361.151 425.147 365.134 420.502 367.979 415.289C371.392 408.938 377.366 405.715 382.581 401.544C404.674 383.628 399.459 382.112 405.717 380.406C406.855 380.69 407.898 381.069 408.941 381.543C410.079 379.268 410.553 376.993 408.183 375.571Z" fill="#FF8F61"/>
<path d="M407.424 439.081C391.969 456.144 371.772 464.675 360.203 486.288C358.971 489.984 351.859 491.691 346.739 489.984C346.739 490.174 346.739 490.364 346.739 490.553C346.739 491.122 347.118 491.691 347.687 491.691C349.583 491.691 351.48 492.733 353.376 491.88C356.979 490.364 360.583 488.942 363.048 485.624C364.376 483.823 366.082 482.211 367.789 480.884C371.108 478.325 373.289 475.102 374.711 471.31C375.375 469.415 376.513 467.993 378.219 466.95C387.796 460.694 397.373 454.532 406.855 448.276C410.838 445.622 418.139 436.143 418.898 435.005C420.699 432.446 422.406 429.886 424.397 427.422C428.475 422.113 433.405 414.341 435.871 408.937C436.819 406.947 437.483 405.051 438.241 403.345C425.725 413.108 417.475 426.379 407.424 439.081Z" fill="#FF8F61"/>
<path d="M427.811 356.518C430.75 354.622 431.035 350.641 434.543 348.555C444.594 342.394 457.774 342.394 463.179 330.734C453.223 342.109 433.5 341.541 427.811 356.518Z" fill="#FF8F61"/>
<path d="M495.513 333.673C494.85 331.967 493.332 331.019 492.005 329.976C484.609 323.815 475.98 319.549 467.541 315.094C465.076 313.767 462.61 312.535 460.145 311.208C458.154 313.009 457.016 315.473 456.162 317.938C453.318 325.9 447.344 329.976 439.664 331.967C434.828 333.199 430.087 334.337 425.44 336.233C420.51 338.318 415.863 340.783 411.976 344.574C405.338 351.115 399.459 358.319 393.486 365.523C391.779 367.609 390.072 369.694 387.986 371.4C384.193 374.528 380.59 377.751 376.892 380.974C370.823 386.188 366.556 392.918 360.867 398.511C354.799 404.483 350.721 411.687 346.928 419.175C344.747 423.441 343.041 427.896 341.049 432.257C338.774 437.281 335.645 441.925 332.895 446.76C331.188 449.698 329.386 452.542 327.869 455.67C325.878 459.651 326.163 464.201 325.499 468.467C325.214 470.552 325.119 472.638 325.025 474.723C324.93 475.861 325.119 476.809 325.404 477.472C327.395 477.093 329.102 476.145 329.955 474.06C333.843 465.529 337.731 457.756 341.618 449.319C342.377 446.949 341.618 444.674 342.377 442.305C349.394 431.498 352.428 418.322 362.479 410.549C373.289 401.26 378.788 388.842 388.839 379.552C393.012 375.95 398.132 374.244 403.442 374.718C402.114 376.803 400.597 378.604 398.132 380.879C399.459 381.069 400.787 381.922 402.02 383.154C403.821 385.05 405.433 387.894 406.476 391.117C407.14 393.771 404.011 395.288 403.821 396.804C403.821 396.899 403.821 396.994 403.821 397.184C404.011 397.089 404.295 396.994 404.485 396.994C404.485 396.994 404.485 396.994 404.58 396.994C405.528 396.615 406.381 396.141 407.14 395.383C409.795 393.013 412.545 390.738 414.915 388.558C415.105 388.368 415.295 388.178 415.484 387.989C417.665 392.539 418.329 397.468 418.139 402.587C415.484 407.421 405.338 427.422 402.968 429.413C394.434 436.427 386.848 444.485 378.504 451.879C373.478 456.334 369.022 461.737 363.048 464.96C357.169 468.088 352.807 472.638 349.109 478.041C348.066 479.463 346.739 487.141 346.549 490.174C351.764 491.975 358.781 490.174 360.014 486.478C371.677 464.77 391.779 456.239 407.235 439.271C417.286 426.569 425.535 413.298 438.052 403.44C439.474 399.933 440.991 396.804 444.31 393.771C444.405 393.676 444.499 393.582 444.594 393.487C449.241 386.283 454.361 379.268 457.49 371.874C459.007 369.504 459.861 366.471 461.378 364.101C470.86 350.546 486.316 346.47 496.272 334.716C496.272 334.242 495.893 333.958 495.513 333.673ZM434.543 348.461C431.035 350.546 430.656 354.622 427.811 356.423C433.5 341.446 453.318 342.11 463.274 330.64C457.774 342.299 444.594 342.299 434.543 348.461Z" fill="url(#paint13_linear_502_326)"/>
<path d="M559.518 230.256C564.733 225.326 570.233 220.871 575.068 215.658C577.06 213.572 579.62 211.866 580.758 208.927C586.542 208.738 588.533 211.961 586.257 217.648C584.74 221.345 582.275 224.568 580.189 227.981C575.353 235.848 570.517 243.716 565.112 251.299C561.035 257.082 556.009 262.2 552.975 268.741C549.656 276.04 545.863 283.149 541.407 289.785C538.942 293.482 536.002 296.894 532.494 299.643C530.123 297.084 528.037 294.24 525.477 291.965C521.968 288.837 517.986 287.32 513.245 287.699C512.486 287.699 511.443 288.268 510.969 287.131C512.297 287.32 512.96 286.372 513.814 285.614C516.564 282.96 519.314 280.306 522.063 277.651C522.253 277.462 522.348 277.367 522.537 277.177C527.658 272.722 532.778 268.172 537.519 263.148C541.312 259.167 546.907 243.621 550.605 239.545C550.699 239.545 555.251 234.332 559.518 230.256Z" fill="url(#paint14_linear_502_326)"/>
<path d="M522.727 277.083C522.537 277.272 522.442 277.367 522.253 277.556C522.442 277.367 522.537 277.272 522.727 277.083Z" fill="#FDFDFD"/>
<path d="M606.643 189.495C605.6 189.4 604.937 188.926 604.747 187.599C606.075 187.694 606.549 188.357 606.643 189.495C606.643 189.495 606.738 189.495 606.643 189.495Z" fill="#FF8F61"/>
<path d="M475.601 303.529C477.118 302.771 477.971 300.401 479.488 300.401C490.772 296.61 501.297 292.913 511.159 287.036C509.357 284.666 507.65 282.296 505.375 280.305C505.185 280.211 505.09 280.116 504.901 280.021C493.522 286.088 481.006 290.732 475.601 303.529Z" fill="black"/>
<path d="M525.572 291.965C522.063 288.837 518.081 287.32 513.34 287.699C512.581 287.699 511.538 288.268 511.064 287.13C501.203 293.008 490.677 296.799 479.394 300.496C477.877 300.496 477.023 302.866 475.506 303.624C480.911 290.733 493.427 286.183 504.806 280.021C501.297 277.746 497.22 276.893 493.332 275.661C493.048 275.661 492.763 275.661 492.574 275.755C485.178 282.296 476.739 287.604 470.006 294.903C465.645 299.643 461.852 304.951 459.955 311.302C461.567 312.155 463.179 313.009 464.791 313.862C474.747 315.094 483.566 319.834 492.479 324.573C494.85 326.09 498.642 326.09 501.013 324.573C511.538 315.568 519.124 304.383 532.209 299.548C530.123 296.894 528.132 294.24 525.572 291.965Z" fill="url(#paint15_linear_502_326)"/>
<path d="M532.683 299.643C532.589 299.548 532.494 299.453 532.399 299.358C519.314 304.288 511.633 315.473 501.203 324.383C498.832 325.9 495.039 325.9 492.669 324.383C483.756 319.644 474.937 314.904 464.981 313.672C465.834 314.146 466.688 314.525 467.541 314.999C475.98 319.454 484.609 323.72 492.005 329.881C493.333 331.019 494.85 331.872 495.513 333.578C497.505 335.284 498.832 337.275 498.643 340.024C500.918 338.697 502.151 336.422 504.427 335C507.556 333.009 510.211 330.071 513.435 328.27C521.115 324.004 526.804 317.748 532.114 311.018C533.726 309.027 535.433 306.942 536.192 304.382C535.054 302.866 533.821 301.254 532.683 299.643Z" fill="black"/>
<path d="M412.165 406.283C414.725 405.715 413.398 404.577 411.881 402.776C411.407 402.207 410.933 401.639 410.174 401.639C408.657 401.639 408.467 403.819 409.984 404.008C406.95 404.956 404.864 407.516 405.433 407.99C406.95 409.696 408.467 407.137 412.165 406.283Z" fill="#FF8F61"/>
<path d="M415.01 388.368C412.64 390.643 409.89 392.918 407.235 395.193C406.476 395.857 405.623 396.425 404.675 396.804C404.39 396.804 404.2 396.71 403.916 396.71C404.106 395.193 407.33 393.676 406.571 390.927C405.528 387.799 403.916 384.861 402.114 382.965C398.796 383.249 394.624 385.05 393.58 385.998C390.262 389.221 384.478 395.762 381.064 398.985C376.797 403.061 377.176 408.464 383.245 414.815C389.314 421.166 393.486 419.649 398.985 417.564C402.778 416.142 404.39 413.109 407.14 410.36C411.407 406.189 414.536 400.122 415.484 396.899C416.622 393.297 418.424 392.065 415.01 388.368Z" fill="url(#paint16_linear_502_326)"/>
<path d="M404.58 396.805C405.623 396.899 406.666 396.71 407.709 396.425C409.226 395.952 410.553 395.098 411.976 394.435C413.398 393.771 414.915 393.203 416.432 393.203C416.527 393.203 416.717 393.203 416.812 393.203C417.191 391.781 416.906 390.454 414.915 388.368C412.545 390.643 409.795 392.918 407.14 395.193C406.381 395.857 405.528 396.425 404.58 396.805Z" fill="#FF8F61"/>
<path d="M395.097 395.667C391.02 392.634 390.641 387.136 394.434 383.818C395.951 382.681 397.089 381.638 398.227 380.69C397.278 380.595 396.235 380.785 395.382 381.448C387.701 386.377 379.073 386.757 373.763 391.591C366.936 397.847 369.306 407.8 372.909 411.497C380.779 419.649 389.313 427.801 402.019 413.109C402.778 412.256 406.097 408.179 406.855 407.326C407.045 407.042 407.329 406.852 407.519 406.568C407.14 406.852 406.666 407.137 406.097 407.421C403.726 408.559 401.261 408.559 400.692 407.326C400.123 406.094 401.545 404.198 404.011 403.061C404.39 402.871 404.674 402.776 405.054 402.682C404.769 400.881 404.39 398.985 404.011 397.184C400.976 397.942 397.658 397.468 395.097 395.667Z" fill="#30036E"/>
<path d="M403.146 396.71C402.862 396.615 402.577 396.615 402.388 396.425C401.439 396.046 400.681 395.288 399.922 394.624C398.405 393.202 396.888 391.781 395.371 390.359C394.328 389.316 393.285 388.273 393 386.851C392.905 386.567 392.905 386.283 393 385.998C394.233 384.956 398.215 383.344 401.439 383.06C400.207 381.733 398.879 380.974 397.552 380.785C396.509 381.733 395.276 382.775 393.759 383.913C390.061 387.231 390.345 392.728 394.423 395.762C396.983 397.658 400.301 398.037 403.241 397.184C403.051 396.899 403.051 396.804 403.146 396.71Z" fill="#30036E"/>
<path d="M392.121 386.993C392.423 388.501 393.529 389.707 394.635 390.713C396.245 392.221 397.854 393.729 399.463 395.238C400.268 395.941 401.072 396.746 402.078 397.148C402.38 397.249 402.682 397.349 402.883 397.45C403.084 395.841 406.504 394.232 405.699 391.316C404.593 387.998 402.883 384.881 400.972 382.87C397.552 383.172 393.328 384.982 392.02 385.987C392.121 386.389 392.121 386.691 392.121 386.993Z" fill="#30036E"/>
<path d="M372.056 415.194C377.271 420.597 381.254 420.882 385.047 423.157C384.857 423.157 384.098 423.631 384.004 423.536C384.478 424.958 385.331 426.095 386.848 426.854C386.279 426.948 385.616 426.854 385.141 426.38C385.047 428.086 385.995 429.792 387.417 430.74C388.839 431.688 390.641 431.877 392.348 431.498C394.055 431.119 395.572 430.266 396.804 429.129C404.2 422.019 394.244 412.066 389.693 407.326C384.478 402.018 372.53 401.828 370.444 396.331C362.384 404.103 369.306 412.35 372.056 415.194Z" fill="url(#paint17_linear_502_326)"/>
<path d="M416.717 638.097C429.285 638.097 439.474 632.495 439.474 625.585C439.474 618.674 429.285 613.072 416.717 613.072C404.148 613.072 393.96 618.674 393.96 625.585C393.96 632.495 404.148 638.097 416.717 638.097Z" fill="#4B1591"/>
<defs>
<linearGradient id="paint0_linear_502_326" x1="532.259" y1="369.264" x2="631.177" y2="369.264" gradientUnits="userSpaceOnUse">
<stop stop-color="#30036E"/>
<stop offset="1" stop-color="#5C15AE"/>
</linearGradient>
<linearGradient id="paint1_linear_502_326" x1="619.264" y1="276.251" x2="649.243" y2="296.376" gradientUnits="userSpaceOnUse">
<stop stop-color="#FFC99C"/>
<stop offset="0.541" stop-color="#FFB07B"/>
</linearGradient>
<linearGradient id="paint2_linear_502_326" x1="672.196" y1="215.158" x2="708.898" y2="215.158" gradientUnits="userSpaceOnUse">
<stop stop-color="#FFC99C"/>
<stop offset="0.541" stop-color="#FFB07B"/>
</linearGradient>
<linearGradient id="paint3_linear_502_326" x1="690.27" y1="219.471" x2="725.868" y2="219.471" gradientUnits="userSpaceOnUse">
<stop stop-color="#FFC99C"/>
<stop offset="0.541" stop-color="#FFB07B"/>
</linearGradient>
<linearGradient id="paint4_linear_502_326" x1="430.423" y1="467.451" x2="491.942" y2="509.187" gradientUnits="userSpaceOnUse">
<stop stop-color="#FFC99C"/>
<stop offset="0.541" stop-color="#FFB07B"/>
</linearGradient>
<linearGradient id="paint5_linear_502_326" x1="640.073" y1="291.38" x2="680.362" y2="303.63" gradientUnits="userSpaceOnUse">
<stop stop-color="#FFC99C"/>
<stop offset="0.541" stop-color="#FFB07B"/>
</linearGradient>
<linearGradient id="paint6_linear_502_326" x1="525.638" y1="365.173" x2="612.716" y2="346.724" gradientUnits="userSpaceOnUse">
<stop stop-color="#5C15AE"/>
<stop offset="1" stop-color="#30036E"/>
</linearGradient>
<linearGradient id="paint7_linear_502_326" x1="464.126" y1="502.538" x2="441.101" y2="475.601" gradientUnits="userSpaceOnUse">
<stop stop-color="#FFC99C"/>
<stop offset="0.2995" stop-color="#FFB07B"/>
<stop offset="1" stop-color="#FF8F61"/>
</linearGradient>
<linearGradient id="paint8_linear_502_326" x1="418.751" y1="517.724" x2="441.198" y2="500.853" gradientUnits="userSpaceOnUse">
<stop stop-color="#5C15AE"/>
<stop offset="1" stop-color="#30036E"/>
</linearGradient>
<linearGradient id="paint9_linear_502_326" x1="460.101" y1="307.861" x2="536.246" y2="307.861" gradientUnits="userSpaceOnUse">
<stop stop-color="#30036E"/>
<stop offset="1" stop-color="#5C15AE"/>
</linearGradient>
<linearGradient id="paint10_linear_502_326" x1="527.076" y1="236.261" x2="550.153" y2="251.753" gradientUnits="userSpaceOnUse">
<stop stop-color="#FFC99C"/>
<stop offset="0.541" stop-color="#FFB07B"/>
</linearGradient>
<linearGradient id="paint11_linear_502_326" x1="567.822" y1="189.233" x2="596.075" y2="189.233" gradientUnits="userSpaceOnUse">
<stop stop-color="#FFC99C"/>
<stop offset="0.541" stop-color="#FFB07B"/>
</linearGradient>
<linearGradient id="paint12_linear_502_326" x1="581.735" y1="192.553" x2="609.138" y2="192.553" gradientUnits="userSpaceOnUse">
<stop stop-color="#FFC99C"/>
<stop offset="0.541" stop-color="#FFB07B"/>
</linearGradient>
<linearGradient id="paint13_linear_502_326" x1="381.709" y1="383.444" x2="429.065" y2="415.572" gradientUnits="userSpaceOnUse">
<stop stop-color="#FFC99C"/>
<stop offset="0.541" stop-color="#FFB07B"/>
</linearGradient>
<linearGradient id="paint14_linear_502_326" x1="543.095" y1="247.907" x2="574.108" y2="257.337" gradientUnits="userSpaceOnUse">
<stop stop-color="#FFC99C"/>
<stop offset="0.541" stop-color="#FFB07B"/>
</linearGradient>
<linearGradient id="paint15_linear_502_326" x1="455.004" y1="304.712" x2="522.035" y2="290.51" gradientUnits="userSpaceOnUse">
<stop stop-color="#5C15AE"/>
<stop offset="1" stop-color="#30036E"/>
</linearGradient>
<linearGradient id="paint16_linear_502_326" x1="407.653" y1="410.453" x2="389.928" y2="389.717" gradientUnits="userSpaceOnUse">
<stop stop-color="#FFC99C"/>
<stop offset="0.2995" stop-color="#FFB07B"/>
<stop offset="1" stop-color="#FF8F61"/>
</linearGradient>
<linearGradient id="paint17_linear_502_326" x1="372.724" y1="422.143" x2="390.003" y2="409.157" gradientUnits="userSpaceOnUse">
<stop stop-color="#F6AE2D"/>
<stop offset="1" stop-color="#30036E"/>
</linearGradient>
</defs>
</svg>
