<?xml version="1.0" encoding="utf-8"?>
<!-- Generator: Adobe Illustrator 22.1.0, SVG Export Plug-In . SVG Version: 6.00 Build 0)  -->
<svg version="1.1" xmlns="http://www.w3.org/2000/svg" xmlns:xlink="http://www.w3.org/1999/xlink" x="0px" y="0px"
	 viewBox="0 0 1031.4 916" style="enable-background:new 0 0 1031.4 916;" xml:space="preserve">
<style type="text/css">
	.st0{opacity:0.23;fill:#FFCF4E;}
	.st1{fill:#FFE599;}
	.st2{opacity:0.64;fill:#FFCF4E;}
	.st3{fill:#FFCF4E;}
	.st4{fill:#F9A500;}
	.st5{opacity:0.18;}
	.st6{fill:#FFFFFF;}
	.st7{fill:#8551BF;}
	.st8{fill:#7035B1;}
	.st9{fill:#300C6D;}
	.st10{fill:#8552BF;}
	.st11{fill:#FBA284;}
	.st12{fill:#FAA284;}
	.st13{fill:url(#SVGID_1_);}
	.st14{fill:#FF8F61;}
	.st15{fill:#2D3436;}
	.st16{fill:#A3AFBD;}
	.st17{fill:url(#SVGID_2_);}
	.st18{fill:url(#SVGID_3_);}
	.st19{fill:#71EBB5;}
	.st20{fill:#00D38F;}
	.st21{fill:url(#SVGID_4_);}
	.st22{fill:#FF9B75;}
	.st23{fill:url(#SVGID_5_);}
	.st24{fill:url(#SVGID_6_);}
	.st25{fill:#E5E9FF;}
	.st26{fill:#F0F0FC;}
	.st27{fill:url(#SVGID_7_);}
	.st28{fill:#FCDF6A;}
	.st29{fill:url(#SVGID_8_);}
	.st30{fill:#30036E;}
	.st31{fill:url(#SVGID_9_);}
	.st32{fill:url(#SVGID_10_);}
	.st33{fill:url(#SVGID_11_);}
	.st34{fill:url(#SVGID_12_);}
	.st35{fill:url(#SVGID_13_);}
	.st36{opacity:0.39;fill:#00D38F;}
	.st37{fill:#00BC75;}
</style>
<g id="BG">
	<path class="st0" d="M180.3,855.6c-28.6-11-56.8-23.8-84.2-37.5c-11.2-5.6-25.3-11.7-33-22c-10.1-13.4-0.3-27.8,7.5-39.6
		C77.4,746,85,735.1,84,722c-1-13-7.6-24.4-14.7-35c-14.1-21-25.4-40.2-31-65.2C31.8,593,28,563.7,20.8,535
		c-6.5-26-13.7-52-17.8-78.6c-3.8-24.6-4.9-50.3,1.9-74.5c7.4-26.3,24.1-48.1,45.5-64.7c26.5-20.6,56.7-28,88.8-35.4
		c28.6-6.6,56.8-14.9,77.6-36.7c34.6-36.1,40-90.1,52.9-136.1c13.7-49,41.9-98.7,96.9-107.8c52.5-8.7,96.5,34.6,132.3,66.5
		c36.7,32.7,86.5,81.6,139.4,55.7c40.2-19.7,60.4-66.9,107.4-75.4c43.1-7.8,68,32.5,88.1,63.7c11.8,18.4,23.6,37.3,39.1,52.9
		c16.8,16.8,38,25.8,59.6,34.7c19.6,8,40.2,16.1,54.5,32.4c18.5,21.2,25.5,53.3,23.3,80.8c-5.1,63.4-60.6,109.4-64.2,173.6
		c-3.3,58.1,36.4,107.3,59.5,157.5c24.2,52.5,37.4,113.6,11.9,168.2c-26.7,57.3-87.2,98.9-150,103.8c-70.9,5.5-135.4-27-201.2-47.6
		c-30.6-9.6-62-16-94.2-15.6c-36.1,0.5-71.3,9-106,18.2c-36.6,9.6-73.3,20.5-111.1,24.1c-32.1,3-63.5-0.8-94.4-10
		C233.5,876.3,206.8,865.8,180.3,855.6z"/>
	<path class="st1" d="M126.7,289.9c55.8-23,96.4-7.2,138.7-59.8c26.2-32.4,34.2-76.5,57.6-110.6c54.4-79.1,109.3-64.7,175.3-11
		c35.3,28.7,59.5,58.7,108.9,60.9c63.2,2.8,105.8-78.7,161.2-52c15.5,7.5,16.8,41.4,31.7,53c64.5,50.1,135.3-0.1,117.7,118.9
		c-11.8,80-66.8,129.4-19,203.8c46.8,72.8,119.9,120,68.2,213.9c-100.9,183-272.6,16.6-409.1,11c-63.8-2.6-133.5,41.5-191.7,5.8
		c-26.6-16.3-39.1-48-67.3-64.8c-54.9-32.7-129.7-13.8-182.2-53.8C59.4,561.6,87,517.8,88.4,457C89.7,399.9,53.9,320,126.7,289.9z"
		/>
	<path class="st2" d="M177.4,541c0.5,5.9,1,12,1.4,18.2h163.4c0.1-13.3,0.8-23,1.6-33.7c0.8-10.4,1.6-22.3,2-39.3
		c0.2-11.6-2.1-25.8-7.5-36.9c-1.2-6.2-6.8-13.6-11.5-16.8c-19.3-7.2-29.8-17-42.8-22.5c0.1-3.2,0.1-6.4,0-9.8
		c12.6,1.3,13.8-7.3,17.1-15.5c5-12.3,5-26,8.3-40.1c1.4-5.9,1.7-12,0.7-17.9l-0.1-0.5c7.1-3.1,13.1-7.1,16.2-12.2
		c1.8-3.1,3.4-6.5,3.3-10.1c0-0.9-0.2-1.8-0.4-2.7c-0.1-0.4-0.3-0.9-0.5-1.3c-0.9-2.1-2.6-3.7-4.7-4.4c-0.2-0.1-0.5-0.1-0.7-0.2
		c-0.1,0-0.2,0-0.2,0c-0.2,0-0.4,0-0.6-0.1c-0.1,0-0.2,0-0.3,0c-0.3,0-0.6,0-0.9,0c0,0,0,0-0.1,0c-0.3,0-0.7,0-1,0
		c-0.1,0-0.1,0-0.2,0c-0.3,0-0.6,0-0.9,0.1c-0.1,0-0.2,0-0.2,0c-1.2,0.1-2.5,0.3-3.9,0.5c0,0,0,0,0,0c-7.6,1.3-17.1,3.7-20.8,1.7
		c-3.3-1.9-3.7-6.7-6.5-9.3c-2.8-2.5-6.8-4.1-10.5-3.1c-3.6,1-6.2,4.4-9.8,5.7c-5.7,2.1-11.8-1.5-17.7-2.8
		c-8.4-1.9-17.6,1.2-23.3,7.6c-5.6,6.4-7.4,16-4.5,24.1c2.3,6.2,7.2,12.2,5.8,18.7c-0.4,2-1.5,3.8-2,5.7c-1.7,6.8,3.3,13.2,6.5,19.4
		c3.4,6.6,5,14.2,4.5,21.6c-0.1,1-0.2,2.1-0.3,3.1c-0.1,0.7-0.2,1.4-0.3,2.1c-0.1,1.2-0.2,2.3,0.1,3.5c0.3,1.1,0.9,2.2,1.8,2.9
		c0.6,0.4,1.2,0.7,1.9,0.7c0.4,0,0.8-0.1,1.2-0.2c0.6-0.2,1.1-0.6,1.6-1c0.5-0.4,0.9-1,1.3-1.5c0.3-0.4,0.7-0.9,1-1.3
		c-0.3,5.9-1.3,10.6-2.8,15.8c-14.7,4.8-28,13.8-44.5,22.3c-7.8,4-13.7,10.8-16.9,18.8c-2.8,6.3-4.3,13.9-4.1,21.9l0.5,17.6
		C174.5,505.9,175.8,522.2,177.4,541z"/>
	<g>
		<path class="st3" d="M803.7,453.7c-224.2,0-224.2,0-224.2,0c0-162.6,0-162.6,0-162.6c0-61.1,49.9-110.4,112.1-110.4
			c61.8,0,112.1,49.3,112.1,110.4V453.7z"/>
		<rect x="596.3" y="353.9" class="st4" width="85" height="109.4"/>
		<polygon class="st4" points="732.6,241.5 685.5,241.5 671.1,241.5 671.1,472.7 747.3,472.7 747.3,241.5 		"/>
		<polygon class="st4" points="797.6,374.3 797.6,345.3 788.6,345.3 788.6,330.7 779.3,330.7 771.8,330.7 762.4,330.7 762.4,345.3 
			753.4,345.3 753.4,374.3 747.3,374.3 747.3,465.5 803.7,465.5 803.7,374.3 		"/>
		<path class="st3" d="M555.7,453.7c-224.2,0-224.2,0-224.2,0c0-162.6,0-162.6,0-162.6c0-61.1,49.9-110.4,112.1-110.4
			c61.8,0,112.1,49.3,112.1,110.4V453.7z"/>
		<polygon class="st4" points="400.7,272.2 400.7,262 353.7,262 353.7,272.2 339.3,272.2 339.3,453.7 415.5,453.7 415.5,272.2 		"/>
		<polygon class="st4" points="460.1,363.8 460.1,335.3 451.2,335.3 451.2,320.9 441.8,320.9 438.2,300.5 434.3,320.9 424.9,320.9 
			424.9,335.3 415.9,335.3 415.9,363.8 409.8,363.8 409.8,453.7 466.2,453.7 466.2,363.8 		"/>
		<rect x="331.4" y="362.5" class="st4" width="49.3" height="91.3"/>
		<g class="st5">
			<path class="st6" d="M762,205.2c-19.3-15.3-43.8-24.5-70.4-24.5c-1.9,0-3.9,0-5.8,0.1c-11.7,46.6-51.2,78.8-106.3,110.3
				c0,0.5,0,5.9,0,66.3c7.5-4,15.3-8,23.2-12.1C685.5,303,747.7,266.5,762,205.2z"/>
			<path class="st6" d="M527,319.2c-80.4,41.1-141,76.6-157.8,134.5c18.5,0,46,0,87,0c19.1-32.6,54.3-58,99.4-83.3v-66.1
				C546.4,309.2,536.9,314.2,527,319.2z"/>
			<path class="st6" d="M581,273.4c41.5-25.9,71.8-53.3,84.2-89.6C621.6,194.1,588.1,229.3,581,273.4z"/>
			<path class="st6" d="M509,313c16.4-8.4,32-16.6,46.6-24.7c-0.4-16-4.3-31.1-10.8-44.7c-25.1,17.4-55.4,33.7-89.2,51
				c-51.7,26.4-95.2,50.5-124.2,79.8c0,20.8,0,46.8,0,79.4c0,0,0,0,18.2,0C363.7,392.1,425.8,355.6,509,313z"/>
		</g>
		<rect x="454.8" y="421" class="st4" width="57" height="32.8"/>
		<rect x="571.6" y="278.6" class="st1" width="240" height="6.1"/>
		<rect x="571.6" y="340.4" class="st1" width="240" height="6.1"/>
		<rect x="571.6" y="402.3" class="st1" width="240" height="6.1"/>
		<rect x="688.4" y="179.2" class="st1" width="6.5" height="284.1"/>
		<rect x="323.5" y="278.6" class="st1" width="240" height="6.1"/>
		<rect x="323.5" y="340.4" class="st1" width="240" height="6.1"/>
		<rect x="323.5" y="402.3" class="st1" width="240" height="6.1"/>
		<rect x="440.3" y="179.2" class="st1" width="6.5" height="284.1"/>
	</g>
	<g>
		<path class="st2" d="M709.7,557.1C709.7,557.1,709.7,557.1,709.7,557.1l196.5,0c0.3-11.6,1.2-22.3,2.1-32.6
			c1.6-18.9,2.9-35.3,0.2-51.4l0.5-17.6c0.2-7.9-1.3-15.6-4.1-21.9c-3.1-8-9.1-14.8-16.9-18.8c-14.9-7.7-27.3-15.8-40.4-20.9
			c0.5-2.7-2.1-3.3-4.3-6.8c-0.3-3.2-0.5-6.2-2.5-7.1c-0.6-5.5-0.5-11.9,0.5-21c7.8-10.5,15.5-45.8,12.2-55.9
			c-4.8-14.6-21.8-25.4-36.2-19.9c-1.6-5.4-6.1-9.8-11.5-11.4c-1.5-0.4-3.1-0.7-3.6-2.6c-0.3-1-0.1-2.2,0.4-3.1c0,0,0,0,0-0.1
			c1.4-2.4-0.2-5.5-2.9-5.8c-2.6-0.3-5.3-0.2-7.9,0.1c0,0,0,0,0,0c0,0,0,0,0,0c-0.8,0.1-1.6,0.3-2.4,0.5c0,0-0.1,0-0.1,0
			c-0.7,0.2-1.5,0.4-2.2,0.6c-0.1,0-0.2,0.1-0.3,0.1c-0.7,0.2-1.3,0.5-1.9,0.7c-0.1,0.1-0.3,0.1-0.4,0.2c-0.7,0.3-1.5,0.7-2.2,1
			c0,0,0,0,0,0c-3.9,2.1-7.3,5.1-9.9,8.6c-1.3,1.8-2.4,3.7-3.3,5.7c-0.9,2-1.6,4.1-2,6.3c-0.4,1.8-0.5,3.7-0.6,5.6
			c-0.1,3.1,0.2,6.3,0.6,9.3c0.2,1.7,0.5,3.4,0.9,5c0.1,0.4,0.2,0.8,0.4,1.2c0.4,1.2,0.9,2.4,1.5,3.5c1.3,2.2,3,4.1,5,5.5
			c-0.2,4.4,0.2,8.8,1.2,13.2c3,12.8,3.3,25.3,7,36.6c-0.1,0.2-0.2,0.4-0.3,0.6c-0.8,1.8-0.4,3.9-0.1,5.9c1.1,6.3,2.6,13.1,7.5,17.2
			c1.6,1.3,3.5,2.3,5.4,2.9c-0.2,0.6-0.5,1.2-0.7,1.8c-0.3,0.9-0.1,2.3,0.2,3.8c-10.4,5.6-20.3,13.5-36.4,19.4
			c-4.7,3.2-10.3,10.7-11.5,16.9c-5.4,11.1-7.8,25.4-7.5,37c0.3,17.1,1.2,28.9,2,39.4c1,13.1,1.8,24.7,1.5,43.2
			C732.9,553,721.9,554.9,709.7,557.1z"/>
	</g>
</g>
<g id="grafik2">
	<g>
		<g>
			<path class="st7" d="M248.6,683.2l-43.8,157.9c-0.6,1.6-2.4,2.4-4,1.8c-1.6-0.6-2.4-2.3-1.9-3.9L236.4,679
				c1.1-3.4,4.7-5.3,8.1-4.2c3.4,1.1,5.3,4.7,4.2,8.1C248.6,683,248.6,683.1,248.6,683.2z"/>
			<path class="st8" d="M379.8,679L417.4,839c0.5,1.6-0.4,3.4-2,3.9c-1.6,0.5-3.3-0.3-3.9-1.9l-43.8-157.9c-1.3-3.3,0.4-7.1,3.8-8.3
				c3.3-1.3,7.1,0.4,8.3,3.8C379.8,678.7,379.8,678.9,379.8,679z"/>
			<path class="st8" d="M301,682l-20.5,158.5c-0.3,1.7-1.9,2.8-3.6,2.5c-1.6-0.3-2.8-1.8-2.6-3.5l13.9-159.5
				c0.4-3.5,3.6-6.1,7.2-5.7c3.5,0.4,6.1,3.6,5.7,7.2C301.1,681.8,301,681.9,301,682z"/>
			<path class="st7" d="M328,680.1l13.9,159.5c0.2,1.7-1,3.3-2.7,3.5c-1.7,0.2-3.2-0.9-3.5-2.6L315.2,682c-0.6-3.5,1.7-6.9,5.2-7.5
				c3.5-0.6,6.9,1.7,7.5,5.3C327.9,679.9,328,680,328,680.1z"/>
			<path class="st7" d="M297.7,561.3l15.2,75.8c3.8,19.2,20.7,33,40.3,33h33.7c8.3,0,13.2,9.8,7.8,16.1c-4.8,5.6-12,9.4-20.4,9.4
				H268.5c-33.9,0-59.5-22.4-62-53l-6.2-75.2c-2.1-32,20.2-49.3,50.4-49.3C274.7,518.1,288.9,533.9,297.7,561.3z"/>
			<path class="st8" d="M220.4,525.6c-5.6,7.8-8.5,18-7.7,30.5l6.2,75.2c2.5,30.6,28.1,53,62,53h105.8c3.6,0,6.9-0.7,10-1.9
				c-0.3,1.4-1,2.7-2,3.9c-4.8,5.6-12,9.4-20.4,9.4H268.5c-33.9,0-59.5-22.4-62-53l-6.2-75.2C199,547.7,207,533.5,220.4,525.6z"/>
		</g>
		<g>
			<g>
				<path class="st9" d="M338.8,639.7h-47.4c-14.9,0-27-11.8-27-26.4v-36.1h98.7l2.8,36.1C365.9,627.9,353.8,639.7,338.8,639.7z"/>
			</g>
			<g>
				<path class="st10" d="M348.7,411c1.5-1.6,3.4-2.4,5.4-2.4c5.9,0,11.1,2.3,15.6,6.9c9.9,10.1,14,29.3,13.7,43.9
					c-0.3,15.7-1.1,26.6-1.8,36.2c-1,14.2-2,26.5-1.1,49.8c-0.3,13.5-8.2,19.4-15.9,19.4c-7.7,0-15.6-5.9-15.9-19.2
					c0-17.7-1.4-31.1-2.7-44.1c-1.3-13-2.5-25.2-2.5-41c0-0.5-0.1-1.5-0.1-2.9C342.4,439.4,342.2,417.8,348.7,411z"/>
				<g>
					<path class="st11" d="M468.6,564.8c-39.8-1.8-67.6,1.3-98.9-1.4c-11.5-1-17.9-6.9-17.2-14.3l0,0c0.6-7.2,7.4-11.3,18.6-11.2
						c23.5,0.2,52.5,9.5,98.1,13C476.9,551.8,476.1,565.1,468.6,564.8z"/>
				</g>
				<g>
					<path class="st12" d="M473.8,564.6c-5.4,0.4-12.3,0.3-12.7-6.3c-0.7-11.4,15.8-18.3,22.6-18.7c5.1-0.3,8.3,3.4,8.6,8.4
						c0.2,2.3,1.6,8.4-2.3,11.4C486.1,562.3,476.2,564.5,473.8,564.6z"/>
					<g>
						<path class="st12" d="M515,551.7c-0.7,2.2-3.1,3.4-5.3,2.6l-12.6-4.2c-1.7-0.6-3.2-0.8-2.6-2.5l1.1-3.4
							c0.6-1.9,2.3-1.1,4.1-0.1L515,551.7z"/>
						<path class="st12" d="M500,546.3L500,546.3c0.1,1.8-1.3,3.4-3.1,3.5l-13.5,0.9c-2.1,0.1-3.9-1.4-4.1-3.3l0,0
							c-0.1-2,1.5-3.6,3.6-3.7l13.6-0.5C498.3,543.1,499.8,544.5,500,546.3z"/>
					</g>
					<g>
						<path class="st12" d="M512.6,555.7c-0.7,2.2-3.1,3.4-5.3,2.6l-12.6-4.2c-1.7-0.6-3.2-0.8-2.6-2.5l1.1-3.4
							c0.6-1.9,2.3-1.1,4.1-0.1L512.6,555.7z"/>
						<path class="st12" d="M497.6,550.3L497.6,550.3c0.1,1.8-1.3,3.4-3.1,3.5l-10.5,0.7c-2.1,0.1-3.9-1.4-4.1-3.3l0,0
							c-0.1-2,1.5-3.6,3.6-3.7l10.6-0.3C495.9,547.1,497.4,548.5,497.6,550.3z"/>
					</g>
					<g>
						<path class="st12" d="M509,557.8c-0.6,2.2-2.9,3.6-5.1,2.9l-8.1-1.5c-1.8-0.5-3.2-0.6-2.8-2.4l0.9-3.5c0.5-2,2.2-1.2,4.1-0.4
							L509,557.8z"/>
						<path class="st12" d="M498.5,555.3L498.5,555.3c0.1,1.8-1.2,3.4-3.1,3.6l-10.5,0.9c-2.1,0.2-4-1.3-4.1-3.3v0
							c-0.2-2,1.4-3.7,3.6-3.8l10.6-0.6C496.7,552.1,498.3,553.5,498.5,555.3z"/>
					</g>
					<g>
						<path class="st12" d="M516.9,547.3c-0.7,2.2-3,3.5-5.2,2.8l-12.7-3.8c-1.7-0.5-3.2-0.7-2.7-2.4l1-3.4c0.6-1.9,2.3-1.1,4.1-0.2
							L516.9,547.3z"/>
						<path class="st12" d="M501.9,542.3L501.9,542.3c0.1,1.8-1.3,3.4-3.1,3.5l-13.5,0.9c-2.1,0.1-3.9-1.4-4.1-3.3l0,0
							c-0.1-2,1.5-3.6,3.6-3.7l13.6-0.5C500.2,539.1,501.8,540.5,501.9,542.3z"/>
					</g>
					<g>
						<path class="st12" d="M485.8,550.6c4.5,2,10.4,4.7,13.3,0.8c0.8-1.1,0.2-2.8-1.1-3.2c-3.6-1.1-8.2-3.4-11.5-5.1
							C482.4,542.2,480.2,548.2,485.8,550.6z"/>
						<path class="st12" d="M472.8,545.3c-2.7,1.6-5.5,3.2-5.2,7.3c0.5,7,9.1,6,13.7,2.3c1.7-1.4,3.6-2.7,5.4-3.8
							c0,0,0.1-0.1,0.1-0.1c3.4-2.4,1.5-7.9-2.7-7.8C480.2,543.3,477.3,542.6,472.8,545.3z"/>
					</g>
				</g>
				<g>
					<path class="st10" d="M410.8,539.9c-15.1-2.7-28.1-5-39.7-5c-12.8-0.1-20.8,5.1-21.6,14c-0.8,9.4,7.2,16.5,20,17.6
						c17,1.5,33.1,1.3,50.2,1c11.4-0.2,23-0.3,36,0l1.8-20.6C439.5,544.9,424.4,542.3,410.8,539.9z"/>
				</g>
			</g>
			<g>
				<linearGradient id="SVGID_1_" gradientUnits="userSpaceOnUse" x1="303.0037" y1="553.9407" x2="303.0037" y2="443.9326">
					<stop  offset="0" style="stop-color:#7035B1"/>
					<stop  offset="0.9831" style="stop-color:#8552BF"/>
				</linearGradient>
				<path class="st13" d="M365.1,596.7c0.9-42.4-2.5-70.7,0.9-99.1c0.4-3.7,6.3-11.6,6.7-15.4c1.8-15.5,2.8-32.6,4-54.1
					c0.3-6-5.7-14.7-10.8-18.1c-26-9.7-34.6-24.6-58.5-24.6c-22.4,0-38.3,12.4-60.3,23.7c-9.3,4.8-15.8,13.8-17.4,24.2
					c-0.3,1.9-0.4,3.6-0.4,4.9c0,49.7,35.1,61.5,35.1,158.4H365.1z"/>
				<g>
					<path class="st8" d="M324.5,556.9c-6-10,9-27-8-31c-8-3-17-4-21-11c1.7-33-8-18-15-28c-5-7,4-20-2-27
						c-13.7-13.7-39.2-28.9-34.8-48.7c-7.5,5.1-12.6,13.1-13.9,22.2c-0.3,1.9-0.4,3.6-0.4,4.9c0,49.7,35.1,61.5,35.1,158.4h100.7
						c0.2-7.9,0.2-15.4,0.1-22.4C348.9,574.8,331.7,569.6,324.5,556.9z"/>
				</g>
			</g>
			<g>
				<path class="st14" d="M285.2,389.6c16.1,2.5,41.4,21.5,41.1,3c0.7-9.8-0.2-20.9-0.8-32.4c-0.5-9.1-7.7-17.2-16.9-18.7l0,0
					c-10.5-1.8-19.2,5.7-18.8,16.1C291.9,375.2,288.7,378.9,285.2,389.6z"/>
			</g>
			<g>
				<path class="st15" d="M363.8,583.8h-99.3c-2.1,0-3.9,1.7-3.9,3.9v6.1c0,2.1,1.7,3.9,3.9,3.9h99.3c2.1,0,3.9-1.7,3.9-3.9v-6.1
					C367.7,585.5,366,583.8,363.8,583.8z"/>
				<path class="st16" d="M342.9,595.2h-15.1c-0.9,0-1.7-0.8-1.7-1.7v-5.6c0-0.9,0.8-1.7,1.7-1.7h15.1c0.9,0,1.7,0.8,1.7,1.7v5.6
					C344.6,594.5,343.9,595.2,342.9,595.2z"/>
			</g>
			<g>
				<path class="st11" d="M453.8,631.2c-11-1.9-19.1,6.4-22.8,17.3c-19.7,58.3-14.9,102.4-20,169.8c-0.2,4.9,3.1,9.2,7.8,10
					c5,0.9,9.7-2.5,10.6-7.6c12.7-72.1,32.3-118.1,40.4-164.1C471.9,644.8,465.2,633.3,453.8,631.2L453.8,631.2z"/>
			</g>
			<path class="st9" d="M348.2,607.8c44,0,75.8,8,98.6,15c12.1,3.7,22.2,7.8,24.3,18.7c2.1,4.6,2.8,9.9,1.8,15.5
				c-3.6,20.6-9.4,40.7-16.1,63.9c-6.3,22-13.3,46.3-19.4,74.8c-0.6,2.7-3.2,4.5-6,4l-17.5-3.1c-2.6-0.5-4.4-2.8-4.3-5.4
				c0.4-8.2,0.7-16.1,1-23.9c1.3-34,2.5-64.2,10.9-97.6c-22.1,1.2-36.2,1.8-48.7,1.8h0c-2.9,0-5.7,0-8.5-0.1
				c-17.6-0.4-39-14.5-39-30.3v-15.9C325.4,615.2,335,607.8,348.2,607.8z"/>
			<g>
				
					<linearGradient id="SVGID_2_" gradientUnits="userSpaceOnUse" x1="330.8375" y1="789.4985" x2="364.9355" y2="789.4985" gradientTransform="matrix(-1 0 0 1 772.8247 0)">
					<stop  offset="1.690821e-02" style="stop-color:#421A8C"/>
					<stop  offset="0.7005" style="stop-color:#421A8C"/>
				</linearGradient>
				<path class="st17" d="M411.9,778.7l27.2,4.8c2,0.4,3.3,2.4,2.7,4.3l-2.8,9.6c-0.6,2.1-2.6,3.3-4.8,3l-23-4
					c-2-0.4-3.5-2.1-3.5-4.1l0-10.1C407.9,779.9,409.8,778.3,411.9,778.7z"/>
			</g>
			<g>
				<path class="st11" d="M355.9,629c-11.2,0-17.7,9.6-19.4,21c-9.2,60.8,3.1,103.4,9.8,170.6c0.6,4.8,4.7,8.5,9.4,8.5
					c5.1,0,9.1-4.2,9.1-9.4c0-73.2,11.3-121.9,11.3-168.7C376.2,639.2,367.6,629,355.9,629L355.9,629z"/>
			</g>
			<path class="st9" d="M282.3,607.8c34.2,0,58.8,8.1,76.5,15.1c9.9,3.9,18.1,8.2,19.2,20.1c0.8,2.5,1.2,5.2,1.2,8.1
				c0,20.9-2.2,41.7-4.7,65.7c-2.4,22.8-5,47.9-6.1,77c-0.1,2.8-2.4,5-5.2,5h-17.8c-2.6,0-4.8-2-5.1-4.5c-1-8.2-2.1-16-3.1-23.7
				c-4.7-34.4-8.8-64.9-6-100.3c-12.7,0.8-21.6,1.3-29.7,1.3c-2.3,0-4.5,0-6.6-0.1C281,671.1,264,657,264,641.3v-15.9
				C264,615.2,271.7,607.8,282.3,607.8z"/>
			<g>
				
					<linearGradient id="SVGID_3_" gradientUnits="userSpaceOnUse" x1="401.4185" y1="790.1906" x2="435.9087" y2="790.1906" gradientTransform="matrix(-1 0 0 1 772.8247 0)">
					<stop  offset="1.690821e-02" style="stop-color:#421A8C"/>
					<stop  offset="0.7005" style="stop-color:#421A8C"/>
				</linearGradient>
				<path class="st18" d="M340.3,781.5H368c2,0,3.6,1.8,3.4,3.8l-1.1,9.9c-0.2,2.1-2,3.7-4.2,3.7h-23.3c-2,0-3.8-1.5-4.1-3.5
					l-1.7-10C336.6,783.4,338.2,781.5,340.3,781.5z"/>
			</g>
			<g>
				<path class="st19" d="M474.9,841.2c1.4,2.8-0.3,8.8-0.3,8.8s-35.1,0.5-46-3.2c-2.8-1-7.5-3.9-11.9-7c-0.7-0.5-1.9-3.3-2.6-3.8
					c-1.3-1-2.2,0.3-3.3-0.5c-2.9-2.2-4.9-4-4.9-4.2c-1.5-16.2,3.2-22.2,3.2-22.2s12.7,9.2,11.4,5.1c-2.7-8.7,14.6-10.2,16.6-5.4
					C445.2,828,470.7,833.2,474.9,841.2z"/>
				<path class="st20" d="M475.6,844.7c-10.8,0.3-33.6,0.9-37.6-0.3c-16.6-4.7-25.9-14.6-32.2-20.7c0,2.2,0,4.7,0.3,7.5
					c0,0.2,2,1.9,4.9,4.2c1.1,0.9,2-0.5,3.3,0.5c0.7,0.5,1.8,3.3,2.6,3.8c4.4,3.1,9,6.1,11.9,7c10.9,3.7,46,3.2,46,3.2
					S475.5,847.3,475.6,844.7z"/>
				<g>
					<path class="st6" d="M457,827.9c0.1,0.6-1.3,0.8-3.2,0.6c-3.8-0.6-7.6-0.8-11.6-0.6c-1.9,0.1-3.5-0.3-3.6-1
						c0-0.7,1.6-1.4,3.5-1.4c3.9-0.1,7.7,0.1,11.4,0.7C455.4,826.4,456.9,827.2,457,827.9z"/>
					<path class="st6" d="M451,822.9c0.1,0.6-1.4,1-3.3,0.9c-3.8-0.2-7.6-0.1-11.5,0.3c-1.9,0.2-3.5-0.1-3.5-0.7
						c0-0.7,1.6-1.5,3.5-1.7c3.8-0.4,7.6-0.5,11.4-0.2C449.4,821.5,450.9,822.3,451,822.9z"/>
					<path class="st6" d="M445.1,818.4c0,0.7-1.4,1.1-3.3,1.2c-3.8,0-7.6,0.5-11.4,1.2c-1.9,0.4-3.4,0.2-3.4-0.5
						c0-0.7,1.6-1.7,3.4-2c3.8-0.7,7.6-1.1,11.3-1.1C443.6,817.1,445.1,817.7,445.1,818.4z"/>
				</g>
			</g>
			<g>
				<path class="st19" d="M420.4,841.8c1.7,3.2-0.3,10.1-0.3,10.1s-40.1,1-52.7-3.2c-3.3-1.1-8.6-4.4-13.6-7.9
					c-0.9-0.6-2.2-3.8-3-4.4c-1.5-1.1-2.5,0.4-3.8-0.6c-3.3-2.5-5.7-4.5-5.7-4.7c-1.9-18.5,3.4-25.5,3.4-25.5s14.6,10.4,13.1,5.8
					c-3.2-9.9,16.6-11.9,19-6.4C386.2,826.9,415.6,832.6,420.4,841.8z"/>
				<path class="st20" d="M421.2,845.8c-12.4,0.5-38.4,1.4-43.1,0.1c-19.1-5.2-29.8-16.4-37.1-23.4c0,2.5,0.1,5.4,0.4,8.6
					c0,0.2,2.4,2.2,5.7,4.7c1.3,1,2.3-0.5,3.8,0.6c0.8,0.6,2.1,3.8,3,4.4c5,3.5,10.4,6.8,13.6,7.9c12.5,4.1,52.7,3.2,52.7,3.2
					S421.1,848.7,421.2,845.8z"/>
				<g>
					<path class="st6" d="M399.8,826.7c0.1,0.7-1.5,1-3.7,0.7c-4.3-0.6-8.8-0.8-13.2-0.6c-2.2,0.1-4-0.3-4.1-1.1
						c0-0.8,1.8-1.6,3.9-1.7c4.4-0.2,8.8,0.1,13.1,0.7C397.9,825,399.7,825.9,399.8,826.7z"/>
					<path class="st6" d="M392.8,821.1c0.1,0.7-1.6,1.1-3.7,1c-4.3-0.2-8.7-0.1-13.2,0.5c-2.2,0.3-4,0-4-0.8c0-0.8,1.8-1.8,3.9-2
						c4.4-0.5,8.7-0.6,13-0.4C391,819.5,392.8,820.3,392.8,821.1z"/>
					<path class="st6" d="M386.1,815.9c0.1,0.8-1.6,1.3-3.8,1.4c-4.3,0.1-8.7,0.6-13.1,1.5c-2.2,0.4-3.9,0.3-3.9-0.6
						c0-0.8,1.8-1.9,3.9-2.4c4.3-0.9,8.7-1.3,12.9-1.4C384.3,814.4,386,815.1,386.1,815.9z"/>
				</g>
			</g>
		</g>
		<g>
			
				<linearGradient id="SVGID_4_" gradientUnits="userSpaceOnUse" x1="1210.0424" y1="314.6484" x2="1272.2655" y2="314.6484" gradientTransform="matrix(0.9928 0.1195 -0.1195 0.9928 -877.3003 -118.9965)">
				<stop  offset="0" style="stop-color:#FF8F61"/>
				<stop  offset="0.7005" style="stop-color:#FFB07B"/>
				<stop  offset="1" style="stop-color:#FFC99C"/>
			</linearGradient>
			<path class="st21" d="M350.6,312.5c0.9,5.5,0.6,11.1-0.6,16.5c-3,13-3,25.6-7.6,36.9c-3.3,8-4.3,16.5-18.1,14
				c-9.4-1.7-20.4-3.9-29.2-16.2c-5.4-7.6-16.7-22.7-0.7-40.3c16-17.6,55.5-15,55.5-15L350.6,312.5z"/>
			<path class="st22" d="M304.7,336.9c-5.2-6.2-9.7-5.5-11.6-0.1c-2,5.5,10,14.1,10,14.1L304.7,336.9z"/>
			<path class="st9" d="M292.4,339.9c-1-4.2,1.6-9.5,5.9-9.7c4.3-0.2,7.3,4.4,8,8.6c2-0.8,2.6-3.4,2.4-5.6c-0.2-2.2-1-4.3-0.5-6.4
				c0.6-2.6,2.9-4.5,5.4-5.5c2.5-1,5.2-1.1,7.8-1.5c13.5-2,37.1-7.3,44.1-19c1.7-2.8,3.1-6,3-9.3c-0.1-3.3-2-6.7-5.2-7.6
				c-5.5-1.6-22.4,4.7-27.4,1.9c-3.1-1.7-3.4-6.2-6-8.5c-2.6-2.3-6.3-3.8-9.7-2.8c-3.3,1-5.7,4-9,5.2c-5.3,1.9-10.8-1.3-16.3-2.6
				c-7.7-1.7-16.2,1.1-21.4,7s-6.8,14.8-4.1,22.2c2.1,5.7,6.7,11.2,5.3,17.2c-0.4,1.8-1.4,3.5-1.8,5.3c-1.6,6.3,3,12.1,6,17.9
				c3.6,6.9,5,15,3.9,22.7c-0.2,1.7-0.6,3.4-0.2,5.1c0.4,1.7,1.7,3.3,3.4,3.3c1.6,0,2.9-1.3,3.9-2.5c4.2-5.2,7.3-11.4,9-17.8
				c0.9-3.5,1.4-5.4-0.5-8.4C296.3,345.7,293.3,343.9,292.4,339.9z"/>
			<linearGradient id="SVGID_5_" gradientUnits="userSpaceOnUse" x1="282.3631" y1="330.6975" x2="368.4777" y2="330.6975">
				<stop  offset="1.690821e-02" style="stop-color:#421A8C"/>
				<stop  offset="0.7005" style="stop-color:#421A8C"/>
			</linearGradient>
			<path class="st23" d="M363.3,283.9c-1.8-0.5-4.9-0.2-8.3,0.4c0.6,0.2,1.1,0.4,1.5,0.7c5,4,1,10-2,14c-16,13-36,1-53,8
				c-4,1-2,9-4,11c-5,7-17,11-12,21c4,8,12,25,0,28c-0.9,0.2-1.7,0-2.5-0.4c-0.1,0.9-0.2,1.9-0.3,2.8c-0.2,1.7-0.6,3.4-0.2,5.1
				s1.7,3.3,3.4,3.3c1.6,0,2.9-1.3,3.9-2.5c4.2-5.2,7.3-11.4,9-17.8c0.9-3.5,1.4-5.4-0.5-8.4c-2.1-3.3-5-5.1-6-9.1
				c-1-4.2,1.6-9.5,5.9-9.7c4.3-0.2,7.3,4.4,8,8.6c2-0.8,2.6-3.4,2.4-5.6s-1-4.3-0.5-6.4c0.6-2.6,2.9-4.5,5.4-5.5s5.2-1.1,7.8-1.5
				c13.5-2,37.1-7.3,44.1-19c1.7-2.8,3.1-6,3-9.3S366.4,284.8,363.3,283.9z"/>
			<path class="st9" d="M352.8,313.8c6-1.1,11.6-4.2,15.6-8.7c4-4.5,6.4-10.4,6.8-16.5c0-0.2,0.2-0.3,0.4-0.3c0.2,0,0.3,0.2,0.3,0.3
				c0.2,3.2-0.4,6.3-1.5,9.3c-1.1,3-2.8,5.8-4.9,8.2c-2.2,2.4-4.7,4.3-7.6,5.8c-2.8,1.4-6,2.3-9.1,2.5c-0.2,0-0.3-0.1-0.3-0.3
				C352.6,313.9,352.7,313.8,352.8,313.8z"/>
			<path class="st9" d="M350.1,281c-2.8,1.4-5.9,2.9-9.5,2.4c-1.7-0.2-3.5-1-4.7-2.4c-1.2-1.4-1.8-3.1-2.4-4.5c-1.1-2.8-3.3-4.9-6-6
				c-2.7-1.1-6-1-8.8,0.3c-0.2,0.1-0.4,0-0.5-0.2c-0.1-0.2,0-0.4,0.1-0.5c2.7-1.9,6.4-2.4,9.7-1.3c3.3,1,6.1,3.7,7.3,6.8
				c0.7,1.5,1.1,3,2,4c0.8,1,2.1,1.7,3.5,2c2.8,0.6,6-0.3,9-1.2c0.1,0,0.3,0,0.3,0.2C350.3,280.8,350.2,280.9,350.1,281z"/>
			<path class="st9" d="M352.9,313.6c5.5,0.5,11-0.5,15.9-2.7c4.9-2.2,9.2-5.6,12.8-9.8c0.1-0.2,0.4-0.2,0.5,0
				c0.1,0.1,0.2,0.3,0.1,0.4c-1.2,2.6-3,4.9-5.2,6.9c-2.2,2-4.7,3.5-7.4,4.6c-5.3,2.3-11.4,2.9-16.9,1.3c-0.2-0.1-0.3-0.2-0.2-0.4
				C352.6,313.7,352.7,313.6,352.9,313.6z"/>
		</g>
		<path class="st6" d="M328.3,361.7h9c0,4.2-4.1,7.7-9,7.7c-4.9,0-8.9-3.4-9-7.5L328.3,361.7z"/>
	</g>
</g>
<g id="_x40_reka2">
	<g>
		<path class="st11" d="M330,557.1c-39.8,1.7-46.1,7.2-77.4,7.2c-11.6,0-18.4-5.3-18.4-12.7l0,0c0-7.2,6.4-11.9,17.5-12.8
			c23.5-1.9,32,4.9,77.7,4.4C337.2,543.3,337.6,556.7,330,557.1z"/>
	</g>
	<path class="st10" d="M228.2,462.8l-0.4-16.2c-0.3-11.8,3.4-22.8,9.9-29.4c3.9-3.9,8.4-6,13.2-6c3.3,0,6.3,1.6,8.8,4.5
		c7.5,9.1,8.7,30.6,5.5,46.3c3.5,21.2,1.6,33.7-0.4,47c-1.2,7.9-2.4,16-2.7,26.5c6.3,0.2,11.9,0.9,18.3,1.7c9.3,1.2,20.7,2.7,38.8,3
		v20.6c-13,0.9-21.9,2.3-30,3.5c-11,1.7-20.5,3.1-36.7,3.1c-1.2,0-2.3-0.1-3.4-0.2c-0.9,0.2-1.9,0.3-2.8,0.3
		c-7.7,0-15.6-5.9-15.9-19.2c0-14-1-26.3-2-38.2C227,492.6,225.7,477.6,228.2,462.8z"/>
	<g>
		<g>
			<path class="st12" d="M346.3,538.6c0,0-3.4,4.6-5,6.3c-4.5,4.7-15.3,4.9-15.7-2.8c2.4-2.8,12.5-9.1,17.1-10.4
				c0.2-0.1,10.4-0.8,14.4-1.9c1.5-0.4,2.5-0.1,2.7,1.5C360.3,534.5,351.2,537.4,346.3,538.6z"/>
		</g>
		<path class="st12" d="M332.3,556.7c-7.6,1.7-8.7-0.9-10.3-8c-1.1-4.9,0.5-6.1,6.9-9.4c5.7-3,10.1-4.8,15.3-5.9
			c5.6-1.3,11.6,15.2,7.3,17.3C345.4,553.8,334.4,556.2,332.3,556.7z"/>
		<g>
			<path class="st12" d="M371.4,541.1c1.5,1.4,1.2,3.9-0.6,4.9c-4.8,2.9-13.3,6.8-14.9,5.7l-11.8-8.5c-1.6-1.2,8.6-8.9,9.8-10.5
				l2.3-3.2c1.3-1.8,2.7-0.4,4.3,1.2L371.4,541.1z"/>
			<path class="st12" d="M359.7,530.8L359.7,530.8c0.8,1.8,0,4-1.9,4.8l-13.6,6c-2.1,0.9-4.6,0.1-5.5-1.9l0,0
				c-0.9-2,0.2-4.3,2.3-5.2l13.8-5.7C356.8,528.1,358.9,529,359.7,530.8z"/>
		</g>
		<g>
			<path class="st12" d="M360.8,534.8L360.8,534.8c0.7,1.9-0.3,3.9-2.2,4.7l-14,5.1c-2.2,0.8-4.6-0.2-5.3-2.3l0,0
				c-0.7-2,0.5-4.3,2.7-5l14.1-4.7C358,531.9,360.1,532.9,360.8,534.8z"/>
		</g>
		<g>
			<path class="st12" d="M360.1,538.1L360.1,538.1c0.7,1.9-0.3,3.9-2.2,4.7l-11.3,4.1c-2.2,0.8-4.6-0.2-5.3-2.3l0,0
				c-0.7-2,0.5-4.3,2.7-5l11.4-3.7C357.3,535.3,359.4,536.3,360.1,538.1z"/>
		</g>
		<g>
			<path class="st12" d="M359,542.7L359,542.7c0.9,1.8,0.1,4-1.7,4.8l-7.7,4c-2.1,1-4.6,0.2-5.5-1.7l0,0c-0.9-2,0-4.3,2.2-5.3
				l7.8-3.6C355.9,540.1,358.1,540.9,359,542.7z"/>
		</g>
	</g>
	<path class="st8" d="M252.5,553.9c-9,0-13-13-11-22c2-7,9-14,3-20c-12-14-3-28,2-43c4-12-9-22-7-35c1.3-7.9,4-16.7,9.3-22.6
		c-4,0.5-7.8,2.5-11.1,5.9c-6.5,6.6-10.2,17.6-9.9,29.4l0.4,16.2c-2.5,14.8-1.3,29.8,0.2,47.2c1,11.9,2,24.2,2,38.2
		c0.3,13.3,8.2,19.2,15.9,19.2c0.9,0,1.9-0.1,2.8-0.3c1.1,0.1,2.2,0.2,3.4,0.2c16.3,0,25.8-1.4,36.7-3.1c8-1.2,16.9-2.6,30-3.5v-2.3
		C297.8,550.9,275.2,553.1,252.5,553.9z"/>
</g>
<g id="grafik1">
	<g>
		<g>
			<path class="st7" d="M849,683.2l43.8,157.9c0.6,1.6,2.4,2.4,4,1.8c1.6-0.6,2.4-2.3,1.9-3.9L861.2,679c-1.1-3.4-4.7-5.3-8.1-4.2
				c-3.4,1.1-5.3,4.7-4.2,8.1C848.9,683,848.9,683.1,849,683.2z"/>
			<path class="st8" d="M717.7,679L680.2,839c-0.5,1.6,0.4,3.4,2,3.9c1.6,0.5,3.3-0.3,3.9-1.9l43.8-157.9c1.3-3.3-0.4-7.1-3.8-8.3
				c-3.3-1.3-7.1,0.4-8.3,3.8C717.8,678.7,717.7,678.9,717.7,679z"/>
			<path class="st8" d="M796.5,682L817,840.5c0.3,1.7,1.9,2.8,3.6,2.5c1.6-0.3,2.8-1.8,2.6-3.5l-13.9-159.5
				c-0.4-3.5-3.6-6.1-7.2-5.7c-3.5,0.4-6.1,3.6-5.7,7.2C796.5,681.8,796.5,681.9,796.5,682z"/>
			<path class="st7" d="M769.6,680.1l-13.9,159.5c-0.2,1.7,1,3.3,2.7,3.5c1.7,0.2,3.2-0.9,3.5-2.6L782.4,682
				c0.6-3.5-1.7-6.9-5.2-7.5c-3.5-0.6-6.9,1.7-7.5,5.3C769.6,679.9,769.6,680,769.6,680.1z"/>
			<path class="st7" d="M799.8,561.3l-15.2,75.8c-3.8,19.2-20.7,33-40.3,33h-33.7c-8.3,0-13.2,9.8-7.8,16.1c4.8,5.6,12,9.4,20.4,9.4
				H829c33.9,0,59.5-22.4,62-53l6.2-75.2c2.1-32-20.2-49.3-50.4-49.3C822.9,518.1,808.7,533.9,799.8,561.3z"/>
			<path class="st8" d="M877.1,525.6c5.6,7.8,8.5,18,7.7,30.5l-6.2,75.2c-2.5,30.6-28.1,53-62,53H710.8c-3.6,0-6.9-0.7-10-1.9
				c0.3,1.4,1,2.7,2,3.9c4.8,5.6,12,9.4,20.4,9.4H829c33.9,0,59.5-22.4,62-53l6.2-75.2C898.5,547.7,890.5,533.5,877.1,525.6z"/>
		</g>
		<g>
			<g>
				<path class="st9" d="M758.7,639.7h47.4c14.9,0,27-11.8,27-26.4v-36.1h-98.7l-2.8,36.1C731.7,627.9,743.8,639.7,758.7,639.7z"/>
			</g>
			<g>
				<path class="st6" d="M748.9,411c-1.5-1.6-3.4-2.4-5.4-2.4c-5.9,0-11.1,2.3-15.6,6.9c-9.9,10.1-14,29.3-13.7,43.9
					c0.3,15.7,1.1,26.6,1.8,36.2c1,14.2,2,26.5,1.1,49.8c0.3,13.5,8.2,19.4,15.9,19.4c7.7,0,15.6-5.9,15.9-19.2
					c0-17.7,1.4-31.1,2.7-44.1c1.3-13,2.5-25.2,2.5-41c0-0.5,0.1-1.5,0.1-2.9C755.1,439.4,755.3,417.8,748.9,411z"/>
				<g>
					<path class="st11" d="M629,564.8c39.8-1.8,67.6,1.3,98.9-1.4c11.5-1,17.9-6.9,17.2-14.3l0,0c-0.6-7.2-7.4-11.3-18.6-11.2
						c-23.5,0.2-52.5,9.5-98.1,13C620.6,551.8,621.4,565.1,629,564.8z"/>
				</g>
				<g>
					<path class="st12" d="M623.8,564.6c5.4,0.4,12.3,0.3,12.7-6.3c0.7-11.4-15.8-18.3-22.6-18.7c-5.1-0.3-8.3,3.4-8.6,8.4
						c-0.2,2.3-1.6,8.4,2.3,11.4C611.4,562.3,621.3,564.5,623.8,564.6z"/>
					<g>
						<path class="st12" d="M582.5,551.7c0.7,2.2,3.1,3.4,5.3,2.6l12.6-4.2c1.7-0.6,3.2-0.8,2.6-2.5l-1.1-3.4
							c-0.6-1.9-2.3-1.1-4.1-0.1L582.5,551.7z"/>
						<path class="st12" d="M597.6,546.3L597.6,546.3c-0.1,1.8,1.3,3.4,3.1,3.5l13.5,0.9c2.1,0.1,3.9-1.4,4.1-3.3l0,0
							c0.1-2-1.5-3.6-3.6-3.7l-13.6-0.5C599.3,543.1,597.7,544.5,597.6,546.3z"/>
					</g>
					<g>
						<path class="st12" d="M584.9,555.7c0.7,2.2,3.1,3.4,5.3,2.6l12.6-4.2c1.7-0.6,3.2-0.8,2.6-2.5l-1.1-3.4
							c-0.6-1.9-2.3-1.1-4.1-0.1L584.9,555.7z"/>
						<path class="st12" d="M600,550.3L600,550.3c-0.1,1.8,1.3,3.4,3.1,3.5l10.5,0.7c2.1,0.1,3.9-1.4,4.1-3.3l0,0
							c0.1-2-1.5-3.6-3.6-3.7l-10.6-0.3C601.7,547.1,600.1,548.5,600,550.3z"/>
					</g>
					<g>
						<path class="st12" d="M588.5,557.8c0.6,2.2,2.9,3.6,5.1,2.9l8.1-1.5c1.8-0.5,3.2-0.6,2.8-2.4l-0.9-3.5c-0.5-2-2.2-1.2-4.1-0.4
							L588.5,557.8z"/>
						<path class="st12" d="M599.1,555.3L599.1,555.3c-0.1,1.8,1.2,3.4,3.1,3.6l10.5,0.9c2.1,0.2,4-1.3,4.1-3.3v0
							c0.2-2-1.4-3.7-3.6-3.8l-10.6-0.6C600.8,552.1,599.2,553.5,599.1,555.3z"/>
					</g>
					<g>
						<path class="st12" d="M580.7,547.3c0.7,2.2,3,3.5,5.2,2.8l12.7-3.8c1.7-0.5,3.2-0.7,2.7-2.4l-1-3.4c-0.6-1.9-2.3-1.1-4.1-0.2
							L580.7,547.3z"/>
						<path class="st12" d="M595.6,542.3L595.6,542.3c-0.1,1.8,1.3,3.4,3.1,3.5l13.5,0.9c2.1,0.1,3.9-1.4,4.1-3.3l0,0
							c0.1-2-1.5-3.6-3.6-3.7l-13.6-0.5C597.3,539.1,595.8,540.5,595.6,542.3z"/>
					</g>
					<g>
						<path class="st12" d="M611.8,550.6c-4.5,2-10.4,4.7-13.3,0.8c-0.8-1.1-0.2-2.8,1.1-3.2c3.6-1.1,8.2-3.4,11.5-5.1
							C615.1,542.2,617.4,548.2,611.8,550.6z"/>
						<path class="st12" d="M624.7,545.3c2.7,1.6,5.5,3.2,5.2,7.3c-0.5,7-9.1,6-13.7,2.3c-1.7-1.4-3.6-2.7-5.4-3.8
							c0,0-0.1-0.1-0.1-0.1c-3.4-2.4-1.5-7.9,2.7-7.8C617.4,543.3,620.3,542.6,624.7,545.3z"/>
					</g>
				</g>
				<g>
					<path class="st6" d="M686.8,539.9c15.1-2.7,28.1-5,39.7-5c12.8-0.1,20.8,5.1,21.6,14c0.8,9.4-7.2,16.5-20,17.6
						c-17,1.5-33.1,1.3-50.2,1c-11.4-0.2-23-0.3-36,0l-1.8-20.6C658.1,544.9,673.2,542.3,686.8,539.9z"/>
				</g>
			</g>
			<g>
				<linearGradient id="SVGID_6_" gradientUnits="userSpaceOnUse" x1="794.5386" y1="549.9407" x2="794.5386" y2="404.2637">
					<stop  offset="0" style="stop-color:#F0F0FC"/>
					<stop  offset="0.3853" style="stop-color:#FAFAFE"/>
					<stop  offset="0.8116" style="stop-color:#FFFFFF"/>
				</linearGradient>
				<path class="st24" d="M732.5,596.7c-0.9-42.4,2.5-70.7-0.9-99.1c-0.4-3.7-6.3-11.6-6.7-15.4c-1.8-15.5-2.8-32.6-4-54.1
					c-0.3-6,5.7-14.7,10.8-18.1c26-9.7,34.6-24.6,58.5-24.6c22.4,0,38.3,12.4,60.3,23.7c9.3,4.8,15.8,13.8,17.4,24.2
					c0.3,1.9,0.4,3.6,0.4,4.9c0,49.7-35.1,61.5-35.1,158.4H732.5z"/>
				<g>
					<path class="st25" d="M862.8,420.4c-11.4,0.9-22.4,6.9-30.2,15.5c-8,10-7,26-18,32c-8,4-16,8-22,15c-9,13,5,29-3,41
						c-12,17-41,17-42,43c-1,2-10,7-12,2c-5-12,4-24,7-36c4-12,5-24,0-33c-6.2-10.8-12.8-21.2-19.1-31.7c0.4,4.9,0.9,9.5,1.4,14
						c0.4,3.8,6.3,11.7,6.7,15.4c3.4,28.4-0.1,56.7,0.9,99.1h100.7c0-96.9,35.1-108.7,35.1-158.4c0-1.4-0.1-3.1-0.4-4.9
						C867.1,428.7,865.4,424.3,862.8,420.4z"/>
				</g>
			</g>
			<g>
				<path class="st14" d="M810.7,392.6c-17.2,9.2-24-5.5-39.5,0c-0.7-9.8,0.2-20.9,0.8-32.4c0.5-9.1,7.7-17.2,16.9-18.7l0,0
					c10.5-1.8,19.2,5.7,18.8,16.1C805.6,375.2,807.2,381.8,810.7,392.6z"/>
				<path class="st26" d="M768.2,408.6c3.6-5.7,9.5-11.4,10.9-17.1c-6.2-3-8-7.8-8.1-13.8c-2.5,0.6-4.3,6-6.2,10.9
					C763.8,392.4,769.6,403.2,768.2,408.6z"/>
				<path class="st26" d="M784.8,408.6c-3.9-5.6-5.8-11.3-5.7-17.1c11.3-3.4,26.6-9.4,27.5-14.4c2.2,0.5,2.4,3.5,2.8,6.7
					c2.4,3.8,5.3,3.8,3.4,7.8C810.3,397,796.6,406.7,784.8,408.6z"/>
			</g>
			<g>
				<path class="st15" d="M733.7,583.8H833c2.1,0,3.9,1.7,3.9,3.9v6.1c0,2.1-1.7,3.9-3.9,3.9h-99.3c-2.1,0-3.9-1.7-3.9-3.9v-6.1
					C729.8,585.5,731.6,583.8,733.7,583.8z"/>
				<path class="st16" d="M754.6,595.2h15.1c0.9,0,1.7-0.8,1.7-1.7v-5.6c0-0.9-0.8-1.7-1.7-1.7h-15.1c-0.9,0-1.7,0.8-1.7,1.7v5.6
					C752.9,594.5,753.7,595.2,754.6,595.2z"/>
			</g>
			<g>
				<path class="st11" d="M643.8,631.2c11-1.9,19.1,6.4,22.8,17.3c19.7,58.3,14.9,102.4,20,169.8c0.2,4.9-3.1,9.2-7.8,10
					c-5,0.9-9.7-2.5-10.6-7.6c-12.7-72.1-32.3-118.1-40.4-164.1C625.6,644.8,632.3,633.3,643.8,631.2L643.8,631.2z"/>
			</g>
			<path class="st9" d="M749.4,607.8c-44,0-75.8,8-98.6,15c-12.1,3.7-22.2,7.8-24.3,18.7c-2.1,4.6-2.8,9.9-1.8,15.5
				c3.6,20.6,9.4,40.7,16.1,63.9c6.3,22,13.3,46.3,19.4,74.8c0.6,2.7,3.2,4.5,6,4l17.5-3.1c2.6-0.5,4.4-2.8,4.3-5.4
				c-0.4-8.2-0.7-16.1-1-23.9c-1.3-34-2.5-64.2-10.9-97.6c22.1,1.2,36.2,1.8,48.7,1.8h0c2.9,0,5.7,0,8.5-0.1
				c17.6-0.4,39-14.5,39-30.3v-15.9C772.1,615.2,762.6,607.8,749.4,607.8z"/>
			<g>
				<linearGradient id="SVGID_7_" gradientUnits="userSpaceOnUse" x1="655.555" y1="789.4985" x2="689.6531" y2="789.4985">
					<stop  offset="1.690821e-02" style="stop-color:#421A8C"/>
					<stop  offset="0.7005" style="stop-color:#421A8C"/>
				</linearGradient>
				<path class="st27" d="M685.6,778.7l-27.2,4.8c-2,0.4-3.3,2.4-2.7,4.3l2.8,9.6c0.6,2.1,2.6,3.3,4.8,3l23-4c2-0.4,3.5-2.1,3.5-4.1
					l0-10.1C689.6,779.9,687.7,778.3,685.6,778.7z"/>
			</g>
			<g>
				<path class="st28" d="M685.5,809.4c-8.3,3.2-19.9-6.2-23.5-0.9c-2.7,3.9-5.1,8.4-9.5,12l-10.9,6.8c-3.6,1.8-7.5,2.7-11.5,2.7h-9
					c-1.7,0-3.1,1.4-3.1,3.1l0,4.7c3.9,2.3,9.3,5,16.1,5h55c1.6-8.1,1.7-15.1-1.4-20.6l0.3-10.7
					C688.2,810.1,686.9,808.9,685.5,809.4z"/>
				<path class="st4" d="M635.2,838.8l54.7,0c1,0.5,1.4,3.5,0.2,4.4l-55.9,0c-6.7,0-12.2-2.7-16.1-5c-0.6-1.2-0.7-3.8,0-4.5
					C622.3,836,628.1,838.8,635.2,838.8z"/>
			</g>
			<g>
				<path class="st11" d="M741.6,629c11.2,0,17.7,9.6,19.4,21c9.2,60.8-3.1,103.4-9.8,170.6c-0.6,4.8-4.7,8.5-9.4,8.5
					c-5.1,0-9.1-4.2-9.1-9.4c0-73.2-11.3-121.9-11.3-168.7C721.4,639.2,730,629,741.6,629L741.6,629z"/>
			</g>
			<path class="st9" d="M815.2,607.8c-34.2,0-58.8,8.1-76.5,15.1c-9.9,3.9-18.1,8.2-19.2,20.1c-0.8,2.5-1.2,5.2-1.2,8.1
				c0,20.9,2.2,41.7,4.7,65.7c2.4,22.8,5,47.9,6.1,77c0.1,2.8,2.4,5,5.2,5h17.8c2.6,0,4.8-2,5.1-4.5c1-8.2,2.1-16,3.1-23.7
				c4.7-34.4,8.8-64.9,6-100.3c12.7,0.8,21.6,1.3,29.7,1.3c2.3,0,4.5,0,6.6-0.1c13.9-0.5,30.8-14.5,30.8-30.3v-15.9
				C833.5,615.2,825.8,607.8,815.2,607.8z"/>
			<g>
				<linearGradient id="SVGID_8_" gradientUnits="userSpaceOnUse" x1="726.136" y1="790.1906" x2="760.6262" y2="790.1906">
					<stop  offset="1.690821e-02" style="stop-color:#421A8C"/>
					<stop  offset="0.7005" style="stop-color:#421A8C"/>
				</linearGradient>
				<path class="st29" d="M757.2,781.5h-27.7c-2,0-3.6,1.8-3.4,3.8l1.1,9.9c0.2,2.1,2,3.7,4.2,3.7h23.3c2,0,3.8-1.5,4.1-3.5l1.7-10
					C760.9,783.4,759.3,781.5,757.2,781.5z"/>
			</g>
			<g>
				<path class="st28" d="M753,808.9c-3.1,2.4-6.2,2.5-9.8-0.2c-1.5-1.1-3.7-2.3-6.8-2.3c-3.6,0-7.5,1.4-8.8,4.5
					c-1.6,3.8-4.2,12.4-8.3,16.2c-0.9,0.9-9,1.4-9,5.6v6.4c1.9,2.3,7.7,3.4,11.1,3.4h33.6c0.8-8.1,0.8-15.1-0.7-20.6l0.2-10.7
					C754.3,809.6,753.6,808.4,753,808.9z"/>
				<path class="st4" d="M710.2,836.6c0,0,31.7,1.6,34.2,1.6h10.8c0.5,0.5,0.7,3.5,0.1,4.4h-34c-3.4,0-9.1-0.3-11-2.7
					C709.9,838.7,709.8,837.3,710.2,836.6z"/>
			</g>
			<g>
				<path class="st25" d="M758.6,538.9C758.6,538.9,758.6,538.9,758.6,538.9c-0.6,0-1-0.5-1-1l0.6-19.1c1.1-35.6,2.4-76,16.8-111.5
					c0.2-0.5,0.8-0.8,1.3-0.5c0.5,0.2,0.8,0.8,0.5,1.3c-14.3,35.2-15.5,73.6-16.6,110.8l-0.6,19.1
					C759.6,538.5,759.2,538.9,758.6,538.9z"/>
			</g>
			<circle class="st25" cx="777" cy="425.3" r="3.2"/>
			<circle class="st25" cx="768.8" cy="468.1" r="3.2"/>
			<circle class="st25" cx="771.9" cy="444.6" r="3.2"/>
			<circle class="st25" cx="765.6" cy="516.8" r="3.2"/>
			<circle class="st25" cx="767.3" cy="492.4" r="3.2"/>
			<g>
				<path class="st30" d="M724.6,815.9c2.3-0.7,4.4-1.3,6.9-1.3c2.5,0.1,4.4,1.2,6.7,1.8c0.5,0.1,0.9-0.5,0.5-0.9
					c-3.4-3.2-10.8-3.1-14.6-0.8C723.6,815.2,723.9,816.1,724.6,815.9L724.6,815.9z"/>
			</g>
			<g>
				<path class="st30" d="M721.7,820.8c2.2-0.9,4.2-1.7,6.6-1.8c2.3-0.1,4.6,0.6,6.8,1.2c0.2,0.1,0.4-0.2,0.2-0.4
					c-3.8-3-10.3-2.8-14,0.4C721.2,820.4,721.4,820.9,721.7,820.8L721.7,820.8z"/>
			</g>
			<g>
				<path class="st30" d="M720.5,824.3c4.7-0.4,8.8-0.7,13,1.9c0.3,0.2,0.7-0.3,0.4-0.5c-3.4-3.3-9.5-5.1-13.6-2
					C720,823.8,720.1,824.3,720.5,824.3L720.5,824.3z"/>
			</g>
			<g>
				<path class="st30" d="M657.2,814.1c2.8,0.7,5.8,1.6,7.7,3.8c0.3,0.4,1-0.1,0.7-0.5c-2.1-2.8-4.5-4.9-8.2-5.2
					C656.4,812.2,656.2,813.8,657.2,814.1L657.2,814.1z"/>
			</g>
			<g>
				<path class="st30" d="M653.8,818.1c1.2,0.1,2.4,0.6,3.5,1.2c0.7,0.3,1.3,0.6,1.8,1.3c0.4,0.6,0.7,1.2,0.9,1.9
					c0.2,0.7,1.3,0.4,1.1-0.3c-0.5-1.5-1.6-3-2.6-4.2c-1.2-1.3-2.9-1.8-4.6-1.9C652.4,815.9,652.5,817.9,653.8,818.1L653.8,818.1z"
					/>
			</g>
			<g>
				<path class="st30" d="M649.6,821.1c1.3,0.9,2.6,1.4,3.8,2.6c1.2,1.2,1.6,2.8,2,4.3c0.1,0.4,0.7,0.4,0.8,0
					c0.7-3.5-2.4-8.5-6.2-8.6C649.2,819.4,648.9,820.6,649.6,821.1L649.6,821.1z"/>
			</g>
		</g>
		<g>
			
				<linearGradient id="SVGID_9_" gradientUnits="userSpaceOnUse" x1="887.6536" y1="353.4677" x2="949.8767" y2="353.4677" gradientTransform="matrix(-0.9928 0.1195 0.1195 0.9928 1650.125 -118.9965)">
				<stop  offset="0" style="stop-color:#FF8F61"/>
				<stop  offset="0.7005" style="stop-color:#FFB07B"/>
				<stop  offset="1" style="stop-color:#FFC99C"/>
			</linearGradient>
			<path class="st31" d="M747,312.5c-0.9,5.5-0.6,11.1,0.6,16.5c3,13,3,25.6,7.6,36.9c3.3,8,4.3,16.5,18.1,14
				c9.4-1.7,20.4-3.9,29.2-16.2c5.4-7.6,16.7-22.7,0.7-40.3c-16-17.6-55.5-15-55.5-15L747,312.5z"/>
			<path class="st9" d="M818.8,306.7c-4.4-13.4-20-23.3-33.3-18.3c-1.5-4.9-5.6-9-10.6-10.5c-1.3-0.4-2.8-0.6-3.3-2.3
				c-0.3-1-0.1-2,0.4-2.9c0,0,0,0,0-0.1c1.3-2.2-0.2-5.1-2.7-5.3c-5.5-0.6-11.1,0.4-16,3c-7.2,3.8-12.5,11-14,19
				c-0.9,4.5-0.6,9.2,0,13.7c0.4,3.1,1,6.2,2.5,8.9c3.9,7.1,13,9.6,21.1,9.1c8.1-0.6,15.8-3.5,23.8-4.6c3.6-0.5,8.2,0,9.2,3.5
				c1.1,3.5-4.9,9.1-2.2,11.6c9.9,9.6,12.9,21.8,12.9,27.8C814,351.4,822,316.4,818.8,306.7z"/>
			
				<linearGradient id="SVGID_10_" gradientUnits="userSpaceOnUse" x1="778.2759" y1="313.3542" x2="846.8461" y2="313.3542" gradientTransform="matrix(-1 0 0 1 1585.5966 0)">
				<stop  offset="1.690821e-02" style="stop-color:#421A8C"/>
				<stop  offset="0.7005" style="stop-color:#421A8C"/>
			</linearGradient>
			<path class="st32" d="M739.3,289.2c1.5-8,6.8-15.2,14-19c2.7-1.4,5.7-2.4,8.8-2.8c-10.3,7.7-20.4,18.1-12.4,31.2
				c12.3,19,39.2,0,50.4,15.7c8.4,11.2,6.7,27.8,7.2,44c-0.2,0.3-0.5,0.6-0.7,0.9c0-6-2.9-18.3-12.9-27.8c-2.7-2.6,3.3-8.1,2.2-11.6
				c-1-3.4-5.7-4-9.2-3.5c-8,1.1-15.7,4.1-23.8,4.6c-8.1,0.6-17.2-2-21.1-9.1c-1.5-2.7-2.1-5.8-2.5-8.9
				C738.7,298.4,738.4,293.8,739.3,289.2z"/>
			<path class="st22" d="M792.8,336.9c5.2-6.2,9.7-5.5,11.6-0.1c2,5.5-10,14.1-10,14.1L792.8,336.9z"/>
			
				<linearGradient id="SVGID_11_" gradientUnits="userSpaceOnUse" x1="786.2195" y1="369.0729" x2="832.2831" y2="369.0729" gradientTransform="matrix(-1 0 0 1 1585.5966 0)">
				<stop  offset="1.690821e-02" style="stop-color:#421A8C"/>
				<stop  offset="0.7005" style="stop-color:#421A8C"/>
			</linearGradient>
			<path class="st33" d="M782.5,359.5c-7.1,3.4-15.5-1.6-23.2-0.1c-2.3,0.4-4.6,1.6-5.5,3.7c-0.7,1.7-0.4,3.6-0.1,5.4
				c1,5.8,2.3,12,6.9,15.8c3.5,2.9,8.2,3.7,12.7,3.9c5.6,0.2,11.3-0.4,16.3-2.9c5-2.5,9-7.2,9.8-12.8c0.5-3.6-0.5-7.2-1.7-10.6
				c-1.2-3.3-2.2-7.3-3.7-10.4c-1.7-3.5-3.7-1-4.9,1.2C787.4,355.6,785.4,358.2,782.5,359.5z"/>
			<path class="st6" d="M766.1,365.2h7.7c0,4.2-3.5,7.7-7.7,7.7c-4.2,0-7.6-3.4-7.7-7.5L766.1,365.2z"/>
		</g>
		<linearGradient id="SVGID_12_" gradientUnits="userSpaceOnUse" x1="732.9144" y1="295.5268" x2="741.0921" y2="295.5268">
			<stop  offset="1.690821e-02" style="stop-color:#421A8C"/>
			<stop  offset="0.7005" style="stop-color:#421A8C"/>
		</linearGradient>
		<path class="st34" d="M738.8,313.7c-4.1-5-6.2-11.8-5.8-18.5c0.4-6.6,3.1-13.2,7.8-17.8l0.3,0.3c-3.6,5.3-5.9,11.3-6.3,17.6
			C734.4,301.6,735.9,307.9,738.8,313.7L738.8,313.7z"/>
		<path class="st9" d="M811.2,288.3c-5.2-3.2-11.4-4.5-17.2-3.4c-5.8,1.1-11,4.5-14.5,9.2l-1.4-0.9c1.7-2.7,4-5,6.7-6.7
			c2.7-1.7,5.7-2.8,8.9-3.3C800,282.3,806.6,284.2,811.2,288.3L811.2,288.3z"/>
	</g>
</g>
<g id="_x40_reka1">
	<g>
		<path class="st11" d="M767.5,557.1c39.8,1.7,46.1,7.2,77.4,7.2c11.6,0,18.4-5.3,18.4-12.7l0,0c0-7.2-6.4-11.9-17.5-12.8
			c-23.5-1.9-32,4.9-77.7,4.4C760.4,543.3,760,556.7,767.5,557.1z"/>
	</g>
	<path class="st6" d="M869.3,462.8l0.4-16.2c0.3-11.8-3.4-22.8-9.9-29.4c-3.9-3.9-8.4-6-13.2-6c-3.3,0-6.3,1.6-8.8,4.5
		c-7.5,9.1-8.7,30.6-5.5,46.3c-3.5,21.2-1.6,33.7,0.4,47c1.2,7.9,2.4,16,2.7,26.5c-6.3,0.2-11.9,0.9-18.3,1.7
		c-9.3,1.2-20.7,2.7-38.8,3v20.6c13,0.9,21.9,2.3,30,3.5c11,1.7,20.5,3.1,36.7,3.1c1.2,0,2.3-0.1,3.4-0.2c0.9,0.2,1.9,0.3,2.8,0.3
		c7.7,0,15.6-5.9,15.9-19.2c0-14,1-26.3,2-38.2C870.6,492.6,871.8,477.6,869.3,462.8z"/>
	<path class="st12" d="M773.5,548.1c0.4-5-1.3-5.9-8.2-8.4c-1.9-0.7-3.7-1.3-5.4-1.8c-2.6-1.5-5.1-2.7-6.8-3.2
		c-0.1,0-3.3-0.3-6.8-0.7l-5.4-2.3c-0.5-0.2-1.1-0.3-1.6-0.3c-1-0.4-2.2,0.6-3.5,1.6L720.5,544c0.2,0.4,0.5,0.7,0.8,1l-4.6,3.9
		c1.4,2.1,4.2,2.8,6.3,1.4l2.8-1.8l-4.3,5.3c1.7,1.9,4.6,2,6.5,0.2l4.1-3.8l-5.4,9.9c1.8,1.4,4.4,1,5.8-0.8l6.3-8.5l4.5,2.4
		c0.3,0.5,0.7,0.9,1.2,1.1c6.4,2.3,17.6,3.1,19.9,3.3C772.2,558.1,772.9,555.4,773.5,548.1z"/>
	<path class="st26" d="M869.3,462.8l0.4-16.2c0.2-6.9-1-13.5-3.3-19.1c0.1,5.8-0.8,11.7-1.8,17.4c-7,32-13,61-8,93
		c-14.2,21.6-37.5,23.6-61,24.5c4.6,0.6,8.7,1.2,12.6,1.8c11,1.7,20.5,3.1,36.7,3.1c1.2,0,2.3-0.1,3.4-0.2c0.9,0.2,1.9,0.3,2.8,0.3
		c7.7,0,15.6-5.9,15.9-19.2c0-14,1-26.3,2-38.2C870.6,492.6,871.8,477.6,869.3,462.8z"/>
</g>
<g id="stol">
	<g>
		<g>
			
				<rect x="139.2" y="572.2" transform="matrix(-1 -1.224647e-16 1.224647e-16 -1 1046.7389 1209.7975)" class="st4" width="768.4" height="65.3"/>
			
				<rect x="139.2" y="572.2" transform="matrix(-1 -1.224647e-16 1.224647e-16 -1 512.4362 1209.7975)" class="st28" width="234.1" height="65.3"/>
			<path class="st4" d="M906.9,560.1c-4.4,0-8,3.7-8,8.3v275.2c0,4.6,3.6,8.3,8,8.3c4.4,0,8-3.7,8-8.3V568.4
				C914.9,563.8,911.3,560.1,906.9,560.1z"/>
			<path class="st4" d="M373.3,560.1c-4.4,0-8,3.7-8,8.3v275.2c0,4.6,3.6,8.3,8,8.3c4.4,0,8-3.7,8-8.3V568.4
				C381.3,563.8,377.7,560.1,373.3,560.1z"/>
			<path class="st28" d="M139.9,560.1c-4.4,0-8,3.7-8,8.3v275.2c0,4.6,3.6,8.3,8,8.3s8-3.7,8-8.3V568.4
				C147.9,563.8,144.3,560.1,139.9,560.1z"/>
			<path class="st28" d="M924.5,572.2H122.3c-4.4,0-8-3.6-8-8l0,0c0-4.4,3.6-8,8-8h802.2c4.4,0,8,3.6,8,8l0,0
				C932.5,568.6,928.9,572.2,924.5,572.2z"/>
			<path class="st4" d="M365.4,572.2c9.2,0,12,31.7,9.7,40.7s-6.6,17.4-7.9,26.5c-11.9-11.5-25.5-23.8-42-24.1
				c-9.7-0.2-19.5,3.9-28.9,1.5c-8-2.1-14-8.3-20.1-13.8c-6.1-5.5-13.6-10.7-21.8-9.9c-12.5,1.3-19.7,15.8-31.8,19.1
				c-9.5,2.6-19.3-2.4-27.5-7.8S178,593,168.2,593c-5.1,0-10.1,1.7-15.2,1.7c-8.3-0.1-17.6-4.2-21.2-11.7v-10.7H365.4z"/>
		</g>
	</g>
</g>
<g id="komputery">
	<g>
		<path class="st26" d="M466.7,545.8c0,0-126-0.1-127.1,0l-33.6,3.9c-0.8,0.1-1.4,1.4-1.4,3c0,1.7,0.6,3,1.4,3h160.8
			c1.3,0,2.4-2.2,2.4-5C469.2,547.9,468,545.6,466.7,545.8z"/>
		<path class="st6" d="M339.5,545.8l-33.6,3.9c-0.8,0.1-1.4,1.4-1.4,3l0,0c0,1.7,0.6,3,1.4,3h33.7c1.3,0,2.4-2.2,2.4-5l0,0
			C342,547.9,340.9,545.6,339.5,545.8z"/>
	</g>
	<g>
		<path class="st26" d="M565.3,545.8c0,0,126-0.1,127.1,0l33.6,3.9c0.8,0.1,1.4,1.4,1.4,3c0,1.7-0.6,3-1.4,3H565.2
			c-1.3,0-2.4-2.2-2.4-5C562.8,547.9,564,545.6,565.3,545.8z"/>
		<path class="st6" d="M692.5,545.8l33.6,3.9c0.8,0.1,1.4,1.4,1.4,3l0,0c0,1.7-0.6,3-1.4,3h-33.7c-1.3,0-2.4-2.2-2.4-5l0,0
			C689.9,547.9,691.1,545.6,692.5,545.8z"/>
	</g>
	<g>
		<path class="st25" d="M347.5,377.8H515c4.8,0,8.7,3.9,8.7,8.7v126.2c0,4.8-3.9,8.7-8.7,8.7H347.5c-4.8,0-8.7-3.9-8.7-8.7V386.5
			C338.8,381.7,342.7,377.8,347.5,377.8z"/>
		<path class="st6" d="M354.1,377.8h167.5c4.8,0,8.7,3.9,8.7,8.7v126.2c0,4.8-3.9,8.7-8.7,8.7H354.1c-4.8,0-8.7-3.9-8.7-8.7V386.5
			C345.3,381.7,349.3,377.8,354.1,377.8z"/>
		<g>
			<path class="st6" d="M530.3,486.6V386.5c0-4.8-3.9-8.7-8.7-8.7H354.1c-4.8,0-8.7,3.9-8.7,8.7v16.8
				C390.6,452.6,456.5,484.3,530.3,486.6z"/>
			<linearGradient id="SVGID_13_" gradientUnits="userSpaceOnUse" x1="445.6253" y1="430.1795" x2="422.292" y2="514.8461">
				<stop  offset="0" style="stop-color:#E5E9FF"/>
				<stop  offset="1" style="stop-color:#FFFFFF"/>
			</linearGradient>
			<path class="st35" d="M345.3,403.3v109.4c0,4.8,3.9,8.7,8.7,8.7h167.5c4.8,0,8.7-3.9,8.7-8.7v-26.2
				C456.5,484.3,390.6,452.6,345.3,403.3z"/>
		</g>
	</g>
	<g>
		<path class="st20" d="M721.3,527.7l-160.6-4.3c-4.7,0-9.2-3.8-10-8.5l-26.8-124c5.3-6.8,7.8-8.1,12.5-8.1l163.9,0
			c4.7,0,9.2,3.8,10,8.5l21.4,123.5C732.5,519.6,729.5,524.1,721.3,527.7z"/>
		<path class="st19" d="M718.3,528.3H554.4c-4.7,0-9.2-3.8-10-8.5l-21.4-123.5c-0.8-4.7,2.4-8.5,7.1-8.5l163.9,0
			c4.7,0,9.2,3.8,10,8.5l21.4,123.5C726.1,524.5,723,528.3,718.3,528.3z"/>
		<g>
			<path class="st19" d="M712.2,444.3l-8.3-48.1c-0.8-4.7-5.3-8.5-10-8.5H530c-4.7,0-7.9,3.8-7.1,8.5l21.4,123.5
				c0.8,4.7,5.3,8.5,10,8.5h21.5C600.3,485.7,650.9,453.7,712.2,444.3z"/>
			<path class="st36" d="M712.2,444.3c-61.4,9.4-112,41.4-136.4,84l142.4,0c4.7,0,7.9-3.8,7.1-8.5L712.2,444.3z"/>
		</g>
	</g>
	<g>
		<path class="st37" d="M663.1,556.2h-40.2v-5h35.7c2.5,0,4.5,2,4.5,4.5V556.2z"/>
		<path class="st37" d="M635.8,458H608l-31.5,98h49.1l14.9-92.5C641,460.6,638.7,458,635.8,458z"/>
		<path class="st20" d="M636.5,458h-28.9c-2.7,0-5.1,1.7-5.9,4.3L571.6,556h49.1L636.5,458z"/>
	</g>
	<g>
		<path class="st10" d="M403.4,556.2h40.2v-5h-35.7c-2.5,0-4.5,2-4.5,4.5V556.2z"/>
		<path class="st10" d="M430.7,458h27.8l31.5,98h-49.1L426,463.5C425.5,460.6,427.8,458,430.7,458z"/>
		<path class="st25" d="M430,458h28.9c2.7,0,5.1,1.7,5.9,4.3l30.1,93.7h-49.1L430,458z"/>
	</g>
</g>
<g id="_x40_znaczki">
	<g>
		<path class="st9" d="M489.3,261.5l0.4-0.9c8.3-3.6,10.7-6.7,9.6-9.8l0-0.1c-0.9-2.5-3.4-3.4-6.9-2.2c-3.5,1.2-6.7,4.3-9.1,8.5
			l-10.7-7.2c3-6,8-11.4,16.5-14.2c10.9-3.7,20.5-0.4,23.7,9.3l0.1,0.1c3.2,9.3-1.7,15.4-9.2,20.2l0.7,5l-8.9,3L489.3,261.5z
			 M493.8,278.5l14.6-4.9l4.3,12.6l-14.6,4.9L493.8,278.5z"/>
	</g>
	<g>
		<path class="st9" d="M584.7,196.8l0.7-0.3c7.1,2.8,10.3,2.5,11.5,0l0-0.1c1-2,0-4-2.8-5.4c-2.7-1.4-6.5-1.5-10.5-0.5l-1.9-10.7
			c5.4-1.8,11.5-1.9,18.2,1.5c8.6,4.3,12.2,12.1,8.4,19.7l-0.1,0.1c-3.7,7.4-10.2,8-17.5,6.3l-2.6,3.4l-7.1-3.6L584.7,196.8z
			 M577.1,209.4l11.5,5.8l-5,9.9l-11.5-5.8L577.1,209.4z"/>
	</g>
	<g>
		<path class="st9" d="M584.8,292.9l0-0.2c1.8-7.8,8.8-13,17.1-11c8.3,2,12.1,9.7,10.3,17.4l0,0.2c-1.8,7.8-8.9,13-17.1,11
			C587,308.4,583,300.7,584.8,292.9z M634.9,290.3l10.2,2.4l-53.5,43.5l-10.2-2.4L634.9,290.3z M603,297.1l0-0.2
			c0.8-3.3-0.5-6.4-3.1-7c-2.7-0.6-5,1.5-5.8,4.8l0,0.2c-0.8,3.4,0.6,6.4,3.1,7C599.8,302.6,602.2,300.5,603,297.1z M614.2,327.3
			l0-0.2c1.8-7.8,8.8-13,17.1-11c8.3,2,12.2,9.6,10.3,17.4l0,0.2c-1.8,7.7-8.9,13-17.1,11C616.3,342.8,612.4,335,614.2,327.3z
			 M632.4,331.6l0-0.2c0.8-3.4-0.5-6.4-3.1-7c-2.7-0.6-5,1.4-5.8,4.8l0,0.2c-0.8,3.3,0.6,6.4,3.1,7
			C629.2,337,631.6,334.9,632.4,331.6z"/>
	</g>
	<g>
		<path class="st9" d="M536,106.4L536,106.4c-1.9-4.2-0.7-8.9,3.7-10.9c4.3-2,8.7,0.1,10.6,4.2l0,0.1c1.9,4.1,0.5,8.8-3.8,10.8
			C542.3,112.5,537.9,110.5,536,106.4z M557.3,87.9l5.4-2.5l-8.7,37.8l-5.4,2.5L557.3,87.9z M545.5,102L545.5,102
			c-0.8-1.8-2.5-2.7-3.8-2.1c-1.4,0.6-1.7,2.4-0.9,4.1l0,0.1c0.8,1.8,2.5,2.6,3.8,2C546,105.5,546.3,103.7,545.5,102z M561,111.5
			L561,111.5c-1.9-4.2-0.7-8.9,3.7-10.9c4.3-2,8.7,0,10.6,4.2l0,0.1c1.9,4.1,0.5,8.8-3.8,10.8C567.3,117.6,562.8,115.5,561,111.5z
			 M570.5,107.1L570.5,107.1c-0.9-1.9-2.5-2.7-3.8-2.1c-1.4,0.7-1.7,2.3-0.9,4.1l0,0.1c0.8,1.8,2.5,2.6,3.8,2
			C570.9,110.6,571.3,108.8,570.5,107.1z"/>
	</g>
</g>
</svg>
